<?xml version="1.0" encoding="utf-8"?>
<!-- Generator: Adobe Illustrator 25.0.0, SVG Export Plug-In . SVG Version: 6.00 Build 0)  -->
<svg version="1.1" id="Calque_1" xmlns="http://www.w3.org/2000/svg" xmlns:xlink="http://www.w3.org/1999/xlink" x="0px" y="0px"
	 viewBox="0 0 425.2 396.85" style="enable-background:new 0 0 425.2 396.85;" xml:space="preserve">
<style type="text/css">
	.st0{fill:#FFFFFF;}
	.st1{fill:#EC6608;}
</style>
<g>
	<path class="st0" d="M227.34,383.18c-0.57,0.79-1.22,1.42-1.96,1.91c-0.74,0.48-1.5,0.83-2.29,1.04s-1.54,0.32-2.24,0.32
		c-1.43,0-2.6-0.39-3.51-1.18c-0.91-0.79-1.37-2.18-1.37-4.18v-13.73h-1.26v13.71c0,1.63,0.26,2.93,0.79,3.89
		c0.52,0.97,1.25,1.66,2.16,2.08s1.97,0.63,3.15,0.63c1.18,0,2.33-0.22,3.45-0.66s2.11-1.09,2.97-1.97h0.15l0.11,2.29h1.11v-19.98
		h-1.26V383.18z"/>
	<path class="st0" d="M245.99,367.7c-0.93-0.42-2.01-0.63-3.23-0.63c-1.23,0-2.41,0.23-3.53,0.69c-1.12,0.46-2.12,1.13-2.98,1.99
		h-0.15l-0.11-2.39h-1.11v19.98h1.26v-15.78c0.59-0.81,1.27-1.46,2.04-1.94c0.76-0.48,1.54-0.82,2.33-1.03
		c0.79-0.2,1.53-0.31,2.22-0.31c1.53,0,2.74,0.4,3.63,1.19c0.89,0.79,1.34,2.2,1.34,4.21v13.65h1.26v-13.65
		c0-1.64-0.26-2.94-0.79-3.91C247.65,368.81,246.92,368.12,245.99,367.7z"/>
	<path class="st0" d="M263.96,367.66c-1.01-0.39-2.23-0.59-3.66-0.59c-0.88,0-1.8,0.08-2.77,0.23c-0.97,0.15-1.84,0.38-2.62,0.67
		v1.26c0.97-0.34,1.93-0.59,2.86-0.73c0.93-0.14,1.77-0.21,2.52-0.21c1.17,0,2.17,0.15,2.99,0.44s1.45,0.82,1.88,1.58
		c0.43,0.76,0.65,1.83,0.65,3.23v2.55l-5.33,0.63c-2.31,0.26-3.99,0.85-5.05,1.79c-1.06,0.93-1.59,2.23-1.59,3.89
		c0,1.67,0.52,2.95,1.57,3.87c1.05,0.91,2.46,1.37,4.24,1.37c1.23,0,2.38-0.24,3.44-0.71s1.93-1.13,2.61-1.95h0.15l0.11,2.37h1.11
		v-13.8c0-1.64-0.27-2.93-0.8-3.88S264.97,368.06,263.96,367.66z M262.94,385.69c-1.07,0.49-2.15,0.73-3.24,0.73
		c-1.49,0-2.61-0.35-3.37-1.05c-0.75-0.7-1.13-1.73-1.13-3.07c0-1.27,0.41-2.26,1.23-2.97s2.16-1.17,4-1.38l5.36-0.63v5.96
		C264.97,384.4,264.02,385.2,262.94,385.69z"/>
	<path class="st0" d="M285.47,383.18c-0.57,0.79-1.22,1.42-1.96,1.91c-0.74,0.48-1.5,0.83-2.29,1.04s-1.54,0.32-2.24,0.32
		c-1.43,0-2.6-0.39-3.51-1.18c-0.91-0.79-1.37-2.18-1.37-4.18v-13.73h-1.26v13.71c0,1.63,0.26,2.93,0.79,3.89
		c0.52,0.97,1.25,1.66,2.16,2.08s1.97,0.63,3.15,0.63c1.18,0,2.33-0.22,3.45-0.66s2.11-1.09,2.97-1.97h0.15l0.11,2.29h1.11v-19.98
		h-1.26V383.18z"/>
	<path class="st0" d="M299.98,386.46c-1.5,0-2.65-0.38-3.45-1.15c-0.79-0.76-1.19-2.07-1.19-3.92v-12.84h6.86v-1.18h-6.86v-7.4
		h-1.11l-0.15,7.4h-4.07v1.18h4.07v13.06c0,2.13,0.52,3.68,1.55,4.63c1.04,0.96,2.46,1.43,4.27,1.43c0.46,0,0.9-0.03,1.33-0.07
		c0.43-0.05,0.89-0.13,1.37-0.24v-1.26c-0.51,0.11-0.97,0.2-1.39,0.26S300.38,386.46,299.98,386.46z"/>
	<path class="st0" d="M316.96,367.7c-0.93-0.42-2-0.63-3.21-0.63c-1.22,0-2.39,0.22-3.51,0.66s-2.13,1.1-3.01,1.99h-0.11v-12.26
		h-1.26v29.89h1.26v-15.76c0.58-0.8,1.25-1.44,2-1.92c0.75-0.47,1.52-0.82,2.31-1.03c0.79-0.21,1.55-0.31,2.28-0.31
		c1.49,0,2.69,0.39,3.61,1.16c0.91,0.77,1.37,2.16,1.37,4.17v13.69h1.26v-13.67c0-1.64-0.26-2.94-0.79-3.9
		S317.89,368.12,316.96,367.7z"/>
	<path class="st0" d="M336.69,368.1c-1.17-0.68-2.53-1.03-4.09-1.03s-2.91,0.35-4.08,1.04c-1.17,0.69-2.07,1.79-2.73,3.3
		c-0.65,1.51-0.98,3.49-0.98,5.95c0,2.47,0.33,4.46,0.98,5.98c0.65,1.52,1.56,2.62,2.73,3.31c1.17,0.69,2.53,1.04,4.08,1.04
		s2.92-0.35,4.09-1.05c1.17-0.7,2.08-1.81,2.73-3.33c0.65-1.52,0.97-3.5,0.97-5.94c0-2.48-0.32-4.47-0.97-5.97
		C338.77,369.88,337.86,368.78,336.69,368.1z M338.26,382.77c-0.53,1.33-1.28,2.27-2.25,2.84c-0.97,0.57-2.11,0.85-3.41,0.85
		c-1.31,0-2.45-0.29-3.41-0.86s-1.72-1.53-2.25-2.87s-0.8-3.15-0.8-5.43c0-2.26,0.27-4.04,0.8-5.36s1.28-2.25,2.25-2.81
		c0.97-0.56,2.11-0.84,3.41-0.84c1.31,0,2.44,0.28,3.41,0.85c0.97,0.57,1.72,1.51,2.25,2.84c0.53,1.33,0.79,3.14,0.79,5.43
		C339.06,379.66,338.79,381.44,338.26,382.77z"/>
	<path class="st0" d="M353.04,367.22c-1.12,0-2.24,0.25-3.35,0.74c-1.11,0.49-2.04,1.2-2.79,2.13h-0.15l-0.11-2.72h-1.11v19.98h1.26
		v-15.46c0.51-0.76,1.11-1.4,1.81-1.9c0.7-0.5,1.44-0.87,2.21-1.11c0.77-0.24,1.51-0.36,2.21-0.36c0.31,0,0.58,0,0.82,0.01
		c0.24,0.01,0.49,0.03,0.75,0.08v-1.26c-0.25-0.05-0.49-0.08-0.73-0.1S353.35,367.22,353.04,367.22z"/>
	<path class="st0" d="M358.61,359.86c-0.33,0-0.61,0.11-0.82,0.32s-0.32,0.5-0.32,0.86c0,0.35,0.11,0.62,0.32,0.83
		s0.49,0.31,0.82,0.31s0.61-0.1,0.82-0.31s0.32-0.49,0.32-0.83c0-0.36-0.11-0.64-0.32-0.86S358.94,359.86,358.61,359.86z"/>
	<rect x="357.98" y="367.37" class="st0" width="1.26" height="19.98"/>
	<polygon class="st0" points="377.11,368.11 377.11,367.37 363.73,367.37 363.73,368.55 375.38,368.55 363.51,386.61 363.51,387.35 
		377.33,387.35 377.33,386.16 365.24,386.16 	"/>
	<path class="st0" d="M390.92,368.13c-1.07-0.7-2.34-1.05-3.82-1.05c-1.47,0-2.75,0.35-3.86,1.05s-1.97,1.81-2.59,3.32
		s-0.93,3.48-0.93,5.91c0,2.45,0.34,4.44,1.01,5.96c0.67,1.52,1.65,2.62,2.93,3.32c1.28,0.7,2.83,1.04,4.64,1.04
		c0.81,0,1.63-0.07,2.44-0.21c0.81-0.14,1.67-0.36,2.57-0.66v-1.26c-0.95,0.3-1.82,0.52-2.62,0.68c-0.79,0.15-1.57,0.23-2.32,0.23
		c-1.55,0-2.88-0.29-3.97-0.88c-1.09-0.59-1.92-1.54-2.5-2.86c-0.53-1.22-0.81-2.84-0.84-4.81h13.17v-0.56
		c0-2.43-0.29-4.4-0.86-5.91S391.98,368.83,390.92,368.13z M383.91,369.14c0.91-0.57,1.97-0.85,3.19-0.85s2.27,0.28,3.14,0.85
		c0.87,0.57,1.54,1.5,2,2.8c0.43,1.2,0.65,2.79,0.68,4.75h-11.85c0.04-1.96,0.27-3.56,0.74-4.75
		C382.3,370.64,383,369.71,383.91,369.14z"/>
	<path class="st0" d="M411.33,357.45v9.95c-0.55-0.1-1.16-0.18-1.82-0.24c-0.66-0.06-1.32-0.09-1.99-0.09
		c-2.08,0-3.84,0.38-5.26,1.14c-1.42,0.76-2.5,1.93-3.24,3.5c-0.73,1.58-1.1,3.6-1.1,6.05c0,2.43,0.34,4.37,1.02,5.82
		c0.68,1.45,1.6,2.49,2.76,3.14c1.16,0.64,2.46,0.96,3.9,0.96c1.21,0,2.3-0.24,3.26-0.72c0.97-0.48,1.75-1.08,2.36-1.81h0.15
		l0.11,2.2h1.11v-29.89H411.33z M411.33,383.33c-0.68,1.08-1.53,1.88-2.54,2.38c-1.02,0.5-2.06,0.75-3.14,0.75
		c-1.25,0-2.35-0.27-3.31-0.8s-1.72-1.44-2.27-2.72s-0.82-3.06-0.82-5.33c0-3.3,0.69-5.69,2.08-7.14c1.39-1.45,3.43-2.18,6.13-2.18
		c0.68,0,1.36,0.04,2.05,0.11c0.69,0.07,1.29,0.18,1.81,0.31V383.33z"/>
</g>
<g>
	<polygon class="st0" points="160.77,276.1 137.12,276.1 137.12,223.47 105.04,223.47 100.96,276.1 55.85,276.1 114.33,161.55 
		75.69,161.55 11.79,285.14 11.79,307.06 100.96,307.06 100.96,344.83 137.12,344.83 137.12,307.06 160.77,307.06 	"/>
	<polygon class="st0" points="387.52,160.93 331.55,199.69 331.55,237.22 373.16,208.49 373.16,344.83 413.4,344.83 413.4,160.93 	
		"/>
</g>
<path class="st1" d="M382.85,114.32V15.61c0-3.55-2.89-6.44-6.44-6.44H198.65c-3.55,0-6.44,2.89-6.44,6.44v98.71
	c0,3.55,2.89,6.44,6.44,6.44h51.42l-20.5,58.06l81.02-58.06h65.82C379.96,120.76,382.85,117.87,382.85,114.32z"/>
<g>
	<path class="st0" d="M284.86,168.98c-4.64-2.84-9.67-5.06-15.09-6.66l-60.21,43.14l15.36-43.52c-5.94,1.63-11.42,3.96-16.41,7.04
		c-10.61,6.52-18.76,16.72-24.46,30.59s-8.54,31.75-8.54,53.62c0,21.88,2.85,39.75,8.54,53.62s13.87,24.07,24.52,30.59
		c10.65,6.52,23.36,9.78,38.14,9.78c14.69,0,27.37-3.26,38.02-9.78c10.65-6.52,18.84-16.72,24.58-30.59
		c5.74-13.87,8.61-31.74,8.61-53.62c0-21.88-2.85-39.75-8.54-53.62C303.68,185.7,295.51,175.5,284.86,168.98z M274.64,289.97
		c-2.52,8.83-6.13,15.09-10.84,18.76c-4.71,3.67-10.4,5.51-17.09,5.51s-12.41-1.84-17.15-5.51c-4.75-3.67-8.36-9.97-10.84-18.89
		c-2.48-8.92-3.72-21.18-3.72-36.78c0-15.6,1.24-27.82,3.72-36.66c2.48-8.83,6.11-15.09,10.9-18.76c4.79-3.67,10.48-5.51,17.09-5.51
		c6.69,0,12.38,1.84,17.09,5.51c4.71,3.67,8.32,9.97,10.84,18.89c2.52,8.92,3.78,21.18,3.78,36.78S277.16,281.14,274.64,289.97z"/>
</g>
<g>
	<path class="st0" d="M238.29,83.51c-3.28,0-6.15-0.74-8.62-2.21c-2.47-1.47-4.4-3.83-5.77-7.07c-1.38-3.24-2.06-7.49-2.06-12.77
		c0-5.29,0.69-9.56,2.08-12.8c1.39-3.24,3.31-5.59,5.79-7.05c2.47-1.46,5.34-2.2,8.59-2.2c3.3,0,6.17,0.73,8.64,2.2
		s4.38,3.81,5.76,7.05c1.38,3.24,2.07,7.5,2.07,12.8c0,5.27-0.69,9.53-2.08,12.77s-3.31,5.59-5.79,7.07
		C244.41,82.77,241.55,83.51,238.29,83.51z M238.29,81.56c2.85,0,5.36-0.63,7.52-1.89c2.16-1.26,3.84-3.35,5.04-6.27
		c1.2-2.92,1.8-6.86,1.8-11.82c0-5.04-0.6-9.03-1.8-11.98s-2.88-5.06-5.04-6.33c-2.16-1.27-4.67-1.9-7.52-1.9s-5.35,0.63-7.5,1.89
		c-2.15,1.26-3.83,3.35-5.04,6.27c-1.21,2.92-1.82,6.86-1.82,11.82c0,5.04,0.61,9.03,1.82,11.98c1.21,2.95,2.89,5.06,5.04,6.33
		C232.94,80.93,235.44,81.56,238.29,81.56z"/>
	<path class="st0" d="M272.32,83.51c-1.86,0-3.51-0.33-4.96-0.99s-2.58-1.75-3.4-3.27c-0.82-1.52-1.24-3.56-1.24-6.12V51.58h1.98
		v21.58c0,3.14,0.72,5.33,2.15,6.57c1.43,1.24,3.28,1.86,5.53,1.86c1.1,0,2.28-0.17,3.52-0.51c1.24-0.34,2.44-0.89,3.61-1.64
		c1.16-0.76,2.19-1.75,3.08-3V51.58h1.98v31.41h-1.75l-0.17-3.61h-0.23c-1.36,1.38-2.91,2.41-4.67,3.1
		C275.98,83.16,274.18,83.51,272.32,83.51z"/>
	<path class="st0" d="M294.45,95.78v-44.2h1.75l0.2,3.52h0.2c0.97-1.18,2.21-2.14,3.74-2.88c1.52-0.74,3.22-1.1,5.1-1.1
		c2.23,0,4.26,0.48,6.09,1.45c1.83,0.97,3.29,2.59,4.36,4.87c1.08,2.28,1.61,5.37,1.61,9.26c0,3.84-0.57,7-1.72,9.48
		c-1.14,2.48-2.83,4.32-5.07,5.53s-5.01,1.8-8.3,1.8c-1.03,0-2.06-0.05-3.11-0.16s-2.01-0.22-2.88-0.33v12.77H294.45z M302.5,81.59
		c4.26,0,7.48-1.15,9.65-3.46c2.17-2.31,3.26-6.04,3.26-11.2c0-3.63-0.44-6.44-1.31-8.45c-0.87-2.01-2.07-3.42-3.59-4.23
		c-1.52-0.81-3.24-1.22-5.16-1.22c-1.67,0-3.3,0.39-4.9,1.16c-1.6,0.78-2.94,2.03-4.03,3.75v22.97c0.81,0.19,1.77,0.35,2.88,0.48
		C300.41,81.53,301.47,81.59,302.5,81.59z"/>
	<path class="st0" d="M332.04,83.51c-1.43,0-2.8-0.1-4.09-0.29s-2.56-0.49-3.82-0.9v-1.98c1.55,0.47,2.95,0.79,4.2,0.97
		c1.25,0.18,2.52,0.28,3.79,0.28c3.1,0,5.38-0.58,6.83-1.73s2.18-2.77,2.18-4.84c0-1.82-0.46-3.22-1.38-4.19s-2.47-1.69-4.64-2.15
		l-3.75-0.81c-2.81-0.66-4.8-1.68-5.96-3.05c-1.16-1.38-1.75-3.1-1.75-5.18c0-2.44,0.91-4.47,2.72-6.09s4.6-2.43,8.36-2.43
		c1.24,0,2.41,0.07,3.52,0.2c1.11,0.14,2.21,0.36,3.32,0.67v1.98c-1.28-0.37-2.44-0.62-3.49-0.74c-1.05-0.13-2.16-0.19-3.34-0.19
		c-2.15,0-3.89,0.29-5.21,0.86c-1.32,0.57-2.28,1.35-2.89,2.33s-0.92,2.09-0.92,3.33c0,1.57,0.43,2.88,1.28,3.93
		c0.85,1.05,2.36,1.81,4.51,2.3l3.75,0.81c2.97,0.66,5.03,1.67,6.19,3.02c1.16,1.36,1.75,3.1,1.75,5.23c0,2.66-0.93,4.76-2.79,6.33
		S335.77,83.51,332.04,83.51z"/>
	<path class="st0" d="M352.02,83.28c-0.52,0-0.96-0.17-1.29-0.49s-0.51-0.77-0.51-1.31c0-0.56,0.17-1.01,0.51-1.35
		c0.34-0.34,0.77-0.51,1.29-0.51c0.52,0,0.96,0.17,1.29,0.51c0.34,0.34,0.51,0.79,0.51,1.35c0,0.54-0.17,0.98-0.51,1.31
		C352.98,83.11,352.55,83.28,352.02,83.28z M351.33,73.8l-0.35-16.69V39.95h2.09V57.1l-0.35,16.69H351.33z"/>
</g>
</svg>
