<?xml version="1.0" encoding="utf-8"?>
<!-- Generator: Adobe Illustrator 25.0.0, SVG Export Plug-In . SVG Version: 6.00 Build 0)  -->
<svg version="1.1" id="Calque_1" xmlns="http://www.w3.org/2000/svg" xmlns:xlink="http://www.w3.org/1999/xlink" x="0px" y="0px"
	 viewBox="0 0 453.54 396.85" style="enable-background:new 0 0 453.54 396.85;" xml:space="preserve">
<style type="text/css">
	.st0{fill:#FFFFFF;}
	.st1{fill:#EC6608;}
</style>
<g>
	<path class="st0" d="M297.52,357.08c-1.38,0-2.53,0.23-3.46,0.69c-0.92,0.46-1.62,1.16-2.09,2.1c-0.47,0.94-0.7,2.12-0.7,3.55v3.94
		h-4.07v1.18h4.07v18.79h1.26v-18.79h6.86v-1.18h-6.86v-4c0-1.86,0.41-3.17,1.24-3.93s2.05-1.14,3.68-1.14
		c0.46,0,0.91,0.02,1.35,0.06c0.44,0.04,0.88,0.11,1.31,0.19v-1.26c-0.41-0.07-0.84-0.13-1.29-0.17S297.92,357.08,297.52,357.08z"/>
	<path class="st0" d="M312.69,368.1c-1.17-0.68-2.53-1.03-4.09-1.03s-2.91,0.35-4.08,1.04c-1.17,0.69-2.07,1.79-2.73,3.3
		c-0.65,1.51-0.98,3.49-0.98,5.95c0,2.47,0.33,4.46,0.98,5.98c0.65,1.52,1.56,2.62,2.73,3.31c1.17,0.69,2.53,1.04,4.08,1.04
		s2.92-0.35,4.09-1.05c1.17-0.7,2.08-1.81,2.73-3.33c0.65-1.52,0.97-3.5,0.97-5.94c0-2.48-0.32-4.47-0.97-5.97
		C314.77,369.88,313.86,368.78,312.69,368.1z M314.26,382.77c-0.53,1.33-1.28,2.27-2.25,2.84c-0.97,0.57-2.11,0.85-3.41,0.85
		c-1.31,0-2.45-0.29-3.41-0.86s-1.72-1.53-2.25-2.87s-0.8-3.15-0.8-5.43c0-2.26,0.27-4.04,0.8-5.36s1.28-2.25,2.25-2.81
		c0.97-0.56,2.11-0.84,3.41-0.84c1.31,0,2.44,0.28,3.41,0.85c0.97,0.57,1.72,1.51,2.25,2.84c0.53,1.33,0.79,3.14,0.79,5.43
		C315.05,379.66,314.79,381.44,314.26,382.77z"/>
	<path class="st0" d="M329.04,367.22c-1.12,0-2.24,0.25-3.35,0.74c-1.11,0.49-2.04,1.2-2.79,2.13h-0.15l-0.11-2.72h-1.11v19.98h1.26
		v-15.46c0.51-0.76,1.11-1.4,1.81-1.9c0.7-0.5,1.44-0.87,2.21-1.11c0.77-0.24,1.51-0.36,2.21-0.36c0.31,0,0.58,0,0.82,0.01
		c0.24,0.01,0.49,0.03,0.75,0.08v-1.26c-0.25-0.05-0.49-0.08-0.73-0.1S329.35,367.22,329.04,367.22z"/>
	<path class="st0" d="M344.88,368c-1.14-0.62-2.41-0.92-3.8-0.92c-1.25,0-2.36,0.23-3.33,0.69c-0.97,0.46-1.78,1.04-2.4,1.73h-0.11
		v-12.04h-1.26v29.45c0.8,0.25,1.66,0.44,2.56,0.57c0.91,0.14,1.8,0.2,2.69,0.2c3.03,0,5.36-0.87,6.98-2.6
		c1.62-1.73,2.43-4.43,2.43-8.09c0-2.48-0.34-4.44-1.03-5.89S346.02,368.61,344.88,368z M345.27,384.26
		c-1.36,1.47-3.35,2.2-5.97,2.2c-0.76,0-1.5-0.06-2.22-0.17s-1.33-0.24-1.85-0.39v-14.63c0.69-1.02,1.55-1.78,2.58-2.26
		c1.03-0.48,2.09-0.72,3.19-0.72c1.18,0,2.25,0.26,3.21,0.78c0.96,0.52,1.71,1.42,2.27,2.69c0.56,1.28,0.83,3.07,0.83,5.37
		C347.31,380.42,346.63,382.79,345.27,384.26z"/>
	<path class="st0" d="M354.41,359.86c-0.33,0-0.61,0.11-0.82,0.32s-0.32,0.5-0.32,0.86c0,0.35,0.11,0.62,0.32,0.83
		s0.49,0.31,0.82,0.31s0.61-0.1,0.82-0.31s0.32-0.49,0.32-0.83c0-0.36-0.11-0.64-0.32-0.86S354.75,359.86,354.41,359.86z"/>
	<rect x="353.79" y="367.37" class="st0" width="1.26" height="19.98"/>
	<path class="st0" d="M373.6,367.41c-0.55-0.1-1.16-0.18-1.82-0.24c-0.66-0.06-1.32-0.09-1.99-0.09c-2.08,0-3.84,0.38-5.26,1.14
		c-1.42,0.76-2.5,1.93-3.24,3.5c-0.73,1.58-1.1,3.6-1.1,6.05c0,2.43,0.34,4.37,1.02,5.82c0.68,1.45,1.6,2.49,2.76,3.14
		c1.16,0.64,2.46,0.96,3.9,0.96c1.21,0,2.3-0.24,3.26-0.72c0.97-0.48,1.75-1.08,2.36-1.81h0.15l0.11,2.2h1.11v-29.89h-1.26V367.41z
		 M373.6,383.33c-0.68,1.08-1.53,1.88-2.54,2.38c-1.02,0.5-2.06,0.75-3.14,0.75c-1.25,0-2.35-0.27-3.31-0.8s-1.72-1.44-2.27-2.72
		s-0.82-3.06-0.82-5.33c0-3.3,0.69-5.69,2.08-7.14c1.39-1.45,3.43-2.18,6.13-2.18c0.68,0,1.36,0.04,2.05,0.11
		c0.69,0.07,1.29,0.18,1.81,0.31V383.33z"/>
	<path class="st0" d="M393.41,367.41c-0.55-0.1-1.16-0.18-1.82-0.24c-0.66-0.06-1.32-0.09-1.99-0.09c-2.08,0-3.84,0.38-5.26,1.14
		c-1.42,0.76-2.5,1.93-3.24,3.5c-0.73,1.58-1.1,3.6-1.1,6.05c0,2.43,0.34,4.37,1.02,5.82c0.68,1.45,1.6,2.49,2.76,3.14
		c1.16,0.64,2.46,0.96,3.9,0.96c1.21,0,2.3-0.24,3.26-0.72c0.97-0.48,1.75-1.08,2.36-1.81h0.15l0.11,2.2h1.11v-29.89h-1.26V367.41z
		 M393.41,383.33c-0.68,1.08-1.53,1.88-2.54,2.38c-1.02,0.5-2.06,0.75-3.14,0.75c-1.25,0-2.35-0.27-3.31-0.8s-1.72-1.44-2.27-2.72
		s-0.82-3.06-0.82-5.33c0-3.3,0.69-5.69,2.08-7.14c1.39-1.45,3.43-2.18,6.13-2.18c0.68,0,1.36,0.04,2.05,0.11
		c0.69,0.07,1.29,0.18,1.81,0.31V383.33z"/>
	<path class="st0" d="M411.01,368.13c-1.07-0.7-2.34-1.05-3.82-1.05c-1.47,0-2.75,0.35-3.86,1.05s-1.97,1.81-2.59,3.32
		s-0.93,3.48-0.93,5.91c0,2.45,0.34,4.44,1.01,5.96c0.67,1.52,1.65,2.62,2.93,3.32c1.28,0.7,2.83,1.04,4.64,1.04
		c0.81,0,1.63-0.07,2.44-0.21c0.81-0.14,1.67-0.36,2.57-0.66v-1.26c-0.95,0.3-1.82,0.52-2.62,0.68c-0.79,0.15-1.57,0.23-2.32,0.23
		c-1.55,0-2.88-0.29-3.97-0.88c-1.09-0.59-1.92-1.54-2.5-2.86c-0.53-1.22-0.81-2.84-0.84-4.81h13.17v-0.56
		c0-2.43-0.29-4.4-0.86-5.91S412.07,368.83,411.01,368.13z M404,369.14c0.91-0.57,1.97-0.85,3.19-0.85s2.27,0.28,3.14,0.85
		c0.87,0.57,1.54,1.5,2,2.8c0.43,1.2,0.65,2.79,0.68,4.75h-11.85c0.04-1.96,0.27-3.56,0.74-4.75
		C402.39,370.64,403.09,369.71,404,369.14z"/>
	<path class="st0" d="M432.44,369.78c-0.52-0.97-1.25-1.66-2.18-2.08c-0.93-0.42-2.01-0.63-3.23-0.63c-1.23,0-2.41,0.23-3.53,0.69
		c-1.12,0.46-2.12,1.13-2.98,1.99h-0.15l-0.11-2.39h-1.11v19.98h1.26v-15.78c0.59-0.81,1.27-1.46,2.04-1.94
		c0.76-0.48,1.54-0.82,2.33-1.03c0.79-0.2,1.53-0.31,2.22-0.31c1.53,0,2.74,0.4,3.63,1.19c0.89,0.79,1.34,2.2,1.34,4.21v13.65h1.26
		v-13.65C433.23,372.05,432.97,370.75,432.44,369.78z"/>
</g>
<g>
	<polygon class="st0" points="154.78,275.4 131.11,275.4 131.11,222.73 99.02,222.73 94.93,275.4 49.8,275.4 108.31,160.78 
		69.65,160.78 5.72,284.44 5.72,306.37 94.93,306.37 94.93,344.17 131.11,344.17 131.11,306.37 154.78,306.37 	"/>
	<path class="st0" d="M437.05,262.82c-6.36-6.69-15.12-11.19-26.26-13.51c8.98-2.69,16.19-7.29,21.61-13.81
		c6.32-7.6,9.48-16.93,9.48-28c0-15.61-5.6-27.69-16.79-36.24c-11.2-8.55-27.9-12.83-50.12-12.83c-5.21,0-10.58,0.27-16.11,0.81
		c-5.54,0.54-10.86,1.32-15.99,2.35c-5.12,1.03-9.67,2.21-13.63,3.53v30.11c6.28-2.23,13.03-3.92,20.26-5.08
		c7.23-1.16,14.27-1.73,21.13-1.73c11.32,0,19.6,1.92,24.84,5.76c5.25,3.84,7.87,9.48,7.87,16.91c0,7.6-2.87,13.51-8.61,17.72
		c-5.74,4.21-15.22,6.32-28.44,6.32h-20.82v30.48h26.89c13.63,0,23.31,2.17,29.06,6.51c5.74,4.34,8.61,10.55,8.61,18.65
		c0,8.43-3.02,14.83-9.04,19.21c-6.03,4.38-15.66,6.57-28.87,6.57c-7.35,0-15.12-0.58-23.29-1.74c-8.18-1.16-15.78-2.73-22.8-4.71
		v30.11c7.19,2.07,14.81,3.64,22.86,4.71c8.05,1.07,16.33,1.61,24.84,1.61c16.6,0,30.4-2.13,41.39-6.38
		c10.99-4.25,19.19-10.37,24.6-18.34c5.41-7.97,8.12-17.49,8.12-28.56C447.83,280.52,444.23,270.38,437.05,262.82z"/>
</g>
<path class="st1" d="M377.05,114.32V15.61c0-3.55-2.89-6.44-6.44-6.44H192.85c-3.55,0-6.44,2.89-6.44,6.44v98.71
	c0,3.55,2.89,6.44,6.44,6.44h51.42l-20.5,58.06l81.02-58.06h65.82C374.16,120.76,377.05,117.87,377.05,114.32z"/>
<g>
	<path class="st0" d="M278.94,168.21c-4.4-2.69-9.16-4.82-14.26-6.4l-60.92,43.65l15.68-44.42c-6.13,1.63-11.76,4.02-16.9,7.17
		c-10.62,6.53-18.77,16.73-24.47,30.61c-5.7,13.88-8.55,31.76-8.55,53.65c0,21.89,2.85,39.78,8.55,53.65
		c5.7,13.88,13.88,24.08,24.53,30.61c10.66,6.53,23.38,9.79,38.16,9.79c14.7,0,27.38-3.26,38.04-9.79
		c10.66-6.52,18.85-16.73,24.6-30.61c5.74-13.88,8.61-31.76,8.61-53.65c0-21.89-2.85-39.78-8.55-53.65
		C297.77,184.94,289.59,174.74,278.94,168.21z M268.72,289.27c-2.52,8.84-6.13,15.1-10.84,18.77c-4.71,3.68-10.41,5.51-17.1,5.51
		s-12.41-1.84-17.16-5.51c-4.75-3.67-8.36-9.98-10.84-18.9c-2.48-8.92-3.72-21.19-3.72-36.8s1.24-27.84,3.72-36.68
		c2.48-8.84,6.11-15.1,10.9-18.77c4.79-3.67,10.49-5.51,17.1-5.51c6.69,0,12.39,1.84,17.1,5.51c4.71,3.68,8.32,9.98,10.84,18.9
		c2.52,8.92,3.78,21.19,3.78,36.8S271.23,280.43,268.72,289.27z"/>
</g>
<g>
	<path class="st0" d="M241.13,41.62c-2.46-1.46-5.34-2.2-8.64-2.2c-3.26,0-6.12,0.73-8.59,2.2c-2.47,1.46-4.4,3.81-5.79,7.05
		c-1.39,3.24-2.08,7.5-2.08,12.8c0,5.27,0.69,9.53,2.06,12.77c1.38,3.24,3.3,5.59,5.77,7.07c2.47,1.47,5.35,2.21,8.62,2.21
		c3.26,0,6.12-0.74,8.59-2.21c2.47-1.47,4.4-3.83,5.79-7.07s2.08-7.49,2.08-12.77c0-5.29-0.69-9.56-2.07-12.8
		C245.51,45.43,243.59,43.08,241.13,41.62z M245.05,73.4c-1.2,2.92-2.88,5.01-5.04,6.27c-2.16,1.26-4.67,1.89-7.52,1.89
		s-5.35-0.63-7.5-1.9c-2.15-1.27-3.83-3.38-5.04-6.33c-1.21-2.95-1.82-6.94-1.82-11.98c0-4.96,0.61-8.9,1.82-11.82
		c1.21-2.92,2.89-5.01,5.04-6.27c2.15-1.26,4.65-1.89,7.5-1.89s5.36,0.64,7.52,1.9c2.16,1.27,3.84,3.38,5.04,6.33
		s1.8,6.94,1.8,11.98C246.86,66.55,246.26,70.49,245.05,73.4z"/>
	<path class="st0" d="M276.78,76.44c-0.89,1.24-1.92,2.24-3.08,3c-1.16,0.76-2.37,1.3-3.61,1.64c-1.24,0.34-2.41,0.51-3.52,0.51
		c-2.25,0-4.09-0.62-5.53-1.86c-1.44-1.24-2.15-3.43-2.15-6.57V51.58h-1.98v21.55c0,2.56,0.41,4.6,1.24,6.12
		c0.82,1.52,1.96,2.61,3.4,3.27s3.1,0.99,4.96,0.99s3.67-0.34,5.42-1.03c1.75-0.69,3.31-1.72,4.67-3.1h0.23l0.17,3.61h1.75V51.58
		h-1.98V76.44z"/>
	<path class="st0" d="M305.73,52.57c-1.83-0.97-3.86-1.45-6.09-1.45c-1.88,0-3.58,0.37-5.1,1.1c-1.52,0.74-2.77,1.7-3.74,2.88h-0.2
		l-0.2-3.52h-1.75v44.2h1.98V83.01c0.87,0.12,1.83,0.23,2.88,0.33s2.08,0.16,3.11,0.16c3.3,0,6.06-0.6,8.3-1.8s3.93-3.04,5.07-5.53
		c1.14-2.48,1.72-5.64,1.72-9.48c0-3.9-0.54-6.98-1.61-9.26C309.02,55.16,307.56,53.54,305.73,52.57z M306.35,78.13
		c-2.17,2.31-5.39,3.46-9.65,3.46c-1.03,0-2.09-0.06-3.2-0.19c-1.1-0.13-2.06-0.29-2.88-0.48V57.95c1.09-1.73,2.43-2.98,4.03-3.75
		c1.6-0.78,3.23-1.16,4.9-1.16c1.92,0,3.64,0.41,5.16,1.22c1.52,0.81,2.72,2.22,3.59,4.23c0.87,2.01,1.31,4.82,1.31,8.45
		C309.61,72.09,308.53,75.82,306.35,78.13z"/>
	<path class="st0" d="M329.47,66.58l-3.75-0.81c-2.15-0.48-3.65-1.25-4.51-2.3c-0.85-1.05-1.28-2.36-1.28-3.93
		c0-1.24,0.31-2.35,0.92-3.33s1.58-1.75,2.89-2.33c1.32-0.57,3.05-0.86,5.21-0.86c1.18,0,2.3,0.06,3.34,0.19
		c1.05,0.13,2.21,0.37,3.49,0.74v-1.98c-1.1-0.31-2.21-0.53-3.32-0.67c-1.1-0.14-2.28-0.2-3.52-0.2c-3.76,0-6.55,0.81-8.36,2.43
		s-2.72,3.65-2.72,6.09c0,2.07,0.58,3.8,1.75,5.18c1.16,1.38,3.15,2.4,5.96,3.05l3.75,0.81c2.17,0.47,3.72,1.18,4.64,2.15
		s1.38,2.37,1.38,4.19c0,2.07-0.73,3.69-2.18,4.84s-3.73,1.73-6.83,1.73c-1.28,0-2.54-0.09-3.79-0.28c-1.25-0.18-2.65-0.51-4.2-0.97
		v1.98c1.26,0.41,2.54,0.71,3.82,0.9s2.65,0.29,4.09,0.29c3.72,0,6.51-0.78,8.38-2.34s2.79-3.67,2.79-6.33
		c0-2.13-0.58-3.88-1.75-5.23C334.5,68.25,332.44,67.24,329.47,66.58z"/>
	<polygon class="st0" points="346.92,73.8 347.27,57.1 347.27,39.95 345.17,39.95 345.17,57.1 345.52,73.8 	"/>
	<path class="st0" d="M347.52,80.12c-0.34-0.34-0.77-0.51-1.29-0.51c-0.52,0-0.96,0.17-1.29,0.51c-0.34,0.34-0.51,0.79-0.51,1.35
		c0,0.54,0.17,0.98,0.51,1.31s0.77,0.49,1.29,0.49c0.52,0,0.96-0.17,1.29-0.49c0.34-0.33,0.51-0.77,0.51-1.31
		C348.03,80.91,347.86,80.46,347.52,80.12z"/>
</g>
</svg>
