<?xml version="1.0" encoding="utf-8"?>
<!-- Generator: Adobe Illustrator 25.0.0, SVG Export Plug-In . SVG Version: 6.00 Build 0)  -->
<svg version="1.1" id="Calque_1" xmlns="http://www.w3.org/2000/svg" xmlns:xlink="http://www.w3.org/1999/xlink" x="0px" y="0px"
	 viewBox="0 0 510.24 425.2" style="enable-background:new 0 0 510.24 425.2;" xml:space="preserve">
<style type="text/css">
	.st0{fill:#FFFFFF;}
	.st1{fill:#EC6608;}
</style>
<g>
	<path class="st0" d="M326.92,383.96c-0.93-0.42-2.01-0.63-3.23-0.63c-1.23,0-2.41,0.23-3.53,0.69s-2.12,1.13-2.98,1.99h-0.15
		l-0.11-2.39h-1.11v19.98h1.26v-15.78c0.59-0.81,1.27-1.46,2.04-1.94c0.76-0.48,1.54-0.82,2.33-1.03c0.79-0.2,1.53-0.31,2.22-0.31
		c1.53,0,2.74,0.4,3.63,1.19c0.89,0.8,1.34,2.2,1.34,4.21v13.65h1.26v-13.65c0-1.64-0.26-2.94-0.79-3.91
		S327.85,384.37,326.92,383.96z"/>
	<path class="st0" d="M346.65,384.35c-1.17-0.68-2.53-1.03-4.09-1.03s-2.91,0.34-4.08,1.04c-1.17,0.69-2.07,1.79-2.73,3.3
		c-0.65,1.51-0.98,3.49-0.98,5.95c0,2.47,0.33,4.46,0.98,5.97c0.65,1.52,1.56,2.62,2.73,3.31c1.17,0.69,2.53,1.04,4.08,1.04
		s2.92-0.35,4.09-1.05c1.17-0.7,2.08-1.81,2.73-3.33c0.65-1.52,0.97-3.5,0.97-5.94c0-2.48-0.32-4.47-0.97-5.97
		C348.73,386.13,347.82,385.04,346.65,384.35z M348.22,399.02c-0.53,1.33-1.28,2.27-2.25,2.84c-0.97,0.57-2.11,0.85-3.41,0.85
		c-1.31,0-2.45-0.29-3.41-0.86c-0.97-0.57-1.72-1.53-2.25-2.87c-0.53-1.34-0.8-3.15-0.8-5.43c0-2.26,0.27-4.04,0.8-5.36
		s1.28-2.25,2.25-2.81s2.11-0.84,3.41-0.84c1.31,0,2.44,0.28,3.41,0.85c0.97,0.57,1.72,1.51,2.25,2.84s0.79,3.13,0.79,5.43
		C349.01,395.91,348.75,397.7,348.22,399.02z"/>
	<path class="st0" d="M362,402.71c-1.5,0-2.65-0.38-3.45-1.15c-0.79-0.76-1.19-2.07-1.19-3.92v-12.84h6.86v-1.18h-6.86v-7.4h-1.11
		l-0.15,7.4h-4.07v1.18h4.07v13.06c0,2.13,0.52,3.68,1.55,4.63c1.04,0.96,2.46,1.43,4.27,1.43c0.46,0,0.9-0.03,1.33-0.07
		c0.43-0.05,0.89-0.13,1.37-0.24v-1.26c-0.51,0.11-0.97,0.2-1.39,0.26C362.82,402.68,362.41,402.71,362,402.71z"/>
	<path class="st0" d="M384.23,373.34c-1.38,0-2.53,0.23-3.46,0.69s-1.62,1.16-2.09,2.1s-0.7,2.12-0.7,3.55v3.94h-4.07v1.18h4.07
		v18.79h1.26v-18.79h6.86v-1.18h-6.86v-4c0-1.86,0.41-3.17,1.24-3.93c0.83-0.76,2.05-1.14,3.68-1.14c0.46,0,0.91,0.02,1.35,0.06
		c0.44,0.04,0.88,0.11,1.31,0.19v-1.26c-0.41-0.07-0.84-0.13-1.29-0.17S384.64,373.34,384.23,373.34z"/>
	<path class="st0" d="M399.4,384.35c-1.17-0.68-2.53-1.03-4.09-1.03s-2.91,0.34-4.08,1.04c-1.17,0.69-2.07,1.79-2.73,3.3
		c-0.65,1.51-0.98,3.49-0.98,5.95c0,2.47,0.33,4.46,0.98,5.97c0.65,1.52,1.56,2.62,2.73,3.31c1.17,0.69,2.53,1.04,4.08,1.04
		s2.92-0.35,4.09-1.05c1.17-0.7,2.08-1.81,2.73-3.33c0.65-1.52,0.97-3.5,0.97-5.94c0-2.48-0.32-4.47-0.97-5.97
		C401.48,386.13,400.57,385.04,399.4,384.35z M400.97,399.02c-0.53,1.33-1.28,2.27-2.25,2.84c-0.97,0.57-2.11,0.85-3.41,0.85
		c-1.31,0-2.45-0.29-3.41-0.86c-0.97-0.57-1.72-1.53-2.25-2.87c-0.53-1.34-0.8-3.15-0.8-5.43c0-2.26,0.27-4.04,0.8-5.36
		s1.28-2.25,2.25-2.81s2.11-0.84,3.41-0.84c1.31,0,2.44,0.28,3.41,0.85c0.97,0.57,1.72,1.51,2.25,2.84s0.79,3.13,0.79,5.43
		C401.77,395.91,401.5,397.7,400.97,399.02z"/>
	<path class="st0" d="M420.62,399.44c-0.57,0.79-1.22,1.42-1.96,1.91c-0.74,0.48-1.5,0.83-2.29,1.04s-1.54,0.32-2.24,0.32
		c-1.43,0-2.6-0.39-3.51-1.18c-0.91-0.79-1.37-2.18-1.37-4.18v-13.72h-1.26v13.71c0,1.63,0.26,2.93,0.79,3.89
		c0.52,0.97,1.25,1.66,2.16,2.08c0.92,0.42,1.97,0.63,3.15,0.63c1.18,0,2.33-0.22,3.45-0.66s2.11-1.09,2.97-1.97h0.15l0.11,2.29
		h1.11v-19.98h-1.26V399.44z"/>
	<path class="st0" d="M439.27,383.96c-0.93-0.42-2.01-0.63-3.23-0.63c-1.23,0-2.41,0.23-3.53,0.69s-2.12,1.13-2.98,1.99h-0.15
		l-0.11-2.39h-1.11v19.98h1.26v-15.78c0.59-0.81,1.27-1.46,2.04-1.94c0.76-0.48,1.54-0.82,2.33-1.03c0.79-0.2,1.53-0.31,2.22-0.31
		c1.53,0,2.74,0.4,3.63,1.19c0.89,0.8,1.34,2.2,1.34,4.21v13.65h1.26v-13.65c0-1.64-0.26-2.94-0.79-3.91S440.2,384.37,439.27,383.96
		z"/>
	<path class="st0" d="M460.53,373.71v9.95c-0.55-0.1-1.16-0.18-1.82-0.24c-0.66-0.06-1.32-0.09-1.99-0.09
		c-2.08,0-3.84,0.38-5.26,1.14c-1.42,0.76-2.5,1.93-3.24,3.5c-0.73,1.58-1.1,3.59-1.1,6.05c0,2.43,0.34,4.37,1.02,5.82
		c0.68,1.45,1.6,2.49,2.76,3.13c1.16,0.64,2.46,0.96,3.9,0.96c1.21,0,2.3-0.24,3.26-0.72c0.97-0.48,1.75-1.08,2.36-1.81h0.15
		l0.11,2.2h1.11v-29.89H460.53z M460.53,399.59c-0.68,1.09-1.53,1.88-2.54,2.38c-1.02,0.5-2.06,0.75-3.14,0.75
		c-1.25,0-2.35-0.27-3.31-0.8s-1.72-1.44-2.27-2.72c-0.55-1.28-0.82-3.06-0.82-5.33c0-3.3,0.69-5.69,2.08-7.14
		c1.39-1.46,3.43-2.18,6.13-2.18c0.68,0,1.36,0.04,2.05,0.11c0.69,0.07,1.29,0.18,1.81,0.31V399.59z"/>
</g>
<g>
	<polygon class="st0" points="144.16,238.99 112.07,238.99 107.98,291.65 62.85,291.65 121.36,177.03 82.7,177.03 18.76,300.69 
		18.76,322.63 107.98,322.63 107.98,360.42 144.16,360.42 144.16,322.63 167.83,322.63 167.83,291.65 144.16,291.65 	"/>
	<polygon class="st0" points="491.48,291.65 467.81,291.65 467.81,238.99 435.71,238.99 431.63,291.65 386.49,291.65 445.01,177.03 
		406.35,177.03 342.41,300.69 342.41,322.63 431.63,322.63 431.63,360.42 467.81,360.42 467.81,322.63 491.48,322.63 	"/>
</g>
<path class="st1" d="M388.8,126.41V27.71c0-3.55-2.89-6.44-6.44-6.44H204.6c-3.55,0-6.44,2.89-6.44,6.44v98.71
	c0,3.55,2.89,6.44,6.44,6.44h51.42l-20.5,58.06l81.02-58.06h65.82C385.91,132.85,388.8,129.96,388.8,126.41z"/>
<g>
	<path class="st0" d="M291.98,184.46c-5.85-3.58-12.33-6.18-19.43-7.79l-57.05,40.88l13.9-39.36c-4.94,1.57-9.55,3.65-13.81,6.27
		c-10.62,6.53-18.77,16.73-24.47,30.61c-5.7,13.88-8.55,31.76-8.55,53.65c0,21.89,2.85,39.78,8.55,53.65
		c5.7,13.88,13.88,24.08,24.53,30.61c10.66,6.53,23.38,9.79,38.17,9.79c14.7,0,27.38-3.26,38.04-9.79
		c10.66-6.52,18.85-16.73,24.6-30.61c5.74-13.88,8.61-31.76,8.61-53.65c0-21.89-2.85-39.78-8.55-53.65
		C310.82,201.19,302.64,190.99,291.98,184.46z M281.76,305.53c-2.52,8.84-6.13,15.1-10.84,18.77c-4.71,3.68-10.41,5.51-17.1,5.51
		s-12.41-1.84-17.16-5.51c-4.75-3.67-8.36-9.98-10.84-18.9c-2.48-8.92-3.72-21.19-3.72-36.8s1.24-27.84,3.72-36.68
		c2.48-8.84,6.11-15.1,10.9-18.77c4.79-3.67,10.49-5.51,17.1-5.51c6.69,0,12.39,1.84,17.1,5.51c4.71,3.68,8.32,9.98,10.84,18.9
		c2.52,8.92,3.78,21.19,3.78,36.8S284.28,296.69,281.76,305.53z"/>
</g>
<g>
	<path class="st0" d="M252.87,53.71c-2.46-1.46-5.34-2.2-8.64-2.2c-3.26,0-6.12,0.73-8.59,2.2c-2.47,1.46-4.4,3.81-5.79,7.05
		c-1.39,3.24-2.08,7.5-2.08,12.8c0,5.27,0.69,9.53,2.06,12.77c1.38,3.24,3.3,5.59,5.77,7.07c2.47,1.47,5.35,2.21,8.62,2.21
		c3.26,0,6.12-0.74,8.59-2.21c2.47-1.47,4.4-3.83,5.79-7.07s2.08-7.49,2.08-12.77c0-5.29-0.69-9.56-2.07-12.8
		C257.26,57.53,255.34,55.18,252.87,53.71z M256.8,85.5c-1.2,2.92-2.88,5.01-5.04,6.27c-2.16,1.26-4.67,1.89-7.52,1.89
		s-5.35-0.63-7.5-1.9c-2.15-1.27-3.83-3.38-5.04-6.33c-1.21-2.95-1.82-6.94-1.82-11.98c0-4.96,0.61-8.9,1.82-11.82
		c1.21-2.92,2.89-5.01,5.04-6.27c2.15-1.26,4.65-1.89,7.5-1.89s5.36,0.64,7.52,1.9c2.16,1.27,3.84,3.38,5.04,6.33
		s1.8,6.94,1.8,11.98C258.6,78.64,258,82.58,256.8,85.5z"/>
	<path class="st0" d="M288.53,88.53c-0.89,1.24-1.92,2.24-3.08,3c-1.16,0.76-2.37,1.3-3.61,1.64c-1.24,0.34-2.41,0.51-3.52,0.51
		c-2.25,0-4.09-0.62-5.53-1.86c-1.44-1.24-2.15-3.43-2.15-6.57V63.67h-1.98v21.55c0,2.56,0.41,4.6,1.24,6.12
		c0.82,1.52,1.96,2.61,3.4,3.27s3.1,0.99,4.96,0.99s3.67-0.34,5.42-1.03c1.75-0.69,3.31-1.72,4.67-3.1h0.23l0.17,3.61h1.75V63.67
		h-1.98V88.53z"/>
	<path class="st0" d="M317.48,64.66c-1.83-0.97-3.86-1.45-6.09-1.45c-1.88,0-3.58,0.37-5.1,1.1c-1.52,0.74-2.77,1.7-3.74,2.88h-0.2
		l-0.2-3.52h-1.75v44.2h1.98V95.11c0.87,0.12,1.83,0.23,2.88,0.33s2.08,0.16,3.11,0.16c3.3,0,6.06-0.6,8.3-1.8s3.93-3.04,5.07-5.53
		c1.14-2.48,1.72-5.64,1.72-9.48c0-3.9-0.54-6.98-1.61-9.26C320.76,67.25,319.31,65.63,317.48,64.66z M318.1,90.22
		c-2.17,2.31-5.39,3.46-9.65,3.46c-1.03,0-2.09-0.06-3.2-0.19c-1.1-0.13-2.06-0.29-2.88-0.48V70.04c1.09-1.73,2.43-2.98,4.03-3.75
		c1.6-0.78,3.23-1.16,4.9-1.16c1.92,0,3.64,0.41,5.16,1.22c1.52,0.81,2.72,2.22,3.59,4.23c0.87,2.01,1.31,4.82,1.31,8.45
		C321.36,84.18,320.27,87.91,318.1,90.22z"/>
	<path class="st0" d="M341.22,78.68l-3.75-0.81c-2.15-0.48-3.65-1.25-4.51-2.3c-0.85-1.05-1.28-2.36-1.28-3.93
		c0-1.24,0.31-2.35,0.92-3.33s1.58-1.75,2.89-2.33c1.32-0.57,3.05-0.86,5.21-0.86c1.18,0,2.3,0.06,3.34,0.19
		c1.05,0.13,2.21,0.37,3.49,0.74v-1.98c-1.1-0.31-2.21-0.53-3.32-0.67c-1.1-0.14-2.28-0.2-3.52-0.2c-3.76,0-6.55,0.81-8.36,2.43
		s-2.72,3.65-2.72,6.09c0,2.07,0.58,3.8,1.75,5.18c1.16,1.38,3.15,2.4,5.96,3.05l3.75,0.81c2.17,0.47,3.72,1.18,4.64,2.15
		s1.38,2.37,1.38,4.19c0,2.07-0.73,3.69-2.18,4.84s-3.73,1.73-6.83,1.73c-1.28,0-2.54-0.09-3.79-0.28c-1.25-0.18-2.65-0.51-4.2-0.97
		v1.98c1.26,0.41,2.54,0.71,3.82,0.9s2.65,0.29,4.09,0.29c3.72,0,6.51-0.78,8.38-2.34s2.79-3.67,2.79-6.33
		c0-2.13-0.58-3.88-1.75-5.23C346.25,80.34,344.19,79.34,341.22,78.68z"/>
	<polygon class="st0" points="358.67,85.89 359.02,69.2 359.02,52.04 356.92,52.04 356.92,69.2 357.27,85.89 	"/>
	<path class="st0" d="M359.26,92.21c-0.34-0.34-0.77-0.51-1.29-0.51c-0.52,0-0.96,0.17-1.29,0.51c-0.34,0.34-0.51,0.79-0.51,1.35
		c0,0.54,0.17,0.98,0.51,1.31s0.77,0.49,1.29,0.49c0.52,0,0.96-0.17,1.29-0.49c0.34-0.33,0.51-0.77,0.51-1.31
		C359.77,93,359.6,92.55,359.26,92.21z"/>
</g>
</svg>
