<?xml version="1.0" encoding="utf-8"?>
<!-- Generator: Adobe Illustrator 25.0.0, SVG Export Plug-In . SVG Version: 6.00 Build 0)  -->
<svg version="1.1" id="Calque_1" xmlns="http://www.w3.org/2000/svg" xmlns:xlink="http://www.w3.org/1999/xlink" x="0px" y="0px"
	 viewBox="0 0 670 261.07" style="enable-background:new 0 0 670 261.07;" xml:space="preserve">
<style type="text/css">
	.st0{fill:#FFFFFF;}
	.st1{fill:#EC6608;}
	.st2{fill:#ED6B2A;}
</style>
<g>
	<path class="st0" d="M55.78,59.77l0.26-0.05l-0.01-0.26l-0.01-0.23L56,58.99l-0.02-0.34l-0.33,0.05l-4.59,0.74l-4.59,0.74
		l-0.3,0.05l0.05,0.3l0.04,0.27l0.05,0.33l0.05,0.3l0.3-0.05L55.78,59.77z M46.52,60.48c3.06-0.49,6.12-0.99,9.18-1.48
		c0.01,0.16,0.02,0.32,0.02,0.48c-3.03,0.53-6.07,1.07-9.1,1.6C46.59,60.88,46.55,60.68,46.52,60.48z"/>
	<path class="st0" d="M131.19,210.8c-2.74,0.3-5.54,0.44-8.26,0.57c-1.05,0.05-2.1,0.1-3.15,0.16l-0.44,0.02l0.18,0.4l0.12,0.27
		c-0.23,0.12-0.47,0.24-0.71,0.35c-0.77,0.38-1.57,0.78-2.31,1.26c-0.5,0.32-1.43,1.11-1.35,1.77c0.5,4.33-1.97,5.81-6.4,6.92
		c-1.33,0.33-2.79,0.34-4.19,0.34c-0.27,0-0.54,0-0.8,0.01c-1.12,0.01-2.23,0.03-3.35,0.06c-1.87,0.03-3.8,0.07-5.69,0.07
		c-2.09,0-3.91-0.04-5.58-0.14c-2.18-0.12-4.59-0.75-7.16-1.86c-1.03-0.45-1.78-2.32-2.1-3.12c-0.25-0.63-0.26-1.36-0.27-2.21
		c-0.01-0.41-0.01-0.83-0.05-1.26l-0.02-0.25l-0.25-0.02c-0.21-0.02-0.42-0.03-0.63-0.05c-0.48-0.03-0.94-0.07-1.39-0.13
		c-0.08-0.01-0.17-0.02-0.27-0.03c-0.24-0.03-0.73-0.09-0.87-0.17c-0.56-1.66-1.72-1.89-2.79-1.89c-0.22,0-0.45,0.01-0.68,0.02
		c-0.22,0.01-0.43,0.02-0.65,0.02c-0.12,0-0.24,0-0.36-0.01c-2.89-0.2-6-0.4-9.09-0.53l-0.07,0c-0.47,0-1.45,0.22-1.61,0.73
		c-0.2,0.62-0.26,1.72,0.2,2.2c1.12,1.15,1.11,2.52,1.11,3.97l0,0.35l0.01,5.24c0.02,7.75,0.03,15.77-0.01,23.66
		c-0.02,3.86-1.17,6.57-3.39,8.14h0.53c2.34-1.87,3.13-4.9,3.15-8.14c0.05-9.63,0.01-19.26,0-28.9c0-1.6,0.1-3.2-1.19-4.53
		c-0.35-0.36-0.31-1.32-0.13-1.9c0.09-0.29,0.85-0.52,1.33-0.52c0.02,0,0.04,0,0.06,0c3.03,0.13,6.05,0.32,9.08,0.53
		c0.12,0.01,0.25,0.01,0.38,0.01c0.43,0,0.89-0.04,1.32-0.04c1.05,0,2.03,0.22,2.52,1.72c0.08,0.25,0.89,0.3,1.36,0.37
		c0.67,0.1,1.35,0.12,2.04,0.18c0.1,1.34-0.06,2.57,0.34,3.56c0.49,1.23,1.21,2.83,2.26,3.28c2.27,0.99,4.8,1.75,7.26,1.89
		c1.86,0.1,3.73,0.14,5.6,0.14c3.01,0,6.03-0.09,9.04-0.13c1.69-0.02,3.44,0.05,5.06-0.36c4.34-1.08,7.16-2.57,6.62-7.24
		c-0.05-0.45,0.69-1.14,1.22-1.49c1.02-0.66,2.16-1.16,3.25-1.72c-0.08-0.18-0.16-0.35-0.24-0.53c3.81-0.22,7.63-0.31,11.42-0.73
		c1.07-0.12,2.38-0.94,3-1.84c2.88-4.2,5.53-8.54,8.32-12.8c0.28-0.43,0.94-0.78,1.46-0.87c2.16-0.34,4.34-0.61,6.52-0.8
		c1.44-0.13,2.18-0.66,2.1-2.23c-0.1-2.04-0.02-4.09-0.02-6.13c0.28,3.45,0.55,6.89,0.58,10.33c0.03,3.53-0.12,7.07-0.31,10.6
		c-0.03,0.52-0.68,1.09-1.16,1.49c-0.68,0.57-1.37,0.77-2.06,0.77c-1.05,0-2.1-0.45-3.15-0.73c-0.09-0.02-0.18-0.03-0.28-0.03
		c-0.17,0-0.34,0.02-0.53,0.02c0.24,0.56,0.45,1.03,0.8,1.84c-0.83-0.38-1.31-0.65-1.83-0.82c-1.77-0.59-3.43-0.89-4.93-0.89
		c-4.7,0-7.85,2.9-8.28,8.57c-0.76,9.91-0.41,19.9-0.52,29.86c-0.04,3.56,1.23,6.59,4.26,8.17h0.65c-3.86-1.67-4.65-5.34-4.62-8.17
		c0.03-2.9,0.03-5.85,0.02-8.71c-0.01-6.94-0.03-14.12,0.5-21.13c0.41-5.35,3.24-8.3,7.99-8.3c1.48,0,3.1,0.29,4.83,0.87
		c0.32,0.11,0.63,0.26,1.03,0.45c0.22,0.11,0.47,0.23,0.77,0.36l0.71,0.32l-0.31-0.72l-0.43-0.98l-0.2-0.46c0.03,0,0.05,0,0.08,0
		c0.08,0,0.15,0.01,0.2,0.02c0.28,0.08,0.56,0.16,0.83,0.25c0.78,0.24,1.59,0.49,2.4,0.49c0.85,0,1.58-0.27,2.25-0.84
		c0.62-0.52,1.24-1.09,1.27-1.71c0.17-3.15,0.35-6.87,0.31-10.62c-0.03-3.34-0.28-6.67-0.58-10.35l-0.6,0.02
		c0,0.61-0.01,1.23-0.01,1.84c-0.01,1.41-0.03,2.87,0.04,4.3c0.06,1.29-0.42,1.79-1.83,1.92c-2.12,0.18-4.32,0.45-6.54,0.8
		c-0.56,0.09-1.31,0.46-1.67,1c-1.07,1.63-2.13,3.3-3.16,4.91c-1.66,2.6-3.38,5.3-5.16,7.88
		C133.4,209.92,132.15,210.69,131.19,210.8z"/>
	<path class="st0" d="M152.12,178.42c0.06,1.11,0.13,2.25,0.13,3.39v0.33l0.33-0.03l1.93-0.2l0.98-0.1l0.27-0.03v-0.27
		c0-0.39,0-0.76,0-1.12c0-0.74-0.01-1.45,0.01-2.15l0.33-17.12c0.2-10.48,0.4-20.96,0.59-31.44c0.03-1.76,0.02-3.54,0.01-5.26
		c0-0.79-0.01-1.57-0.01-2.35v-0.26l-0.25-0.04c-0.71-0.11-1.24-0.17-1.68-0.17c-0.76,0-1.26,0.16-1.59,0.52
		c-0.49,0.53-0.5,1.43-0.44,2.32l0.09,1.26c0.13,1.8,0.27,3.66,0.33,5.48c0.13,3.83,0.19,7.82,0.23,11.02
		c0.02,1.23,0.01,2.48,0.01,3.69c-0.01,2.34-0.02,4.77,0.14,7.15c0.1,1.54,0,3.1-0.1,4.61c-0.13,1.94-0.26,3.94,0.02,5.95
		c0.34,2.4-0.24,4.78-0.97,7.42C151.84,173.34,151.97,175.81,152.12,178.42z M153.74,163.56c-0.5-3.55,0.31-7.02,0.08-10.54
		c-0.24-3.59-0.09-7.21-0.15-10.82c-0.05-3.68-0.11-7.35-0.23-11.03c-0.07-2.25-0.26-4.5-0.42-6.75c-0.13-1.81,0.18-2.52,1.73-2.52
		c0.44,0,0.98,0.06,1.64,0.16c0,2.47,0.04,5.04-0.01,7.6c-0.3,16.19-0.61,32.37-0.92,48.56c-0.02,1.04,0,2.09,0,3.27
		c-1.04,0.11-1.85,0.19-2.92,0.3c0-3.74-0.69-7.44,0.22-10.71C153.48,168.54,154.1,166.06,153.74,163.56z"/>
	<path class="st0" d="M137.95,176c-0.78-0.07-1.46-0.13-1.96-0.13c-0.51,0-1.02,0.05-1.35,0.39c-0.42,0.44-0.39,1.17-0.33,2.63
		c0.05,1.12,0.05,2.27,0.05,3.38l0,0.84c0,2.34,0,4.69,0,7.01l0,2.81v0.26l0.26,0.04c0.85,0.12,1.5,0.2,1.99,0.2
		c1.59,0,1.59-0.98,1.6-2.92c0.01-1.41,0.01-2.82,0.01-4.23l0-7l0-2.98v-0.28L137.95,176z M137.92,186.27c0,1.41,0,2.82-0.01,4.23
		c-0.01,2.03-0.06,2.62-1.3,2.62c-0.46,0-1.09-0.08-1.94-0.2c0-3.23,0-6.52,0-9.82c0-1.41,0.02-2.82-0.05-4.23
		c-0.1-2.17-0.12-2.71,1.37-2.71c0.48,0,1.1,0.05,1.93,0.13C137.92,179.67,137.92,182.97,137.92,186.27z"/>
	<path class="st0" d="M55.6,61.69l0.08-0.02l1.33-0.35l0.27-0.07l-0.05-0.27l-0.05-0.28l-0.05-0.28l-0.28,0.04l-3.35,0.48l-6.7,0.97
		l-0.29,0.04l0.04,0.29l0.03,0.23l0.04,0.27l0.04,0.29L46.93,63l1.75-0.19l-0.52,0.3l-1.21,0.71l-0.59,0.35l0.65,0.2
		c0.8,0.25,1.82,0.38,2.96,0.38c2.99,0,6.72-0.9,7.55-2.35l0.21-0.38l-0.43-0.07L55.6,61.69z M49.98,64.44
		c-1.05,0-2.05-0.11-2.87-0.36c1.06-0.62,1.76-1.03,2.93-1.71c-1.37,0.15-2.26,0.24-3.14,0.33c-0.02-0.17-0.04-0.33-0.07-0.5
		c3.35-0.48,6.7-0.97,10.05-1.46c0.02,0.09,0.04,0.19,0.05,0.28c-0.86,0.23-1.73,0.46-2.8,0.74c1.17,0.18,2.11,0.33,3.13,0.48
		C56.56,63.49,53.05,64.44,49.98,64.44z"/>
	<path class="st0" d="M143.86,186.61c0.26,0.47,0.67,0.84,1.07,1.19c0.16,0.14,0.33,0.29,0.48,0.44l0.21,0.21l0.21-0.22
		c0.13-0.14,0.3-0.27,0.48-0.42c0.44-0.35,0.89-0.72,0.93-1.2c0.14-1.81,0.24-3.56-0.14-5.22c-0.17-0.75-0.65-1.21-1.26-1.21
		c-0.55,0-1.09,0.39-1.43,1.03c-0.38,0.72-0.57,1.55-0.71,2.21c-0.06,0.25-0.11,0.49-0.17,0.69l-0.02,0.06l0.01,0.06
		c0.04,0.34,0.05,0.64,0.07,0.91C143.62,185.75,143.64,186.21,143.86,186.61z M144.68,181.37c0.31-0.58,0.75-0.87,1.16-0.87
		c0.43,0,0.82,0.33,0.97,0.98c0.37,1.64,0.27,3.42,0.13,5.13c-0.04,0.51-0.87,0.95-1.33,1.43c-0.51-0.51-1.16-0.95-1.49-1.56
		c-0.28-0.52-0.18-1.23-0.3-2.25C144.04,183.48,144.17,182.32,144.68,181.37z"/>
	<path class="st0" d="M65.04,98.94v0.22V103v0.3h0.3c0.63,0,1.26-0.01,1.88-0.02c0.61-0.01,1.21-0.02,1.8-0.02
		c0.85,0,1.54,0.02,2.19,0.07c1.19,0.09,2.4,0.26,3.58,0.42c1.75,0.24,3.57,0.49,5.36,0.49l0.43,0c3.67,0,7.39-0.12,10.99-0.23
		c2.44-0.08,4.97-0.16,7.45-0.2c2.34-0.04,3.49-0.09,4.11-0.77c0.44-0.48,0.55-1.2,0.52-2.42l0.03,0.04
		c0.07,0.08,0.13,0.17,0.2,0.27c0.18,0.26,0.38,0.56,0.69,0.62c1.12,0.22,2.24,0.46,3.36,0.69c3.04,0.65,6.18,1.31,9.31,1.57
		c0.57,0.05,1.15,0.07,1.78,0.07c1.84,0,3.72-0.2,5.54-0.4c0.96-0.1,1.95-0.21,2.92-0.29c0.33-0.03,0.62-0.18,0.89-0.32
		c0.1-0.06,0.21-0.11,0.31-0.15l0.18-0.08v-0.2v-4.07v-0.26l-0.26-0.04c-0.55-0.08-1.07-0.16-1.58-0.24
		c-1.05-0.16-2.03-0.31-3.01-0.42c-0.83-0.09-1.69-0.22-2.52-0.34c-1.53-0.23-3.1-0.47-4.64-0.47c-0.59,0-1.14,0.03-1.67,0.11
		c-2.55,0.34-5.06,1.18-7.49,1.99c-0.99,0.33-2.02,0.67-3.03,0.98c-0.25,0.07-0.46,0.22-0.66,0.35c-0.08,0.05-0.16,0.11-0.25,0.16
		l-0.12,0.07c-0.02-0.43-0.05-0.91-0.08-1.45c-0.13-2.04-0.9-2.76-2.97-2.76l-1.01,0c-1.71,0-3.42-0.02-5.13-0.03
		c-1.71-0.02-3.43-0.03-5.14-0.03c-7.72,0-15.98,0.35-24.08,2.89L65.04,98.94z M104.77,99.98c3.48-1.04,6.91-2.48,10.47-2.96
		c0.54-0.07,1.08-0.1,1.63-0.1c2.34,0,4.76,0.56,7.12,0.81c1.44,0.15,2.87,0.41,4.58,0.65c0,1.34,0,2.66,0,4.07
		c-0.35,0.15-0.72,0.42-1.1,0.45c-2.81,0.22-5.64,0.69-8.44,0.69c-0.59,0-1.17-0.02-1.76-0.07c-4.25-0.35-8.43-1.44-12.63-2.26
		c-0.28-0.05-0.48-0.52-0.72-0.79C104.21,100.3,104.47,100.07,104.77,99.98z M65.34,99.16c7.98-2.5,15.99-2.87,23.99-2.87
		c3.42,0,6.85,0.07,10.27,0.07c0.34,0,0.67,0,1.01,0c0.01,0,0.03,0,0.04,0c1.94,0,2.51,0.65,2.63,2.48c0.29,4.49,0.2,4.59-4.25,4.67
		c-6.15,0.1-12.29,0.43-18.44,0.43c-0.14,0-0.29,0-0.43,0c-2.97-0.01-5.94-0.68-8.92-0.91c-0.73-0.06-1.47-0.07-2.21-0.07
		c-1.21,0-2.43,0.05-3.68,0.05C65.34,101.54,65.34,100.1,65.34,99.16z"/>
	<path class="st0" d="M99.12,20.67c-0.25-0.43-0.51-0.87-0.94-1.07c-0.74-0.34-1.58-0.51-2.51-0.51c-2.39,0-4.87,1.11-6.48,2.91
		l-0.85,0.94l1.18-0.47c2.19-0.86,3.77-1.23,5.28-1.23c0.92,0,1.78,0.14,2.65,0.43c0.16,0.05,0.34,0.08,0.55,0.08
		c0.23,0,0.47-0.03,0.7-0.07c0.17-0.02,0.34-0.05,0.5-0.06l0.56-0.03l-0.33-0.45C99.32,21.02,99.22,20.85,99.12,20.67z M98,21.47
		c-0.16,0-0.31-0.02-0.45-0.06c-0.93-0.31-1.84-0.45-2.75-0.45c-1.75,0-3.5,0.51-5.39,1.25c1.59-1.78,4.05-2.81,6.26-2.81
		c0.85,0,1.67,0.15,2.38,0.48c0.5,0.23,0.76,0.97,1.13,1.47C98.8,21.37,98.38,21.47,98,21.47z"/>
	<path class="st0" d="M39.04,182.77l0-0.09h-0.3H27.93h-0.3l0,0.3l0,0.38l0,0.3h0.3h10.81h0.3l0-0.3l0-0.08l0.24,0.01
		c2.22,0.1,2.36,1.11,2.31,2.33c-0.03,0.75-0.07,1.49-0.1,2.24c-0.09,1.97-0.19,4.01-0.21,6.02c-0.04,3.42-0.03,6.91-0.02,10.27
		c0,1.43,0.01,2.86,0.01,4.3v0.24l0.24,0.05l0.09,0.02l0.34,0.07l0.03-0.34l0.33-4.38c0,0.02,0,0.04,0,0.06
		c-0.04,1.09-0.08,2.22,0.11,3.31c0.16,0.9,0.91,2.36,1.84,2.64c1.45,0.44,2.67,0.65,3.72,0.65c0.56,0,1.08-0.06,1.55-0.19
		c1.18-0.31,2.36-0.46,3.59-0.46c1.53,0,3.12,0.23,5,0.73c0.16,0.04,0.34,0.06,0.53,0.06c0.43,0,0.89-0.11,1.42-0.23
		c0.37-0.09,0.76-0.18,1.2-0.25l0.47-0.07l-0.26-0.39c-0.67-0.99-1.31-1.93-1.92-2.83c-1.35-1.98-2.62-3.86-3.85-5.72
		c-0.39-0.58-0.74-1.26-1.07-1.91c-0.73-1.41-1.49-2.88-2.71-3.6c-1.42-0.84-3.3-0.89-5.12-0.93c-0.61-0.01-1.24-0.03-1.83-0.07
		c-1.37-0.1-1.82-0.64-1.81-2.11c0.06-5.81,0.1-11.49-0.06-17.13c-0.04-1.46-0.27-2.94-0.48-4.36c-0.19-1.22-0.38-2.49-0.45-3.73
		c-0.15-2.5-0.14-5.06-0.13-7.53c0-0.68,0.01-1.36,0-2.04c-0.01-9.16-0.01-19.98,0.02-30.76c0-1.06,0.09-2.13,0.17-3.17
		c0.04-0.48,0.08-0.96,0.1-1.43l0.02-0.25l-0.25-0.06c-1.05-0.24-1.74-0.4-2.23-0.4c-1.15,0-1.22,0.87-1.36,2.44
		c-0.09,1.02-0.11,2.1-0.07,3.2c0.05,1.58,0.13,3.16,0.2,4.74c0.12,2.68,0.25,5.45,0.28,8.17c0.08,6.54,0.13,13.19,0.18,19.62
		c0.05,6.5,0.11,13.22,0.18,19.82c0.01,0.64,0.27,1.23,0.54,1.87c0.08,0.19,0.17,0.38,0.24,0.58l-0.86,0.32L39.04,182.77z
		 M27.93,183.37c0-0.13,0-0.25,0-0.38c3.6,0,7.2,0,10.81,0c0,0.13,0,0.25,0,0.38C35.14,183.37,31.54,183.37,27.93,183.37z
		 M40.44,182.58c-0.32-0.93-0.86-1.77-0.87-2.63c-0.16-13.15-0.21-26.3-0.36-39.44c-0.05-4.31-0.33-8.61-0.48-12.92
		c-0.04-1.05-0.02-2.12,0.07-3.17c0.14-1.61,0.19-2.17,1.06-2.17c0.45,0,1.13,0.15,2.16,0.39c-0.09,1.5-0.27,3.06-0.27,4.61
		c-0.03,10.25-0.03,20.51-0.02,30.76c0,3.2-0.06,6.4,0.12,9.59c0.16,2.71,0.86,5.39,0.93,8.09c0.16,5.7,0.12,11.41,0.06,17.12
		c-0.02,1.57,0.49,2.29,2.08,2.41c2.32,0.18,4.99-0.12,6.82,0.96c1.7,1.01,2.46,3.57,3.69,5.42c1.78,2.69,3.61,5.36,5.77,8.55
		c-1.06,0.17-1.89,0.48-2.57,0.48c-0.16,0-0.31-0.02-0.45-0.05c-1.71-0.45-3.38-0.74-5.08-0.74c-1.2,0-2.42,0.14-3.67,0.47
		c-0.47,0.12-0.96,0.18-1.47,0.18c-1.21,0-2.49-0.29-3.63-0.64c-0.74-0.22-1.47-1.5-1.63-2.41c-0.27-1.5-0.07-3.08-0.07-4.63
		c-0.18-0.01-0.35-0.02-0.53-0.03c-0.15,1.9-0.29,3.8-0.44,5.7c-0.03-0.01-0.06-0.01-0.09-0.02c0-4.86-0.04-9.71,0.01-14.57
		c0.03-2.75,0.2-5.5,0.32-8.25c0.06-1.39-0.2-2.54-2.6-2.65C39.97,182.75,40.33,182.62,40.44,182.58z"/>
	<path class="st0" d="M64.85,87.15c0.02,0.13,0.12,0.35,0.34,0.35l0.06,0c0.26,0.05,0.51,0.11,0.76,0.17
		c0.64,0.15,1.24,0.28,1.86,0.31l0.56,0.02c2.08,0.07,4.22,0.15,6.33,0.15c0.92,0,1.77-0.01,2.59-0.04
		c0.88-0.03,2.48-0.79,2.63-1.61c0.24-1.21,0.49-3.4-0.41-4.46c-0.89-1.04-2.8-1.4-4.17-1.4c-0.08,0-0.16,0-0.24,0
		c-1.61,0.05-3.23,0.42-4.79,0.77c-0.57,0.13-1.13,0.26-1.7,0.37C64.44,82.62,64.33,82.78,64.85,87.15z M68.75,82.06
		c2.14-0.43,4.28-1.07,6.43-1.14c0.07,0,0.15,0,0.23,0c1.39,0,3.17,0.4,3.94,1.3c0.76,0.89,0.62,2.83,0.35,4.21
		c-0.12,0.61-1.51,1.34-2.35,1.36c-0.86,0.03-1.72,0.04-2.58,0.04c-2.29,0-4.59-0.09-6.88-0.17c-0.88-0.03-1.75-0.31-2.7-0.49
		c0.01,0.01,0.01,0.02,0.01,0.02c-0.01,0-0.04-0.04-0.04-0.08C64.65,82.9,64.65,82.89,68.75,82.06z"/>
	<path class="st0" d="M75.61,56.51c0.66-0.07,1.47-1.19,1.52-1.9c0.33-4.35,0.58-8.66,0.84-13.22c0.08-1.32,0.15-2.66,0.23-4.01
		l0.02-0.34l-0.34,0.03c-0.73,0.06-1.46,0.11-2.19,0.17c-2.18,0.16-4.43,0.33-6.63,0.59c-0.61,0.07-1.34,0.97-1.45,1.59
		c-0.64,3.76-1.05,6.67-1.33,9.44c-0.19,1.83-0.27,3.7-0.34,5.5c-0.03,0.81-0.07,1.62-0.11,2.43l-0.02,0.33l0.33-0.02
		c0.87-0.05,1.71-0.09,2.54-0.13C71.09,56.85,73.36,56.74,75.61,56.51z M66.14,56.79c0.14-2.64,0.18-5.29,0.45-7.91
		c0.33-3.15,0.8-6.29,1.33-9.42c0.09-0.52,0.73-1.29,1.19-1.35c2.92-0.35,5.86-0.52,8.8-0.76c-0.35,5.99-0.65,11.62-1.07,17.23
		c-0.04,0.59-0.77,1.57-1.26,1.62C72.57,56.52,69.55,56.61,66.14,56.79z"/>
	<path class="st0" d="M57.28,253.43c0.21-0.68-0.11-1.63-0.52-2.27c-0.14-0.21-0.41-0.21-0.5-0.21c-0.29,0-0.69,0.09-1.08,0.18
		c-0.13,0.03-0.26,0.06-0.37,0.08c-0.28,0.06-0.57,0.17-0.86,0.28c-0.34,0.13-0.69,0.26-0.93,0.26c-0.06,0-0.11-0.01-0.14-0.03
		c-2.28-1.32-4.61-2.85-5.91-5.79c-1.17-2.65-2.85-5.22-4.86-7.43c-2.04-2.25-5.83-3.76-9.41-3.76c-3.61,0-6.55,1.45-8.25,4.08
		c-0.6,0.93-0.46,2.38-0.35,3.55l0.01,0.14c0.05,0.55,1.31,1.07,1.76,1.07c0.13,0,0.23-0.03,0.31-0.09
		c0.74-0.51,1.36-1.18,1.97-1.83c0.21-0.22,0.42-0.45,0.63-0.66c0.22-0.22,0.43-0.48,0.62-0.72c0.42-0.51,0.81-1,1.29-1.19
		c0.41-0.16,0.91-0.24,1.57-0.24c0.43,0,0.88,0.03,1.31,0.07l0.14,0.01c3.92,0.29,8.18,3.42,9.21,6.68c-0.21,0-0.38-0.01-0.53-0.07
		c-2-0.76-4.01-1.14-6-1.14c-3.74,0-7.49,1.33-11.45,4.05c-1.34,0.92-1.74,2.34-1.17,4.11c0.2,0.61,1.26,1.49,1.81,1.49
		c0.08,0,0.15-0.02,0.21-0.05c1.02-0.49,1.9-1.27,2.75-2.03l0.14-0.12c0.31-0.27,0.57-0.6,0.83-0.92c0.38-0.47,0.74-0.92,1.19-1.13
		c2.04-0.96,4.12-1.44,6.16-1.44c3.03,0,6.03,1.02,9.18,3.11c2.38,1.58,4.54,2.84,6.61,3.84c0.4,0.19,0.85,0.29,1.33,0.29
		C55.44,255.63,56.9,254.66,57.28,253.43z M53.95,255.33c-0.41,0-0.83-0.08-1.2-0.26c-2.28-1.1-4.46-2.42-6.57-3.82
		c-3.02-2.01-6.13-3.16-9.34-3.16c-2.05,0-4.14,0.47-6.29,1.47c-0.84,0.39-1.35,1.44-2.09,2.1c-0.88,0.78-1.78,1.6-2.82,2.1
		c-0.02,0.01-0.05,0.02-0.08,0.02c-0.37,0-1.35-0.75-1.52-1.28c-0.45-1.39-0.35-2.8,1.06-3.77c3.57-2.46,7.3-4,11.28-4
		c1.9,0,3.86,0.35,5.89,1.12c0.3,0.11,0.66,0.07,1.03,0.1c-0.84-3.56-5.36-6.99-9.59-7.3c-0.48-0.04-0.97-0.08-1.46-0.08
		c-0.59,0-1.17,0.06-1.68,0.26c-0.81,0.32-1.35,1.3-2.01,1.98c-0.83,0.85-1.59,1.79-2.55,2.46c-0.03,0.02-0.08,0.03-0.14,0.03
		c-0.43,0-1.44-0.51-1.47-0.79c-0.11-1.16-0.28-2.62,0.29-3.5c1.82-2.81,4.88-3.94,8-3.94c3.57,0,7.21,1.48,9.19,3.66
		c1.95,2.15,3.64,4.7,4.81,7.35c1.28,2.9,3.54,4.48,6.03,5.92c0.08,0.05,0.18,0.07,0.29,0.07c0.5,0,1.25-0.42,1.84-0.54
		c0.42-0.08,1.04-0.26,1.39-0.26c0.12,0,0.21,0.02,0.24,0.07c0.36,0.56,0.67,1.43,0.49,2.02C56.64,254.49,55.27,255.33,53.95,255.33
		z"/>
	<path class="st0" d="M80.55,81.69l-0.33-0.03v0.33v4.9v0.35l0.34-0.05l5.62-0.8l3.53-0.5c-0.13,0.71-0.05,1.23,0.23,1.59
		c0.45,0.58,1.28,0.58,2.1,0.58c2.25,0,4.5,0.02,6.75,0.04c2.64,0.02,5.27,0.04,7.91,0.04c3,0,5.62-0.03,8.02-0.08
		c2.31-0.05,4.64-0.38,6.9-0.7c1.23-0.17,2.5-0.35,3.75-0.49c0.15-0.02,0.31-0.02,0.45-0.03c0.87-0.05,1.96-0.11,1.95-1.82
		c-0.01-1.2-0.28-2.59-2.33-2.59l-0.12,0c-0.65,0-1.32,0-1.83-0.24c-3.2-1.48-6.52-1.79-10.51-1.79l-0.39,0l-0.96,0
		c-2.92,0-5.89-0.05-8.76-0.1c-1.77-0.03-3.54-0.06-5.32-0.08c-0.87-0.01-1.73-0.01-2.6-0.01c-0.72,0-1.44,0-2.15,0
		c-0.7,0-1.39,0-2.07,0h-0.22l-0.07,0.21l-0.53,1.69l-0.13,0.42l-3.86-0.35L80.55,81.69z M89.99,82.85
		c0.26-0.83,0.45-1.42,0.74-2.34c1.38,0,2.8-0.01,4.23-0.01c0.86,0,1.73,0,2.59,0.01c4.69,0.05,9.38,0.18,14.08,0.18
		c0.32,0,0.64,0,0.97,0c0.13,0,0.26,0,0.38,0c3.57,0,7.06,0.22,10.38,1.76c0.6,0.28,1.38,0.26,2.07,0.26c1.58,0,2.03,0.83,2.03,2.29
		c0.01,1.67-1.07,1.44-2.14,1.56c-3.54,0.37-7.07,1.1-10.62,1.18c-2.67,0.06-5.34,0.08-8.01,0.08c-4.88,0-9.77-0.07-14.66-0.08
		c-1.27,0-2.52,0-1.94-2.24c-3.32,0.47-6.3,0.9-9.58,1.37c0-1.64,0-3.18,0-4.9C83.72,82.28,86.84,82.57,89.99,82.85z"/>
	<path class="st0" d="M58.41,39.41l0.06-0.43l-0.42,0.1c-0.69,0.16-1.39,0.32-2.09,0.48c-2.25,0.51-4.58,1.05-6.89,1.65
		c-0.58,0.15-1.04,0.97-1.19,1.44c-1.52,4.82-2.14,9.77-1.84,14.72c0.05,0.81,0.28,1.9,1.66,1.9c0.16,0,0.33-0.01,0.53-0.04
		c0.68-0.1,1.36-0.23,2.03-0.35c1.11-0.2,2.25-0.41,3.38-0.51c1.62-0.14,2.43-0.96,2.65-2.66c0.49-3.82,0.99-7.65,1.52-11.63
		L58.41,39.41z M55.98,55.67c-0.18,1.44-0.78,2.27-2.38,2.4c-1.82,0.15-3.61,0.59-5.42,0.86c-0.17,0.03-0.33,0.04-0.48,0.04
		c-0.85,0-1.29-0.45-1.36-1.61c-0.31-5,0.32-9.86,1.82-14.61c0.15-0.48,0.57-1.14,0.98-1.24c3.02-0.79,6.08-1.45,8.98-2.13
		C57.36,45.08,56.65,50.37,55.98,55.67z"/>
	<path class="st0" d="M7.19,255.63h0.32c0.07-0.2,0.15-0.4,0.22-0.59c1.07-2.84,2.18-5.77,2.99-8.75c0.3-1.12,0.21-2.33,0.12-3.5
		c-0.06-0.83-0.13-1.7-0.05-2.51c0.24-2.4,0.79-4.81,1.28-6.87c0.06-0.15,0.67-0.48,1.12-0.48c0.03,0,0.05,0,0.08,0.01
		c0.21,0.03,0.42,0.05,0.62,0.05c1.65,0,2.35-1.16,2.97-2.45c0.32-0.65,0.78-1.23,1.28-1.83c0.32-0.4,0.66-0.81,0.95-1.24
		c0.21-0.32,0.3-0.7,0.39-1.07c0.04-0.17,0.08-0.34,0.13-0.5c0.04-0.14,0.08-0.29,0.11-0.44c0.07-0.29,0.14-0.6,0.28-0.72
		c1.22-1.08,1.89-2.38,1.92-3.76c0.04-1.45-0.59-2.86-1.83-4.08c-0.73-0.72-1.31-1.98-1.44-3.14c-0.09-0.76,0.11-1.43,0.57-1.95
		c0.51-0.57,1.3-0.9,2.18-0.9l0.3,0v-0.3c0-0.55-0.04-1.11-0.09-1.66c-0.09-1.19-0.18-2.32,0.15-3.29
		c1.35-3.94,1.02-7.92,0.71-11.77c-0.14-1.71-0.28-3.48-0.28-5.22c0-0.84,0.05-1.69,0.11-2.59c0.03-0.43,0.05-0.88,0.08-1.34
		l0.01-0.24l-0.23-0.07l-1.58-0.46h4.68h1.85l-1.76-0.58c-4.14-1.38-4.14-1.38-4.17-5.54c-0.01-1.26-0.03-2.52-0.04-3.78
		c-0.03-2.52-0.07-5.12-0.03-7.67c0.02-1.38,0.11-2.8,0.19-4.16c0.09-1.51,0.19-3.08,0.2-4.62c0-1.21-0.15-2.43-0.3-3.61
		c-0.08-0.66-0.17-1.35-0.23-2.02c-0.04-0.45-0.08-0.9-0.13-1.36c-0.14-1.48-0.29-3.01-0.23-4.49c0.03-0.65,0.27-1.29,0.53-1.98
		c0.19-0.51,0.39-1.03,0.5-1.57c0.36-1.77-0.28-3.08-2.08-4.25c-0.95-0.62-2-2-2.04-3.07c-0.01-0.15-0.01-0.29-0.02-0.45
		c-0.09-1.69-0.17-3.44,1.94-4.1c0.34-0.11,0.95-0.52,0.94-0.94c-0.02-0.48-0.08-0.97-0.15-1.44c-0.1-0.73-0.2-1.41-0.12-2.08
		c0.21-1.75-0.76-2.45-1.86-3.07c-0.34-0.19-0.69-0.81-0.72-1.25c-0.23-3.79-0.36-6.95-0.4-9.95c-0.01-0.78,0.14-1.33,0.44-1.64
		c0.22-0.22,0.52-0.33,0.93-0.33c0.43,0,0.98,0.13,1.61,0.37l0.41,0.16v-0.44c0-1.82-0.01-3.62-0.02-5.41
		c-0.02-4.23-0.04-8.22,0.05-12.3c0.1-4.49,0.48-8.9,0.79-12.25c0.19-2.05,0.89-2.46,2.03-2.46c0.7,0,1.57,0.18,2.41,0.37l0.31,0.07
		l0.06-0.31l0.6-3.35c0.02,0.07,0.02,0.13,0.01,0.17c-1.45,7.04-1.31,14.23-1.18,21.19c0.06,2.93,0.12,5.95,0.06,8.92
		c-0.15,7.18-0.01,14.49,0.12,21.55l0.05,2.64c0.02,1.26,0.27,2.52,0.51,3.74c0.11,0.56,0.22,1.12,0.31,1.68l0.04,0.27l0.28-0.02
		l0.79-0.06l0.3-0.02l-0.03-0.3c-0.03-0.36-0.07-0.73-0.11-1.09c-0.09-0.84-0.19-1.7-0.16-2.54c0.01-0.41,0.17-0.83,0.35-1.27
		c0.1-0.24,0.19-0.5,0.27-0.75c0.04-0.14,0.09-0.28,0.13-0.42c0.15-0.45,0.3-0.92,0.29-1.41c-0.34-15.98,0.13-30.66,1.45-44.89
		l0.01-0.15c0.01-0.09,0.01-0.17,0.02-0.26c0.42-2.99,0.68-3.48,1.85-3.48c0.59,0,1.42,0.15,2.65,0.42c0.33,0.07,0.62,0.1,0.88,0.1
		c1.14,0,1.8-0.68,1.96-2.01c0.06-0.54,0.17-1.09,0.29-1.73c0.05-0.25,0.1-0.5,0.15-0.78c0.09,0.18,0.14,0.36,0.13,0.49
		c-0.07,0.92,0.15,1.68,0.63,2.19c0.4,0.43,0.97,0.66,1.63,0.66c0.05,0,0.1,0,0.15,0l-0.18,0.37c-0.09,0.18-0.2,0.36-0.32,0.54
		c-0.29,0.47-0.6,0.95-0.56,1.46c0.04,0.51,0.42,0.94,0.79,1.36c0.14,0.16,0.28,0.32,0.4,0.49l0.19,0.26l0.25-0.2l0.47-0.38
		l0.75-0.61l0.2-0.16l-0.13-0.22l-1.51-2.56l-0.21-0.36c0.62-0.06,1.13-0.33,1.48-0.77c0.44-0.57,0.58-1.39,0.39-2.31
		c-0.08-0.41,0.1-1.1,0.24-1.19c2.42-1.09,2.09-2.9,1.8-4.49c-0.09-0.49-0.17-0.96-0.19-1.41c-0.01-0.47-0.04-0.95-0.07-1.42
		c-0.05-0.91-0.11-1.86-0.06-2.78c0.51-9.88,2-17.29,4.83-23.93l-0.55,1.63l-0.03,0.09l-0.17,0.51l0.53-0.13
		c0.86-0.21,1.7-0.41,2.53-0.61c2.14-0.52,4.16-1.01,6.21-1.45c0.22-0.05,0.47-0.07,0.76-0.07c0.29,0,0.59,0.02,0.9,0.05
		c0.13,0.01,0.27,0.02,0.4,0.03c-1.94,7.69-2.66,13.69-2.33,19.42l0.03,0.47l0.41-0.22c0.37-0.2,0.57-0.45,0.61-0.77l0.19-1.61
		c0.54-4.62,1.09-9.39,1.6-14.09c0.09-0.8,0.1-1.62,0.11-2.41c0-0.28,0.01-0.57,0.02-0.85l0.04-0.14l0.01-0.03
		c0.18-0.2,0.36-0.39,0.55-0.58c0.49-0.51,1.01-1.05,1.37-1.67c3.34-5.74,7.16-9.86,11.71-12.58c1.96-1.17,4.06-2.1,6.29-3.09
		c0.86-0.38,1.75-0.77,2.65-1.19l-1.33,6.69l-0.06,0.28l0.28,0.07l0.51,0.12l0.29,0.07l0.07-0.28c0.22-0.86,0.45-1.71,0.68-2.57
		c0.54-1.98,1.09-4.03,1.5-6.08c0.36-1.79,1.13-2.46,2.85-2.46l0.16,0c2.91,0.07,5.32,0.1,7.57,0.1c1.82,0,3.5-0.02,5.14-0.07
		l0.16,0c2.07,0,3.38,1.16,4.49,2.41c0.12,0.13,0.24,0.28,0.35,0.42c0.53,0.65,1.13,1.39,2.01,1.39c0.28,0,0.58-0.08,0.88-0.24
		c0.67-0.35,1.01-1.29,1.3-2.12c0.06-0.16,0.11-0.32,0.17-0.47l0.13-0.32c0.32-0.79,0.67-1.68,0.45-2.42
		c-0.35-1.15-0.99-2.48-2.83-2.59c-1.93-0.11-3.75-0.3-5.5-0.59h3.42h0.23l0.06-0.22l0.1-0.36l0.1-0.36l0.06-0.24L106,9.75
		c-0.4-0.19-0.79-0.4-1.19-0.6c-0.86-0.45-1.75-0.91-2.68-1.25c-1.38-0.51-2.19-0.8-2.78-0.8c-1.2,0-1.34,1.1-1.64,3.49
		c0,0.03-0.02,0.08-0.04,0.14l-0.57-4.21l-0.03-0.21l-0.21-0.04l-0.79-0.15L95.8,6.07l-0.07,0.27c-0.08,0.32-0.18,0.65-0.28,0.97
		c-0.23,0.75-0.47,1.52-0.49,2.31c-0.03,1.12-0.35,1.45-1.44,1.49c-0.87,0.03-1.74,0.07-2.61,0.1c-1.22,0.05-2.46,0.1-3.7,0.14
		c1.65-0.14,3.32-0.25,4.97-0.32c1.11-0.04,1.83-0.29,2.27-0.78c0.42-0.47,0.59-1.17,0.52-2.2c-0.09-1.28-0.7-1.9-1.88-1.9
		c-0.28,0-0.56,0.03-0.83,0.06c-0.15,0.02-0.3,0.03-0.44,0.04c-5.78,0.4-11.37,2.03-17.09,4.97c-0.29,0.15-0.59,0.28-0.93,0.42
		c-0.21,0.08-0.43,0.15-0.65,0.22l-0.04,0.01l-0.03-0.06l-0.02-0.04c0.91-0.42,1.82-0.84,2.72-1.27c2.2-1.04,4.47-2.11,6.76-2.98
		c3.51-1.34,7.13-1.73,10.96-2.14c0.65-0.07,1.3-0.14,1.95-0.21c1.38-0.16,2.77-0.24,4.14-0.24c10.45,0,19.15,4.6,26.27,9.1
		c8.63,5.45,15.37,13.59,20.03,24.18c2.27,5.16,4.38,10.25,5.23,15.77c0.38,2.46,0.46,5.02,0.54,7.5l0.01,0.47
		c0.05,1.51,0.04,3.06,0.03,4.55c-0.01,1.24-0.02,2.53,0.01,3.79c0.01,0.39,0.16,0.74,0.3,1.09c0.1,0.24,0.19,0.47,0.24,0.69
		c0.07,0.35,0.09,0.7,0.11,1.08c0.02,0.3,0.04,0.61,0.08,0.91c0.02,0.15,0.03,0.31,0.05,0.48c0.05,0.6,0.1,1.21,0.49,1.55
		c0.41,0.36,1.07,0.49,1.55,0.49c0.25,0,0.49-0.03,0.69-0.1c0.56-0.18,1.06-1.22,0.99-1.82c-0.1-0.82-0.01-1.4,0.27-1.71
		c0.22-0.25,0.6-0.38,1.15-0.38c0.28,0,0.61,0.03,1.01,0.1c0.62,0.1,1.23,0.15,1.8,0.15c0.36,0,0.71-0.02,1.04-0.06
		c0.16-0.02,0.3-0.03,0.44-0.03c1.05,0,1.48,0.54,1.54,1.93c0.06,1.36,0.14,2.72,0.22,4.08c0.13,2.31,0.27,4.69,0.33,7.04l0.01,0.48
		c0.14,5.46,0.29,11.11,0.22,16.66c-0.07,5.67-0.24,11.22-0.42,17.11c-0.08,2.49-0.15,5-0.22,7.54l-0.01,0.33l0.33-0.02
		c0.23-0.01,0.47-0.03,0.72-0.05c0.44-0.04,0.9-0.07,1.34-0.07c0.09,0,0.18,0,0.27,0c0.06,0,0.12,0,0.18,0
		c0.71,0,1.22-0.17,1.57-0.52c0.39-0.4,0.56-1.01,0.55-1.98c-0.07-4.97-0.09-10.03-0.12-14.92c-0.02-3.23-0.03-6.46-0.06-9.69
		c-0.07-8.24-0.17-15.52-0.29-22.27c-0.02-1.13-0.21-2.26-0.4-3.36l-0.11-0.67c-0.09-0.56-0.05-0.95,0.14-1.17
		c0.18-0.23,0.55-0.36,1.11-0.39c0.6-0.03,1.03-0.05,1.39-0.05c2.22,0,2.55,0.49,2.68,4.01c0.26,6.56,0.43,13.23,0.59,19.68
		c0.06,2.2,0.11,4.4,0.17,6.6c0.02,0.86,0.02,1.73,0.01,2.56c0,0.38-0.01,0.76-0.01,1.13l0.01,0.23l0.22,0.06
		c3.96,1.15,3.96,1.15,3.79,5.21c-0.06,1.33-0.13,2.67-0.21,4c-0.09,1.61-0.18,3.27-0.24,4.9c-0.04,1.22-0.43,1.88-1.42,2.47
		c-1.33,0.78-2.1,2.04-2.11,3.45c-0.01,1.43,0.79,2.77,2.13,3.59c1.13,0.69,1.82,2.01,1.85,3.53c0.03,1.62-0.7,3.11-1.91,3.9
		c-2.54,1.66-3.13,3.85-1.82,6.67c0.23,0.49,0.34,1.12,0.3,1.68c-0.09,1.28-0.22,2.58-0.34,3.84c-0.22,2.22-0.44,4.52-0.47,6.79
		c-0.05,3.51,0.05,7.08,0.14,10.53c0.05,1.85,0.1,3.7,0.13,5.56c0.03,2.21,0.06,4.82-0.04,7.41c-0.02,0.53-0.19,1.06-0.39,1.68
		c-0.1,0.31-0.2,0.64-0.3,0.99l-0.08,0.32l0.33,0.05l1.48,0.25l0.06,0.01l-0.14,0.06l-1.51,0.6l-0.18,0.07l-0.01,0.19
		c-0.08,1.65-0.18,3.3-0.27,4.95c-0.24,4.18-0.49,8.5-0.57,12.76c-0.02,1.13,0.25,2.26,0.51,3.35c0.21,0.88,0.43,1.79,0.48,2.67
		c0.09,1.47,0.35,2.47,1.41,3.55c0.64,0.65,0.98,1.48,0.96,2.36c-0.03,0.99-0.52,1.95-1.36,2.7c-1.83,1.62-1.93,3.57-1.76,5.44
		c0.05,0.49,0.41,0.93,0.74,1.31c0.08,0.09,0.16,0.19,0.23,0.28c0.12,0.16,0.32,0.25,0.49,0.33c0.03,0.01,0.07,0.03,0.1,0.05
		c-0.02,1.52,0.88,2.52,1.75,3.5c0.76,0.85,1.48,1.65,1.59,2.77c0.13,1.37,0.9,2.04,2.34,2.04c0.17,0,0.35-0.01,0.53-0.03
		c0.47-0.04,0.96-0.08,1.34-0.08c1.17,0,1.31,0.25,1.41,2.45c0.08,1.72,0.1,3.48,0.12,5.17c0.04,2.82,0.08,5.73,0.36,8.58
		c0.23,2.31,0.94,4.62,1.71,6.72h0.32c-0.81-2.19-1.5-4.47-1.73-6.74c-0.46-4.55-0.28-9.16-0.48-13.74
		c-0.1-2.19-0.25-2.73-1.71-2.73c-0.37,0-0.81,0.03-1.36,0.09c-0.18,0.02-0.34,0.02-0.5,0.02c-1.18,0-1.92-0.47-2.04-1.77
		c-0.25-2.58-3.46-3.58-3.33-6.35c0.01-0.14-0.5-0.24-0.66-0.45c-0.35-0.45-0.86-0.93-0.91-1.43c-0.18-1.93-0.02-3.71,1.66-5.19
		c1.77-1.57,1.98-3.93,0.42-5.49c-1.04-1.04-1.24-2-1.33-3.35c-0.13-2.02-1.03-4.01-0.99-6c0.12-5.92,0.54-11.83,0.85-17.7
		c0.88-0.35,1.66-0.66,2.66-1.05c-1.19-0.2-2.06-0.34-2.61-0.43c0.28-1.05,0.66-1.88,0.69-2.73c0.09-2.47,0.08-4.95,0.04-7.43
		c-0.08-5.36-0.34-10.72-0.27-16.08c0.05-3.54,0.56-7.07,0.81-10.61c0.04-0.6-0.08-1.28-0.33-1.83c-1.23-2.66-0.7-4.71,1.71-6.29
		c2.71-1.77,2.74-6.32,0.05-7.94c-2.61-1.58-2.69-4.96-0.03-6.52c1.16-0.68,1.53-1.48,1.57-2.72c0.1-2.97,0.32-5.93,0.45-8.9
		c0.18-4.3,0.16-4.3-4.02-5.52c0-1.18,0.03-2.44,0-3.7c-0.24-8.76-0.43-17.53-0.77-26.29c-0.14-3.57-0.52-4.3-2.98-4.3
		c-0.41,0-0.87,0.02-1.41,0.05c-1.34,0.08-1.72,0.67-1.52,1.91c0.22,1.32,0.48,2.66,0.51,3.99c0.14,7.42,0.23,14.85,0.29,22.27
		c0.07,8.21,0.06,16.41,0.18,24.62c0.02,1.48-0.38,2.2-1.82,2.2c-0.06,0-0.11,0-0.17,0c-0.1,0-0.19-0.01-0.29-0.01
		c-0.71,0-1.41,0.09-2.08,0.13c0.23-8.41,0.54-16.53,0.64-24.65c0.07-5.71-0.08-11.43-0.23-17.15c-0.1-3.71-0.38-7.42-0.55-11.13
		c-0.06-1.36-0.49-2.21-1.84-2.21c-0.15,0-0.31,0.01-0.48,0.03c-0.33,0.04-0.66,0.06-1,0.06c-0.59,0-1.18-0.06-1.75-0.15
		c-0.38-0.06-0.74-0.1-1.06-0.1c-1.25,0-1.95,0.57-1.72,2.42c0.06,0.49-0.39,1.37-0.78,1.5c-0.18,0.06-0.38,0.08-0.6,0.08
		c-0.5,0-1.04-0.14-1.35-0.41c-0.39-0.34-0.34-1.21-0.44-1.85c-0.09-0.67-0.07-1.35-0.19-2.01c-0.11-0.59-0.52-1.15-0.53-1.73
		c-0.06-2.78,0.05-5.57-0.04-8.35c-0.08-2.67-0.15-5.37-0.55-8.01c-0.86-5.56-2.99-10.71-5.25-15.85
		c-4.42-10.05-10.9-18.47-20.14-24.31c-8.11-5.12-16.61-9.15-26.43-9.15c-1.37,0-2.76,0.08-4.18,0.24C91,5.39,86.61,5.67,82.45,7.25
		c-3.33,1.27-6.52,2.91-9.77,4.38c0.09,0.21,0.18,0.41,0.27,0.62c0.32-0.11,0.65-0.2,0.96-0.32c0.33-0.13,0.65-0.27,0.96-0.43
		c5.34-2.75,10.96-4.52,16.97-4.94c0.4-0.03,0.84-0.1,1.26-0.1c0.8,0,1.48,0.27,1.58,1.62c0.12,1.83-0.5,2.58-2.51,2.66
		c-4.36,0.17-8.71,0.68-13.06,1.05c0.46,0.01,0.91,0.01,1.37,0.01c4.37,0,8.71-0.22,13.06-0.39c1.25-0.05,1.69-0.51,1.73-1.79
		c0.03-1.08,0.49-2.14,0.76-3.21c0.26,0.05,0.53,0.1,0.79,0.15c0.21,1.56,0.42,3.12,0.71,5.26c0.35-0.81,0.47-0.99,0.5-1.18
		c0.29-2.35,0.4-3.23,1.34-3.23c0.54,0,1.37,0.3,2.67,0.78c1.33,0.49,2.56,1.22,3.84,1.84c-0.06,0.24-0.13,0.48-0.19,0.72
		c-2.16,0-4.33,0-6.49,0c2.86,0.67,5.7,1.03,8.55,1.19c1.62,0.09,2.22,1.25,2.56,2.38c0.22,0.73-0.25,1.73-0.57,2.54
		c-0.34,0.87-0.65,2.07-1.34,2.43c-0.27,0.14-0.51,0.2-0.74,0.2c-0.91,0-1.5-0.99-2.14-1.71c-1.26-1.42-2.62-2.51-4.71-2.51
		c-0.05,0-0.11,0-0.16,0c-1.71,0.05-3.42,0.07-5.13,0.07c-2.52,0-5.04-0.04-7.56-0.1c-0.06,0-0.11,0-0.17,0
		c-1.87,0-2.76,0.79-3.15,2.7c-0.58,2.91-1.44,5.76-2.18,8.63c-0.17-0.04-0.34-0.08-0.51-0.12c0.45-2.26,0.9-4.51,1.45-7.27
		c-3.41,1.6-6.61,2.81-9.5,4.54c-5.11,3.07-8.83,7.56-11.81,12.69c-0.5,0.87-1.32,1.56-1.99,2.33c0,0.01,0,0.02,0,0.03
		c0.01,0,0.03,0,0.04,0c-0.02,0.06-0.03,0.12-0.05,0.18c-0.03,1.09-0.01,2.19-0.13,3.27c-0.57,5.23-1.18,10.47-1.79,15.7
		c-0.02,0.2-0.15,0.38-0.45,0.54c-0.38-6.64,0.74-13.09,2.37-19.51c0-0.06,0-0.12,0.01-0.18c-0.55-0.02-1.11-0.09-1.65-0.09
		c-0.28,0-0.55,0.02-0.82,0.08c-2.84,0.61-5.66,1.32-8.74,2.06c0.52-1.54,0.92-2.71,1.31-3.88c-0.54,0.43-0.86,0.95-1.1,1.5
		c-3.41,7.8-4.62,16.07-5.05,24.48c-0.07,1.4,0.09,2.81,0.13,4.22c0.06,2,1.45,4.32-1.44,5.62c-0.31,0.14-0.51,1.04-0.41,1.52
		c0.31,1.53-0.35,2.66-1.71,2.73c-0.05,0-0.1,0-0.14,0c-1.27,0-2.08-0.95-1.96-2.54c0.04-0.53-0.66-1.59-1.05-1.6
		c-0.25-0.01-0.5-0.01-0.75-0.01c-1.83,0-3.66,0.16-5.5,0.26c0,0.17,0,0.34,0,0.51c2.17,0,4.34,0,6.62,0
		c-0.21,1.15-0.39,1.97-0.49,2.8c-0.14,1.24-0.71,1.75-1.66,1.75c-0.25,0-0.52-0.03-0.82-0.1c-1.2-0.26-2.07-0.42-2.71-0.42
		c-1.52,0-1.76,0.93-2.15,3.74c-0.02,0.14-0.03,0.28-0.04,0.42c-1.38,14.94-1.77,29.92-1.45,44.92c0.01,0.58-0.25,1.16-0.41,1.74
		c-0.2,0.71-0.61,1.4-0.63,2.1c-0.03,1.22,0.17,2.44,0.28,3.66c-0.26,0.02-0.53,0.04-0.79,0.06c-0.29-1.79-0.79-3.58-0.82-5.38
		c-0.14-8.06-0.33-16.12-0.16-24.18c0.2-10.02-0.94-20.09,1.11-30.05c0.09-0.44-0.52-1.42-0.92-1.49c-0.47-0.09-0.96-0.12-1.45-0.12
		c-0.65,0-1.3,0.04-1.95,0.04c0,0.17,0,0.35,0,0.52c1.2,0.08,2.41,0.16,3.81,0.26c-0.25,1.4-0.47,2.62-0.69,3.85
		c-0.99-0.22-1.81-0.37-2.48-0.37c-1.41,0-2.14,0.67-2.33,2.73c-0.39,4.08-0.7,8.17-0.79,12.27c-0.13,5.84-0.03,11.68-0.03,17.71
		c-0.68-0.26-1.25-0.39-1.72-0.39c-1.15,0-1.69,0.78-1.67,2.27c0.05,3.32,0.2,6.65,0.4,9.96c0.03,0.53,0.43,1.24,0.87,1.49
		c1.13,0.64,1.89,1.26,1.71,2.78c-0.14,1.16,0.22,2.37,0.26,3.56c0.01,0.21-0.44,0.56-0.73,0.65c-2.54,0.8-2.19,3.11-2.12,4.84
		c0.04,1.16,1.13,2.63,2.17,3.31c1.57,1.03,2.3,2.18,1.95,3.94c-0.25,1.22-0.99,2.38-1.04,3.59c-0.09,1.95,0.19,3.93,0.35,5.89
		c0.16,1.87,0.53,3.74,0.53,5.61c-0.01,2.93-0.35,5.85-0.39,8.78c-0.05,3.82,0.05,7.64,0.08,11.46c0.03,4.37,0.03,4.37,4.37,5.82
		c-2.29,0-3.98,0-5.67,0c0,0.11,0,0.21,0,0.32c0.85,0.25,1.71,0.5,2.49,0.73c-0.07,1.43-0.18,2.68-0.18,3.94
		c-0.02,5.63,1.51,11.26-0.41,16.9c-0.52,1.51-0.08,3.35-0.08,5.05c-1.81,0-3.27,1.26-3.05,3.18c0.13,1.16,0.71,2.51,1.53,3.32
		c2.31,2.28,2.37,5.25-0.08,7.4c-0.3,0.27-0.34,0.85-0.48,1.29c-0.16,0.5-0.2,1.08-0.48,1.5c-0.71,1.07-1.69,1.98-2.24,3.11
		c-0.63,1.29-1.25,2.28-2.7,2.28c-0.18,0-0.37-0.01-0.57-0.05c-0.04-0.01-0.08-0.01-0.12-0.01c-0.51,0-1.33,0.38-1.41,0.71
		c-0.55,2.28-1.06,4.59-1.29,6.92c-0.2,1.97,0.44,4.1-0.06,5.96C9.57,249.41,8.37,252.51,7.19,255.63z M42.2,80.36
		c-0.51,0.42-0.87,0.7-1.22,0.99c-0.4-0.56-1.08-1.11-1.13-1.7c-0.05-0.59,0.54-1.23,0.84-1.85C41.15,78.57,41.6,79.34,42.2,80.36z
		 M32.69,73.33c0.05,0,0.1-0.01,0.14-0.01c1.27-0.08,2.59-0.16,3.87-0.16c0.25,0,0.5,0,0.73,0.01c0.05,0.01,0.13,0.07,0.22,0.17
		H32.69z M23.62,73.42c0.04,0,0.08,0,0.12,0c0.32-0.01,0.64-0.02,0.96-0.02c0.56,0,1,0.04,1.4,0.11c0.02,0,0.07,0.03,0.14,0.09
		L23.62,73.42z"/>
	<path class="st0" d="M103.97,55.02l0.03,0h0c2.95-0.01,5.39-2.29,5.45-5.08c0.03-1.36-0.53-2.71-1.58-3.78
		c-1.12-1.14-2.64-1.8-4.21-1.8c0,0,0,0,0,0c-2.93,0.02-5.31,2.36-5.31,5.22C98.35,52.48,100.98,55.02,103.97,55.02z M103.65,44.67
		c0.01,0,0.02,0,0.03,0c2.92,0,5.51,2.5,5.46,5.27c-0.05,2.63-2.36,4.77-5.15,4.79c-0.01,0-0.02,0-0.03,0
		c-2.83,0-5.32-2.39-5.32-5.14C98.64,46.9,100.89,44.68,103.65,44.67z"/>
	<path class="st0" d="M105.92,120.39c-0.3-2.71-1.63-4.38-3.85-4.82c-0.09-0.07-0.19-0.14-0.28-0.22c-0.35-0.28-0.7-0.57-1.12-0.58
		c-0.56-0.01-1.13-0.02-1.69-0.03c-0.83-0.02-1.66-0.04-2.49-0.04c-1.62,0-2.92,0.08-4.09,0.26c-2.51,0.38-4.68,2.81-4.75,5.32
		c-0.08,3.13-0.03,6.13,0.15,8.93c0.18,2.75,1.3,4.57,3.32,5.41c1.81,0.74,3.63,1.12,5.42,1.12c1.62,0,3.25-0.31,4.87-0.94l1.4-0.76
		l1.4-0.76l0.09-0.05l0.04-0.09c0.18-0.37,0.4-0.76,0.62-1.13c0.5-0.86,1.02-1.75,1.09-2.69
		C106.28,126.24,106.23,123.24,105.92,120.39z M105.76,129.29c-0.09,1.27-1.09,2.48-1.68,3.71c-0.93,0.51-1.87,1.02-2.8,1.53
		c-1.58,0.61-3.16,0.9-4.73,0.9c-1.78,0-3.56-0.38-5.31-1.1c-2.23-0.92-2.99-2.97-3.14-5.15c-0.19-2.96-0.23-5.93-0.15-8.9
		c0.06-2.22,2.02-4.66,4.49-5.03c1.33-0.2,2.68-0.25,4.04-0.25c1.39,0,2.79,0.06,4.17,0.08c0.43,0.01,0.86,0.48,1.28,0.78
		c2.53,0.47,3.44,2.46,3.67,4.57C105.94,123.35,105.97,126.34,105.76,129.29z"/>
	<path class="st0" d="M102.04,115.91c-0.03-0.02-0.06-0.04-0.09-0.06c0,0-0.01,0-0.01,0C101.94,115.85,102.04,115.91,102.04,115.91z
		"/>
	<polygon class="st0" points="101.94,115.85 101.94,115.85 101.94,115.85 	"/>
	<path class="st0" d="M88.64,176.91c-0.39,0.46-0.34,1.32-0.13,2.64l0.08,0.52l0.41-0.34l1.43-1.19l1.2-1l0.42-0.35l-0.51-0.17
		c-1-0.33-1.58-0.47-2.02-0.47C89.12,176.57,88.83,176.68,88.64,176.91z M88.8,179.51c-0.3-1.9-0.22-2.64,0.71-2.64
		c0.44,0,1.06,0.16,1.93,0.45C90.58,178.03,89.78,178.69,88.8,179.51z"/>
	<path class="st0" d="M166.31,237.49c-1.86-0.71-3.73-1.07-5.56-1.07c-3.32,0-6.64,1.18-9.88,3.51c-1.35,0.98-2.59,2.14-3.79,3.27
		c-2.29,2.15-4.65,4.38-7.89,5.29c-0.97,0.27-1.97,0.79-2.91,1.5c-0.39,0.29-0.56,0.79-0.74,1.27c-0.07,0.19-0.14,0.38-0.22,0.56
		l-0.13,0.28l0.28,0.13c0.19,0.08,0.38,0.2,0.58,0.32c0.43,0.25,0.88,0.52,1.31,0.52c0.07,0,0.14-0.01,0.2-0.02
		c0.65-0.13,1.26-0.44,1.85-0.74c0.42-0.21,0.85-0.43,1.29-0.58c0.68-0.23,1.42-0.36,2.13-0.49c0.33-0.06,0.65-0.12,0.97-0.19
		l0.03-0.01l0.03-0.01c0.59-0.24,1.14-0.63,1.67-1c0.58-0.41,1.18-0.83,1.81-1.04c2.52-0.85,4.93-1.29,7.16-1.29
		c2.82,0,5.5,0.69,7.97,2.05c0.27,0.15,0.47,0.49,0.67,0.86c0.16,0.29,0.33,0.59,0.56,0.83c0.11,0.12,0.22,0.24,0.33,0.37
		c0.58,0.65,1.18,1.32,1.95,1.57c0.07,0.02,0.14,0.03,0.22,0.03c0.68,0,1.96-0.86,2.02-1.5c0.03-0.28,0.26-2.77-0.77-3.5
		c-3.23-2.29-7.18-4.62-12.03-4.62l-0.2,0c-1.03,0.01-2.05,0.07-3.24,0.13c-0.25,0.01-0.51,0.03-0.78,0.04
		c3.78-2.36,7.24-3.53,10.84-3.69c0.43,0,0.97,0.4,1.45,0.76c0.14,0.11,0.29,0.21,0.42,0.31c0.25,0.17,0.5,0.41,0.74,0.64
		c0.46,0.43,0.93,0.88,1.52,1.01c0.06,0.01,0.13,0.02,0.2,0.02c0.73,0,1.98-0.74,2.09-1.38c0.16-0.98-0.24-2.09-0.65-3.04
		C167.62,238.05,166.9,237.72,166.31,237.49z M168.2,241.57c-0.08,0.47-1.17,1.13-1.79,1.13c-0.05,0-0.09,0-0.14-0.01
		c-0.79-0.16-1.41-1.08-2.16-1.6c-0.64-0.44-1.37-1.11-2.04-1.11c-0.01,0-0.03,0-0.04,0c-4.19,0.18-7.96,1.71-11.9,4.34
		c2.05-0.1,3.59-0.21,5.13-0.23c0.07,0,0.13,0,0.2,0c4.52,0,8.32,2.06,11.86,4.57c0.67,0.48,0.75,2.15,0.64,3.22
		c-0.05,0.46-1.17,1.23-1.72,1.23c-0.05,0-0.09-0.01-0.13-0.02c-0.83-0.27-1.5-1.15-2.15-1.85c-0.5-0.53-0.73-1.43-1.31-1.75
		c-2.65-1.46-5.37-2.09-8.11-2.09c-2.41,0-4.83,0.48-7.26,1.3c-1.27,0.43-2.3,1.56-3.5,2.05c-1.05,0.22-2.13,0.35-3.14,0.69
		c-1.06,0.35-2.03,1.08-3.1,1.3c-0.05,0.01-0.09,0.01-0.14,0.01c-0.54,0-1.18-0.55-1.77-0.81c0.28-0.58,0.41-1.36,0.87-1.71
		c0.83-0.63,1.81-1.17,2.81-1.45c5.01-1.42,7.83-5.77,11.77-8.61c3.04-2.19,6.27-3.45,9.7-3.45c1.77,0,3.59,0.33,5.46,1.05
		c0.51,0.2,1.18,0.49,1.36,0.92C167.96,239.6,168.35,240.66,168.2,241.57z"/>
	<path class="st0" d="M58.57,134.22L58,134.54l0.61,0.22l0.59,0.22c0.61,0.22,1.22,0.45,1.83,0.66c0.06,0.02,0.13,0.03,0.21,0.03
		c0.07,0,0.14-0.01,0.22-0.02c0.04-0.01,0.07-0.01,0.11-0.01l0.28-0.02v-0.04c0.11,0,0.22,0.01,0.33,0.02
		c0.22,0.01,0.44,0.03,0.66,0.03c0.36,0,0.64-0.04,0.9-0.11c0.41-0.12,0.72-0.47,1.01-0.81c0.11-0.13,0.23-0.26,0.34-0.37l0.25-0.24
		l-0.27-0.21c-0.11-0.09-0.22-0.2-0.33-0.3c-0.29-0.28-0.58-0.56-0.97-0.64c-0.47-0.1-1.1-0.21-1.7-0.21
		c-0.36,0-0.67,0.04-0.96,0.12c-0.66,0.18-1.25,0.56-1.82,0.93C59.05,133.92,58.81,134.08,58.57,134.22z M61.19,133.13
		c0.28-0.08,0.58-0.11,0.89-0.11c0.54,0,1.11,0.1,1.63,0.21c0.43,0.09,0.78,0.58,1.17,0.89c-0.4,0.39-0.75,0.97-1.23,1.11
		c-0.26,0.08-0.54,0.1-0.82,0.1c-0.42,0-0.86-0.05-1.29-0.05c0,0.02,0,0.04,0,0.06c-0.1,0.01-0.21,0.03-0.31,0.03
		c-0.04,0-0.08,0-0.11-0.02c-0.81-0.28-1.61-0.58-2.42-0.88C59.54,134.01,60.31,133.37,61.19,133.13z"/>
	<path class="st0" d="M63.76,38.38c-1.82,0-1.97,0.68-2.44,2.93l-0.16,0.77c-0.23,1.04-0.46,2.12-0.58,3.2
		c-0.32,2.9-0.6,5.84-0.88,8.67c-0.11,1.1-0.21,2.2-0.32,3.29l-0.02,0.24l0.22,0.08c0.24,0.08,0.38,0.14,0.48,0.17
		c0.15,0.05,0.21,0.08,0.3,0.08l0.04,0c0.73-0.07,1.47-0.15,2.22-0.23l0.54-0.06l0.24-0.03l0.03-0.24l0.78-6.79l1.34-11.68
		l0.03-0.32l-0.32-0.02C64.64,38.4,64.16,38.38,63.76,38.38z M63.12,57.22c-0.94,0.1-1.85,0.2-2.76,0.29c0,0-0.01,0-0.01,0
		c-0.06,0-0.15-0.05-0.68-0.23c0.39-3.9,0.75-7.93,1.2-11.96c0.15-1.33,0.46-2.64,0.74-3.95c0.47-2.25,0.57-2.7,2.15-2.7
		c0.39,0,0.88,0.03,1.48,0.06C64.54,44.84,63.84,50.94,63.12,57.22z"/>
	<path class="st0" d="M60.17,71.85l-0.31-0.01v0.31v19.52v0.3l0.3,0l0.34,0.01l0.3,0v-0.3V72.16v-0.29l-0.29-0.01l-0.17-0.01
		L60.17,71.85z M60.5,91.67c-0.11,0-0.23,0-0.34-0.01c0-6.51,0-13.01,0-19.52c0.11,0,0.23,0.01,0.34,0.01
		C60.5,78.66,60.5,85.17,60.5,91.67z"/>
	<path class="st0" d="M130.46,45.31c0.21-3.42-5.34-6.36-8.38-6.97c-0.46-0.09-0.95-0.14-1.46-0.14c-1.26,0-2.47,0.29-3.32,0.79
		c-3.51,2.08-4.69,5.55-3.15,9.26c1.22,2.95,3.68,4.48,6.52,6.04c0.22,0.12,0.47,0.18,0.78,0.18c0.52,0,1.11-0.16,1.68-0.32
		c0.25-0.07,0.49-0.14,0.71-0.19c2.97-0.66,6.67-4.97,6.71-7.86c0-0.04-0.02-0.1-0.03-0.16C130.49,45.77,130.45,45.53,130.46,45.31z
		 M123.78,53.67c-0.73,0.16-1.62,0.5-2.32,0.5c-0.24,0-0.46-0.04-0.64-0.14c-2.58-1.41-5.16-2.93-6.39-5.89
		c-1.42-3.42-0.47-6.81,3.03-8.89c0.86-0.51,2.04-0.75,3.17-0.75c0.49,0,0.97,0.05,1.4,0.13c3.22,0.65,8.33,3.58,8.14,6.66
		c-0.02,0.35,0.07,0.7,0.09,0.84C130.22,48.85,126.54,53.05,123.78,53.67z"/>
	<path class="st0" d="M129.24,165.39c-1.42,0-2.82-0.01-4.21-0.01c-2.16,0-3.93,0.01-5.58,0.03c-1.75,0.02-2.72,0.04-3.25,0.59
		c-0.53,0.54-0.51,1.47-0.46,3.34c0.01,0.43,0.01,0.93-0.05,1.43c-0.08,0.62,0.02,1.08,0.3,1.4c0.28,0.32,0.71,0.47,1.33,0.47
		l0.11,0c4-0.11,7.99-0.21,12.02-0.32l4.24-0.11l0.29-0.01v-0.29v-6.21v-0.3h-0.3C132.16,165.4,130.69,165.39,129.24,165.39z
		 M133.66,171.91c-5.47,0.14-10.87,0.28-16.27,0.43c-0.03,0-0.07,0-0.1,0c-1.01,0-1.47-0.46-1.33-1.53
		c0.06-0.49,0.07-0.99,0.06-1.48c-0.08-3.51-0.08-3.57,3.42-3.62c1.85-0.02,3.7-0.03,5.58-0.03c2.82,0,5.68,0.02,8.64,0.02
		C133.66,167.74,133.66,169.68,133.66,171.91z"/>
	<path class="st0" d="M121.73,176.33l-5.48,0.28l-3.72,0.19l-0.28,0.01v0.29v16.54v0.3h0.3c0.69,0,1.38,0,2.06,0.01
		c0.67,0,1.33,0.01,1.99,0.01c1.57,0,2.76-0.02,3.88-0.08c0.61-0.03,1.5-0.96,1.51-1.58c0.07-3.97,0.06-7.94,0.06-12.15l0-3.52
		v-0.32L121.73,176.33z M121.69,192.29c-0.01,0.45-0.78,1.26-1.23,1.28c-1.28,0.06-2.57,0.08-3.87,0.08c-1.33,0-2.68-0.02-4.05-0.02
		c0-5.46,0-10.87,0-16.54c3.05-0.15,5.88-0.3,9.2-0.47C121.75,182.16,121.78,187.23,121.69,192.29z"/>
	<path class="st0" d="M102.2,193.65l-0.21,0.15l0.12,0.23l0.21,0.41l0.08,0.16h0.18h2.43h0.3v-0.3v-2.29v-0.58l-0.47,0.34
		l-1.65,1.18L102.2,193.65z M105.02,192.01c0,0.87,0,1.5,0,2.29c-0.84,0-1.64,0-2.43,0c-0.07-0.14-0.14-0.27-0.21-0.41
		C103.18,193.31,104,192.73,105.02,192.01z"/>
	<path class="st0" d="M55.89,80.55l-0.17-0.99l-0.05-0.29l-0.29,0.05l-3.93,0.63l-3.93,0.63l-0.28,0.04l0.03,0.28l0.04,0.41
		l0.04,0.41l0.03,0.31l0.31-0.04l7.93-1.09l0.31-0.04L55.89,80.55z M47.66,81.69c-0.03-0.28-0.06-0.55-0.09-0.83
		c2.62-0.42,5.24-0.84,7.85-1.25c0.06,0.33,0.11,0.66,0.17,0.99C52.95,80.96,50.31,81.33,47.66,81.69z"/>
	<path class="st0" d="M59.72,140.71c0.84,0.09,1.58,0.13,2.29,0.13c0.63,0,1.23-0.04,1.78-0.11c0.47-0.06,0.82-0.47,1.16-0.86
		c0.14-0.16,0.27-0.31,0.41-0.44l0.19-0.17l-0.14-0.21l-0.32-0.49l-0.08-0.13l-0.15-0.01c-0.44-0.02-0.87-0.05-1.31-0.07
		c-1.15-0.06-2.34-0.13-3.52-0.13l-0.2,0c-0.36,0-0.65,0.3-0.93,0.58c-0.1,0.1-0.2,0.21-0.3,0.29l-0.24,0.19l0.2,0.23
		c0.09,0.11,0.18,0.25,0.28,0.39C59.08,140.29,59.33,140.67,59.72,140.71z M59.83,138.53c0.07,0,0.13,0,0.2,0
		c1.61,0,3.21,0.12,4.82,0.2c0.11,0.16,0.21,0.33,0.32,0.49c-0.47,0.43-0.89,1.16-1.4,1.22c-0.58,0.07-1.16,0.1-1.75,0.1
		c-0.75,0-1.51-0.05-2.26-0.13c-0.36-0.04-0.65-0.71-0.97-1.09C59.13,139.05,59.48,138.53,59.83,138.53z"/>
	<path class="st0" d="M59.11,150.41c0.33,0.28,0.68,0.58,1.1,0.62c0.54,0.05,1.04,0.07,1.52,0.07c0.76,0,1.47-0.06,2.11-0.18
		c0.49-0.09,0.87-0.47,1.25-0.84c0.15-0.15,0.3-0.29,0.45-0.42l0.23-0.19l-0.19-0.23l-0.46-0.58l-0.08-0.11l-0.14-0.01
		c-0.43-0.02-0.85-0.05-1.28-0.07c-0.78-0.05-1.59-0.1-2.39-0.1c-0.32,0-0.63,0.01-0.95,0.03c-0.46,0.03-0.82,0.42-1.17,0.8
		c-0.14,0.15-0.28,0.3-0.41,0.42l-0.3,0.25l0.32,0.22C58.86,150.18,58.98,150.3,59.11,150.41z M60.3,148.7
		c0.31-0.02,0.62-0.03,0.93-0.03c1.21,0,2.43,0.12,3.65,0.17c0.15,0.19,0.31,0.39,0.46,0.58c-0.52,0.42-0.99,1.09-1.57,1.19
		c-0.67,0.12-1.36,0.17-2.06,0.17c-0.5,0-1-0.03-1.49-0.07c-0.47-0.04-0.9-0.57-1.34-0.88C59.36,149.45,59.81,148.73,60.3,148.7z"/>
	<path class="st0" d="M57.54,68.97c-0.12-0.61-0.22-1.09-0.21-1.55c0.02-0.79-0.14-1.36-0.5-1.73c-0.32-0.33-0.77-0.48-1.37-0.48
		c-0.22,0-0.46,0.02-0.74,0.06c-1.81,0.29-3.63,0.55-5.4,0.82l-2.18,0.32l-0.33,0.05l0.09,0.32c0.1,0.39,0.19,0.76,0.28,1.11
		c0.2,0.82,0.37,1.53,0.64,2.23c0.15,0.4,0.75,1.36,1.31,1.36l0.03,0l0.01,0c2.13-0.2,4.3-0.49,6.39-0.77
		c0.64-0.09,1.28-0.17,1.93-0.26l0.31-0.04l-0.05-0.31C57.68,69.68,57.6,69.31,57.54,68.97z M49.14,71.19c-0.01,0-0.01,0-0.02,0
		c-0.32,0-0.85-0.71-1.03-1.17c-0.37-0.98-0.57-2.02-0.91-3.31c2.45-0.37,5.01-0.74,7.58-1.14c0.25-0.04,0.48-0.06,0.69-0.06
		c1.04,0,1.61,0.51,1.57,1.9c-0.02,0.75,0.22,1.51,0.42,2.75C54.65,70.53,51.9,70.93,49.14,71.19z"/>
	<path class="st0" d="M58.56,144.68c0.11,0.12,0.22,0.27,0.33,0.42c0.29,0.4,0.59,0.81,1,0.84c0.45,0.03,0.91,0.05,1.36,0.05
		c0.93,0,1.84-0.07,2.71-0.22c0.46-0.08,0.81-0.46,1.15-0.84c0.14-0.15,0.27-0.3,0.4-0.42l0.17-0.15l-0.1-0.2l-0.16-0.35l-0.16-0.35
		l-0.08-0.17h-0.19c-0.45,0-0.9,0-1.35-0.01c-0.45,0-0.9-0.01-1.35-0.01c-0.91,0-1.65,0.02-2.32,0.06
		c-0.39,0.02-0.71,0.31-1.01,0.59c-0.12,0.11-0.23,0.21-0.35,0.3l-0.27,0.2L58.56,144.68z M59.98,143.64
		c0.77-0.04,1.53-0.06,2.3-0.06c0.9,0,1.8,0.02,2.7,0.02c0.11,0.23,0.22,0.46,0.33,0.7c-0.46,0.41-0.88,1.1-1.4,1.18
		c-0.87,0.14-1.77,0.21-2.66,0.21c-0.45,0-0.89-0.02-1.34-0.05c-0.4-0.03-0.75-0.76-1.13-1.17
		C59.18,144.18,59.57,143.67,59.98,143.64z"/>
	<path class="st0" d="M105.83,180.7l0.05-0.76c0.1-1.53,0.07-2.39-0.36-2.85c-0.22-0.24-0.53-0.35-0.97-0.35
		c-0.3,0-0.67,0.05-1.24,0.16l-0.49,0.1l0.31,0.39l1.26,1.55l0.96,1.17L105.83,180.7z M103.36,177.2c0.48-0.1,0.87-0.16,1.18-0.16
		c1.03,0,1.18,0.67,1.04,2.88C104.65,178.78,103.96,177.93,103.36,177.2z"/>
	<path class="st0" d="M55.82,72c-0.11,0-0.23,0.01-0.35,0.02l-5.35,0.65l-2.85,0.35l-0.39,0.05l0.15,0.36
		c0.12,0.3,0.24,0.56,0.35,0.81c0.21,0.46,0.38,0.87,0.49,1.27c0.69,2.66,1.17,3.75,3.06,3.75c0.64,0,1.41-0.12,2.39-0.3
		c0.48-0.09,0.95-0.2,1.47-0.32c0.37-0.09,0.67-0.13,0.91-0.13c0.32,0,0.55,0.07,0.7,0.23c0.25,0.25,0.36,0.78,0.35,1.6
		c-0.1,4.9-0.08,9.88-0.06,14.7c0.01,1.87,0.01,3.73,0.01,5.6v0.28l0.28,0.02l0.77,0.06l0.26,0.02l0.06-0.25
		c0.04-0.19,0.12-0.4,0.2-0.62c0.19-0.54,0.39-1.09,0.17-1.52c-1.21-2.32-0.77-4.76-0.34-7.12c0.08-0.43,0.15-0.85,0.22-1.27
		c0.83-5.34,0.28-10.3-0.53-16.23C57.53,72.35,56.58,72,55.82,72z M57.98,90.18c-0.42,2.68-1.32,5.73,0.16,8.58
		c0.24,0.45-0.24,1.28-0.39,1.93c-0.26-0.02-0.51-0.04-0.77-0.06c0-6.76-0.08-13.53,0.05-20.29c0.03-1.53-0.36-2.14-1.35-2.14
		c-0.28,0-0.61,0.05-0.98,0.14c-0.48,0.12-0.96,0.23-1.45,0.32c-0.98,0.18-1.74,0.29-2.33,0.29c-1.65,0-2.08-0.86-2.77-3.52
		c-0.17-0.64-0.5-1.25-0.85-2.12c2.76-0.34,5.48-0.67,8.2-1c0.11-0.01,0.22-0.02,0.32-0.02c1.06,0,1.5,0.74,1.63,1.74
		C58.18,79.4,58.83,84.69,57.98,90.18z"/>
	<path class="st0" d="M59.05,155.37c0.29,0.36,0.58,0.73,1,0.81c0.68,0.13,1.32,0.19,1.88,0.19c0.48,0,0.92-0.04,1.33-0.13
		c0.57-0.12,1.06-0.52,1.52-0.9c0.19-0.16,0.39-0.32,0.58-0.45l0.49-0.34l-0.56-0.19l-0.61-0.21c-0.51-0.18-1.04-0.37-1.57-0.53
		c-0.2-0.06-0.4-0.07-0.57-0.07l-0.04,0l0-0.04h-0.3c-0.18,0-0.37-0.01-0.56-0.02c-0.2-0.01-0.4-0.02-0.6-0.02
		c-0.31,0-0.57,0.03-0.8,0.09c-0.42,0.12-0.76,0.4-1.09,0.67c-0.13,0.11-0.26,0.22-0.4,0.31l-0.29,0.21l0.25,0.25
		C58.83,155.1,58.94,155.23,59.05,155.37z M60.33,153.84c0.23-0.06,0.47-0.08,0.72-0.08c0.38,0,0.77,0.05,1.16,0.05
		c0,0.01,0,0.03,0,0.04c0.06,0,0.12,0,0.18,0c0.05,0,0.11,0,0.16,0c0.17,0,0.33,0.01,0.49,0.05c0.73,0.22,1.44,0.49,2.16,0.74
		c-0.66,0.46-1.27,1.15-2,1.31c-0.41,0.09-0.83,0.12-1.26,0.12c-0.61,0-1.24-0.07-1.83-0.18c-0.44-0.08-0.79-0.72-1.18-1.11
		C59.39,154.45,59.81,153.98,60.33,153.84z"/>
	<path class="st0" d="M101.21,138.42c-1.23-0.22-2.59-0.33-4.03-0.33c-1.55,0-3.2,0.12-5.05,0.38c-2.56,0.35-4.34,3.17-4.39,5.59
		c-0.06,2.96-0.05,5.67,0.02,8.28c0.11,3.69,2.25,6.13,5.72,6.53c1.02,0.12,2.07,0.18,3.12,0.18c1.25,0,2.5-0.09,3.72-0.25
		c3.57-0.49,5.66-2.94,5.75-6.71c0.02-0.83,0.01-1.67,0.01-2.48c0-0.28,0-0.55,0-0.83l0.07,0v-0.3l0-1.07l0-2.32
		C106.14,141.24,104.48,139,101.21,138.42z M105.84,148.47c-0.02,0-0.05,0-0.07,0c0,1.2,0.02,2.4,0,3.6
		c-0.08,3.55-1.96,5.93-5.49,6.42c-1.21,0.17-2.44,0.25-3.67,0.25c-1.03,0-2.07-0.06-3.08-0.18c-3.38-0.39-5.36-2.78-5.46-6.24
		c-0.08-2.75-0.08-5.51-0.02-8.26c0.05-2.37,1.77-4.98,4.13-5.3c1.64-0.22,3.33-0.37,5.01-0.37c1.35,0,2.68,0.1,3.98,0.33
		c3.35,0.6,4.69,2.92,4.68,6.36C105.84,146.2,105.84,147.33,105.84,148.47z"/>
	<path class="st0" d="M47.35,98.15l-0.23,0.02l-0.26,0.02l-0.28,0.02v0.28l0,0.65l0,1.4c0.01,4.97,0.03,9.94,0.04,14.91
		c0.03,12.97,0.06,26.37,0.13,39.56c0.02,4.75,0.14,5.64,3.84,5.64c0.53,0,1.15-0.01,1.85-0.03c2.81-0.07,3.07-0.34,3.08-3.28
		c0.07-24.32,0.14-48.63,0.21-72.95c0-1.45,0.01-2.24-0.42-2.67c-0.22-0.22-0.53-0.32-1-0.32c-0.45,0-1.04,0.09-1.94,0.23
		c-6.04,0.97-6.35,1.39-5.62,7.61c0.27,2.27,0.4,4.6,0.54,6.85c0.05,0.76,0.09,1.52,0.14,2.28l0,0L47.35,98.15z M47.05,89.2
		c-0.71-6.02-0.54-6.33,5.37-7.28c0.85-0.14,1.46-0.23,1.9-0.23c1.11,0,1.13,0.61,1.12,2.69c-0.08,24.32-0.14,48.63-0.21,72.95
		c-0.01,2.78-0.13,2.92-2.78,2.98c-0.7,0.02-1.31,0.03-1.84,0.03c-3.46,0-3.52-0.63-3.54-5.34c-0.09-18.16-0.12-36.31-0.17-54.47
		c0-0.68,0-1.37,0-2.05c0.09-0.01,0.17-0.01,0.26-0.02c0.09,0.24,0.17,0.48,0.26,0.72c0.13-0.01,0.25-0.01,0.38-0.02
		C47.55,95.84,47.44,92.51,47.05,89.2z"/>
	<path class="st0" d="M60.56,161.49c0.35,0.16,0.72,0.32,0.99,0.47l0.27,0.15l0.14-0.28l0.13-0.25c0.02,0,0.04,0,0.07,0.01
		c0.1,0.01,0.2,0.02,0.3,0.02c0.16,0,0.29-0.02,0.41-0.07c0.61-0.24,1.21-0.53,1.79-0.8c0.22-0.1,0.45-0.21,0.67-0.31l0.58-0.27
		l-0.58-0.28c-0.22-0.1-0.44-0.21-0.65-0.32c-0.56-0.27-1.14-0.55-1.73-0.8c-0.21-0.09-0.46-0.14-0.69-0.14
		c-0.12,0-0.24,0.01-0.34,0.04c-0.1,0.03-0.21,0.04-0.35,0.04c-0.21,0-0.43-0.03-0.66-0.06c-0.24-0.03-0.49-0.06-0.73-0.06
		c-0.93,0-1.38,0.52-1.39,1.58C58.79,160.71,59.57,161.05,60.56,161.49z M60.19,158.89c0.44,0,0.95,0.12,1.39,0.12
		c0.15,0,0.29-0.01,0.43-0.05c0.08-0.02,0.17-0.03,0.26-0.03c0.19,0,0.4,0.04,0.57,0.12c0.8,0.34,1.58,0.74,2.37,1.11
		c-0.82,0.37-1.62,0.77-2.45,1.1c-0.09,0.04-0.19,0.05-0.29,0.05c-0.18,0-0.37-0.03-0.54-0.03c-0.07,0.14-0.14,0.28-0.22,0.42
		c-0.91-0.51-2.6-1.02-2.6-1.52C59.1,159.11,59.58,158.89,60.19,158.89z"/>
</g>
<g>
	<rect x="35.07" y="116.02" class="st0" width="7.71" height="5.54"/>
	<rect x="44.59" y="108.21" class="st0" width="7.71" height="21.16"/>
	<rect x="54.12" y="100.92" class="st0" width="7.71" height="35.74"/>
	<rect x="6.47" y="116.02" class="st0" width="7.71" height="5.54"/>
	<rect x="15.99" y="110.84" class="st0" width="7.71" height="15.91"/>
	<rect x="25.52" y="103.85" class="st0" width="7.71" height="29.88"/>
	<rect x="63.64" y="86.98" class="st0" width="7.71" height="63.63"/>
	<rect x="73.17" y="109.29" class="st0" width="7.71" height="19"/>
	<rect x="82.69" y="103.92" class="st0" width="7.71" height="29.75"/>
	<rect x="92.22" y="113.75" class="st0" width="7.71" height="10.08"/>
	<rect x="101.74" y="108.04" class="st1" width="7.71" height="21.5"/>
	<rect x="111.27" y="100.96" class="st0" width="7.71" height="35.66"/>
	<rect x="120.79" y="82.51" class="st0" width="7.71" height="72.56"/>
	<rect x="130.32" y="106.57" class="st0" width="7.71" height="24.44"/>
	<rect x="139.84" y="97.82" class="st0" width="7.71" height="41.93"/>
	<rect x="149.37" y="110.06" class="st0" width="7.71" height="17.46"/>
	<rect x="158.89" y="113.95" class="st0" width="7.71" height="9.68"/>
	<rect x="168.42" y="117.72" class="st0" width="7.71" height="2.15"/>
	<rect x="177.94" y="117.36" class="st0" width="7.71" height="2.87"/>
</g>
<rect x="221.81" y="22.99" class="st0" width="0.5" height="187.64"/>
<g>
	<path class="st0" d="M266.29,118.88c-8.04-2.25-12.06-7.45-12.06-15.57v-6.63c0-4.51-1.81-6.76-5.43-6.76v-7.6
		c3.62,0,5.43-2.27,5.43-6.8v-7.03c0.07-4.02,1.11-7.27,3.13-9.75c2.02-2.48,4.99-4.27,8.92-5.39l2.11,5.89
		c-2.81,1.07-4.28,4.07-4.39,9.01v7.27c0,5-2.07,8.53-6.2,10.58c4.13,2.05,6.2,5.59,6.2,10.62v7.23c0.11,4.93,1.57,7.94,4.39,9.01
		L266.29,118.88z"/>
	<path class="st0" d="M306.54,88.97c0,5.63-1.27,10.12-3.8,13.48c-2.53,3.36-5.96,5.04-10.26,5.04c-3.33,0-6.06-1.22-8.2-3.65v16.91
		h-11.29V70.59h10.55l0.33,3.35c2.17-2.68,5.01-4.02,8.54-4.02c4.46,0,7.94,1.65,10.41,4.94c2.48,3.29,3.72,7.82,3.72,13.58V88.97z
		 M295.26,88.27c0-6.43-1.88-9.64-5.63-9.64c-2.68,0-4.47,0.96-5.36,2.88v14.27c0.98,2.01,2.79,3.01,5.42,3.01
		c3.59,0,5.45-3.1,5.56-9.31V88.27z"/>
	<path class="st2" d="M351.95,100.8c-1.81,2.01-4.45,3.63-7.94,4.86c-3.48,1.23-7.3,1.84-11.45,1.84c-6.39,0-11.49-1.95-15.3-5.86
		c-3.82-3.91-5.86-9.34-6.13-16.31l-0.03-4.22c0-4.8,0.85-8.99,2.54-12.57c1.7-3.58,4.12-6.34,7.28-8.27
		c3.16-1.93,6.81-2.9,10.97-2.9c6.07,0,10.79,1.39,14.15,4.17c3.36,2.78,5.32,6.93,5.88,12.44H340.6c-0.4-2.72-1.27-4.67-2.61-5.83
		c-1.34-1.16-3.24-1.74-5.69-1.74c-2.95,0-5.22,1.25-6.83,3.75c-1.61,2.5-2.42,6.07-2.44,10.72v2.95c0,4.87,0.83,8.52,2.5,10.97
		c1.66,2.44,4.28,3.67,7.85,3.67c3.06,0,5.34-0.68,6.83-2.04v-7.57h-8.17v-8.07h19.93V100.8z"/>
	<path class="st0" d="M356.47,112.95c2.81-1.07,4.28-4.07,4.39-9.01v-7.27c0-5.02,2.08-8.55,6.23-10.58
		c-4.15-2.03-6.23-5.56-6.23-10.58v-7.27c-0.11-4.93-1.57-7.94-4.39-9.01l2.11-5.89c4,1.12,7,2.94,9.01,5.48
		c2.01,2.53,3.03,5.86,3.05,9.96v6.73c0,4.53,1.81,6.8,5.42,6.8v7.6c-3.62,0-5.42,2.24-5.42,6.73v7.13
		c-0.16,7.86-4.17,12.89-12.06,15.1L356.47,112.95z"/>
	<path class="st0" d="M399.31,86.33l-18.22-6.2V69.89l29.44,12.06v8.91l-29.44,12.06V92.66L399.31,86.33z"/>
	<path class="st0" d="M449.34,89.01c0,5.94-1.23,10.5-3.68,13.7c-2.46,3.19-5.92,4.79-10.38,4.79c-3.68,0-6.65-1.46-8.91-4.39
		l-0.47,3.72h-10.11V55.39h11.29V73.5c2.1-2.39,4.81-3.58,8.14-3.58c4.51,0,7.99,1.62,10.45,4.86c2.46,3.24,3.68,7.79,3.68,13.66
		V89.01z M438.02,88.29c0-3.48-0.46-5.96-1.39-7.44c-0.93-1.48-2.35-2.22-4.27-2.22c-2.54,0-4.31,0.97-5.29,2.91v14.38
		c0.96,1.92,2.75,2.88,5.36,2.88c2.66,0,4.34-1.29,5.06-3.88C437.84,93.64,438.02,91.43,438.02,88.29z"/>
	<path class="st0" d="M466.22,106.82H454.9V55.39h11.32V106.82z"/>
	<path class="st0" d="M471.74,88.37c0-3.62,0.7-6.84,2.11-9.66c1.41-2.82,3.43-4.99,6.06-6.51c2.63-1.52,5.73-2.28,9.28-2.28
		c5.43,0,9.7,1.68,12.83,5.04c3.13,3.36,4.69,7.93,4.69,13.71v0.4c0,5.65-1.57,10.13-4.71,13.45s-7.38,4.97-12.74,4.97
		c-5.16,0-9.3-1.55-12.42-4.64c-3.13-3.09-4.81-7.28-5.06-12.58L471.74,88.37z M483.03,89.08c0,3.35,0.52,5.81,1.57,7.37
		c1.05,1.56,2.6,2.34,4.66,2.34c4.02,0,6.07-3.09,6.16-9.28v-1.14c0-6.5-2.08-9.75-6.23-9.75c-3.77,0-5.82,2.8-6.13,8.41
		L483.03,89.08z"/>
	<path class="st0" d="M510.35,88.44c0-3.66,0.6-6.9,1.81-9.71c1.21-2.81,2.94-4.98,5.19-6.51c2.25-1.53,4.88-2.29,7.87-2.29
		c3.77,0,6.72,1.27,8.84,3.82l0.4-3.15h10.25v34.86c0,3.19-0.74,5.97-2.23,8.32c-1.48,2.36-3.63,4.16-6.45,5.43
		c-2.81,1.26-6.07,1.89-9.78,1.89c-2.66,0-5.23-0.5-7.72-1.51c-2.49-1-4.39-2.31-5.71-3.92l4.72-6.63c2.1,2.48,4.87,3.72,8.3,3.72
		c5,0,7.5-2.57,7.5-7.7v-1.14c-2.17,2.39-4.9,3.58-8.21,3.58c-4.42,0-7.99-1.69-10.72-5.07c-2.72-3.38-4.09-7.91-4.09-13.58V88.44z
		 M521.67,89.14c0,2.97,0.56,5.32,1.67,7.05c1.12,1.73,2.68,2.6,4.69,2.6c2.43,0,4.21-0.81,5.33-2.44V81.11
		c-1.09-1.65-2.85-2.48-5.26-2.48c-2.01,0-3.58,0.9-4.72,2.7C522.24,83.12,521.67,85.73,521.67,89.14z"/>
</g>
<g>
	<path class="st0" d="M252.53,165.74v-33.59h1.41v33.59H252.53z"/>
	<path class="st0" d="M269.37,166.11c-2.04,0-3.78-0.39-5.22-1.17s-2.54-2.03-3.29-3.73c-0.76-1.7-1.13-3.94-1.13-6.69
		c0-2.73,0.35-4.94,1.05-6.64c0.7-1.7,1.67-2.94,2.91-3.73c1.24-0.79,2.69-1.18,4.33-1.18c1.66,0,3.09,0.4,4.29,1.18
		c1.2,0.79,2.12,2.03,2.76,3.73c0.64,1.7,0.97,3.91,0.97,6.64v0.62h-15.63v-1.37h14.72l-0.56,0.54c0-2.45-0.26-4.41-0.78-5.87
		c-0.52-1.46-1.27-2.51-2.25-3.15c-0.98-0.64-2.15-0.96-3.52-0.96c-1.37,0-2.57,0.32-3.59,0.96c-1.02,0.64-1.81,1.68-2.37,3.14
		s-0.84,3.42-0.84,5.88v0.31c0,2.47,0.32,4.44,0.97,5.92c0.64,1.48,1.58,2.55,2.81,3.21c1.23,0.66,2.71,0.99,4.46,0.99
		c0.85,0,1.71-0.09,2.61-0.26c0.89-0.17,1.87-0.43,2.94-0.76v1.41c-1.01,0.33-1.97,0.58-2.89,0.74S270.28,166.11,269.37,166.11z"/>
	<path class="st0" d="M286.08,166.11c-1.03,0-2-0.07-2.92-0.21c-0.92-0.14-1.83-0.35-2.73-0.64v-1.41c1.11,0.33,2.11,0.57,3,0.7
		c0.89,0.13,1.8,0.2,2.71,0.2c2.22,0,3.85-0.41,4.89-1.24c1.04-0.82,1.56-1.98,1.56-3.46c0-1.3-0.33-2.3-0.99-2.99
		s-1.76-1.21-3.32-1.54l-2.68-0.58c-2.01-0.47-3.43-1.2-4.26-2.18c-0.83-0.98-1.25-2.22-1.25-3.7c0-1.75,0.65-3.2,1.94-4.36
		c1.3-1.16,3.29-1.74,5.98-1.74c0.89,0,1.73,0.05,2.52,0.15c0.79,0.1,1.58,0.26,2.37,0.48v1.41c-0.92-0.26-1.75-0.44-2.5-0.53
		c-0.75-0.09-1.54-0.13-2.39-0.13c-1.54,0-2.78,0.21-3.72,0.61s-1.63,0.96-2.07,1.66s-0.66,1.49-0.66,2.38
		c0,1.12,0.3,2.06,0.92,2.81c0.61,0.75,1.68,1.3,3.22,1.64l2.68,0.58c2.12,0.47,3.6,1.19,4.43,2.16c0.83,0.97,1.25,2.22,1.25,3.74
		c0,1.9-0.67,3.41-2,4.52C290.74,165.55,288.74,166.11,286.08,166.11z"/>
	<path class="st0" d="M303.88,166.11c-1.03,0-2-0.07-2.92-0.21c-0.92-0.14-1.83-0.35-2.73-0.64v-1.41c1.11,0.33,2.11,0.57,3,0.7
		c0.89,0.13,1.8,0.2,2.71,0.2c2.22,0,3.85-0.41,4.89-1.24c1.04-0.82,1.56-1.98,1.56-3.46c0-1.3-0.33-2.3-0.99-2.99
		s-1.76-1.21-3.32-1.54l-2.68-0.58c-2.01-0.47-3.43-1.2-4.26-2.18c-0.83-0.98-1.25-2.22-1.25-3.7c0-1.75,0.65-3.2,1.94-4.36
		c1.3-1.16,3.29-1.74,5.98-1.74c0.89,0,1.73,0.05,2.52,0.15c0.79,0.1,1.58,0.26,2.37,0.48v1.41c-0.92-0.26-1.75-0.44-2.5-0.53
		c-0.75-0.09-1.54-0.13-2.39-0.13c-1.54,0-2.78,0.21-3.72,0.61s-1.63,0.96-2.07,1.66s-0.66,1.49-0.66,2.38
		c0,1.12,0.3,2.06,0.92,2.81c0.61,0.75,1.68,1.3,3.22,1.64l2.68,0.58c2.12,0.47,3.6,1.19,4.43,2.16c0.83,0.97,1.25,2.22,1.25,3.74
		c0,1.9-0.67,3.41-2,4.52C308.53,165.55,306.54,166.11,303.88,166.11z"/>
	<path class="st0" d="M334.7,166.11c-1.9,0-3.51-0.39-4.84-1.17c-1.33-0.78-2.35-2.03-3.05-3.73c-0.7-1.7-1.05-3.94-1.05-6.69
		s0.38-4.98,1.13-6.68c0.75-1.7,1.87-2.93,3.34-3.71c1.47-0.78,3.27-1.16,5.4-1.16c0.71,0,1.44,0.05,2.2,0.15
		c0.76,0.1,1.48,0.25,2.16,0.46v1.41c-0.74-0.22-1.47-0.38-2.2-0.49c-0.73-0.1-1.44-0.16-2.12-0.16c-1.87,0-3.43,0.32-4.68,0.96
		c-1.25,0.64-2.18,1.69-2.81,3.17c-0.62,1.48-0.94,3.47-0.94,5.98c0,2.54,0.29,4.56,0.86,6.07s1.43,2.59,2.56,3.25
		c1.13,0.66,2.52,0.99,4.17,0.99c0.73,0,1.52-0.08,2.37-0.24s1.77-0.42,2.79-0.78v1.41c-0.9,0.33-1.79,0.58-2.67,0.74
		S335.58,166.11,334.7,166.11z"/>
	<path class="st0" d="M351.44,166.11c-1.75,0-3.27-0.39-4.58-1.16c-1.31-0.78-2.33-2.02-3.07-3.72s-1.1-3.94-1.1-6.71
		c0-2.76,0.37-4.98,1.1-6.68s1.76-2.93,3.07-3.71s2.84-1.16,4.58-1.16s3.28,0.38,4.59,1.15c1.32,0.77,2.34,2,3.07,3.69
		s1.09,3.93,1.09,6.71c0,2.74-0.36,4.97-1.09,6.67c-0.73,1.7-1.75,2.95-3.07,3.74C354.72,165.72,353.19,166.11,351.44,166.11z
		 M351.44,164.74c1.47,0,2.75-0.32,3.83-0.96c1.09-0.64,1.93-1.7,2.53-3.19c0.6-1.49,0.89-3.5,0.89-6.02c0-2.58-0.3-4.61-0.89-6.1
		c-0.6-1.49-1.44-2.55-2.53-3.19s-2.37-0.96-3.83-0.96c-1.47,0-2.75,0.32-3.84,0.95c-1.09,0.63-1.93,1.68-2.53,3.16
		s-0.89,3.48-0.89,6.02c0,2.56,0.3,4.6,0.89,6.1c0.6,1.5,1.44,2.58,2.53,3.22S349.97,164.74,351.44,164.74z"/>
	<path class="st0" d="M373.31,166.11c-1.62,0-3.08-0.36-4.39-1.08c-1.3-0.72-2.34-1.89-3.1-3.52c-0.76-1.63-1.14-3.81-1.14-6.54
		c0-2.76,0.41-5.02,1.24-6.8c0.82-1.77,2.04-3.09,3.64-3.94c1.6-0.85,3.57-1.28,5.91-1.28c0.75,0,1.49,0.03,2.23,0.1
		c0.74,0.07,1.42,0.16,2.05,0.27v-11.18h1.41v33.59h-1.25l-0.12-2.47h-0.17c-0.68,0.82-1.56,1.5-2.65,2.04
		C375.89,165.84,374.67,166.11,373.31,166.11z M373.37,164.74c1.21,0,2.38-0.28,3.52-0.84c1.14-0.56,2.1-1.45,2.86-2.67V144.8
		c-0.58-0.15-1.26-0.27-2.04-0.35c-0.78-0.08-1.55-0.12-2.31-0.12c-3.04,0-5.33,0.82-6.89,2.45c-1.56,1.63-2.34,4.31-2.34,8.02
		c0,2.55,0.31,4.55,0.92,5.99c0.62,1.44,1.47,2.46,2.55,3.06S371.97,164.74,373.37,164.74z"/>
	<path class="st0" d="M396.59,166.11c-2.04,0-3.78-0.39-5.22-1.17s-2.54-2.03-3.29-3.73c-0.76-1.7-1.13-3.94-1.13-6.69
		c0-2.73,0.35-4.94,1.05-6.64c0.7-1.7,1.67-2.94,2.91-3.73c1.24-0.79,2.69-1.18,4.33-1.18c1.66,0,3.09,0.4,4.29,1.18
		c1.2,0.79,2.12,2.03,2.76,3.73c0.64,1.7,0.97,3.91,0.97,6.64v0.62h-15.63v-1.37h14.72l-0.56,0.54c0-2.45-0.26-4.41-0.78-5.87
		c-0.52-1.46-1.27-2.51-2.25-3.15c-0.98-0.64-2.15-0.96-3.52-0.96c-1.37,0-2.57,0.32-3.59,0.96c-1.02,0.64-1.81,1.68-2.37,3.14
		s-0.84,3.42-0.84,5.88v0.31c0,2.47,0.32,4.44,0.97,5.92c0.64,1.48,1.58,2.55,2.81,3.21c1.23,0.66,2.71,0.99,4.46,0.99
		c0.85,0,1.71-0.09,2.61-0.26c0.89-0.17,1.87-0.43,2.94-0.76v1.41c-1.01,0.33-1.97,0.58-2.89,0.74S397.51,166.11,396.59,166.11z"/>
	<path class="st0" d="M408.34,171.97c0.37-1.19,0.67-2.31,0.88-3.35c0.21-1.04,0.32-2.09,0.32-3.14l0.08,0.46h-0.25
		c-0.37,0-0.68-0.12-0.92-0.37s-0.36-0.57-0.36-0.96c0-0.37,0.12-0.68,0.34-0.93c0.23-0.24,0.53-0.36,0.9-0.36
		c0.4,0,0.72,0.13,0.97,0.41c0.24,0.27,0.36,0.72,0.36,1.34c0,1.29-0.13,2.52-0.41,3.68s-0.61,2.24-1.01,3.22H408.34z"/>
	<path class="st0" d="M427.13,165.74v-22.45h1.25l0.12,2.7h0.17c0.9-1.03,1.92-1.79,3.07-2.29c1.14-0.5,2.32-0.75,3.54-0.75
		c1.21,0,2.28,0.24,3.21,0.71c0.94,0.47,1.67,1.25,2.19,2.33c0.53,1.08,0.79,2.54,0.79,4.39v15.36h-1.41V150.4
		c0-2.29-0.45-3.87-1.36-4.75c-0.91-0.88-2.1-1.32-3.57-1.32c-0.71,0-1.46,0.12-2.25,0.37c-0.8,0.25-1.57,0.65-2.32,1.21
		s-1.42,1.3-2.02,2.22v17.61H427.13z M452.86,165.74V150.4c0-2.29-0.47-3.87-1.41-4.75c-0.94-0.88-2.15-1.32-3.62-1.32
		c-0.71,0-1.49,0.13-2.34,0.39c-0.85,0.26-1.69,0.72-2.5,1.36c-0.82,0.64-1.53,1.54-2.12,2.67l-0.54-1.75
		c1.14-1.54,2.38-2.6,3.74-3.18c1.36-0.58,2.64-0.87,3.85-0.87c1.22,0,2.31,0.24,3.27,0.71c0.96,0.47,1.72,1.25,2.27,2.33
		c0.55,1.08,0.82,2.54,0.82,4.39v15.36H452.86z"/>
	<path class="st0" d="M468.52,166.11c-1.75,0-3.27-0.39-4.58-1.16c-1.31-0.78-2.33-2.02-3.07-3.72s-1.1-3.94-1.1-6.71
		c0-2.76,0.37-4.98,1.1-6.68s1.76-2.93,3.07-3.71s2.84-1.16,4.58-1.16s3.28,0.38,4.59,1.15c1.32,0.77,2.34,2,3.07,3.69
		s1.09,3.93,1.09,6.71c0,2.74-0.36,4.97-1.09,6.67c-0.73,1.7-1.75,2.95-3.07,3.74C471.79,165.72,470.26,166.11,468.52,166.11z
		 M468.52,164.74c1.47,0,2.75-0.32,3.83-0.96c1.09-0.64,1.93-1.7,2.53-3.19c0.6-1.49,0.89-3.5,0.89-6.02c0-2.58-0.3-4.61-0.89-6.1
		c-0.6-1.49-1.44-2.55-2.53-3.19s-2.37-0.96-3.83-0.96c-1.47,0-2.75,0.32-3.84,0.95c-1.09,0.63-1.93,1.68-2.53,3.16
		s-0.89,3.48-0.89,6.02c0,2.56,0.3,4.6,0.89,6.1c0.6,1.5,1.44,2.58,2.53,3.22S467.05,164.74,468.52,164.74z"/>
	<path class="st0" d="M483.05,165.74v-22.45h1.25l0.12,3.06h0.17c0.84-1.04,1.89-1.84,3.14-2.39c1.25-0.55,2.5-0.83,3.76-0.83
		c0.35,0,0.66,0.01,0.93,0.03c0.27,0.02,0.54,0.06,0.82,0.11v1.41c-0.29-0.05-0.57-0.09-0.84-0.09c-0.27-0.01-0.58-0.01-0.92-0.01
		c-0.79,0-1.62,0.13-2.48,0.4c-0.87,0.27-1.69,0.69-2.48,1.25c-0.79,0.56-1.47,1.27-2.04,2.13v17.38H483.05z"/>
	<path class="st0" d="M504.64,166.11c-2.04,0-3.78-0.39-5.22-1.17s-2.54-2.03-3.29-3.73c-0.76-1.7-1.13-3.94-1.13-6.69
		c0-2.73,0.35-4.94,1.05-6.64c0.7-1.7,1.67-2.94,2.91-3.73c1.24-0.79,2.69-1.18,4.33-1.18c1.66,0,3.09,0.4,4.29,1.18
		c1.2,0.79,2.12,2.03,2.76,3.73c0.64,1.7,0.97,3.91,0.97,6.64v0.62h-15.63v-1.37h14.72l-0.56,0.54c0-2.45-0.26-4.41-0.78-5.87
		c-0.52-1.46-1.27-2.51-2.25-3.15c-0.98-0.64-2.15-0.96-3.52-0.96c-1.37,0-2.57,0.32-3.59,0.96c-1.02,0.64-1.81,1.68-2.37,3.14
		s-0.84,3.42-0.84,5.88v0.31c0,2.47,0.32,4.44,0.97,5.92c0.64,1.48,1.58,2.55,2.81,3.21c1.23,0.66,2.71,0.99,4.46,0.99
		c0.85,0,1.71-0.09,2.61-0.26c0.89-0.17,1.87-0.43,2.94-0.76v1.41c-1.01,0.33-1.97,0.58-2.89,0.74S505.56,166.11,504.64,166.11z"/>
	<path class="st0" d="M523.52,144.62v-1.33h13.7v1.33H523.52z M528.09,165.74v-26.88c0-1.61,0.26-2.94,0.79-3.99
		c0.53-1.05,1.31-1.84,2.35-2.36c1.04-0.52,2.33-0.78,3.89-0.78c0.46,0,0.94,0.02,1.46,0.06c0.51,0.04,1,0.1,1.46,0.19v1.41
		c-0.49-0.1-0.98-0.17-1.48-0.22c-0.5-0.05-1-0.07-1.52-0.07c-1.83,0-3.21,0.43-4.14,1.28c-0.93,0.85-1.39,2.33-1.39,4.42v26.94
		H528.09z"/>
	<path class="st0" d="M548.47,166.11c-2.04,0-3.78-0.39-5.22-1.17s-2.54-2.03-3.29-3.73c-0.76-1.7-1.13-3.94-1.13-6.69
		c0-2.73,0.35-4.94,1.05-6.64c0.7-1.7,1.67-2.94,2.91-3.73c1.24-0.79,2.69-1.18,4.33-1.18c1.66,0,3.09,0.4,4.29,1.18
		c1.2,0.79,2.12,2.03,2.76,3.73c0.64,1.7,0.97,3.91,0.97,6.64v0.62h-15.63v-1.37h14.72l-0.56,0.54c0-2.45-0.26-4.41-0.78-5.87
		c-0.52-1.46-1.27-2.51-2.25-3.15c-0.98-0.64-2.15-0.96-3.52-0.96c-1.37,0-2.57,0.32-3.59,0.96c-1.02,0.64-1.81,1.68-2.37,3.14
		s-0.84,3.42-0.84,5.88v0.31c0,2.47,0.32,4.44,0.97,5.92c0.64,1.48,1.58,2.55,2.81,3.21c1.23,0.66,2.71,0.99,4.46,0.99
		c0.85,0,1.71-0.09,2.61-0.26c0.89-0.17,1.87-0.43,2.94-0.76v1.41c-1.01,0.33-1.97,0.58-2.89,0.74S549.38,166.11,548.47,166.11z"/>
	<path class="st0" d="M565.55,166.07c-2,0-3.58-0.51-4.76-1.54s-1.77-2.47-1.77-4.34s0.6-3.33,1.79-4.38
		c1.19-1.05,3.08-1.71,5.67-2.01l6.8-0.81l0.06,1.37l-6.9,0.81c-2.08,0.24-3.58,0.75-4.5,1.55c-0.92,0.8-1.38,1.91-1.38,3.34
		c0,1.51,0.42,2.66,1.27,3.45c0.84,0.79,2.11,1.18,3.78,1.18c1.22,0,2.43-0.27,3.64-0.82c1.21-0.55,2.28-1.45,3.22-2.71v-10.93
		c0-1.57-0.24-2.78-0.73-3.63c-0.49-0.85-1.19-1.44-2.11-1.78s-2.04-0.5-3.36-0.5c-0.85,0-1.79,0.08-2.84,0.24
		c-1.05,0.16-2.12,0.43-3.21,0.82v-1.41c0.87-0.33,1.85-0.59,2.94-0.76s2.12-0.26,3.11-0.26c1.61,0,2.98,0.22,4.12,0.67
		c1.14,0.44,2,1.2,2.6,2.26c0.6,1.06,0.89,2.51,0.89,4.36v15.51h-1.25l-0.12-2.66h-0.17c-0.76,0.93-1.74,1.66-2.93,2.19
		C568.23,165.8,566.94,166.07,565.55,166.07z"/>
	<path class="st0" d="M577.28,144.62v-1.33h13.7v1.33H577.28z M588.4,166.11c-2.04,0-3.64-0.54-4.8-1.61
		c-1.16-1.07-1.75-2.81-1.75-5.21v-16.01l0.17-8.32h1.25v24.07c0,2.08,0.45,3.55,1.34,4.41c0.89,0.86,2.19,1.29,3.88,1.29
		c0.46,0,0.92-0.04,1.39-0.1c0.47-0.07,0.99-0.17,1.56-0.29v1.41c-0.54,0.12-1.05,0.21-1.54,0.27
		C589.41,166.08,588.91,166.11,588.4,166.11z"/>
	<path class="st0" d="M601.66,166.11c-1.33,0-2.51-0.24-3.54-0.71c-1.03-0.47-1.84-1.25-2.43-2.34s-0.88-2.55-0.88-4.38v-15.4h1.41
		v15.42c0,2.25,0.51,3.81,1.54,4.7c1.03,0.89,2.34,1.33,3.95,1.33c0.79,0,1.63-0.12,2.52-0.36c0.89-0.24,1.75-0.63,2.58-1.17
		c0.83-0.54,1.57-1.25,2.2-2.14v-17.77h1.41v22.45h-1.25l-0.12-2.58h-0.17c-0.97,0.98-2.08,1.72-3.34,2.21
		C604.28,165.86,602.99,166.11,601.66,166.11z"/>
	<path class="st0" d="M617.48,165.74v-22.45h1.25l0.12,3.06h0.17c0.84-1.04,1.89-1.84,3.14-2.39c1.25-0.55,2.5-0.83,3.76-0.83
		c0.35,0,0.66,0.01,0.93,0.03c0.27,0.02,0.54,0.06,0.82,0.11v1.41c-0.29-0.05-0.57-0.09-0.84-0.09c-0.27-0.01-0.58-0.01-0.92-0.01
		c-0.79,0-1.62,0.13-2.48,0.4c-0.87,0.27-1.69,0.69-2.48,1.25c-0.79,0.56-1.47,1.27-2.04,2.13v17.38H617.48z"/>
	<path class="st0" d="M639.08,166.11c-2.04,0-3.78-0.39-5.22-1.17s-2.54-2.03-3.29-3.73c-0.76-1.7-1.13-3.94-1.13-6.69
		c0-2.73,0.35-4.94,1.05-6.64c0.7-1.7,1.67-2.94,2.91-3.73c1.24-0.79,2.69-1.18,4.33-1.18c1.66,0,3.09,0.4,4.29,1.18
		c1.2,0.79,2.12,2.03,2.76,3.73c0.64,1.7,0.97,3.91,0.97,6.64v0.62h-15.63v-1.37h14.72l-0.56,0.54c0-2.45-0.26-4.41-0.78-5.87
		c-0.52-1.46-1.27-2.51-2.25-3.15c-0.98-0.64-2.15-0.96-3.52-0.96c-1.37,0-2.57,0.32-3.59,0.96c-1.02,0.64-1.81,1.68-2.37,3.14
		s-0.84,3.42-0.84,5.88v0.31c0,2.47,0.32,4.44,0.97,5.92c0.64,1.48,1.58,2.55,2.81,3.21c1.23,0.66,2.71,0.99,4.46,0.99
		c0.85,0,1.71-0.09,2.61-0.26c0.89-0.17,1.87-0.43,2.94-0.76v1.41c-1.01,0.33-1.97,0.58-2.89,0.74S639.99,166.11,639.08,166.11z"/>
	<path class="st0" d="M655.79,166.11c-1.03,0-2-0.07-2.92-0.21c-0.92-0.14-1.83-0.35-2.73-0.64v-1.41c1.11,0.33,2.11,0.57,3,0.7
		c0.89,0.13,1.8,0.2,2.71,0.2c2.22,0,3.85-0.41,4.89-1.24c1.04-0.82,1.56-1.98,1.56-3.46c0-1.3-0.33-2.3-0.99-2.99
		s-1.76-1.21-3.32-1.54l-2.68-0.58c-2.01-0.47-3.43-1.2-4.26-2.18c-0.83-0.98-1.25-2.22-1.25-3.7c0-1.75,0.65-3.2,1.94-4.36
		c1.3-1.16,3.29-1.74,5.98-1.74c0.89,0,1.73,0.05,2.52,0.15c0.79,0.1,1.58,0.26,2.37,0.48v1.41c-0.92-0.26-1.75-0.44-2.5-0.53
		c-0.75-0.09-1.54-0.13-2.39-0.13c-1.54,0-2.78,0.21-3.72,0.61s-1.63,0.96-2.07,1.66s-0.66,1.49-0.66,2.38
		c0,1.12,0.3,2.06,0.92,2.81c0.61,0.75,1.68,1.3,3.22,1.64l2.68,0.58c2.12,0.47,3.6,1.19,4.43,2.16c0.83,0.97,1.25,2.22,1.25,3.74
		c0,1.9-0.67,3.41-2,4.52C660.45,165.55,658.45,166.11,655.79,166.11z"/>
</g>
</svg>
