<?xml version="1.0" encoding="utf-8"?>
<!-- Generator: Adobe Illustrator 25.0.0, SVG Export Plug-In . SVG Version: 6.00 Build 0)  -->
<svg version="1.1" id="Calque_1" xmlns="http://www.w3.org/2000/svg" xmlns:xlink="http://www.w3.org/1999/xlink" x="0px" y="0px"
	 viewBox="0 0 460 230" style="enable-background:new 0 0 460 230;" xml:space="preserve">
<style type="text/css">
	.st0{fill:#FFFFFF;}
	.st1{fill:#EC6608;}
	.st2{fill:#ED6B2A;}
</style>
<g>
	<path class="st0" d="M46.75,52.36l0.23-0.04l-0.01-0.23l-0.01-0.21l-0.01-0.22l-0.01-0.3l-0.3,0.05l-4.09,0.66l-4.09,0.66
		l-0.26,0.04l0.04,0.26l0.04,0.24l0.05,0.29l0.04,0.27l0.27-0.05L46.75,52.36z M38.51,52.99c2.72-0.44,5.45-0.88,8.17-1.32
		c0.01,0.14,0.01,0.28,0.02,0.42c-2.7,0.48-5.4,0.95-8.11,1.43C38.57,53.35,38.54,53.17,38.51,52.99z"/>
	<path class="st0" d="M113.89,186.81c-2.44,0.27-4.94,0.39-7.35,0.5c-0.93,0.04-1.87,0.09-2.8,0.14l-0.39,0.02l0.16,0.35l0.11,0.24
		c-0.21,0.11-0.42,0.21-0.63,0.31c-0.69,0.34-1.4,0.69-2.06,1.12c-0.45,0.29-1.27,0.99-1.2,1.58c0.44,3.85-1.75,5.18-5.69,6.16
		c-1.18,0.29-2.48,0.3-3.73,0.31c-0.24,0-0.48,0-0.71,0c-0.99,0.01-1.99,0.03-2.98,0.05c-1.66,0.03-3.38,0.06-5.07,0.06
		c-1.86,0-3.48-0.04-4.97-0.12c-1.94-0.11-4.08-0.66-6.37-1.66c-0.92-0.4-1.58-2.07-1.87-2.78c-0.22-0.56-0.23-1.21-0.24-1.97
		c-0.01-0.36-0.01-0.73-0.04-1.12l-0.02-0.23l-0.23-0.02c-0.19-0.02-0.38-0.03-0.56-0.04c-0.43-0.03-0.84-0.06-1.24-0.12
		c-0.07-0.01-0.15-0.02-0.24-0.03c-0.21-0.03-0.65-0.08-0.77-0.15c-0.5-1.48-1.53-1.68-2.48-1.68c-0.2,0-0.4,0.01-0.6,0.02
		c-0.19,0.01-0.39,0.02-0.58,0.02c-0.11,0-0.21,0-0.32-0.01c-2.58-0.18-5.34-0.35-8.09-0.47l-0.06,0c-0.42,0-1.29,0.2-1.44,0.65
		c-0.18,0.56-0.24,1.53,0.18,1.96c0.99,1.02,0.99,2.24,0.99,3.54l0,0.31l0.01,4.66c0.01,6.9,0.03,14.04-0.01,21.06
		c-0.02,3.43-1.04,5.85-3.01,7.25h0.48c2.08-1.66,2.79-4.36,2.8-7.25c0.04-8.57,0.01-17.15,0-25.73c0-1.42,0.09-2.85-1.06-4.03
		c-0.31-0.32-0.28-1.17-0.12-1.69c0.08-0.26,0.75-0.46,1.18-0.46c0.02,0,0.04,0,0.05,0c2.7,0.12,5.39,0.29,8.08,0.47
		c0.11,0.01,0.22,0.01,0.34,0.01c0.39,0,0.79-0.03,1.18-0.03c0.94,0,1.81,0.2,2.24,1.53c0.07,0.22,0.79,0.27,1.22,0.33
		c0.59,0.09,1.2,0.11,1.82,0.16c0.09,1.2-0.05,2.28,0.3,3.17c0.44,1.09,1.08,2.52,2.01,2.92c2.02,0.88,4.27,1.56,6.46,1.68
		c1.66,0.09,3.32,0.12,4.98,0.12c2.68,0,5.37-0.08,8.05-0.11c1.51-0.02,3.07,0.04,4.51-0.32c3.87-0.96,6.37-2.29,5.89-6.45
		c-0.05-0.4,0.61-1.02,1.08-1.32c0.91-0.59,1.92-1.03,2.89-1.53c-0.07-0.16-0.14-0.32-0.21-0.47c3.39-0.19,6.79-0.28,10.17-0.65
		c0.95-0.1,2.12-0.83,2.67-1.63c2.56-3.74,4.92-7.61,7.41-11.39c0.25-0.38,0.83-0.7,1.3-0.77c1.92-0.3,3.86-0.54,5.8-0.71
		c1.28-0.11,1.94-0.58,1.87-1.99c-0.08-1.82-0.02-3.64-0.02-5.46c0.25,3.07,0.49,6.13,0.52,9.2c0.03,3.15-0.1,6.3-0.28,9.44
		c-0.03,0.47-0.61,0.97-1.04,1.33c-0.61,0.51-1.22,0.68-1.83,0.68c-0.93,0-1.87-0.4-2.81-0.65c-0.08-0.02-0.16-0.03-0.25-0.03
		c-0.15,0-0.31,0.02-0.47,0.02c0.22,0.49,0.4,0.92,0.71,1.64c-0.74-0.33-1.17-0.58-1.63-0.73c-1.58-0.53-3.05-0.79-4.39-0.79
		c-4.18,0-6.99,2.58-7.38,7.63c-0.67,8.82-0.37,17.72-0.47,26.58c-0.03,3.17,1.1,5.87,3.79,7.28h0.58
		c-3.43-1.48-4.14-4.76-4.11-7.27c0.03-2.58,0.02-5.21,0.02-7.75c-0.01-6.18-0.03-12.57,0.45-18.81c0.36-4.76,2.89-7.39,7.11-7.39
		c1.31,0,2.76,0.26,4.3,0.78c0.28,0.09,0.56,0.23,0.92,0.4c0.2,0.1,0.42,0.2,0.68,0.32l0.63,0.29l-0.28-0.64l-0.38-0.87l-0.18-0.41
		c0.02,0,0.05,0,0.07,0c0.07,0,0.13,0.01,0.18,0.02c0.25,0.07,0.5,0.14,0.74,0.22c0.69,0.22,1.41,0.44,2.13,0.44
		c0.75,0,1.41-0.24,2.01-0.75c0.56-0.47,1.1-0.97,1.13-1.52c0.15-2.8,0.31-6.11,0.28-9.46c-0.03-2.97-0.25-5.93-0.52-9.22
		l-0.53,0.02c0,0.55-0.01,1.09-0.01,1.64c-0.01,1.26-0.03,2.55,0.03,3.83c0.05,1.15-0.37,1.6-1.63,1.71
		c-1.89,0.16-3.84,0.4-5.82,0.71c-0.5,0.08-1.17,0.41-1.49,0.89c-0.95,1.45-1.9,2.93-2.82,4.37c-1.48,2.32-3.01,4.72-4.59,7.02
		C115.86,186.04,114.74,186.72,113.89,186.81z"/>
	<path class="st0" d="M132.52,157.99c0.06,0.99,0.11,2.01,0.11,3.01v0.3l0.29-0.03l1.72-0.18l0.88-0.09l0.24-0.02v-0.24
		c0-0.34,0-0.68,0-1c0-0.66-0.01-1.29,0.01-1.91l0.29-15.24c0.18-9.33,0.36-18.66,0.53-27.99c0.03-1.57,0.02-3.15,0.01-4.68
		c0-0.7-0.01-1.4-0.01-2.09v-0.23l-0.22-0.04c-0.63-0.1-1.11-0.15-1.5-0.15c-0.67,0-1.12,0.15-1.42,0.46
		c-0.44,0.47-0.45,1.27-0.39,2.07l0.08,1.12c0.12,1.6,0.24,3.26,0.29,4.88c0.11,3.41,0.17,6.96,0.21,9.81
		c0.02,1.09,0.01,2.21,0.01,3.28c-0.01,2.09-0.02,4.24,0.12,6.36c0.09,1.37,0,2.76-0.09,4.11c-0.11,1.72-0.23,3.51,0.02,5.3
		c0.3,2.13-0.21,4.25-0.86,6.6C132.27,153.47,132.39,155.67,132.52,157.99z M133.96,144.76c-0.45-3.16,0.28-6.25,0.07-9.38
		c-0.21-3.2-0.08-6.42-0.13-9.63c-0.05-3.27-0.1-6.55-0.21-9.82c-0.07-2.01-0.23-4.01-0.37-6.01c-0.11-1.61,0.16-2.24,1.54-2.24
		c0.39,0,0.87,0.05,1.46,0.14c0,2.2,0.04,4.48-0.01,6.77c-0.26,14.41-0.54,28.82-0.82,43.23c-0.02,0.93,0,1.86,0,2.92
		c-0.93,0.1-1.64,0.17-2.6,0.27c0-3.33-0.61-6.63,0.19-9.53C133.73,149.19,134.28,146.99,133.96,144.76z"/>
	<path class="st0" d="M119.9,155.83c-0.7-0.06-1.3-0.11-1.74-0.11c-0.45,0-0.91,0.04-1.2,0.35c-0.38,0.4-0.35,1.04-0.29,2.34
		c0.05,1,0.04,2.02,0.04,3.01l0,0.75c0,2.09,0,4.17,0,6.24l0,2.5v0.23l0.23,0.03c0.76,0.11,1.33,0.18,1.77,0.18
		c1.41,0,1.42-0.87,1.43-2.6c0.01-1.26,0.01-2.51,0.01-3.77l0-6.23l0-2.65v-0.24L119.9,155.83z M119.88,164.98
		c0,1.26,0,2.51-0.01,3.77c-0.01,1.81-0.05,2.33-1.16,2.33c-0.41,0-0.97-0.07-1.73-0.18c0-2.88,0-5.81,0-8.74
		c0-1.26,0.01-2.51-0.04-3.77c-0.09-1.94-0.11-2.41,1.22-2.41c0.42,0,0.98,0.05,1.72,0.11
		C119.88,159.11,119.88,162.04,119.88,164.98z"/>
	<path class="st0" d="M46.59,54.07l0.07-0.02l1.19-0.31l0.24-0.06l-0.05-0.24L48,53.18l-0.05-0.25l-0.25,0.04l-2.98,0.43l-5.96,0.86
		l-0.26,0.04l0.03,0.26l0.03,0.21L38.58,55l0.03,0.26l0.26-0.03l1.56-0.17l-0.46,0.27l-1.08,0.63l-0.52,0.31l0.58,0.18
		c0.71,0.22,1.62,0.33,2.63,0.33c2.66,0,5.99-0.8,6.72-2.09l0.19-0.34l-0.38-0.06L46.59,54.07z M41.59,56.52
		c-0.94,0-1.83-0.1-2.56-0.32c0.94-0.55,1.56-0.91,2.61-1.53c-1.22,0.13-2.01,0.21-2.79,0.3c-0.02-0.15-0.04-0.3-0.06-0.44
		c2.98-0.43,5.96-0.86,8.94-1.3c0.02,0.08,0.03,0.17,0.05,0.25c-0.77,0.2-1.54,0.41-2.49,0.66c1.04,0.16,1.88,0.29,2.79,0.43
		C47.45,55.67,44.32,56.52,41.59,56.52z"/>
	<path class="st0" d="M125.17,165.28c0.23,0.42,0.6,0.75,0.95,1.06c0.15,0.13,0.29,0.26,0.42,0.39l0.19,0.19l0.19-0.19
		c0.12-0.12,0.27-0.24,0.43-0.37c0.39-0.31,0.8-0.64,0.83-1.06c0.13-1.61,0.21-3.17-0.12-4.65c-0.15-0.67-0.58-1.08-1.13-1.08
		c-0.49,0-0.97,0.34-1.27,0.92c-0.34,0.64-0.5,1.38-0.63,1.97c-0.05,0.23-0.1,0.44-0.15,0.62l-0.01,0.05l0.01,0.05
		c0.03,0.3,0.05,0.57,0.06,0.81C124.95,164.51,124.97,164.93,125.17,165.28z M125.9,160.62c0.28-0.52,0.67-0.78,1.04-0.78
		c0.38,0,0.73,0.29,0.87,0.87c0.33,1.46,0.24,3.05,0.12,4.57c-0.04,0.45-0.77,0.85-1.18,1.27c-0.46-0.46-1.04-0.84-1.33-1.39
		c-0.25-0.46-0.16-1.1-0.27-2.01C125.32,162.49,125.44,161.47,125.9,160.62z"/>
	<path class="st0" d="M55,87.23v0.2v3.42v0.27h0.27c0.56,0,1.12-0.01,1.67-0.02c0.54-0.01,1.07-0.02,1.6-0.02
		c0.75,0,1.37,0.02,1.95,0.06c1.06,0.08,2.14,0.23,3.18,0.37c1.56,0.21,3.18,0.43,4.78,0.44l0.39,0c3.26,0,6.58-0.1,9.79-0.2
		c2.17-0.07,4.42-0.14,6.63-0.18c2.08-0.04,3.1-0.08,3.66-0.68c0.39-0.43,0.49-1.07,0.47-2.15l0.03,0.03
		c0.06,0.07,0.12,0.16,0.17,0.24c0.16,0.23,0.34,0.5,0.61,0.55c1,0.19,1.99,0.41,2.99,0.62c2.7,0.57,5.5,1.17,8.29,1.4
		c0.51,0.04,1.03,0.06,1.59,0.06c1.64,0,3.31-0.18,4.93-0.36c0.85-0.09,1.74-0.19,2.6-0.26c0.29-0.02,0.56-0.16,0.79-0.28
		c0.09-0.05,0.19-0.1,0.28-0.14l0.16-0.07v-0.18v-3.63V86.5l-0.23-0.03c-0.49-0.07-0.96-0.14-1.4-0.21
		c-0.93-0.14-1.81-0.28-2.68-0.37c-0.74-0.08-1.51-0.19-2.24-0.3c-1.36-0.2-2.76-0.42-4.13-0.42c-0.53,0-1.02,0.03-1.49,0.09
		c-2.27,0.3-4.51,1.05-6.67,1.77c-0.88,0.29-1.8,0.6-2.69,0.87c-0.22,0.07-0.41,0.19-0.59,0.31c-0.07,0.05-0.15,0.1-0.22,0.14
		l-0.11,0.06c-0.01-0.38-0.04-0.81-0.07-1.3c-0.12-1.82-0.8-2.46-2.64-2.46l-0.9,0c-1.52,0-3.04-0.02-4.56-0.03
		c-1.53-0.02-3.05-0.03-4.58-0.03c-6.87,0-14.23,0.31-21.44,2.57L55,87.23z M90.37,88.16c3.1-0.93,6.15-2.21,9.32-2.64
		c0.48-0.06,0.96-0.09,1.45-0.09c2.08,0,4.24,0.5,6.34,0.72c1.28,0.14,2.55,0.36,4.08,0.58c0,1.19,0,2.37,0,3.63
		c-0.31,0.13-0.64,0.37-0.98,0.4c-2.5,0.2-5.02,0.61-7.51,0.61c-0.52,0-1.05-0.02-1.56-0.06c-3.78-0.31-7.51-1.28-11.25-2.01
		c-0.25-0.05-0.43-0.46-0.64-0.71C89.87,88.44,90.1,88.24,90.37,88.16z M55.27,87.43c7.1-2.22,14.23-2.56,21.36-2.56
		c3.05,0,6.1,0.06,9.14,0.06c0.3,0,0.6,0,0.9,0c0.01,0,0.02,0,0.03,0c1.73,0,2.24,0.58,2.34,2.21c0.26,4,0.18,4.09-3.78,4.16
		c-5.47,0.09-10.94,0.38-16.41,0.38c-0.13,0-0.26,0-0.38,0c-2.65-0.01-5.29-0.61-7.94-0.81c-0.65-0.05-1.31-0.06-1.97-0.06
		c-1.07,0-2.16,0.04-3.28,0.04C55.27,89.55,55.27,88.27,55.27,87.43z"/>
	<path class="st0" d="M85.33,17.56c-0.22-0.38-0.45-0.78-0.83-0.95c-0.66-0.3-1.41-0.45-2.23-0.45c-2.13,0-4.34,0.99-5.77,2.59
		l-0.75,0.84l1.05-0.41c1.95-0.77,3.35-1.1,4.7-1.1c0.82,0,1.59,0.13,2.36,0.39c0.14,0.05,0.3,0.07,0.49,0.07
		c0.21,0,0.42-0.03,0.62-0.06c0.15-0.02,0.3-0.04,0.45-0.05l0.5-0.03l-0.3-0.4C85.51,17.86,85.42,17.71,85.33,17.56z M84.34,18.26
		c-0.14,0-0.27-0.02-0.4-0.06c-0.83-0.28-1.64-0.4-2.45-0.4c-1.56,0-3.12,0.45-4.8,1.12c1.42-1.58,3.61-2.5,5.57-2.5
		c0.76,0,1.49,0.14,2.12,0.43c0.44,0.2,0.68,0.86,1.01,1.31C85.05,18.17,84.68,18.26,84.34,18.26z"/>
	<path class="st0" d="M31.85,161.87l0-0.08h-0.27h-9.62h-0.27l0,0.27l0,0.34l0,0.27h0.27h9.62h0.27l0-0.27l0-0.07l0.22,0.01
		c1.98,0.09,2.1,0.99,2.06,2.08c-0.03,0.66-0.06,1.33-0.09,1.99c-0.08,1.76-0.17,3.57-0.19,5.36c-0.03,3.05-0.03,6.15-0.02,9.15
		c0,1.28,0.01,2.55,0.01,3.83v0.22l0.21,0.05l0.08,0.02l0.3,0.06l0.02-0.31l0.3-3.9c0,0.02,0,0.03,0,0.05
		c-0.04,0.97-0.07,1.98,0.1,2.95c0.14,0.8,0.81,2.1,1.64,2.35c1.29,0.39,2.37,0.58,3.31,0.58c0.5,0,0.97-0.06,1.38-0.17
		c1.05-0.28,2.1-0.41,3.2-0.41c1.36,0,2.78,0.21,4.45,0.65c0.15,0.04,0.3,0.06,0.47,0.06c0.39,0,0.79-0.1,1.27-0.21
		c0.33-0.08,0.68-0.16,1.07-0.22l0.41-0.07l-0.24-0.35c-0.6-0.88-1.16-1.72-1.71-2.52c-1.2-1.77-2.33-3.44-3.43-5.09
		c-0.34-0.52-0.65-1.12-0.96-1.7c-0.65-1.26-1.32-2.56-2.41-3.21c-1.27-0.75-2.94-0.79-4.56-0.82c-0.54-0.01-1.1-0.02-1.63-0.07
		c-1.22-0.09-1.62-0.57-1.61-1.88c0.05-5.17,0.09-10.23-0.05-15.25c-0.04-1.3-0.24-2.62-0.43-3.89c-0.17-1.09-0.34-2.22-0.4-3.32
		c-0.13-2.23-0.12-4.5-0.11-6.7c0-0.61,0-1.21,0-1.82c-0.01-8.16-0.01-17.79,0.02-27.38c0-0.94,0.08-1.9,0.15-2.82
		c0.03-0.43,0.07-0.85,0.09-1.27l0.01-0.23l-0.22-0.05c-0.93-0.21-1.55-0.35-1.98-0.35c-1.02,0-1.09,0.77-1.21,2.17
		c-0.08,0.91-0.1,1.87-0.07,2.85c0.05,1.41,0.11,2.81,0.18,4.22c0.11,2.39,0.22,4.85,0.25,7.28c0.07,5.82,0.12,11.74,0.16,17.47
		c0.05,5.78,0.09,11.77,0.16,17.65c0.01,0.57,0.24,1.1,0.48,1.66c0.07,0.17,0.15,0.34,0.22,0.52l-0.77,0.28L31.85,161.87z
		 M21.96,162.4c0-0.11,0-0.22,0-0.34c3.21,0,6.41,0,9.62,0c0,0.11,0,0.22,0,0.34C28.37,162.4,25.17,162.4,21.96,162.4z
		 M33.09,161.69c-0.28-0.83-0.76-1.58-0.77-2.34c-0.14-11.71-0.19-23.41-0.32-35.12c-0.05-3.84-0.3-7.67-0.43-11.51
		c-0.03-0.94-0.01-1.89,0.07-2.82c0.12-1.43,0.17-1.93,0.94-1.93c0.4,0,1.01,0.14,1.92,0.35c-0.08,1.33-0.24,2.72-0.24,4.11
		c-0.03,9.13-0.02,18.26-0.02,27.38c0,2.85-0.06,5.7,0.11,8.54c0.14,2.41,0.76,4.79,0.83,7.2c0.14,5.08,0.1,10.16,0.05,15.24
		c-0.01,1.39,0.43,2.04,1.85,2.15c2.06,0.16,4.45-0.11,6.07,0.85c1.51,0.9,2.19,3.18,3.28,4.83c1.59,2.4,3.22,4.77,5.14,7.61
		c-0.95,0.15-1.68,0.43-2.29,0.43c-0.14,0-0.27-0.01-0.4-0.05c-1.52-0.4-3.01-0.66-4.52-0.66c-1.07,0-2.15,0.13-3.26,0.42
		c-0.42,0.11-0.86,0.16-1.31,0.16c-1.08,0-2.22-0.26-3.23-0.57c-0.66-0.2-1.31-1.34-1.45-2.14c-0.24-1.33-0.06-2.74-0.06-4.12
		c-0.16-0.01-0.31-0.02-0.47-0.03c-0.13,1.69-0.26,3.38-0.39,5.07c-0.03-0.01-0.05-0.01-0.08-0.02c0-4.32-0.03-8.65,0.01-12.97
		c0.03-2.45,0.18-4.9,0.28-7.35c0.05-1.24-0.18-2.26-2.31-2.36C32.68,161.85,33,161.73,33.09,161.69z"/>
	<path class="st0" d="M54.82,76.73c0.01,0.12,0.11,0.31,0.3,0.31l0.06,0c0.23,0.05,0.45,0.1,0.67,0.15c0.57,0.13,1.1,0.25,1.66,0.27
		l0.5,0.02c1.85,0.06,3.76,0.13,5.64,0.13c0.82,0,1.58-0.01,2.31-0.04c0.78-0.03,2.2-0.71,2.35-1.43c0.21-1.08,0.44-3.03-0.37-3.97
		c-0.79-0.92-2.49-1.25-3.71-1.25c-0.07,0-0.14,0-0.21,0c-1.43,0.05-2.87,0.37-4.26,0.69c-0.5,0.11-1.01,0.23-1.51,0.33
		C54.46,72.71,54.37,72.84,54.82,76.73z M58.3,72.21c1.9-0.38,3.81-0.95,5.73-1.01c0.07,0,0.13,0,0.2,0c1.24,0,2.82,0.35,3.51,1.16
		c0.68,0.79,0.55,2.52,0.31,3.75c-0.1,0.54-1.35,1.19-2.09,1.21c-0.77,0.03-1.53,0.04-2.3,0.04c-2.04,0-4.09-0.08-6.13-0.15
		c-0.78-0.03-1.55-0.28-2.4-0.44c0.01,0.01,0.01,0.02,0.01,0.02c0,0-0.03-0.04-0.04-0.07C54.65,72.95,54.65,72.94,58.3,72.21z"/>
	<path class="st0" d="M64.41,49.46c0.59-0.06,1.31-1.06,1.36-1.69c0.29-3.87,0.51-7.71,0.75-11.77c0.07-1.18,0.14-2.37,0.21-3.57
		l0.02-0.31l-0.31,0.02c-0.65,0.05-1.3,0.1-1.95,0.15c-1.94,0.14-3.94,0.29-5.9,0.53c-0.54,0.06-1.2,0.87-1.29,1.42
		c-0.57,3.35-0.93,5.94-1.18,8.4c-0.17,1.63-0.24,3.29-0.31,4.9c-0.03,0.72-0.06,1.44-0.1,2.16l-0.02,0.3l0.3-0.02
		c0.77-0.04,1.52-0.08,2.26-0.11C60.38,49.76,62.4,49.67,64.41,49.46z M55.97,49.71c0.13-2.35,0.16-4.71,0.4-7.04
		c0.29-2.81,0.71-5.6,1.18-8.38c0.08-0.46,0.65-1.15,1.06-1.2c2.6-0.31,5.21-0.47,7.84-0.67c-0.32,5.34-0.58,10.34-0.95,15.34
		c-0.04,0.53-0.69,1.4-1.12,1.44C61.7,49.47,59.01,49.55,55.97,49.71z"/>
	<path class="st0" d="M48.09,224.77c0.19-0.61-0.1-1.45-0.46-2.02c-0.12-0.19-0.36-0.19-0.44-0.19c-0.26,0-0.62,0.08-0.96,0.16
		c-0.12,0.03-0.23,0.05-0.33,0.07c-0.25,0.05-0.51,0.15-0.76,0.25c-0.3,0.11-0.62,0.23-0.83,0.23c-0.06,0-0.1-0.01-0.13-0.03
		c-2.03-1.17-4.11-2.54-5.26-5.15c-1.04-2.36-2.54-4.65-4.33-6.62c-1.82-2-5.19-3.34-8.38-3.34c-3.22,0-5.83,1.29-7.35,3.63
		c-0.54,0.83-0.41,2.12-0.31,3.16l0.01,0.12c0.05,0.49,1.17,0.95,1.57,0.95c0.11,0,0.21-0.03,0.28-0.08
		c0.66-0.46,1.21-1.05,1.75-1.63c0.19-0.2,0.37-0.4,0.56-0.59c0.2-0.2,0.38-0.43,0.56-0.64c0.37-0.46,0.72-0.89,1.15-1.06
		c0.37-0.15,0.81-0.21,1.39-0.21c0.38,0,0.78,0.03,1.16,0.06l0.12,0.01c3.49,0.26,7.28,3.04,8.2,5.95c-0.18,0-0.34-0.01-0.47-0.06
		c-1.78-0.67-3.57-1.01-5.34-1.01c-3.33,0-6.67,1.18-10.2,3.61c-1.19,0.82-1.55,2.09-1.05,3.66c0.18,0.54,1.12,1.32,1.61,1.32
		c0.07,0,0.13-0.01,0.19-0.04c0.91-0.44,1.69-1.13,2.45-1.8l0.12-0.11c0.27-0.24,0.51-0.54,0.74-0.82c0.34-0.42,0.66-0.82,1.06-1.01
		c1.82-0.85,3.66-1.28,5.48-1.28c2.7,0,5.37,0.91,8.17,2.77c2.12,1.41,4.04,2.53,5.88,3.42c0.36,0.17,0.76,0.26,1.18,0.26
		C46.44,226.72,47.75,225.87,48.09,224.77z M45.12,226.46c-0.37,0-0.73-0.07-1.07-0.23c-2.03-0.98-3.97-2.15-5.85-3.4
		c-2.69-1.79-5.45-2.81-8.32-2.81c-1.82,0-3.69,0.41-5.6,1.31c-0.75,0.35-1.2,1.28-1.86,1.87c-0.78,0.69-1.59,1.43-2.51,1.87
		c-0.02,0.01-0.04,0.01-0.07,0.01c-0.33,0-1.2-0.67-1.35-1.14c-0.4-1.23-0.31-2.5,0.94-3.36c3.18-2.19,6.5-3.56,10.05-3.56
		c1.69,0,3.44,0.31,5.25,1c0.27,0.1,0.58,0.06,0.92,0.09c-0.75-3.17-4.78-6.22-8.54-6.5c-0.42-0.03-0.87-0.07-1.3-0.07
		c-0.53,0-1.04,0.05-1.49,0.23c-0.72,0.29-1.2,1.16-1.79,1.76c-0.74,0.75-1.42,1.59-2.27,2.19c-0.03,0.02-0.07,0.03-0.13,0.03
		c-0.38,0-1.28-0.45-1.3-0.71c-0.1-1.03-0.25-2.33,0.26-3.11c1.62-2.5,4.35-3.51,7.12-3.51c3.17,0,6.42,1.32,8.18,3.26
		c1.74,1.91,3.24,4.19,4.28,6.55c1.14,2.58,3.15,3.99,5.37,5.27c0.07,0.04,0.16,0.06,0.26,0.06c0.45,0,1.11-0.37,1.64-0.48
		c0.37-0.08,0.93-0.23,1.24-0.23c0.11,0,0.19,0.02,0.22,0.07c0.32,0.5,0.59,1.27,0.43,1.79C47.51,225.71,46.3,226.46,45.12,226.46z"
		/>
	<path class="st0" d="M68.8,71.88l-0.29-0.03v0.29v4.36v0.31l0.3-0.04l5-0.72l3.14-0.45c-0.11,0.63-0.04,1.1,0.2,1.42
		c0.4,0.52,1.14,0.52,1.87,0.52c2,0,4.01,0.02,6.01,0.03c2.35,0.02,4.69,0.03,7.04,0.03c2.67,0,5.01-0.02,7.14-0.07
		c2.06-0.05,4.13-0.34,6.14-0.62c1.09-0.15,2.22-0.31,3.34-0.43c0.14-0.01,0.27-0.02,0.4-0.03c0.78-0.05,1.74-0.1,1.74-1.62
		c-0.01-1.07-0.25-2.3-2.08-2.31l-0.1,0c-0.58,0-1.17,0-1.63-0.21c-2.85-1.32-5.8-1.59-9.36-1.59l-0.34,0l-0.86,0
		c-2.6,0-5.24-0.05-7.8-0.09c-1.58-0.03-3.16-0.06-4.73-0.07c-0.77-0.01-1.54-0.01-2.31-0.01c-0.64,0-1.28,0-1.92,0
		c-0.62,0-1.24,0-1.85,0h-0.2l-0.06,0.19l-0.47,1.5l-0.12,0.37l-3.44-0.31L68.8,71.88z M77.2,72.91c0.23-0.73,0.4-1.26,0.66-2.08
		c1.23,0,2.49-0.01,3.76-0.01c0.77,0,1.54,0,2.31,0.01C88.11,70.88,92.29,71,96.47,71c0.29,0,0.57,0,0.86,0c0.11,0,0.23,0,0.34,0
		c3.18,0,6.29,0.2,9.24,1.57c0.54,0.25,1.23,0.23,1.85,0.24c1.41,0,1.8,0.74,1.81,2.04c0.01,1.49-0.95,1.29-1.9,1.39
		c-3.15,0.33-6.3,0.98-9.45,1.05c-2.38,0.05-4.75,0.07-7.13,0.07c-4.35,0-8.7-0.06-13.05-0.07c-1.13,0-2.24,0-1.73-1.99
		c-2.96,0.42-5.61,0.8-8.53,1.22c0-1.46,0-2.83,0-4.36C71.62,72.4,74.4,72.66,77.2,72.91z"/>
	<path class="st0" d="M49.09,34.24l0.05-0.38l-0.38,0.09c-0.61,0.14-1.24,0.28-1.86,0.43c-2.01,0.46-4.08,0.93-6.13,1.47
		c-0.52,0.13-0.92,0.86-1.06,1.28c-1.36,4.29-1.91,8.7-1.63,13.1c0.04,0.72,0.25,1.69,1.48,1.69c0.14,0,0.3-0.01,0.47-0.04
		c0.6-0.09,1.21-0.2,1.8-0.31c0.98-0.18,2-0.37,3.01-0.45c1.44-0.12,2.17-0.85,2.36-2.37c0.43-3.41,0.88-6.81,1.35-10.35
		L49.09,34.24z M46.93,48.71c-0.16,1.29-0.7,2.02-2.12,2.14c-1.62,0.14-3.22,0.52-4.83,0.76c-0.15,0.02-0.3,0.03-0.43,0.03
		c-0.76,0-1.15-0.4-1.21-1.44c-0.27-4.45,0.29-8.77,1.62-13.01c0.14-0.43,0.5-1.01,0.87-1.11c2.69-0.7,5.41-1.29,7.99-1.89
		C48.16,39.28,47.53,43.99,46.93,48.71z"/>
	<path class="st0" d="M3.49,226.72h0.28c0.07-0.18,0.13-0.35,0.2-0.53c0.96-2.53,1.94-5.14,2.66-7.79c0.27-1,0.19-2.07,0.11-3.12
		c-0.06-0.74-0.12-1.51-0.04-2.23c0.21-2.14,0.7-4.28,1.14-6.12c0.06-0.13,0.6-0.43,1-0.43c0.02,0,0.05,0,0.07,0
		c0.19,0.03,0.38,0.04,0.55,0.04c1.47,0,2.09-1.03,2.65-2.18c0.28-0.58,0.7-1.09,1.14-1.63c0.29-0.35,0.58-0.72,0.84-1.11
		c0.19-0.29,0.27-0.63,0.34-0.95c0.03-0.15,0.07-0.3,0.11-0.44c0.04-0.12,0.07-0.26,0.1-0.39c0.06-0.26,0.12-0.53,0.25-0.64
		c1.09-0.96,1.68-2.12,1.71-3.35c0.04-1.29-0.53-2.54-1.63-3.63c-0.65-0.64-1.17-1.76-1.28-2.79c-0.08-0.68,0.1-1.28,0.51-1.74
		c0.45-0.51,1.16-0.8,1.94-0.8l0.27,0v-0.27c0-0.49-0.04-0.99-0.08-1.47c-0.08-1.06-0.16-2.06,0.13-2.93
		c1.2-3.51,0.91-7.05,0.63-10.48c-0.12-1.53-0.25-3.1-0.25-4.65c0-0.75,0.05-1.5,0.1-2.3c0.02-0.39,0.05-0.78,0.07-1.19l0.01-0.21
		l-0.2-0.06l-1.41-0.41h4.16h1.65l-1.57-0.52c-3.69-1.22-3.69-1.22-3.71-4.93c-0.01-1.12-0.02-2.24-0.04-3.37
		c-0.03-2.24-0.06-4.56-0.03-6.83c0.02-1.23,0.1-2.49,0.17-3.7c0.08-1.35,0.17-2.74,0.18-4.12c0-1.08-0.13-2.16-0.27-3.21
		c-0.07-0.59-0.15-1.2-0.2-1.8c-0.03-0.4-0.07-0.8-0.11-1.21c-0.13-1.32-0.26-2.68-0.2-4c0.03-0.58,0.24-1.15,0.47-1.76
		c0.17-0.45,0.35-0.92,0.45-1.4c0.32-1.57-0.25-2.74-1.85-3.78c-0.85-0.55-1.78-1.78-1.81-2.73c0-0.13-0.01-0.26-0.02-0.4
		c-0.08-1.5-0.15-3.06,1.72-3.65c0.3-0.09,0.85-0.47,0.84-0.84c-0.01-0.43-0.07-0.87-0.13-1.28c-0.09-0.65-0.17-1.26-0.1-1.85
		c0.18-1.56-0.68-2.18-1.65-2.74c-0.3-0.17-0.62-0.72-0.64-1.11c-0.2-3.37-0.32-6.19-0.36-8.86c-0.01-0.69,0.12-1.18,0.39-1.46
		c0.19-0.2,0.46-0.29,0.82-0.29c0.39,0,0.87,0.11,1.44,0.33l0.36,0.14v-0.39c0-1.62-0.01-3.22-0.02-4.81
		c-0.02-3.76-0.04-7.32,0.05-10.95c0.09-4,0.42-7.93,0.71-10.9c0.17-1.83,0.79-2.19,1.81-2.19c0.62,0,1.4,0.16,2.15,0.33l0.27,0.06
		l0.05-0.27l0.54-2.98c0.02,0.07,0.02,0.12,0.01,0.15c-1.29,6.26-1.17,12.67-1.05,18.86c0.05,2.6,0.1,5.3,0.05,7.94
		c-0.13,6.39-0.01,12.9,0.1,19.18l0.04,2.35c0.02,1.12,0.24,2.24,0.46,3.33c0.1,0.5,0.2,1,0.28,1.5l0.04,0.24l0.25-0.02l0.71-0.06
		l0.27-0.02l-0.02-0.27c-0.03-0.32-0.06-0.65-0.1-0.97c-0.08-0.74-0.17-1.51-0.15-2.26c0.01-0.36,0.15-0.74,0.31-1.13
		c0.08-0.22,0.17-0.44,0.24-0.67c0.04-0.12,0.08-0.25,0.12-0.37c0.13-0.4,0.27-0.82,0.26-1.25c-0.31-14.23,0.11-27.3,1.29-39.96
		l0.01-0.14c0.01-0.08,0.01-0.15,0.02-0.23c0.37-2.67,0.6-3.1,1.65-3.1c0.53,0,1.26,0.14,2.36,0.37c0.29,0.06,0.55,0.09,0.78,0.09
		c1.02,0,1.61-0.6,1.74-1.79c0.06-0.48,0.15-0.97,0.26-1.54c0.04-0.22,0.09-0.45,0.13-0.7c0.08,0.16,0.13,0.32,0.12,0.44
		c-0.06,0.82,0.14,1.49,0.56,1.95c0.36,0.39,0.86,0.59,1.45,0.59c0.04,0,0.09,0,0.13,0l-0.16,0.33c-0.08,0.16-0.18,0.32-0.28,0.48
		c-0.26,0.42-0.53,0.85-0.5,1.3c0.04,0.46,0.37,0.84,0.7,1.21c0.13,0.14,0.25,0.29,0.36,0.43l0.17,0.23l0.22-0.18l0.42-0.34
		l0.67-0.54l0.18-0.14l-0.12-0.2l-1.34-2.27l-0.19-0.32c0.55-0.05,1.01-0.29,1.32-0.69c0.39-0.51,0.51-1.24,0.35-2.06
		c-0.07-0.37,0.09-0.98,0.21-1.06c2.15-0.97,1.86-2.58,1.6-4c-0.08-0.44-0.16-0.86-0.17-1.26c-0.01-0.42-0.04-0.84-0.06-1.26
		c-0.05-0.81-0.1-1.66-0.05-2.47c0.45-8.79,1.78-15.39,4.3-21.31l-0.49,1.45l-0.03,0.08l-0.15,0.46l0.47-0.11
		c0.77-0.18,1.51-0.36,2.25-0.54c1.91-0.46,3.71-0.9,5.53-1.29c0.2-0.04,0.42-0.06,0.67-0.06c0.26,0,0.53,0.02,0.81,0.04
		c0.12,0.01,0.24,0.02,0.36,0.03c-1.73,6.85-2.37,12.18-2.07,17.29l0.02,0.42l0.37-0.2c0.33-0.17,0.51-0.4,0.54-0.69l0.17-1.43
		c0.48-4.11,0.97-8.36,1.42-12.54c0.08-0.71,0.09-1.44,0.1-2.14c0-0.25,0.01-0.51,0.02-0.76l0.03-0.13l0-0.03
		c0.16-0.18,0.32-0.35,0.49-0.52c0.44-0.46,0.9-0.93,1.22-1.49c2.97-5.11,6.38-8.78,10.42-11.2c1.74-1.04,3.61-1.87,5.6-2.75
		c0.77-0.34,1.56-0.69,2.36-1.06l-1.19,5.96l-0.05,0.25l0.25,0.06l0.46,0.11l0.25,0.06l0.07-0.25c0.2-0.76,0.4-1.52,0.61-2.29
		c0.48-1.76,0.97-3.59,1.34-5.41c0.32-1.6,1.01-2.19,2.54-2.19l0.14,0c2.59,0.06,4.73,0.09,6.74,0.09c1.62,0,3.12-0.02,4.58-0.06
		l0.14,0c1.84,0,3.01,1.03,3.99,2.15c0.11,0.12,0.21,0.25,0.31,0.38c0.47,0.58,1.01,1.24,1.79,1.24c0.25,0,0.52-0.07,0.78-0.21
		c0.6-0.32,0.9-1.15,1.16-1.89c0.05-0.14,0.1-0.28,0.15-0.42l0.11-0.29c0.28-0.7,0.6-1.5,0.4-2.15c-0.31-1.02-0.88-2.21-2.52-2.31
		c-1.72-0.1-3.34-0.27-4.9-0.52h3.05h0.21l0.05-0.2l0.08-0.32l0.08-0.32l0.06-0.21l-0.2-0.1c-0.35-0.17-0.71-0.35-1.06-0.53
		c-0.77-0.4-1.56-0.81-2.39-1.11c-1.23-0.46-1.95-0.71-2.47-0.71c-1.07,0-1.19,0.97-1.46,3.11c0,0.03-0.02,0.07-0.04,0.12
		l-0.51-3.75l-0.03-0.19l-0.19-0.04l-0.7-0.13l-0.25-0.05l-0.06,0.24c-0.07,0.29-0.16,0.58-0.25,0.86c-0.2,0.66-0.42,1.35-0.43,2.05
		c-0.03,1-0.31,1.29-1.28,1.33c-0.77,0.03-1.55,0.06-2.32,0.09c-1.09,0.04-2.19,0.09-3.29,0.13c1.47-0.12,2.95-0.22,4.42-0.28
		c0.99-0.04,1.63-0.26,2.02-0.7c0.38-0.42,0.52-1.04,0.46-1.95c-0.08-1.14-0.62-1.69-1.67-1.69c-0.25,0-0.5,0.03-0.74,0.05
		c-0.13,0.01-0.27,0.03-0.39,0.04c-5.15,0.36-10.12,1.8-15.22,4.42C63.38,9.28,63.1,9.4,62.8,9.52c-0.19,0.07-0.38,0.14-0.58,0.2
		l-0.03,0.01l-0.02-0.05l-0.02-0.04c0.81-0.37,1.62-0.75,2.42-1.13c1.95-0.92,3.98-1.88,6.02-2.65c3.13-1.19,6.35-1.54,9.76-1.91
		c0.58-0.06,1.15-0.12,1.73-0.19c1.23-0.14,2.47-0.21,3.69-0.21c9.31,0,17.05,4.1,23.39,8.11c7.68,4.85,13.68,12.1,17.83,21.53
		c2.02,4.59,3.9,9.12,4.66,14.04c0.34,2.19,0.41,4.47,0.48,6.68l0.01,0.42c0.04,1.35,0.03,2.72,0.03,4.05
		c-0.01,1.11-0.01,2.25,0.01,3.38c0.01,0.34,0.14,0.66,0.27,0.97c0.09,0.21,0.17,0.42,0.21,0.62c0.06,0.31,0.08,0.63,0.1,0.96
		c0.02,0.27,0.03,0.54,0.07,0.81c0.02,0.13,0.03,0.28,0.04,0.43c0.04,0.53,0.09,1.08,0.43,1.38c0.36,0.32,0.95,0.43,1.38,0.43
		c0.22,0,0.44-0.03,0.61-0.09c0.5-0.16,0.95-1.09,0.88-1.62c-0.09-0.73-0.01-1.24,0.24-1.52c0.2-0.23,0.54-0.33,1.03-0.33
		c0.25,0,0.55,0.03,0.9,0.09c0.55,0.09,1.09,0.14,1.6,0.14c0.32,0,0.63-0.02,0.92-0.05c0.14-0.02,0.27-0.03,0.39-0.03
		c0.93,0,1.32,0.48,1.37,1.72c0.06,1.21,0.13,2.42,0.2,3.64c0.12,2.05,0.24,4.18,0.29,6.27l0.01,0.43
		c0.13,4.86,0.26,9.89,0.19,14.83c-0.06,5.05-0.22,9.99-0.37,15.23c-0.07,2.22-0.14,4.45-0.2,6.71l-0.01,0.29l0.29-0.02
		c0.21-0.01,0.42-0.03,0.64-0.05c0.39-0.03,0.8-0.06,1.2-0.06c0.08,0,0.16,0,0.24,0c0.06,0,0.11,0,0.16,0c0.63,0,1.09-0.15,1.4-0.46
		c0.35-0.35,0.5-0.9,0.49-1.77c-0.06-4.43-0.08-8.93-0.11-13.29c-0.01-2.88-0.03-5.75-0.05-8.63c-0.06-7.33-0.15-13.82-0.26-19.83
		c-0.02-1.01-0.19-2.01-0.36-2.99l-0.1-0.6c-0.08-0.5-0.04-0.84,0.12-1.04c0.16-0.2,0.49-0.32,0.98-0.35
		c0.54-0.03,0.92-0.04,1.24-0.04c1.98,0,2.27,0.43,2.39,3.57c0.23,5.84,0.38,11.78,0.53,17.52c0.05,1.96,0.1,3.92,0.15,5.88
		c0.02,0.77,0.01,1.54,0.01,2.28c0,0.34-0.01,0.68-0.01,1.01l0.01,0.2l0.19,0.06c3.52,1.02,3.52,1.02,3.37,4.64
		c-0.05,1.19-0.12,2.37-0.18,3.56c-0.08,1.43-0.16,2.91-0.21,4.37c-0.04,1.08-0.38,1.68-1.26,2.2c-1.18,0.7-1.87,1.81-1.88,3.07
		c-0.01,1.27,0.7,2.47,1.9,3.19c1.01,0.61,1.62,1.79,1.65,3.14c0.03,1.44-0.63,2.77-1.7,3.47c-2.26,1.48-2.79,3.42-1.62,5.94
		c0.2,0.44,0.31,1,0.27,1.49c-0.08,1.14-0.19,2.3-0.3,3.42c-0.19,1.98-0.39,4.02-0.42,6.04c-0.04,3.12,0.04,6.3,0.12,9.37
		c0.04,1.65,0.09,3.3,0.11,4.95c0.03,1.97,0.05,4.29-0.04,6.6c-0.02,0.47-0.17,0.94-0.34,1.49c-0.09,0.28-0.18,0.57-0.26,0.88
		l-0.08,0.28l0.29,0.05l1.32,0.22l0.05,0.01l-0.13,0.05l-1.34,0.53l-0.16,0.06l-0.01,0.17c-0.08,1.47-0.16,2.94-0.24,4.41
		c-0.21,3.72-0.43,7.56-0.51,11.36c-0.02,1.01,0.22,2.01,0.45,2.99c0.19,0.78,0.38,1.59,0.43,2.38c0.08,1.31,0.31,2.2,1.26,3.16
		c0.57,0.58,0.88,1.32,0.85,2.1c-0.03,0.88-0.46,1.73-1.21,2.4c-1.63,1.44-1.72,3.18-1.56,4.84c0.04,0.44,0.37,0.82,0.66,1.17
		c0.07,0.08,0.14,0.17,0.21,0.25c0.11,0.14,0.28,0.22,0.44,0.29c0.03,0.01,0.06,0.03,0.09,0.04c-0.02,1.35,0.78,2.25,1.56,3.11
		c0.68,0.76,1.32,1.47,1.41,2.47c0.12,1.22,0.8,1.81,2.09,1.81c0.15,0,0.31-0.01,0.47-0.02c0.42-0.04,0.85-0.07,1.19-0.07
		c1.04,0,1.17,0.22,1.25,2.18c0.07,1.53,0.09,3.09,0.11,4.61c0.03,2.51,0.07,5.11,0.32,7.64c0.21,2.05,0.84,4.12,1.52,5.98h0.28
		c-0.72-1.95-1.34-3.98-1.54-6c-0.41-4.05-0.25-8.16-0.43-12.23c-0.09-1.95-0.22-2.43-1.52-2.43c-0.33,0-0.72,0.03-1.21,0.08
		c-0.16,0.01-0.31,0.02-0.45,0.02c-1.05,0-1.71-0.42-1.82-1.57c-0.23-2.3-3.08-3.19-2.97-5.66c0.01-0.12-0.45-0.22-0.59-0.4
		c-0.31-0.4-0.77-0.82-0.81-1.27c-0.16-1.72-0.01-3.3,1.47-4.62c1.57-1.39,1.76-3.5,0.38-4.89c-0.92-0.93-1.1-1.78-1.18-2.99
		c-0.11-1.79-0.92-3.57-0.88-5.34c0.11-5.27,0.48-10.53,0.75-15.76c0.79-0.31,1.48-0.59,2.37-0.94c-1.06-0.18-1.84-0.3-2.32-0.38
		c0.25-0.94,0.59-1.68,0.62-2.43c0.08-2.2,0.07-4.41,0.04-6.61c-0.07-4.77-0.3-9.54-0.24-14.31c0.04-3.15,0.5-6.3,0.72-9.45
		c0.04-0.54-0.07-1.14-0.29-1.62c-1.1-2.37-0.63-4.19,1.53-5.6c2.41-1.58,2.44-5.62,0.05-7.07c-2.32-1.41-2.39-4.41-0.03-5.8
		c1.03-0.61,1.36-1.32,1.4-2.42c0.09-2.64,0.29-5.28,0.4-7.92c0.16-3.83,0.15-3.83-3.58-4.91c0-1.05,0.03-2.18,0-3.3
		c-0.21-7.8-0.38-15.6-0.68-23.4c-0.12-3.18-0.46-3.83-2.66-3.83c-0.36,0-0.78,0.02-1.25,0.04c-1.19,0.07-1.53,0.6-1.35,1.7
		c0.19,1.18,0.43,2.36,0.45,3.55c0.12,6.61,0.2,13.22,0.26,19.83c0.06,7.31,0.06,14.61,0.16,21.92c0.02,1.32-0.34,1.96-1.62,1.96
		c-0.05,0-0.1,0-0.15,0c-0.08,0-0.17,0-0.25,0c-0.63,0-1.26,0.08-1.85,0.11c0.2-7.49,0.48-14.71,0.57-21.94
		c0.07-5.09-0.07-10.18-0.2-15.27c-0.09-3.31-0.33-6.61-0.49-9.91c-0.06-1.21-0.44-1.97-1.64-1.97c-0.13,0-0.27,0.01-0.43,0.03
		c-0.29,0.04-0.59,0.05-0.89,0.05c-0.52,0-1.05-0.05-1.56-0.13c-0.34-0.06-0.66-0.09-0.94-0.09c-1.11,0-1.73,0.51-1.53,2.16
		c0.05,0.43-0.34,1.22-0.7,1.33c-0.16,0.05-0.34,0.07-0.53,0.07c-0.44,0-0.93-0.13-1.2-0.37c-0.35-0.3-0.31-1.07-0.39-1.65
		c-0.08-0.59-0.06-1.2-0.17-1.79c-0.1-0.52-0.46-1.02-0.47-1.54c-0.05-2.48,0.04-4.96-0.03-7.43c-0.08-2.38-0.13-4.78-0.49-7.13
		c-0.76-4.95-2.66-9.54-4.67-14.11c-3.94-8.95-9.7-16.45-17.93-21.64c-7.22-4.56-14.78-8.15-23.53-8.15c-1.22,0-2.46,0.07-3.72,0.22
		C78.11,3.95,74.2,4.19,70.5,5.6c-2.96,1.13-5.8,2.59-8.7,3.9c0.08,0.18,0.16,0.37,0.24,0.55c0.29-0.09,0.58-0.18,0.86-0.29
		c0.29-0.11,0.58-0.24,0.86-0.38c4.75-2.45,9.76-4.03,15.11-4.4c0.36-0.02,0.75-0.09,1.12-0.09c0.71,0,1.32,0.24,1.4,1.44
		c0.11,1.63-0.44,2.3-2.23,2.37c-3.88,0.15-7.75,0.6-11.63,0.93c0.41,0,0.81,0.01,1.22,0.01c3.89,0,7.76-0.2,11.63-0.35
		c1.11-0.04,1.51-0.45,1.54-1.59c0.03-0.96,0.44-1.91,0.68-2.86c0.23,0.04,0.47,0.09,0.7,0.13c0.19,1.39,0.37,2.78,0.63,4.68
		c0.31-0.72,0.42-0.88,0.44-1.05c0.26-2.09,0.36-2.88,1.19-2.88c0.49,0,1.22,0.27,2.38,0.7c1.18,0.44,2.28,1.09,3.42,1.64
		c-0.06,0.21-0.11,0.43-0.17,0.64c-1.93,0-3.85,0-5.78,0c2.54,0.59,5.07,0.91,7.61,1.06c1.45,0.08,1.98,1.11,2.28,2.12
		c0.2,0.65-0.23,1.54-0.51,2.26c-0.3,0.78-0.58,1.84-1.19,2.16c-0.24,0.13-0.46,0.18-0.66,0.18c-0.81,0-1.34-0.88-1.9-1.52
		c-1.12-1.26-2.33-2.24-4.19-2.24c-0.05,0-0.1,0-0.15,0c-1.52,0.04-3.05,0.06-4.57,0.06c-2.24,0-4.49-0.04-6.73-0.09
		c-0.05,0-0.1,0-0.15,0c-1.67,0-2.46,0.71-2.8,2.4c-0.52,2.59-1.28,5.13-1.94,7.68c-0.15-0.04-0.31-0.07-0.46-0.11
		c0.4-2.01,0.8-4.02,1.29-6.47c-3.04,1.43-5.89,2.5-8.46,4.04c-4.55,2.73-7.86,6.73-10.52,11.3c-0.45,0.77-1.18,1.39-1.77,2.07
		c0,0.01,0,0.02,0,0.03c0.01,0,0.02,0,0.04,0c-0.01,0.05-0.03,0.1-0.04,0.16c-0.03,0.97-0.01,1.95-0.12,2.91
		c-0.51,4.66-1.05,9.32-1.59,13.97c-0.02,0.17-0.13,0.34-0.4,0.48c-0.34-5.91,0.65-11.66,2.11-17.37c0-0.05,0-0.11,0.01-0.16
		c-0.49-0.01-0.99-0.08-1.47-0.08c-0.25,0-0.49,0.02-0.73,0.07c-2.53,0.54-5.04,1.18-7.78,1.84c0.46-1.37,0.81-2.41,1.17-3.46
		c-0.48,0.38-0.76,0.84-0.98,1.33c-3.04,6.95-4.11,14.31-4.5,21.8c-0.06,1.25,0.08,2.5,0.11,3.76c0.05,1.78,1.29,3.84-1.28,5
		c-0.28,0.13-0.45,0.93-0.36,1.36c0.28,1.36-0.31,2.37-1.52,2.43c-0.04,0-0.09,0-0.13,0c-1.13,0-1.85-0.84-1.75-2.26
		c0.03-0.47-0.59-1.42-0.93-1.43c-0.22-0.01-0.45-0.01-0.67-0.01c-1.63,0-3.26,0.15-4.89,0.23c0,0.15,0,0.3,0,0.46
		c1.93,0,3.86,0,5.89,0c-0.18,1.03-0.35,1.76-0.44,2.5c-0.13,1.1-0.63,1.55-1.48,1.55c-0.22,0-0.46-0.03-0.73-0.09
		c-1.07-0.23-1.84-0.38-2.41-0.38c-1.35,0-1.56,0.83-1.91,3.33c-0.02,0.12-0.02,0.25-0.03,0.38c-1.23,13.3-1.58,26.64-1.29,39.99
		c0.01,0.51-0.22,1.04-0.37,1.55c-0.18,0.63-0.54,1.24-0.56,1.87c-0.03,1.08,0.15,2.17,0.25,3.26c-0.24,0.02-0.47,0.04-0.71,0.06
		c-0.25-1.6-0.7-3.19-0.73-4.79c-0.13-7.17-0.29-14.35-0.15-21.52c0.18-8.92-0.84-17.89,0.99-26.75c0.08-0.39-0.46-1.26-0.82-1.33
		c-0.42-0.08-0.86-0.1-1.3-0.1c-0.58,0-1.16,0.04-1.74,0.04c0,0.16,0,0.31,0,0.47c1.07,0.07,2.14,0.14,3.39,0.23
		c-0.22,1.24-0.42,2.33-0.62,3.43c-0.88-0.2-1.61-0.33-2.21-0.33c-1.25,0-1.9,0.6-2.08,2.43c-0.34,3.63-0.62,7.28-0.71,10.92
		c-0.12,5.2-0.03,10.4-0.03,15.77c-0.6-0.24-1.11-0.35-1.53-0.35c-1.03,0-1.5,0.7-1.48,2.02c0.04,2.96,0.18,5.92,0.36,8.87
		c0.03,0.47,0.38,1.1,0.77,1.33c1.01,0.57,1.68,1.12,1.52,2.47c-0.12,1.03,0.2,2.11,0.24,3.17c0.01,0.19-0.39,0.49-0.65,0.58
		c-2.26,0.71-1.95,2.77-1.89,4.31c0.04,1.03,1,2.34,1.93,2.95c1.4,0.92,2.05,1.94,1.73,3.51c-0.22,1.09-0.88,2.12-0.93,3.2
		c-0.08,1.74,0.17,3.5,0.31,5.24c0.14,1.67,0.47,3.33,0.47,4.99c-0.01,2.61-0.31,5.21-0.35,7.82c-0.05,3.4,0.05,6.8,0.07,10.2
		c0.03,3.89,0.02,3.89,3.89,5.18c-2.03,0-3.54,0-5.04,0c0,0.1,0,0.19,0,0.29c0.76,0.22,1.52,0.44,2.21,0.65
		c-0.06,1.27-0.16,2.39-0.16,3.51c-0.02,5.01,1.34,10.03-0.37,15.04c-0.46,1.35-0.07,2.98-0.07,4.49c-1.61,0-2.91,1.12-2.72,2.83
		c0.12,1.04,0.63,2.23,1.36,2.95c2.06,2.03,2.11,4.67-0.07,6.59c-0.27,0.24-0.3,0.76-0.43,1.15c-0.14,0.45-0.18,0.96-0.43,1.33
		c-0.63,0.95-1.51,1.76-2,2.77c-0.56,1.15-1.11,2.03-2.41,2.03c-0.16,0-0.33-0.01-0.51-0.04c-0.03-0.01-0.07-0.01-0.11-0.01
		c-0.45,0-1.19,0.34-1.26,0.63c-0.49,2.03-0.94,4.09-1.15,6.16c-0.17,1.76,0.39,3.65-0.06,5.3C5.61,221.19,4.54,223.95,3.49,226.72z
		 M34.66,70.69c-0.46,0.37-0.77,0.63-1.08,0.88c-0.36-0.5-0.96-0.98-1.01-1.51c-0.04-0.52,0.48-1.09,0.75-1.64
		C33.73,69.1,34.13,69.78,34.66,70.69z M26.19,64.43c0.04,0,0.08-0.01,0.13-0.01c1.13-0.07,2.3-0.15,3.45-0.15
		c0.22,0,0.44,0,0.65,0.01c0.05,0.01,0.12,0.07,0.19,0.15H26.19z M18.12,64.51c0.04,0,0.07,0,0.11,0c0.29-0.01,0.57-0.02,0.86-0.02
		c0.5,0,0.89,0.03,1.24,0.1c0.02,0,0.06,0.03,0.12,0.08L18.12,64.51z"/>
	<path class="st0" d="M89.65,48.13l0.02,0h0c2.63-0.01,4.8-2.04,4.85-4.52c0.02-1.21-0.48-2.41-1.41-3.36c-1-1.02-2.35-1.6-3.75-1.6
		c0,0,0,0,0,0c-2.61,0.02-4.73,2.1-4.73,4.65C84.65,45.87,86.99,48.13,89.65,48.13z M89.37,38.91c0.01,0,0.02,0,0.03,0
		c2.6,0,4.91,2.23,4.86,4.69c-0.05,2.34-2.1,4.25-4.59,4.26c-0.01,0-0.01,0-0.02,0c-2.52,0-4.74-2.13-4.74-4.57
		C84.91,40.9,86.91,38.93,89.37,38.91z"/>
	<path class="st0" d="M91.39,106.32c-0.26-2.42-1.45-3.9-3.43-4.29c-0.08-0.06-0.16-0.13-0.25-0.2c-0.31-0.25-0.63-0.51-1-0.51
		c-0.5-0.01-1-0.02-1.51-0.03c-0.74-0.02-1.48-0.04-2.21-0.04c-1.44,0-2.6,0.07-3.64,0.23c-2.23,0.34-4.17,2.5-4.23,4.74
		c-0.07,2.78-0.02,5.46,0.14,7.95c0.16,2.45,1.15,4.07,2.96,4.82c1.61,0.66,3.23,1,4.83,1c1.44,0,2.89-0.28,4.34-0.83l1.25-0.68
		l1.25-0.68l0.08-0.04l0.04-0.08c0.16-0.33,0.36-0.68,0.55-1.01c0.45-0.76,0.91-1.56,0.97-2.4
		C91.71,111.54,91.67,108.87,91.39,106.32z M91.25,114.25c-0.08,1.13-0.97,2.21-1.49,3.31c-0.83,0.45-1.66,0.91-2.49,1.36
		c-1.41,0.54-2.81,0.8-4.21,0.8c-1.59,0-3.17-0.34-4.72-0.98c-1.99-0.82-2.67-2.64-2.79-4.59c-0.17-2.63-0.2-5.28-0.14-7.92
		c0.05-1.98,1.8-4.15,4-4.48c1.18-0.18,2.39-0.23,3.6-0.23c1.24,0,2.48,0.05,3.72,0.07c0.38,0,0.76,0.43,1.14,0.69
		c2.25,0.42,3.06,2.19,3.27,4.07C91.41,108.96,91.43,111.63,91.25,114.25z"/>
	<path class="st0" d="M87.93,102.34c-0.03-0.02-0.05-0.03-0.08-0.05c0,0,0,0-0.01,0C87.85,102.28,87.93,102.34,87.93,102.34z"/>
	<polygon class="st0" points="87.85,102.28 87.85,102.28 87.85,102.28 	"/>
	<path class="st0" d="M76,156.65c-0.35,0.41-0.31,1.17-0.12,2.35l0.07,0.46l0.36-0.3l1.28-1.06l1.07-0.89l0.37-0.31l-0.46-0.15
		c-0.89-0.29-1.41-0.41-1.8-0.41C76.43,156.34,76.18,156.44,76,156.65z M76.15,158.96c-0.27-1.69-0.2-2.35,0.63-2.35
		c0.39,0,0.95,0.15,1.71,0.4C77.73,157.65,77.02,158.23,76.15,158.96z"/>
	<path class="st0" d="M145.15,210.58c-1.65-0.63-3.32-0.95-4.95-0.95c-2.96,0-5.92,1.05-8.79,3.12c-1.21,0.87-2.31,1.9-3.37,2.91
		c-2.04,1.92-4.14,3.9-7.02,4.71c-0.86,0.24-1.75,0.71-2.59,1.34c-0.34,0.26-0.5,0.7-0.66,1.13c-0.06,0.17-0.12,0.34-0.19,0.49
		l-0.12,0.25l0.25,0.11c0.16,0.07,0.34,0.18,0.52,0.28c0.38,0.23,0.78,0.46,1.17,0.46c0.06,0,0.12-0.01,0.18-0.02
		c0.58-0.12,1.12-0.39,1.65-0.66c0.37-0.19,0.76-0.38,1.15-0.51c0.61-0.2,1.26-0.32,1.9-0.44c0.29-0.05,0.58-0.11,0.87-0.17l0.02,0
		l0.02-0.01c0.53-0.21,1.01-0.56,1.49-0.89c0.51-0.36,1.05-0.74,1.61-0.93c2.24-0.76,4.39-1.15,6.37-1.15c2.51,0,4.9,0.61,7.09,1.83
		c0.24,0.13,0.41,0.44,0.6,0.77c0.15,0.26,0.3,0.52,0.5,0.74c0.1,0.11,0.2,0.22,0.3,0.33c0.52,0.58,1.05,1.17,1.73,1.39
		c0.06,0.02,0.13,0.03,0.2,0.03c0.6,0,1.74-0.77,1.8-1.33c0.03-0.25,0.23-2.47-0.68-3.12c-2.87-2.03-6.4-4.11-10.71-4.11l-0.18,0
		c-0.92,0.01-1.83,0.06-2.88,0.12c-0.22,0.01-0.46,0.02-0.69,0.04c3.36-2.1,6.45-3.15,9.65-3.28c0.38,0,0.86,0.36,1.29,0.67
		c0.13,0.1,0.25,0.19,0.38,0.27c0.23,0.16,0.45,0.37,0.66,0.57c0.41,0.39,0.83,0.79,1.35,0.89c0.05,0.01,0.11,0.02,0.18,0.02
		c0.65,0,1.76-0.66,1.86-1.23c0.15-0.87-0.21-1.86-0.58-2.71C146.31,211.08,145.68,210.79,145.15,210.58z M146.83,214.21
		c-0.07,0.41-1.04,1.01-1.59,1.01c-0.04,0-0.08,0-0.12-0.01c-0.71-0.15-1.25-0.97-1.92-1.42c-0.57-0.39-1.22-0.99-1.82-0.99
		c-0.01,0-0.02,0-0.04,0c-3.73,0.16-7.08,1.52-10.6,3.86c1.83-0.08,3.2-0.19,4.56-0.2c0.06,0,0.12,0,0.17,0
		c4.02,0,7.41,1.84,10.55,4.07c0.6,0.42,0.67,1.92,0.57,2.87c-0.04,0.41-1.05,1.09-1.53,1.09c-0.04,0-0.08-0.01-0.11-0.02
		c-0.74-0.24-1.34-1.02-1.92-1.65c-0.44-0.48-0.65-1.27-1.17-1.56c-2.36-1.3-4.78-1.86-7.22-1.86c-2.14,0-4.3,0.43-6.46,1.16
		c-1.13,0.38-2.05,1.39-3.11,1.82c-0.93,0.2-1.9,0.31-2.79,0.61c-0.95,0.32-1.8,0.96-2.76,1.16c-0.04,0.01-0.08,0.01-0.13,0.01
		c-0.48,0-1.05-0.49-1.58-0.72c0.25-0.52,0.36-1.21,0.77-1.52c0.74-0.56,1.61-1.04,2.5-1.29c4.46-1.26,6.97-5.14,10.48-7.66
		c2.7-1.95,5.58-3.07,8.64-3.07c1.57,0,3.19,0.3,4.86,0.94c0.45,0.17,1.05,0.44,1.21,0.82C146.62,212.45,146.97,213.4,146.83,214.21
		z"/>
	<path class="st0" d="M49.23,118.64l-0.5,0.28l0.54,0.2l0.53,0.19c0.54,0.2,1.08,0.4,1.63,0.59c0.06,0.02,0.12,0.03,0.19,0.03
		c0.06,0,0.13-0.01,0.19-0.02c0.03,0,0.07-0.01,0.1-0.01l0.25-0.01v-0.04c0.1,0,0.19,0.01,0.29,0.02c0.2,0.01,0.4,0.02,0.59,0.02
		c0.32,0,0.57-0.03,0.8-0.1c0.37-0.11,0.64-0.42,0.9-0.72c0.1-0.12,0.2-0.23,0.31-0.33l0.22-0.21l-0.24-0.19
		c-0.1-0.08-0.2-0.18-0.3-0.27c-0.25-0.25-0.52-0.5-0.86-0.57c-0.42-0.09-0.97-0.19-1.51-0.19c-0.32,0-0.6,0.03-0.86,0.1
		c-0.59,0.16-1.12,0.5-1.62,0.83C49.66,118.38,49.45,118.52,49.23,118.64z M51.57,117.67c0.25-0.07,0.52-0.1,0.79-0.1
		c0.48,0,0.99,0.09,1.45,0.18c0.39,0.08,0.7,0.52,1.04,0.79c-0.36,0.34-0.67,0.86-1.09,0.99c-0.23,0.07-0.48,0.09-0.73,0.09
		c-0.38,0-0.77-0.05-1.15-0.05c0,0.02,0,0.04,0,0.06c-0.09,0.01-0.19,0.03-0.28,0.03c-0.03,0-0.07,0-0.1-0.01
		c-0.72-0.25-1.43-0.52-2.15-0.78C50.09,118.45,50.78,117.88,51.57,117.67z"/>
	<path class="st0" d="M53.85,33.31c-1.62,0-1.75,0.61-2.17,2.61l-0.15,0.69c-0.2,0.93-0.41,1.89-0.51,2.85
		c-0.28,2.59-0.54,5.2-0.78,7.72c-0.1,0.98-0.19,1.96-0.29,2.93l-0.02,0.21l0.2,0.07c0.21,0.07,0.34,0.12,0.43,0.15
		c0.13,0.05,0.19,0.07,0.26,0.07l0.04,0c0.65-0.07,1.31-0.14,1.98-0.21l0.48-0.05l0.21-0.02l0.02-0.21l0.69-6.05l1.19-10.4
		l0.03-0.28l-0.28-0.02C54.64,33.34,54.21,33.31,53.85,33.31z M53.28,50.09c-0.84,0.09-1.65,0.18-2.45,0.26c0,0-0.01,0-0.01,0
		c-0.05,0-0.13-0.05-0.6-0.21c0.34-3.47,0.67-7.06,1.07-10.65c0.13-1.18,0.41-2.35,0.66-3.51c0.42-2,0.51-2.4,1.91-2.4
		c0.35,0,0.78,0.02,1.32,0.06C54.55,39.07,53.93,44.5,53.28,50.09z"/>
	<path class="st0" d="M50.65,63.12l-0.28-0.01v0.28v17.37v0.26l0.26,0l0.3,0l0.27,0v-0.27V63.39v-0.26l-0.26-0.01l-0.15,0
		L50.65,63.12z M50.95,80.76c-0.1,0-0.2,0-0.3,0c0-5.79,0-11.58,0-17.37c0.1,0,0.2,0.01,0.3,0.01
		C50.95,69.18,50.95,74.97,50.95,80.76z"/>
	<path class="st0" d="M113.24,39.49c0.19-3.04-4.75-5.66-7.46-6.21c-0.41-0.08-0.85-0.12-1.3-0.12c-1.12,0-2.2,0.26-2.95,0.71
		c-3.13,1.86-4.18,4.94-2.81,8.24c1.09,2.62,3.27,3.99,5.81,5.37c0.19,0.11,0.42,0.16,0.7,0.16c0.46,0,0.99-0.15,1.49-0.29
		c0.22-0.06,0.43-0.12,0.63-0.17c2.65-0.59,5.94-4.43,5.97-7c0-0.04-0.01-0.09-0.02-0.15C113.26,39.9,113.22,39.68,113.24,39.49z
		 M107.29,46.93c-0.65,0.15-1.45,0.44-2.07,0.44c-0.21,0-0.41-0.04-0.57-0.12c-2.29-1.26-4.6-2.6-5.69-5.24
		c-1.26-3.05-0.42-6.06,2.7-7.91c0.77-0.45,1.82-0.67,2.82-0.67c0.43,0,0.86,0.04,1.25,0.12c2.87,0.58,7.41,3.19,7.24,5.93
		c-0.02,0.31,0.07,0.62,0.08,0.75C113.02,42.64,109.75,46.38,107.29,46.93z"/>
	<path class="st0" d="M112.15,146.39c-1.26,0-2.51-0.01-3.75-0.01c-1.92,0-3.5,0.01-4.97,0.03c-1.56,0.02-2.42,0.03-2.9,0.52
		c-0.47,0.49-0.45,1.31-0.41,2.97c0.01,0.38,0.01,0.83-0.05,1.28c-0.07,0.55,0.01,0.96,0.27,1.24c0.25,0.28,0.64,0.42,1.18,0.42
		l0.1,0c3.56-0.1,7.12-0.19,10.7-0.28l3.78-0.1l0.26-0.01v-0.26v-5.53v-0.27h-0.27C114.75,146.4,113.44,146.39,112.15,146.39z
		 M116.09,152.2c-4.87,0.13-9.67,0.25-14.48,0.38c-0.03,0-0.06,0-0.09,0c-0.9,0-1.31-0.41-1.18-1.36c0.06-0.43,0.06-0.88,0.05-1.32
		c-0.07-3.13-0.07-3.18,3.05-3.22c1.65-0.02,3.3-0.03,4.96-0.03c2.51,0,5.05,0.01,7.69,0.01
		C116.09,148.49,116.09,150.21,116.09,152.2z"/>
	<path class="st0" d="M105.47,156.13l-4.88,0.25l-3.32,0.17l-0.25,0.01v0.25v14.72v0.27h0.27c0.62,0,1.23,0,1.84,0.01
		c0.6,0,1.19,0.01,1.77,0.01c1.4,0,2.46-0.02,3.45-0.07c0.54-0.03,1.34-0.85,1.35-1.4c0.06-3.54,0.06-7.07,0.05-10.81l0-3.13v-0.28
		L105.47,156.13z M105.43,170.34c-0.01,0.4-0.7,1.12-1.09,1.14c-1.14,0.05-2.28,0.07-3.44,0.07c-1.18,0-2.38-0.01-3.61-0.01
		c0-4.87,0-9.67,0-14.72c2.72-0.14,5.24-0.26,8.19-0.41C105.48,161.32,105.51,165.83,105.43,170.34z"/>
	<path class="st0" d="M88.07,171.55l-0.19,0.13l0.11,0.21l0.19,0.36l0.07,0.14h0.16h2.17h0.27v-0.27v-2.04v-0.52l-0.42,0.3
		l-1.47,1.05L88.07,171.55z M90.58,170.09c0,0.77,0,1.34,0,2.04c-0.75,0-1.46,0-2.17,0c-0.06-0.12-0.13-0.24-0.19-0.36
		C88.95,171.25,89.68,170.73,90.58,170.09z"/>
	<path class="st0" d="M46.85,70.86l-0.15-0.89l-0.04-0.26l-0.26,0.04l-3.5,0.56l-3.5,0.56l-0.25,0.04l0.03,0.25l0.04,0.37l0.04,0.37
		l0.03,0.27l0.27-0.04l7.06-0.97l0.27-0.04L46.85,70.86z M39.52,71.87c-0.03-0.25-0.05-0.49-0.08-0.74
		c2.33-0.37,4.66-0.74,6.99-1.12c0.05,0.3,0.1,0.59,0.15,0.89C44.23,71.23,41.88,71.55,39.52,71.87z"/>
	<path class="st0" d="M50.26,124.42c0.74,0.08,1.41,0.12,2.04,0.12c0.56,0,1.09-0.03,1.59-0.09c0.41-0.05,0.73-0.42,1.04-0.77
		c0.12-0.14,0.24-0.28,0.36-0.39l0.17-0.15l-0.12-0.19l-0.28-0.44l-0.07-0.12l-0.14-0.01c-0.39-0.02-0.78-0.04-1.17-0.06
		c-1.03-0.06-2.09-0.12-3.13-0.12l-0.18,0c-0.32,0-0.58,0.26-0.83,0.52c-0.09,0.09-0.18,0.19-0.27,0.26l-0.21,0.17l0.18,0.21
		c0.08,0.1,0.16,0.22,0.24,0.34C49.69,124.04,49.91,124.39,50.26,124.42z M50.35,122.47c0.06,0,0.12,0,0.17,0
		c1.43,0,2.86,0.11,4.29,0.18c0.09,0.15,0.19,0.29,0.28,0.44c-0.41,0.38-0.79,1.03-1.25,1.09c-0.51,0.06-1.03,0.09-1.55,0.09
		c-0.67,0-1.35-0.05-2.01-0.12c-0.32-0.03-0.58-0.63-0.86-0.97C49.73,122.94,50.04,122.48,50.35,122.47z"/>
	<path class="st0" d="M49.72,133.05c0.3,0.25,0.6,0.52,0.98,0.55c0.48,0.04,0.92,0.06,1.35,0.06c0.68,0,1.31-0.05,1.88-0.16
		c0.43-0.08,0.78-0.42,1.11-0.74c0.13-0.13,0.27-0.26,0.4-0.37l0.21-0.17l-0.17-0.21l-0.41-0.51l-0.08-0.09l-0.12-0.01
		c-0.38-0.02-0.76-0.04-1.14-0.06c-0.7-0.04-1.42-0.09-2.13-0.09c-0.28,0-0.56,0.01-0.85,0.02c-0.41,0.02-0.73,0.38-1.04,0.71
		c-0.13,0.14-0.25,0.27-0.37,0.37l-0.26,0.23l0.29,0.2C49.49,132.85,49.6,132.95,49.72,133.05z M50.78,131.53
		c0.28-0.02,0.55-0.02,0.83-0.02c1.08,0,2.17,0.11,3.25,0.15c0.14,0.17,0.28,0.34,0.41,0.51c-0.46,0.37-0.88,0.97-1.39,1.06
		c-0.6,0.11-1.21,0.15-1.83,0.15c-0.44,0-0.89-0.02-1.33-0.06c-0.42-0.04-0.8-0.51-1.19-0.78C49.94,132.2,50.34,131.56,50.78,131.53
		z"/>
	<path class="st0" d="M48.31,60.55c-0.11-0.54-0.19-0.97-0.18-1.38c0.02-0.7-0.13-1.21-0.45-1.54C47.4,57.35,47,57.2,46.46,57.2
		c-0.2,0-0.41,0.02-0.65,0.06c-1.61,0.25-3.23,0.49-4.81,0.73l-1.94,0.29l-0.29,0.04l0.08,0.29c0.09,0.35,0.17,0.68,0.25,0.99
		c0.18,0.73,0.33,1.36,0.57,1.99c0.14,0.36,0.66,1.21,1.17,1.21l0.03,0l0.01,0c1.9-0.18,3.82-0.44,5.69-0.69
		c0.57-0.08,1.14-0.15,1.71-0.23l0.27-0.04l-0.04-0.27C48.44,61.18,48.37,60.85,48.31,60.55z M40.84,62.53c-0.01,0-0.01,0-0.02,0
		c-0.29,0-0.76-0.63-0.92-1.04c-0.33-0.87-0.5-1.8-0.81-2.95c2.18-0.33,4.46-0.65,6.75-1.01c0.22-0.03,0.43-0.05,0.61-0.05
		c0.92,0,1.44,0.45,1.4,1.69c-0.02,0.67,0.2,1.34,0.37,2.44C45.75,61.94,43.3,62.3,40.84,62.53z"/>
	<path class="st0" d="M49.23,127.95c0.1,0.11,0.19,0.24,0.29,0.37c0.26,0.36,0.52,0.72,0.89,0.75c0.4,0.03,0.81,0.05,1.21,0.05
		c0.83,0,1.64-0.07,2.41-0.19c0.41-0.07,0.72-0.41,1.02-0.75c0.12-0.14,0.24-0.27,0.36-0.37l0.15-0.13l-0.08-0.18l-0.15-0.31
		l-0.15-0.31l-0.07-0.15h-0.17c-0.4,0-0.8,0-1.2-0.01c-0.4,0-0.8-0.01-1.21-0.01c-0.81,0-1.47,0.02-2.06,0.05
		c-0.35,0.02-0.63,0.28-0.9,0.53c-0.1,0.09-0.21,0.19-0.31,0.27l-0.24,0.18L49.23,127.95z M50.49,127.03
		c0.68-0.04,1.36-0.05,2.05-0.05c0.8,0,1.6,0.01,2.41,0.01c0.1,0.21,0.19,0.41,0.29,0.62c-0.41,0.37-0.79,0.98-1.25,1.05
		c-0.78,0.13-1.57,0.19-2.37,0.19c-0.4,0-0.8-0.02-1.19-0.05c-0.36-0.03-0.67-0.68-1.01-1.04
		C49.78,127.51,50.12,127.05,50.49,127.03z"/>
	<path class="st0" d="M91.31,160.02l0.04-0.68c0.09-1.36,0.06-2.13-0.32-2.54c-0.2-0.21-0.47-0.31-0.87-0.31
		c-0.27,0-0.6,0.04-1.1,0.15l-0.43,0.09l0.28,0.34l1.12,1.38l0.85,1.05L91.31,160.02z M89.11,156.9c0.43-0.09,0.77-0.14,1.05-0.14
		c0.91,0,1.05,0.6,0.93,2.56C90.26,158.31,89.64,157.55,89.11,156.9z"/>
	<path class="st0" d="M46.79,63.25c-0.1,0-0.2,0.01-0.31,0.02l-4.76,0.58l-2.54,0.31l-0.35,0.04l0.13,0.32
		c0.11,0.27,0.21,0.5,0.31,0.72c0.18,0.41,0.34,0.77,0.44,1.13c0.62,2.37,1.04,3.34,2.72,3.34c0.57,0,1.26-0.11,2.12-0.26
		c0.43-0.08,0.84-0.18,1.3-0.29c0.33-0.08,0.59-0.12,0.81-0.12c0.29,0,0.49,0.06,0.62,0.2c0.22,0.23,0.32,0.69,0.31,1.43
		c-0.09,4.36-0.07,8.8-0.06,13.08c0.01,1.66,0.01,3.32,0.01,4.98v0.25l0.25,0.02l0.68,0.05l0.23,0.02l0.05-0.22
		c0.04-0.17,0.1-0.35,0.17-0.55c0.17-0.48,0.35-0.97,0.15-1.35c-1.07-2.07-0.68-4.24-0.31-6.34c0.07-0.38,0.14-0.76,0.19-1.13
		c0.74-4.76,0.25-9.17-0.47-14.45C48.31,63.56,47.46,63.25,46.79,63.25z M48.71,79.44c-0.37,2.39-1.18,5.1,0.14,7.63
		c0.21,0.4-0.22,1.14-0.35,1.72c-0.23-0.02-0.46-0.03-0.68-0.05c0-6.02-0.07-12.04,0.05-18.06c0.03-1.36-0.32-1.9-1.2-1.9
		c-0.25,0-0.54,0.04-0.88,0.12c-0.43,0.1-0.86,0.21-1.29,0.28c-0.88,0.16-1.55,0.26-2.08,0.26c-1.47,0-1.85-0.77-2.46-3.14
		c-0.15-0.57-0.44-1.11-0.76-1.89c2.46-0.3,4.88-0.6,7.3-0.89c0.1-0.01,0.19-0.02,0.28-0.02c0.95,0,1.33,0.66,1.45,1.55
		C48.89,69.84,49.47,74.55,48.71,79.44z"/>
	<path class="st0" d="M49.66,137.47c0.26,0.32,0.52,0.65,0.89,0.72c0.61,0.11,1.17,0.17,1.68,0.17c0.42,0,0.82-0.04,1.18-0.12
		c0.51-0.11,0.94-0.46,1.36-0.8c0.17-0.14,0.34-0.28,0.52-0.4l0.44-0.3l-0.5-0.17l-0.54-0.19c-0.45-0.16-0.92-0.33-1.39-0.47
		c-0.18-0.05-0.36-0.06-0.51-0.06l-0.04,0l0-0.04h-0.27c-0.16,0-0.33-0.01-0.5-0.02c-0.18-0.01-0.36-0.02-0.53-0.02
		c-0.28,0-0.51,0.03-0.71,0.08c-0.37,0.1-0.67,0.35-0.97,0.59c-0.12,0.1-0.23,0.19-0.36,0.28l-0.26,0.18l0.23,0.22
		C49.47,137.23,49.56,137.35,49.66,137.47z M50.8,136.1c0.2-0.06,0.42-0.07,0.64-0.07c0.34,0,0.69,0.04,1.03,0.04
		c0,0.01,0,0.02,0,0.04c0.05,0,0.11,0,0.16,0c0.05,0,0.1,0,0.14,0c0.15,0,0.3,0,0.43,0.05c0.65,0.2,1.28,0.44,1.93,0.66
		c-0.59,0.41-1.13,1.03-1.78,1.16c-0.36,0.08-0.74,0.11-1.13,0.11c-0.55,0-1.1-0.07-1.63-0.16c-0.4-0.07-0.7-0.64-1.05-0.99
		C49.97,136.65,50.34,136.23,50.8,136.1z"/>
	<path class="st0" d="M87.19,122.38c-1.1-0.2-2.31-0.29-3.59-0.29c-1.38,0-2.85,0.11-4.5,0.34c-2.28,0.31-3.86,2.82-3.9,4.98
		c-0.05,2.64-0.05,5.05,0.02,7.37c0.1,3.28,2,5.45,5.09,5.81c0.91,0.1,1.84,0.16,2.77,0.16c1.11,0,2.23-0.08,3.31-0.23
		c3.18-0.44,5.04-2.62,5.12-5.97c0.02-0.74,0.01-1.49,0.01-2.21c0-0.25,0-0.49,0-0.74l0.07,0v-0.27l0-0.95l0-2.07
		C91.58,124.89,90.11,122.9,87.19,122.38z M91.31,131.32c-0.02,0-0.04,0-0.07,0c0,1.07,0.02,2.14,0,3.21
		c-0.07,3.16-1.75,5.28-4.89,5.71c-1.07,0.15-2.17,0.22-3.27,0.22c-0.92,0-1.84-0.05-2.74-0.16c-3.01-0.35-4.77-2.47-4.86-5.55
		c-0.07-2.45-0.07-4.91-0.02-7.36c0.04-2.11,1.58-4.43,3.67-4.72c1.46-0.2,2.97-0.33,4.46-0.33c1.2,0,2.39,0.09,3.54,0.29
		c2.98,0.53,4.17,2.6,4.17,5.66C91.31,129.31,91.31,130.32,91.31,131.32z"/>
	<path class="st0" d="M39.25,86.53l-0.2,0.01l-0.23,0.02l-0.25,0.02v0.25l0,0.58l0,1.25c0.01,4.43,0.02,8.85,0.03,13.28
		c0.03,11.54,0.06,23.48,0.11,35.22c0.02,4.23,0.13,5.02,3.42,5.02c0.47,0,1.02-0.01,1.65-0.03c2.5-0.06,2.73-0.31,2.74-2.92
		c0.06-21.65,0.12-43.3,0.19-64.94c0-1.29,0.01-2-0.38-2.38c-0.2-0.2-0.47-0.29-0.89-0.29c-0.4,0-0.92,0.08-1.73,0.21
		c-5.37,0.86-5.66,1.24-5.01,6.78c0.24,2.02,0.36,4.09,0.48,6.1c0.04,0.68,0.08,1.35,0.13,2.03l0,0L39.25,86.53z M38.98,78.56
		c-0.63-5.36-0.48-5.64,4.78-6.48c0.75-0.12,1.3-0.2,1.69-0.2c0.99,0,1,0.54,1,2.4c-0.07,21.65-0.13,43.3-0.19,64.94
		c-0.01,2.48-0.12,2.6-2.48,2.66c-0.63,0.02-1.17,0.03-1.64,0.03c-3.08,0-3.13-0.56-3.15-4.76c-0.08-16.16-0.1-32.33-0.15-48.49
		c0-0.61,0-1.22,0-1.82c0.08-0.01,0.15-0.01,0.23-0.02c0.08,0.21,0.15,0.43,0.23,0.64c0.11-0.01,0.22-0.01,0.34-0.02
		C39.42,84.48,39.32,81.5,38.98,78.56z"/>
	<path class="st0" d="M51.01,142.92c0.31,0.14,0.64,0.28,0.88,0.42l0.24,0.13l0.13-0.25l0.11-0.22c0.02,0,0.04,0,0.06,0.01
		c0.09,0.01,0.18,0.02,0.27,0.02c0.14,0,0.26-0.02,0.36-0.06c0.54-0.22,1.08-0.47,1.6-0.71c0.2-0.09,0.4-0.19,0.6-0.28l0.52-0.24
		l-0.52-0.25c-0.19-0.09-0.39-0.19-0.58-0.28c-0.5-0.24-1.02-0.49-1.54-0.72c-0.19-0.08-0.41-0.13-0.61-0.13
		c-0.11,0-0.21,0.01-0.3,0.04c-0.09,0.02-0.19,0.03-0.31,0.03c-0.18,0-0.38-0.02-0.59-0.05c-0.21-0.03-0.44-0.05-0.65-0.05
		c-0.83,0-1.23,0.46-1.24,1.41C49.43,142.22,50.13,142.53,51.01,142.92z M50.68,140.6c0.39,0,0.84,0.1,1.24,0.1
		c0.13,0,0.26-0.01,0.38-0.04c0.07-0.02,0.15-0.03,0.23-0.03c0.17,0,0.36,0.04,0.51,0.1c0.71,0.31,1.41,0.66,2.11,0.99
		c-0.73,0.33-1.44,0.68-2.18,0.98c-0.08,0.03-0.17,0.04-0.26,0.04c-0.16,0-0.33-0.03-0.48-0.03c-0.06,0.13-0.13,0.25-0.19,0.38
		c-0.81-0.45-2.32-0.91-2.31-1.36C49.71,140.8,50.13,140.6,50.68,140.6z"/>
</g>
<g>
	<rect x="28.31" y="102.44" class="st0" width="6.86" height="4.93"/>
	<rect x="36.79" y="95.49" class="st0" width="6.86" height="18.84"/>
	<rect x="45.27" y="89" class="st0" width="6.86" height="31.82"/>
	<rect x="2.85" y="102.44" class="st0" width="6.86" height="4.93"/>
	<rect x="11.33" y="97.82" class="st0" width="6.86" height="14.16"/>
	<rect x="19.81" y="91.61" class="st0" width="6.86" height="26.6"/>
	<rect x="53.75" y="76.58" class="st0" width="6.86" height="56.65"/>
	<rect x="62.23" y="96.45" class="st0" width="6.86" height="16.92"/>
	<rect x="70.71" y="91.66" class="st0" width="6.86" height="26.48"/>
	<rect x="79.19" y="100.42" class="st0" width="6.86" height="8.97"/>
	<rect x="87.67" y="95.33" class="st1" width="6.86" height="19.14"/>
	<rect x="96.15" y="89.03" class="st0" width="6.86" height="31.75"/>
	<rect x="104.63" y="72.61" class="st0" width="6.86" height="64.59"/>
	<rect x="113.11" y="94.02" class="st0" width="6.86" height="21.76"/>
	<rect x="121.59" y="86.24" class="st0" width="6.86" height="37.33"/>
	<rect x="130.07" y="97.13" class="st0" width="6.86" height="15.54"/>
	<rect x="138.55" y="100.6" class="st0" width="6.86" height="8.62"/>
	<rect x="147.03" y="103.95" class="st0" width="6.86" height="1.91"/>
	<rect x="155.51" y="103.63" class="st0" width="6.86" height="2.55"/>
</g>
<rect x="184.66" y="60.54" class="st0" width="0.31" height="115.69"/>
<g>
	<path class="st0" d="M212.09,119.66c-4.96-1.39-7.43-4.59-7.43-9.6v-4.09c0-2.78-1.12-4.17-3.34-4.17v-4.69
		c2.23,0,3.34-1.4,3.34-4.19v-4.34c0.04-2.48,0.68-4.48,1.93-6.01c1.25-1.53,3.08-2.64,5.5-3.32l1.3,3.63
		c-1.73,0.66-2.64,2.51-2.7,5.55v4.48c0,3.08-1.27,5.26-3.82,6.52c2.55,1.27,3.82,3.45,3.82,6.55v4.46c0.07,3.04,0.97,4.89,2.7,5.55
		L212.09,119.66z"/>
	<path class="st0" d="M236.91,101.23c0,3.47-0.78,6.24-2.34,8.31c-1.56,2.07-3.67,3.11-6.33,3.11c-2.05,0-3.74-0.75-5.06-2.25v10.43
		h-6.96V89.89h6.5l0.21,2.06c1.33-1.65,3.09-2.48,5.26-2.48c2.75,0,4.89,1.02,6.42,3.05c1.53,2.03,2.29,4.82,2.29,8.37V101.23z
		 M229.95,100.79c0-3.96-1.16-5.95-3.47-5.95c-1.65,0-2.75,0.59-3.3,1.78v8.8c0.61,1.24,1.72,1.86,3.34,1.86
		c2.22,0,3.36-1.91,3.43-5.74V100.79z"/>
	<path class="st2" d="M264.9,108.51c-1.12,1.24-2.75,2.24-4.89,2.99c-2.15,0.76-4.5,1.14-7.06,1.14c-3.94,0-7.08-1.2-9.44-3.61
		c-2.35-2.41-3.61-5.76-3.78-10.05l-0.02-2.6c0-2.96,0.52-5.54,1.57-7.75c1.05-2.21,2.54-3.91,4.49-5.1
		c1.95-1.19,4.2-1.79,6.76-1.79c3.74,0,6.65,0.86,8.72,2.57c2.07,1.71,3.28,4.27,3.62,7.67h-6.98c-0.25-1.68-0.78-2.88-1.61-3.59
		c-0.83-0.72-2-1.07-3.51-1.07c-1.82,0-3.22,0.77-4.21,2.31c-0.99,1.54-1.49,3.74-1.51,6.61v1.82c0,3,0.51,5.25,1.54,6.76
		c1.03,1.51,2.64,2.26,4.84,2.26c1.89,0,3.29-0.42,4.21-1.26v-4.67h-5.04v-4.98h12.29V108.51z"/>
	<path class="st0" d="M267.69,116.01c1.73-0.66,2.64-2.51,2.71-5.55v-4.48c0-3.1,1.28-5.27,3.84-6.52
		c-2.56-1.25-3.84-3.43-3.84-6.52v-4.48c-0.07-3.04-0.97-4.89-2.71-5.55l1.3-3.63c2.46,0.69,4.32,1.81,5.55,3.38
		c1.24,1.56,1.87,3.61,1.88,6.14v4.15c0,2.79,1.12,4.19,3.34,4.19v4.69c-2.23,0-3.34,1.38-3.34,4.15v4.4
		c-0.1,4.84-2.57,7.95-7.43,9.31L267.69,116.01z"/>
	<path class="st0" d="M294.1,99.59l-11.23-3.82v-6.32l18.15,7.43v5.49l-18.15,7.43v-6.32L294.1,99.59z"/>
	<path class="st0" d="M324.94,101.25c0,3.66-0.76,6.48-2.27,8.44c-1.51,1.97-3.65,2.95-6.4,2.95c-2.27,0-4.1-0.9-5.49-2.7
		l-0.29,2.29h-6.24V80.52h6.96v11.17c1.29-1.47,2.97-2.21,5.02-2.21c2.78,0,4.93,1,6.44,2.99c1.51,2,2.27,4.8,2.27,8.42V101.25z
		 M317.96,100.8c0-2.14-0.29-3.67-0.86-4.59c-0.57-0.91-1.45-1.37-2.63-1.37c-1.57,0-2.66,0.6-3.26,1.79v8.86
		c0.59,1.18,1.69,1.77,3.3,1.77c1.64,0,2.68-0.8,3.12-2.39C317.85,104.1,317.96,102.74,317.96,100.8z"/>
	<path class="st0" d="M335.35,112.23h-6.98V80.52h6.98V112.23z"/>
	<path class="st0" d="M338.76,100.85c0-2.23,0.43-4.22,1.3-5.96c0.87-1.74,2.11-3.08,3.74-4.02c1.62-0.94,3.53-1.4,5.72-1.4
		c3.35,0,5.98,1.04,7.91,3.11c1.93,2.07,2.89,4.89,2.89,8.45v0.25c0,3.48-0.97,6.25-2.9,8.29c-1.93,2.04-4.55,3.07-7.86,3.07
		c-3.18,0-5.73-0.95-7.66-2.86c-1.93-1.91-2.97-4.49-3.12-7.75L338.76,100.85z M345.71,101.29c0,2.06,0.32,3.58,0.97,4.54
		c0.65,0.96,1.6,1.45,2.87,1.45c2.48,0,3.74-1.91,3.8-5.72v-0.7c0-4.01-1.28-6.01-3.84-6.01c-2.33,0-3.59,1.73-3.78,5.18
		L345.71,101.29z"/>
	<path class="st0" d="M362.56,100.9c0-2.26,0.37-4.25,1.12-5.99c0.74-1.73,1.81-3.07,3.2-4.02c1.39-0.94,3.01-1.41,4.85-1.41
		c2.33,0,4.14,0.78,5.45,2.35l0.25-1.94h6.32v21.49c0,1.97-0.46,3.68-1.37,5.13c-0.92,1.45-2.24,2.57-3.97,3.34
		c-1.73,0.78-3.74,1.17-6.03,1.17c-1.64,0-3.22-0.31-4.76-0.93c-1.54-0.62-2.71-1.42-3.52-2.42l2.91-4.09
		c1.29,1.53,3,2.29,5.12,2.29c3.08,0,4.63-1.58,4.63-4.75v-0.7c-1.34,1.47-3.02,2.21-5.06,2.21c-2.73,0-4.93-1.04-6.61-3.13
		c-1.68-2.09-2.52-4.88-2.52-8.37V100.9z M369.54,101.33c0,1.83,0.34,3.28,1.03,4.35c0.69,1.07,1.65,1.6,2.89,1.6
		c1.5,0,2.59-0.5,3.28-1.51v-9.39c-0.67-1.02-1.76-1.53-3.24-1.53c-1.24,0-2.21,0.55-2.91,1.66
		C369.89,97.62,369.54,99.22,369.54,101.33z"/>
</g>
<g>
	<path class="st0" d="M203.61,148.55v-20.71h0.87v20.71H203.61z"/>
	<path class="st0" d="M213.99,148.78c-1.26,0-2.33-0.24-3.22-0.72c-0.89-0.48-1.57-1.25-2.03-2.3c-0.47-1.05-0.7-2.43-0.7-4.13
		c0-1.68,0.22-3.05,0.65-4.09c0.43-1.05,1.03-1.81,1.79-2.3c0.76-0.49,1.66-0.73,2.67-0.73c1.03,0,1.91,0.24,2.65,0.73
		c0.74,0.49,1.31,1.25,1.7,2.3c0.4,1.05,0.6,2.41,0.6,4.09v0.38h-9.64v-0.85h9.07l-0.35,0.33c0-1.51-0.16-2.72-0.48-3.62
		c-0.32-0.9-0.78-1.55-1.38-1.94c-0.6-0.39-1.33-0.59-2.17-0.59c-0.85,0-1.58,0.2-2.21,0.59c-0.63,0.39-1.11,1.04-1.46,1.94
		c-0.35,0.9-0.52,2.11-0.52,3.63v0.19c0,1.52,0.2,2.74,0.6,3.65c0.4,0.91,0.97,1.57,1.73,1.98c0.76,0.41,1.67,0.61,2.75,0.61
		c0.52,0,1.06-0.05,1.61-0.16c0.55-0.11,1.16-0.26,1.81-0.47v0.87c-0.62,0.21-1.22,0.36-1.78,0.46
		C215.11,148.73,214.55,148.78,213.99,148.78z"/>
	<path class="st0" d="M224.29,148.78c-0.63,0-1.23-0.04-1.8-0.13c-0.57-0.09-1.13-0.22-1.69-0.4v-0.87c0.68,0.21,1.3,0.35,1.85,0.43
		c0.55,0.08,1.11,0.12,1.67,0.12c1.37,0,2.37-0.25,3.01-0.76c0.64-0.51,0.96-1.22,0.96-2.13c0-0.8-0.2-1.42-0.61-1.85
		c-0.41-0.43-1.09-0.74-2.04-0.95l-1.65-0.36c-1.24-0.29-2.11-0.74-2.63-1.35c-0.51-0.61-0.77-1.37-0.77-2.28
		c0-1.08,0.4-1.97,1.2-2.69c0.8-0.71,2.03-1.07,3.68-1.07c0.55,0,1.06,0.03,1.55,0.09c0.49,0.06,0.97,0.16,1.46,0.3v0.87
		c-0.56-0.16-1.08-0.27-1.54-0.33c-0.46-0.06-0.95-0.08-1.47-0.08c-0.95,0-1.71,0.13-2.29,0.38c-0.58,0.25-1.01,0.59-1.28,1.03
		c-0.27,0.43-0.4,0.92-0.4,1.47c0,0.69,0.19,1.27,0.56,1.73c0.38,0.46,1.04,0.8,1.99,1.01l1.65,0.36c1.31,0.29,2.22,0.73,2.73,1.33
		c0.51,0.6,0.77,1.37,0.77,2.31c0,1.17-0.41,2.1-1.23,2.79C227.16,148.44,225.93,148.78,224.29,148.78z"/>
	<path class="st0" d="M235.26,148.78c-0.63,0-1.23-0.04-1.8-0.13c-0.57-0.09-1.13-0.22-1.69-0.4v-0.87c0.68,0.21,1.3,0.35,1.85,0.43
		c0.55,0.08,1.11,0.12,1.67,0.12c1.37,0,2.37-0.25,3.01-0.76c0.64-0.51,0.96-1.22,0.96-2.13c0-0.8-0.2-1.42-0.61-1.85
		c-0.41-0.43-1.09-0.74-2.04-0.95l-1.65-0.36c-1.24-0.29-2.11-0.74-2.63-1.35c-0.51-0.61-0.77-1.37-0.77-2.28
		c0-1.08,0.4-1.97,1.2-2.69c0.8-0.71,2.03-1.07,3.68-1.07c0.55,0,1.06,0.03,1.55,0.09c0.49,0.06,0.97,0.16,1.46,0.3v0.87
		c-0.56-0.16-1.08-0.27-1.54-0.33c-0.46-0.06-0.95-0.08-1.47-0.08c-0.95,0-1.71,0.13-2.29,0.38c-0.58,0.25-1.01,0.59-1.28,1.03
		c-0.27,0.43-0.4,0.92-0.4,1.47c0,0.69,0.19,1.27,0.56,1.73c0.38,0.46,1.04,0.8,1.99,1.01l1.65,0.36c1.31,0.29,2.22,0.73,2.73,1.33
		c0.51,0.6,0.77,1.37,0.77,2.31c0,1.17-0.41,2.1-1.23,2.79C238.13,148.44,236.9,148.78,235.26,148.78z"/>
	<path class="st0" d="M254.27,148.78c-1.17,0-2.17-0.24-2.99-0.72c-0.82-0.48-1.45-1.25-1.88-2.3c-0.43-1.05-0.65-2.43-0.65-4.13
		s0.23-3.07,0.7-4.12c0.47-1.05,1.15-1.81,2.06-2.29c0.91-0.48,2.02-0.72,3.33-0.72c0.44,0,0.89,0.03,1.36,0.09
		c0.47,0.06,0.91,0.15,1.33,0.28v0.87c-0.45-0.14-0.91-0.24-1.36-0.3c-0.45-0.06-0.89-0.1-1.31-0.1c-1.15,0-2.11,0.2-2.88,0.59
		c-0.77,0.39-1.35,1.04-1.73,1.95c-0.38,0.91-0.58,2.14-0.58,3.68c0,1.56,0.18,2.81,0.53,3.74s0.88,1.6,1.58,2.01
		c0.7,0.41,1.55,0.61,2.57,0.61c0.45,0,0.94-0.05,1.46-0.15c0.52-0.1,1.09-0.26,1.72-0.48v0.87c-0.56,0.21-1.1,0.36-1.65,0.46
		C255.35,148.73,254.81,148.78,254.27,148.78z"/>
	<path class="st0" d="M264.59,148.78c-1.08,0-2.02-0.24-2.83-0.72c-0.81-0.48-1.44-1.24-1.89-2.29s-0.68-2.43-0.68-4.14
		c0-1.7,0.23-3.07,0.68-4.12c0.45-1.05,1.08-1.81,1.89-2.29c0.81-0.48,1.75-0.72,2.83-0.72c1.08,0,2.02,0.24,2.83,0.71
		c0.81,0.47,1.44,1.23,1.89,2.28s0.67,2.42,0.67,4.14c0,1.69-0.22,3.06-0.67,4.11c-0.45,1.05-1.08,1.82-1.89,2.31
		C266.61,148.54,265.66,148.78,264.59,148.78z M264.59,147.94c0.91,0,1.69-0.2,2.36-0.59c0.67-0.39,1.19-1.05,1.56-1.97
		c0.37-0.92,0.55-2.15,0.55-3.71c0-1.59-0.18-2.84-0.55-3.76c-0.37-0.92-0.89-1.57-1.56-1.97c-0.67-0.39-1.46-0.59-2.36-0.59
		c-0.91,0-1.69,0.19-2.36,0.58c-0.67,0.39-1.19,1.04-1.56,1.95c-0.37,0.91-0.55,2.15-0.55,3.71c0,1.58,0.18,2.84,0.55,3.76
		c0.37,0.93,0.89,1.59,1.56,1.99C262.89,147.74,263.68,147.94,264.59,147.94z"/>
	<path class="st0" d="M278.07,148.78c-1,0-1.9-0.22-2.7-0.67c-0.8-0.44-1.44-1.17-1.91-2.17c-0.47-1-0.71-2.35-0.71-4.03
		c0-1.7,0.25-3.1,0.76-4.19c0.51-1.09,1.26-1.9,2.24-2.43c0.99-0.53,2.2-0.79,3.65-0.79c0.46,0,0.92,0.02,1.38,0.06
		c0.46,0.04,0.88,0.1,1.26,0.17v-6.9h0.87v20.71h-0.77l-0.08-1.53h-0.1c-0.42,0.5-0.96,0.92-1.63,1.26
		C279.66,148.62,278.91,148.78,278.07,148.78z M278.11,147.94c0.74,0,1.47-0.17,2.17-0.52c0.71-0.35,1.29-0.9,1.76-1.65v-10.12
		c-0.36-0.09-0.78-0.17-1.26-0.22c-0.48-0.05-0.95-0.08-1.42-0.08c-1.87,0-3.29,0.5-4.25,1.51c-0.96,1.01-1.44,2.66-1.44,4.95
		c0,1.57,0.19,2.8,0.57,3.69c0.38,0.89,0.9,1.52,1.57,1.88C276.48,147.75,277.24,147.94,278.11,147.94z"/>
	<path class="st0" d="M292.42,148.78c-1.26,0-2.33-0.24-3.22-0.72c-0.89-0.48-1.57-1.25-2.03-2.3c-0.47-1.05-0.7-2.43-0.7-4.13
		c0-1.68,0.22-3.05,0.65-4.09c0.43-1.05,1.03-1.81,1.79-2.3c0.76-0.49,1.66-0.73,2.67-0.73c1.03,0,1.91,0.24,2.65,0.73
		c0.74,0.49,1.31,1.25,1.7,2.3c0.4,1.05,0.6,2.41,0.6,4.09v0.38h-9.64v-0.85h9.07l-0.35,0.33c0-1.51-0.16-2.72-0.48-3.62
		c-0.32-0.9-0.78-1.55-1.38-1.94c-0.6-0.39-1.33-0.59-2.17-0.59c-0.85,0-1.58,0.2-2.21,0.59c-0.63,0.39-1.11,1.04-1.46,1.94
		c-0.35,0.9-0.52,2.11-0.52,3.63v0.19c0,1.52,0.2,2.74,0.6,3.65c0.4,0.91,0.97,1.57,1.73,1.98c0.76,0.41,1.67,0.61,2.75,0.61
		c0.52,0,1.06-0.05,1.61-0.16c0.55-0.11,1.16-0.26,1.81-0.47v0.87c-0.62,0.21-1.22,0.36-1.78,0.46
		C293.55,148.73,292.99,148.78,292.42,148.78z"/>
	<path class="st0" d="M299.66,152.4c0.23-0.74,0.41-1.42,0.54-2.06c0.13-0.64,0.2-1.29,0.2-1.94l0.05,0.28h-0.15
		c-0.23,0-0.42-0.08-0.57-0.23s-0.22-0.35-0.22-0.59c0-0.23,0.07-0.42,0.21-0.57c0.14-0.15,0.33-0.22,0.56-0.22
		c0.25,0,0.45,0.08,0.6,0.25c0.15,0.17,0.22,0.44,0.22,0.83c0,0.79-0.08,1.55-0.25,2.27s-0.37,1.38-0.62,1.99H299.66z"/>
	<path class="st0" d="M311.25,148.55v-13.84h0.77l0.08,1.67h0.1c0.56-0.63,1.19-1.1,1.89-1.41c0.71-0.31,1.43-0.46,2.18-0.46
		c0.74,0,1.4,0.15,1.98,0.44c0.58,0.29,1.03,0.77,1.35,1.44c0.32,0.67,0.49,1.57,0.49,2.7v9.47h-0.87v-9.46
		c0-1.41-0.28-2.39-0.84-2.93c-0.56-0.54-1.29-0.81-2.2-0.81c-0.44,0-0.9,0.08-1.39,0.23c-0.49,0.15-0.97,0.4-1.43,0.74
		c-0.46,0.34-0.88,0.8-1.24,1.37v10.86H311.25z M327.12,148.55v-9.46c0-1.41-0.29-2.39-0.87-2.93c-0.58-0.54-1.32-0.81-2.23-0.81
		c-0.44,0-0.92,0.08-1.44,0.24c-0.53,0.16-1.04,0.44-1.54,0.84c-0.5,0.4-0.94,0.95-1.31,1.65l-0.33-1.08
		c0.7-0.95,1.47-1.6,2.31-1.96c0.84-0.36,1.63-0.54,2.37-0.54c0.75,0,1.42,0.15,2.02,0.44c0.59,0.29,1.06,0.77,1.4,1.44
		c0.34,0.67,0.51,1.57,0.51,2.7v9.47H327.12z"/>
	<path class="st0" d="M336.77,148.78c-1.08,0-2.02-0.24-2.83-0.72c-0.81-0.48-1.44-1.24-1.89-2.29c-0.45-1.05-0.68-2.43-0.68-4.14
		c0-1.7,0.23-3.07,0.68-4.12c0.45-1.05,1.08-1.81,1.89-2.29c0.81-0.48,1.75-0.72,2.83-0.72c1.08,0,2.02,0.24,2.83,0.71
		c0.81,0.47,1.44,1.23,1.89,2.28c0.45,1.04,0.67,2.42,0.67,4.14c0,1.69-0.22,3.06-0.67,4.11c-0.45,1.05-1.08,1.82-1.89,2.31
		C338.79,148.54,337.84,148.78,336.77,148.78z M336.77,147.94c0.91,0,1.69-0.2,2.36-0.59c0.67-0.39,1.19-1.05,1.56-1.97
		c0.37-0.92,0.55-2.15,0.55-3.71c0-1.59-0.18-2.84-0.55-3.76c-0.37-0.92-0.89-1.57-1.56-1.97c-0.67-0.39-1.46-0.59-2.36-0.59
		c-0.91,0-1.69,0.19-2.36,0.58c-0.67,0.39-1.19,1.04-1.56,1.95s-0.55,2.15-0.55,3.71c0,1.58,0.18,2.84,0.55,3.76
		c0.37,0.93,0.89,1.59,1.56,1.99C335.07,147.74,335.86,147.94,336.77,147.94z"/>
	<path class="st0" d="M345.73,148.55v-13.84h0.77l0.08,1.88h0.1c0.52-0.64,1.17-1.13,1.94-1.47c0.77-0.34,1.54-0.51,2.32-0.51
		c0.21,0,0.4,0.01,0.57,0.02c0.17,0.01,0.33,0.04,0.51,0.07v0.87c-0.18-0.03-0.35-0.05-0.52-0.06c-0.17,0-0.36-0.01-0.57-0.01
		c-0.49,0-1,0.08-1.53,0.25c-0.53,0.17-1.04,0.42-1.53,0.77c-0.49,0.35-0.91,0.78-1.26,1.31v10.71H345.73z"/>
	<path class="st0" d="M359.04,148.78c-1.26,0-2.33-0.24-3.22-0.72c-0.89-0.48-1.57-1.25-2.03-2.3c-0.47-1.05-0.7-2.43-0.7-4.13
		c0-1.68,0.22-3.05,0.65-4.09c0.43-1.05,1.03-1.81,1.79-2.3c0.76-0.49,1.66-0.73,2.67-0.73c1.03,0,1.91,0.24,2.65,0.73
		c0.74,0.49,1.31,1.25,1.7,2.3c0.4,1.05,0.6,2.41,0.6,4.09v0.38h-9.64v-0.85h9.07l-0.35,0.33c0-1.51-0.16-2.72-0.48-3.62
		c-0.32-0.9-0.78-1.55-1.38-1.94c-0.6-0.39-1.33-0.59-2.17-0.59c-0.85,0-1.58,0.2-2.21,0.59c-0.63,0.39-1.11,1.04-1.46,1.94
		c-0.35,0.9-0.52,2.11-0.52,3.63v0.19c0,1.52,0.2,2.74,0.6,3.65c0.4,0.91,0.97,1.57,1.73,1.98c0.76,0.41,1.67,0.61,2.75,0.61
		c0.52,0,1.06-0.05,1.61-0.16c0.55-0.11,1.16-0.26,1.81-0.47v0.87c-0.62,0.21-1.22,0.36-1.78,0.46
		C360.17,148.73,359.61,148.78,359.04,148.78z"/>
	<path class="st0" d="M370.68,135.53v-0.82h8.45v0.82H370.68z M373.5,148.55v-16.57c0-0.99,0.16-1.81,0.49-2.46
		c0.33-0.65,0.81-1.13,1.45-1.45c0.64-0.32,1.44-0.48,2.4-0.48c0.28,0,0.58,0.01,0.9,0.04c0.32,0.03,0.61,0.06,0.9,0.12v0.87
		c-0.3-0.06-0.6-0.1-0.91-0.13c-0.31-0.03-0.62-0.04-0.94-0.04c-1.13,0-1.98,0.26-2.55,0.79c-0.57,0.53-0.86,1.43-0.86,2.72v16.61
		H373.5z"/>
	<path class="st0" d="M386.06,148.78c-1.26,0-2.33-0.24-3.22-0.72c-0.89-0.48-1.57-1.25-2.03-2.3c-0.47-1.05-0.7-2.43-0.7-4.13
		c0-1.68,0.22-3.05,0.65-4.09c0.43-1.05,1.03-1.81,1.79-2.3c0.76-0.49,1.66-0.73,2.67-0.73c1.03,0,1.91,0.24,2.65,0.73
		c0.74,0.49,1.31,1.25,1.7,2.3c0.4,1.05,0.6,2.41,0.6,4.09v0.38h-9.64v-0.85h9.07l-0.35,0.33c0-1.51-0.16-2.72-0.48-3.62
		c-0.32-0.9-0.78-1.55-1.38-1.94c-0.6-0.39-1.33-0.59-2.17-0.59c-0.85,0-1.58,0.2-2.21,0.59c-0.63,0.39-1.11,1.04-1.46,1.94
		c-0.35,0.9-0.52,2.11-0.52,3.63v0.19c0,1.52,0.2,2.74,0.6,3.65c0.4,0.91,0.97,1.57,1.73,1.98c0.76,0.41,1.67,0.61,2.75,0.61
		c0.52,0,1.06-0.05,1.61-0.16c0.55-0.11,1.16-0.26,1.81-0.47v0.87c-0.62,0.21-1.22,0.36-1.78,0.46
		C387.19,148.73,386.62,148.78,386.06,148.78z"/>
	<path class="st0" d="M396.59,148.76c-1.23,0-2.21-0.32-2.94-0.95c-0.73-0.63-1.09-1.53-1.09-2.68s0.37-2.05,1.1-2.7
		c0.73-0.64,1.9-1.06,3.5-1.24l4.19-0.5l0.04,0.85l-4.26,0.5c-1.28,0.15-2.21,0.46-2.77,0.95c-0.57,0.49-0.85,1.18-0.85,2.06
		c0,0.93,0.26,1.64,0.78,2.13c0.52,0.49,1.3,0.73,2.33,0.73c0.75,0,1.5-0.17,2.24-0.51c0.74-0.34,1.41-0.89,1.99-1.67v-6.74
		c0-0.97-0.15-1.71-0.45-2.24c-0.3-0.53-0.73-0.89-1.3-1.1s-1.26-0.31-2.07-0.31c-0.52,0-1.1,0.05-1.75,0.15
		c-0.64,0.1-1.3,0.27-1.98,0.51v-0.87c0.54-0.2,1.14-0.36,1.81-0.47c0.67-0.11,1.31-0.16,1.92-0.16c0.99,0,1.84,0.14,2.54,0.41
		c0.7,0.27,1.23,0.74,1.6,1.39c0.37,0.65,0.55,1.55,0.55,2.69v9.56h-0.77l-0.08-1.64h-0.1c-0.47,0.57-1.07,1.02-1.81,1.35
		C398.24,148.59,397.45,148.76,396.59,148.76z"/>
	<path class="st0" d="M403.82,135.53v-0.82h8.45v0.82H403.82z M410.68,148.78c-1.26,0-2.24-0.33-2.96-0.99
		c-0.72-0.66-1.08-1.73-1.08-3.21v-9.87l0.1-5.13h0.77v14.84c0,1.28,0.28,2.19,0.83,2.72c0.55,0.53,1.35,0.79,2.39,0.79
		c0.28,0,0.57-0.02,0.86-0.06c0.29-0.04,0.61-0.1,0.96-0.18v0.87c-0.33,0.08-0.65,0.13-0.95,0.17
		C411.3,148.77,410.99,148.78,410.68,148.78z"/>
	<path class="st0" d="M418.86,148.78c-0.82,0-1.55-0.15-2.18-0.44c-0.64-0.29-1.14-0.77-1.5-1.44c-0.36-0.67-0.54-1.57-0.54-2.7
		v-9.5h0.87v9.51c0,1.38,0.32,2.35,0.95,2.9c0.63,0.55,1.44,0.82,2.43,0.82c0.49,0,1-0.07,1.55-0.22c0.55-0.15,1.08-0.39,1.59-0.72
		c0.51-0.33,0.97-0.77,1.36-1.32v-10.96h0.87v13.84h-0.77l-0.08-1.59h-0.1c-0.6,0.61-1.28,1.06-2.06,1.36
		C420.47,148.63,419.68,148.78,418.86,148.78z"/>
	<path class="st0" d="M428.61,148.55v-13.84h0.77l0.08,1.88h0.1c0.52-0.64,1.17-1.13,1.94-1.47c0.77-0.34,1.54-0.51,2.32-0.51
		c0.21,0,0.4,0.01,0.57,0.02c0.17,0.01,0.33,0.04,0.51,0.07v0.87c-0.18-0.03-0.35-0.05-0.52-0.06c-0.17,0-0.36-0.01-0.57-0.01
		c-0.49,0-1,0.08-1.53,0.25c-0.53,0.17-1.04,0.42-1.53,0.77c-0.49,0.35-0.91,0.78-1.26,1.31v10.71H428.61z"/>
	<path class="st0" d="M441.92,148.78c-1.26,0-2.33-0.24-3.22-0.72c-0.89-0.48-1.57-1.25-2.03-2.3c-0.47-1.05-0.7-2.43-0.7-4.13
		c0-1.68,0.22-3.05,0.65-4.09c0.43-1.05,1.03-1.81,1.79-2.3c0.76-0.49,1.66-0.73,2.67-0.73c1.03,0,1.91,0.24,2.65,0.73
		c0.74,0.49,1.31,1.25,1.7,2.3c0.4,1.05,0.6,2.41,0.6,4.09v0.38h-9.64v-0.85h9.07l-0.35,0.33c0-1.51-0.16-2.72-0.48-3.62
		c-0.32-0.9-0.78-1.55-1.38-1.94c-0.6-0.39-1.33-0.59-2.17-0.59c-0.85,0-1.58,0.2-2.21,0.59c-0.63,0.39-1.11,1.04-1.46,1.94
		c-0.35,0.9-0.52,2.11-0.52,3.63v0.19c0,1.52,0.2,2.74,0.6,3.65c0.4,0.91,0.97,1.57,1.73,1.98c0.76,0.41,1.67,0.61,2.75,0.61
		c0.52,0,1.06-0.05,1.61-0.16c0.55-0.11,1.16-0.26,1.81-0.47v0.87c-0.62,0.21-1.22,0.36-1.78,0.46
		C443.05,148.73,442.49,148.78,441.92,148.78z"/>
	<path class="st0" d="M452.23,148.78c-0.63,0-1.23-0.04-1.8-0.13c-0.57-0.09-1.13-0.22-1.69-0.4v-0.87c0.68,0.21,1.3,0.35,1.85,0.43
		c0.55,0.08,1.11,0.12,1.67,0.12c1.37,0,2.37-0.25,3.01-0.76c0.64-0.51,0.96-1.22,0.96-2.13c0-0.8-0.2-1.42-0.61-1.85
		c-0.41-0.43-1.09-0.74-2.04-0.95l-1.65-0.36c-1.24-0.29-2.11-0.74-2.63-1.35c-0.51-0.61-0.77-1.37-0.77-2.28
		c0-1.08,0.4-1.97,1.2-2.69c0.8-0.71,2.03-1.07,3.68-1.07c0.55,0,1.06,0.03,1.55,0.09c0.49,0.06,0.97,0.16,1.46,0.3v0.87
		c-0.56-0.16-1.08-0.27-1.54-0.33c-0.46-0.06-0.95-0.08-1.47-0.08c-0.95,0-1.71,0.13-2.29,0.38c-0.58,0.25-1.01,0.59-1.28,1.03
		c-0.27,0.43-0.4,0.92-0.4,1.47c0,0.69,0.19,1.27,0.56,1.73c0.38,0.46,1.04,0.8,1.99,1.01l1.65,0.36c1.31,0.29,2.22,0.73,2.73,1.33
		c0.51,0.6,0.77,1.37,0.77,2.31c0,1.17-0.41,2.1-1.23,2.79C455.1,148.44,453.87,148.78,452.23,148.78z"/>
</g>
</svg>
