<?xml version="1.0" encoding="utf-8"?>
<!-- Generator: Adobe Illustrator 25.0.0, SVG Export Plug-In . SVG Version: 6.00 Build 0)  -->
<svg version="1.1" id="Calque_1" xmlns="http://www.w3.org/2000/svg" xmlns:xlink="http://www.w3.org/1999/xlink" x="0px" y="0px"
	 viewBox="0 0 180.17 270.73" style="enable-background:new 0 0 180.17 270.73;" xml:space="preserve">
<style type="text/css">
	.st0{fill:#3C3C3B;}
</style>
<g>
	<g>
		<path class="st0" d="M93.39,0.3c10.45,0,19.15,4.6,26.27,9.1c8.63,5.45,15.37,13.59,20.03,24.18c2.27,5.16,4.38,10.25,5.23,15.77
			c0.38,2.46,0.46,5.02,0.54,7.5l0.01,0.48c0.05,1.51,0.04,3.06,0.03,4.55c-0.01,1.24-0.02,2.53,0.01,3.79
			c0.01,0.39,0.16,0.74,0.3,1.09c0.1,0.24,0.19,0.47,0.24,0.69c0.07,0.35,0.09,0.7,0.11,1.08c0.02,0.3,0.04,0.61,0.08,0.91
			c0.02,0.15,0.03,0.31,0.05,0.48c0.05,0.6,0.1,1.21,0.49,1.55c0.41,0.36,1.07,0.49,1.55,0.49c0.25,0,0.49-0.03,0.69-0.1
			c0.56-0.18,1.06-1.22,0.99-1.82c-0.1-0.82-0.01-1.4,0.27-1.71c0.22-0.25,0.6-0.38,1.15-0.38c0.28,0,0.61,0.03,1.01,0.1
			c0.62,0.1,1.23,0.15,1.8,0.15c0.36,0,0.71-0.02,1.04-0.06c0.16-0.02,0.3-0.03,0.44-0.03c1.05,0,1.48,0.54,1.54,1.93
			c0.06,1.36,0.14,2.72,0.22,4.08c0.13,2.31,0.27,4.7,0.33,7.04l0.01,0.48c0.14,5.46,0.29,11.11,0.22,16.66
			c-0.07,5.67-0.24,11.23-0.42,17.11c-0.08,2.49-0.15,5-0.22,7.54l-0.01,0.33l0.33-0.02c0.23-0.01,0.47-0.03,0.72-0.05
			c0.44-0.04,0.9-0.07,1.34-0.07c0.09,0,0.18,0,0.27,0c0.06,0,0.12,0,0.18,0c0.71,0,1.22-0.17,1.57-0.52
			c0.39-0.4,0.56-1.01,0.55-1.98c-0.07-4.97-0.09-10.03-0.12-14.92c-0.02-3.23-0.03-6.46-0.06-9.69
			c-0.07-8.24-0.17-15.52-0.29-22.27c-0.02-1.13-0.21-2.26-0.4-3.36l-0.11-0.67c-0.09-0.56-0.05-0.95,0.14-1.17
			c0.18-0.23,0.55-0.36,1.11-0.39c0.6-0.03,1.03-0.05,1.39-0.05c2.22,0,2.55,0.49,2.68,4.01c0.26,6.56,0.43,13.23,0.59,19.69
			c0.06,2.2,0.11,4.4,0.17,6.6c0.02,0.86,0.02,1.73,0.01,2.56c0,0.38-0.01,0.76-0.01,1.13l0.01,0.23l0.22,0.06
			c3.96,1.15,3.96,1.15,3.79,5.21c-0.06,1.33-0.13,2.67-0.21,4c-0.09,1.61-0.18,3.27-0.24,4.9c-0.04,1.22-0.43,1.88-1.42,2.47
			c-1.33,0.78-2.1,2.04-2.11,3.45c-0.01,1.43,0.79,2.77,2.13,3.59c1.13,0.69,1.82,2.01,1.85,3.53c0.03,1.62-0.7,3.11-1.91,3.9
			c-2.54,1.66-3.13,3.85-1.82,6.67c0.23,0.49,0.34,1.12,0.3,1.68c-0.09,1.28-0.22,2.58-0.34,3.84c-0.22,2.22-0.44,4.52-0.47,6.79
			c-0.05,3.51,0.05,7.08,0.14,10.53c0.05,1.85,0.1,3.7,0.13,5.56c0.03,2.21,0.06,4.82-0.04,7.41c-0.02,0.53-0.19,1.06-0.39,1.68
			c-0.1,0.31-0.2,0.64-0.3,0.99l-0.08,0.32l0.33,0.05l1.17,0.19l0.37,0.06l-0.78,0.31l-0.87,0.35l-0.18,0.07l-0.01,0.19
			c-0.08,1.65-0.18,3.3-0.27,4.95c-0.24,4.18-0.48,8.5-0.57,12.76c-0.02,1.13,0.25,2.26,0.51,3.35c0.21,0.88,0.43,1.79,0.48,2.67
			c0.09,1.47,0.35,2.47,1.41,3.55c0.64,0.65,0.98,1.48,0.96,2.36c-0.03,0.99-0.52,1.95-1.36,2.7c-1.83,1.62-1.93,3.57-1.76,5.44
			c0.05,0.49,0.41,0.93,0.74,1.31c0.08,0.09,0.16,0.19,0.23,0.28c0.12,0.16,0.32,0.25,0.49,0.33c0.03,0.01,0.07,0.03,0.1,0.05
			c-0.02,1.52,0.88,2.52,1.75,3.5c0.76,0.85,1.48,1.65,1.59,2.77c0.13,1.37,0.9,2.04,2.34,2.04c0.17,0,0.35-0.01,0.53-0.03
			c0.47-0.04,0.96-0.08,1.34-0.08c1.16,0,1.31,0.25,1.41,2.45c0.08,1.72,0.1,3.48,0.12,5.17c0.04,2.82,0.08,5.73,0.36,8.58
			c0.29,2.87,1.31,5.76,2.28,8.21c1.18,2.99,0.02,5.34-1.21,7.83c-0.3,0.62-0.62,1.26-0.89,1.9c-0.12,0.29-0.27,0.57-0.41,0.86
			c-0.38,0.76-0.77,1.54-0.8,2.35c-0.02,0.42-0.03,0.8-0.04,1.14c-0.04,1.54-0.06,2.31-0.46,2.67c-0.42,0.37-1.41,0.44-3.22,0.57
			l-0.17,0.01c-2.43,0.17-5.06,0.26-8.05,0.26c-3.14,0-6.33-0.09-9.42-0.18c-1.92-0.06-3.84-0.11-5.76-0.15l-0.45-0.01
			c-2.05-0.03-4.17-0.06-5.5-1.92c-0.67-0.93-1.08-1.94-1.12-2.77c-0.08-1.46-0.57-1.98-1.97-2.07c-3.76-0.25-5.11-1.51-5.56-5.21
			c-0.4-3.27-1.26-5.41-4.47-6.68c-4.08-1.61-4.9-5.39-4.87-8.28c0.03-2.9,0.03-5.85,0.02-8.71c-0.01-6.94-0.03-14.12,0.5-21.13
			c0.41-5.35,3.24-8.3,7.99-8.3c1.48,0,3.1,0.29,4.83,0.87c0.32,0.11,0.63,0.26,1.03,0.45c0.22,0.11,0.47,0.23,0.77,0.36l0.71,0.32
			l-0.31-0.72l-0.63-1.44c0.03,0,0.05,0,0.08,0c0.08,0,0.15,0.01,0.2,0.02c0.28,0.08,0.56,0.16,0.83,0.25
			c0.78,0.24,1.59,0.49,2.4,0.49c0.85,0,1.58-0.27,2.25-0.84c0.62-0.52,1.24-1.09,1.27-1.71c0.17-3.15,0.35-6.87,0.31-10.62
			c-0.03-3.34-0.28-6.67-0.58-10.35l-0.6,0.02c0,0.61-0.01,1.23-0.01,1.84c-0.01,1.41-0.03,2.87,0.04,4.3
			c0.06,1.29-0.42,1.79-1.83,1.92c-2.12,0.18-4.32,0.45-6.54,0.8c-0.56,0.09-1.31,0.46-1.67,1c-1.07,1.63-2.13,3.3-3.16,4.91
			c-1.66,2.6-3.38,5.3-5.16,7.88c-0.57,0.84-1.82,1.6-2.79,1.71c-2.74,0.3-5.54,0.44-8.26,0.57c-1.05,0.05-2.1,0.1-3.15,0.16
			l-0.44,0.02l0.18,0.4l0.12,0.27c-0.23,0.12-0.47,0.24-0.71,0.35c-0.77,0.38-1.57,0.78-2.31,1.26c-0.5,0.32-1.43,1.11-1.35,1.77
			c0.5,4.33-1.97,5.81-6.4,6.92c-1.33,0.33-2.79,0.34-4.19,0.34c-0.27,0-0.53,0-0.8,0.01c-1.12,0.01-2.23,0.03-3.35,0.06
			c-1.87,0.03-3.8,0.07-5.69,0.07c-2.09,0-3.91-0.04-5.58-0.14c-2.18-0.12-4.59-0.75-7.16-1.86c-1.03-0.45-1.78-2.32-2.1-3.12
			c-0.25-0.63-0.26-1.36-0.27-2.21c-0.01-0.41-0.01-0.83-0.05-1.26l-0.02-0.25l-0.25-0.02c-0.21-0.02-0.42-0.03-0.63-0.05
			c-0.48-0.03-0.94-0.07-1.39-0.13c-0.08-0.01-0.17-0.02-0.27-0.03c-0.24-0.03-0.73-0.09-0.87-0.17c-0.56-1.66-1.72-1.89-2.79-1.89
			c-0.22,0-0.45,0.01-0.68,0.02c-0.22,0.01-0.43,0.02-0.65,0.02c-0.12,0-0.24,0-0.36-0.01c-2.89-0.2-6-0.4-9.09-0.53l-0.07,0
			c-0.47,0-1.45,0.22-1.61,0.73c-0.2,0.62-0.26,1.72,0.2,2.2c1.12,1.15,1.11,2.52,1.11,3.97l0,0.35l0.01,5.22
			c0.02,7.76,0.03,15.78-0.01,23.67c-0.03,4.85-1.81,7.93-5.3,9.14c-4.16,1.45-4.97,4.81-5.75,8.06l-0.09,0.4L44.84,261
			c-0.66,2.77-0.66,2.77-3.89,2.92c-0.16,0.01-0.31,0.05-0.44,0.09c-0.05,0.02-0.11,0.03-0.16,0.05l-0.19,0.05l-0.04,0.19
			l-0.08,0.41L40,264.92l-0.06,0.29l0.29,0.06c0.36,0.08,0.73,0.17,1.09,0.25c0.82,0.19,1.67,0.39,2.52,0.53
			c0.31,0.05,0.65,0.06,0.97,0.06l0.13,0l0.13,0c1.21,0,1.72,0.14,1.8,1.04c0.03,0.38-1.56,1.58-2.7,1.79
			c-3.98,0.74-8.69,1.49-13.47,1.49c-1.04,0-2.08-0.04-3.08-0.11c-1.87-0.13-3.84-0.19-6.21-0.19c-1.96,0-3.96,0.04-5.9,0.09
			c-1.74,0.04-3.54,0.08-5.31,0.08l-1,0l-0.86,0l-0.66,0l0.62-1.16l0.53-0.99l0.1-0.19l-0.15-0.16l-0.49-0.53l-0.26-0.28l-0.21,0.33
			c-0.12,0.18-0.22,0.38-0.31,0.58c-0.19,0.38-0.38,0.76-0.62,0.87c-0.38,0.17-0.85,0.26-1.31,0.26c-0.3,0-0.59-0.04-0.83-0.12
			c-0.26-0.09-0.63-0.75-0.73-1.35c-0.07-0.39-0.05-0.8-0.02-1.24c0.03-0.5,0.05-1.02-0.06-1.52c-0.29-1.25-0.72-2.18-1.29-2.76
			c-1.66-1.7-2.86-6.95-2.08-9.07c0.32-0.86,0.64-1.72,0.96-2.58c1.07-2.84,2.18-5.77,2.99-8.75c0.3-1.12,0.21-2.33,0.12-3.5
			c-0.06-0.83-0.13-1.7-0.05-2.51c0.24-2.4,0.79-4.81,1.28-6.87c0.06-0.15,0.67-0.48,1.12-0.48c0.03,0,0.05,0,0.08,0.01
			c0.21,0.03,0.42,0.05,0.62,0.05c1.65,0,2.35-1.16,2.97-2.45c0.32-0.65,0.78-1.23,1.28-1.83c0.32-0.4,0.66-0.81,0.95-1.24
			c0.21-0.32,0.3-0.7,0.39-1.07c0.04-0.17,0.08-0.34,0.13-0.5c0.04-0.14,0.08-0.29,0.11-0.44c0.07-0.29,0.14-0.6,0.28-0.72
			c1.22-1.08,1.89-2.38,1.92-3.76c0.04-1.45-0.59-2.86-1.83-4.08c-0.73-0.72-1.31-1.98-1.44-3.14c-0.09-0.76,0.11-1.43,0.57-1.95
			c0.51-0.57,1.3-0.9,2.18-0.9l0.3,0v-0.3c0-0.55-0.04-1.11-0.09-1.66c-0.09-1.19-0.18-2.32,0.15-3.29
			c1.35-3.94,1.02-7.92,0.71-11.77c-0.14-1.71-0.28-3.48-0.28-5.22c0-0.84,0.05-1.69,0.11-2.59c0.03-0.43,0.05-0.88,0.08-1.34
			l0.01-0.24l-0.23-0.07l-0.94-0.27l-0.64-0.19h4.68h1.85l-1.76-0.58c-4.14-1.38-4.14-1.38-4.17-5.54
			c-0.01-1.26-0.03-2.52-0.04-3.78c-0.03-2.52-0.07-5.12-0.03-7.67c0.02-1.39,0.11-2.8,0.19-4.16c0.09-1.51,0.19-3.08,0.2-4.62
			c0-1.21-0.15-2.43-0.3-3.61c-0.08-0.66-0.17-1.35-0.23-2.02c-0.04-0.45-0.08-0.9-0.13-1.36c-0.14-1.48-0.29-3.01-0.23-4.49
			c0.03-0.65,0.27-1.29,0.53-1.98c0.19-0.51,0.39-1.03,0.5-1.57c0.36-1.77-0.28-3.08-2.08-4.25c-0.95-0.62-2-2-2.04-3.07
			c-0.01-0.15-0.01-0.3-0.02-0.45c-0.09-1.69-0.17-3.44,1.94-4.1c0.34-0.11,0.95-0.52,0.94-0.94c-0.02-0.48-0.08-0.97-0.15-1.44
			c-0.1-0.73-0.2-1.41-0.12-2.08c0.21-1.75-0.76-2.45-1.86-3.07c-0.34-0.19-0.69-0.81-0.72-1.25c-0.23-3.79-0.36-6.95-0.4-9.95
			c-0.01-0.78,0.14-1.33,0.44-1.64c0.22-0.22,0.52-0.33,0.93-0.33c0.43,0,0.98,0.13,1.61,0.37l0.41,0.16v-0.44
			c0-1.82-0.01-3.62-0.02-5.41c-0.02-4.23-0.04-8.22,0.05-12.29c0.1-4.49,0.48-8.9,0.79-12.25c0.19-2.05,0.89-2.46,2.03-2.46
			c0.69,0,1.57,0.18,2.41,0.37l0.31,0.07l0.06-0.31l0.3-1.67l0.3-1.67c0.02,0.07,0.02,0.13,0.01,0.17
			c-1.45,7.04-1.31,14.23-1.18,21.19c0.06,2.93,0.12,5.95,0.06,8.92c-0.15,7.18-0.01,14.49,0.12,21.55l0.05,2.64
			c0.02,1.26,0.27,2.52,0.51,3.74c0.11,0.56,0.22,1.12,0.31,1.68l0.04,0.27l0.28-0.02l0.79-0.06l0.3-0.02l-0.03-0.3
			c-0.03-0.36-0.07-0.73-0.11-1.09c-0.09-0.84-0.19-1.7-0.16-2.54c0.01-0.41,0.17-0.83,0.35-1.27c0.1-0.24,0.19-0.5,0.27-0.75
			c0.04-0.14,0.09-0.28,0.13-0.42c0.15-0.45,0.3-0.92,0.29-1.41c-0.34-15.98,0.13-30.66,1.45-44.89l0.01-0.15
			c0.01-0.09,0.01-0.17,0.02-0.26c0.42-2.99,0.68-3.48,1.85-3.48c0.59,0,1.42,0.15,2.65,0.42c0.33,0.07,0.62,0.1,0.88,0.1
			c1.14,0,1.8-0.68,1.96-2.01c0.06-0.54,0.17-1.09,0.29-1.73c0.05-0.25,0.1-0.5,0.15-0.78c0.09,0.18,0.14,0.36,0.13,0.49
			c-0.07,0.92,0.15,1.68,0.63,2.19c0.4,0.43,0.97,0.66,1.63,0.66c0.05,0,0.1,0,0.15,0l-0.18,0.37c-0.09,0.18-0.2,0.36-0.32,0.54
			c-0.29,0.47-0.6,0.95-0.56,1.46c0.04,0.51,0.42,0.94,0.79,1.36c0.14,0.16,0.28,0.32,0.4,0.49l0.19,0.26l0.25-0.2l1.22-0.99
			l0.2-0.16l-0.13-0.22l-1.04-1.77l-0.46-0.78l-0.21-0.36c0.62-0.06,1.13-0.33,1.48-0.77c0.44-0.57,0.58-1.39,0.39-2.31
			c-0.08-0.41,0.1-1.1,0.24-1.19c2.42-1.09,2.09-2.9,1.8-4.49c-0.09-0.49-0.17-0.96-0.19-1.41c-0.01-0.47-0.04-0.95-0.07-1.42
			c-0.05-0.91-0.11-1.86-0.06-2.78c0.51-9.88,2-17.29,4.83-23.93l-0.58,1.72l-0.17,0.51l0.53-0.13c0.86-0.21,1.7-0.41,2.53-0.61
			c2.14-0.52,4.16-1.01,6.21-1.45c0.22-0.05,0.47-0.07,0.76-0.07c0.29,0,0.59,0.02,0.9,0.05c0.13,0.01,0.27,0.02,0.4,0.03
			c-1.94,7.69-2.66,13.69-2.33,19.42l0.03,0.47l0.41-0.22c0.37-0.2,0.57-0.45,0.61-0.77l0.19-1.61c0.54-4.62,1.09-9.39,1.6-14.09
			c0.09-0.8,0.1-1.62,0.11-2.41c0-0.28,0.01-0.57,0.02-0.85l0.04-0.14l0-0.03c0.18-0.2,0.36-0.39,0.55-0.58
			c0.49-0.51,1.01-1.05,1.37-1.67c3.34-5.74,7.16-9.86,11.71-12.58c1.96-1.17,4.06-2.1,6.29-3.09c0.86-0.38,1.75-0.77,2.65-1.19
			l-1.33,6.69l-0.06,0.28l0.28,0.07l0.51,0.12l0.29,0.07L76.52,22c0.22-0.86,0.45-1.71,0.68-2.57c0.54-1.98,1.09-4.03,1.5-6.08
			c0.36-1.79,1.13-2.46,2.85-2.46l0.16,0c2.91,0.07,5.32,0.1,7.57,0.1c1.82,0,3.5-0.02,5.14-0.07l0.16,0c2.07,0,3.38,1.16,4.49,2.41
			c0.12,0.13,0.24,0.28,0.35,0.42c0.53,0.65,1.13,1.39,2.01,1.39c0.28,0,0.58-0.08,0.88-0.24c0.67-0.35,1.01-1.29,1.3-2.12
			c0.06-0.16,0.11-0.32,0.17-0.47l0.13-0.32c0.32-0.79,0.67-1.68,0.45-2.42c-0.35-1.15-0.99-2.48-2.83-2.59
			c-1.93-0.11-3.75-0.3-5.5-0.59h3.42h0.23l0.06-0.22l0.19-0.72L100,5.23l-0.22-0.11c-0.4-0.19-0.79-0.4-1.19-0.6
			c-0.86-0.45-1.75-0.91-2.68-1.25c-1.38-0.51-2.19-0.8-2.78-0.8c-1.2,0-1.34,1.1-1.64,3.49c0,0.03-0.02,0.08-0.04,0.14l-0.57-4.21
			l-0.03-0.21l-0.21-0.04l-0.67-0.12l-0.12-0.02l-0.28-0.05L89.51,1.7c-0.08,0.32-0.18,0.65-0.28,0.97
			C89,3.42,88.76,4.19,88.74,4.98c-0.03,1.12-0.35,1.45-1.44,1.49c-0.87,0.03-1.74,0.07-2.61,0.1c-1.22,0.05-2.46,0.1-3.7,0.14
			c1.65-0.14,3.32-0.25,4.97-0.32c1.11-0.04,1.83-0.29,2.27-0.78c0.42-0.47,0.59-1.17,0.52-2.2c-0.09-1.28-0.7-1.9-1.88-1.9
			c-0.28,0-0.56,0.03-0.83,0.06c-0.15,0.02-0.3,0.03-0.44,0.04c-5.78,0.4-11.37,2.03-17.09,4.97c-0.29,0.15-0.59,0.28-0.93,0.42
			c-0.21,0.08-0.43,0.15-0.65,0.22L66.9,7.25l-0.04-0.1c0.91-0.42,1.82-0.84,2.72-1.27c2.2-1.04,4.47-2.11,6.76-2.98
			c3.51-1.34,7.13-1.73,10.96-2.14c0.65-0.07,1.3-0.14,1.95-0.21C90.62,0.38,92.02,0.3,93.39,0.3 M82.12,18.32l1.18-0.47
			c2.19-0.86,3.77-1.23,5.28-1.23c0.92,0,1.78,0.14,2.65,0.43c0.16,0.05,0.34,0.08,0.55,0.08c0.23,0,0.47-0.03,0.7-0.07
			c0.17-0.02,0.34-0.05,0.5-0.06l0.56-0.03l-0.33-0.45c-0.11-0.15-0.21-0.32-0.31-0.5c-0.25-0.43-0.51-0.87-0.94-1.07
			c-0.74-0.34-1.58-0.51-2.51-0.51c-2.39,0-4.87,1.11-6.48,2.91L82.12,18.32 M59.59,52.48l0.33-0.02c0.87-0.05,1.71-0.09,2.54-0.13
			c2.4-0.12,4.67-0.22,6.92-0.45c0.66-0.07,1.47-1.19,1.52-1.9c0.33-4.35,0.58-8.66,0.84-13.23c0.08-1.32,0.15-2.66,0.23-4.01
			L72,32.4l-0.34,0.03c-0.73,0.06-1.46,0.11-2.19,0.17c-2.18,0.16-4.43,0.33-6.63,0.59c-0.61,0.07-1.34,0.97-1.45,1.59
			c-0.64,3.76-1.05,6.67-1.33,9.44c-0.19,1.83-0.27,3.7-0.34,5.5c-0.03,0.81-0.07,1.62-0.11,2.43L59.59,52.48 M115.23,49.83
			c0.52,0,1.11-0.16,1.67-0.32c0.25-0.07,0.49-0.14,0.71-0.19c2.97-0.66,6.67-4.97,6.71-7.86c0-0.04-0.02-0.1-0.03-0.17
			c-0.03-0.16-0.08-0.4-0.06-0.62c0.21-3.42-5.34-6.36-8.38-6.97c-0.46-0.09-0.95-0.14-1.46-0.14c-1.26,0-2.47,0.29-3.32,0.79
			c-3.51,2.08-4.69,5.55-3.15,9.26c1.22,2.95,3.68,4.48,6.52,6.04C114.66,49.77,114.92,49.83,115.23,49.83 M54.13,53.17l0.04,0
			c0.73-0.07,1.47-0.15,2.22-0.23l0.54-0.06l0.24-0.03l0.03-0.24l0.78-6.8l1.34-11.68l0.03-0.32l-0.32-0.02
			c-0.61-0.03-1.09-0.06-1.49-0.06c-1.82,0-1.97,0.68-2.44,2.93l-0.17,0.77c-0.23,1.04-0.46,2.12-0.58,3.2
			c-0.32,2.91-0.6,5.84-0.88,8.68c-0.11,1.1-0.21,2.2-0.32,3.28l-0.02,0.24l0.22,0.08c0.24,0.08,0.38,0.14,0.48,0.17
			C53.98,53.15,54.04,53.17,54.13,53.17 M41.47,54.63c0.16,0,0.33-0.01,0.53-0.04c0.68-0.1,1.36-0.23,2.03-0.35
			c1.11-0.2,2.25-0.41,3.38-0.51c1.62-0.14,2.43-0.96,2.65-2.66c0.49-3.82,0.99-7.65,1.52-11.63l0.61-4.67l0.06-0.43l-0.42,0.1
			c-0.69,0.16-1.39,0.32-2.09,0.48c-2.25,0.51-4.58,1.05-6.89,1.65c-0.58,0.15-1.04,0.97-1.19,1.44c-1.52,4.82-2.14,9.77-1.84,14.72
			C39.86,53.55,40.08,54.63,41.47,54.63 M97.74,50.38l0.03,0h0c2.95-0.01,5.39-2.29,5.45-5.08c0.03-1.36-0.53-2.7-1.58-3.78
			c-1.12-1.14-2.64-1.8-4.21-1.8c0,0,0,0,0,0c-2.93,0.02-5.31,2.36-5.31,5.22C92.12,47.84,94.75,50.38,97.74,50.38 M40.15,56.79
			l0.3-0.05l1.36-0.24l7.74-1.36l0.26-0.05l-0.01-0.26l-0.01-0.23l-0.01-0.24l-0.02-0.34l-0.33,0.05l-1.12,0.18l-8.06,1.3l-0.3,0.05
			l0.05,0.3l0.1,0.6L40.15,56.79 M40.42,58.39l0.29-0.03l1.75-0.19l-0.25,0.15l-1.48,0.86l-0.59,0.35l0.65,0.2
			c0.8,0.25,1.82,0.38,2.96,0.38c2.99,0,6.72-0.9,7.55-2.35l0.21-0.38l-0.43-0.07l-1.71-0.27l0.08-0.02l1.33-0.35l0.27-0.07
			l-0.05-0.28l-0.05-0.28l-0.05-0.28l-0.28,0.04l-3.19,0.46l-6.85,0.99l-0.29,0.04l0.04,0.29l0.03,0.25l0.03,0.25L40.42,58.39
			 M42.9,66.85l0.03,0l0.01,0c2.13-0.2,4.3-0.49,6.39-0.77c0.64-0.09,1.28-0.17,1.93-0.26l0.31-0.04l-0.05-0.31
			c-0.07-0.43-0.14-0.8-0.21-1.14c-0.12-0.61-0.22-1.09-0.21-1.55c0.02-0.79-0.14-1.36-0.5-1.73c-0.32-0.33-0.77-0.48-1.37-0.48
			c-0.22,0-0.46,0.02-0.74,0.06c-1.81,0.29-3.63,0.55-5.4,0.82l-2.18,0.32l-0.33,0.05l0.09,0.32c0.1,0.39,0.19,0.76,0.28,1.11
			c0.2,0.82,0.37,1.53,0.64,2.23C41.74,65.89,42.34,66.85,42.9,66.85 M54.57,87.34v-0.3V67.53v-0.29l-0.29-0.01l-0.34-0.01
			l-0.31-0.01v0.31v19.52v0.3l0.3,0l0.34,0.01L54.57,87.34 M44.7,74.63c0.64,0,1.41-0.12,2.39-0.3c0.48-0.09,0.95-0.2,1.47-0.32
			c0.37-0.09,0.67-0.13,0.91-0.13c0.32,0,0.55,0.07,0.7,0.23c0.25,0.25,0.36,0.78,0.35,1.6c-0.1,4.9-0.08,9.88-0.06,14.7
			c0.01,1.87,0.01,3.73,0.01,5.6v0.28l0.28,0.02l0.77,0.06l0.26,0.02l0.06-0.25c0.04-0.19,0.12-0.4,0.2-0.62
			c0.19-0.54,0.39-1.09,0.17-1.52c-1.21-2.32-0.77-4.76-0.34-7.12c0.08-0.43,0.15-0.85,0.22-1.27c0.83-5.34,0.28-10.3-0.53-16.23
			c-0.22-1.65-1.17-2-1.93-2c-0.11,0-0.23,0.01-0.35,0.02l-5.71,0.7l-2.49,0.3l-0.39,0.05l0.15,0.36c0.12,0.3,0.24,0.56,0.35,0.81
			c0.21,0.46,0.38,0.87,0.49,1.27C42.33,73.54,42.8,74.63,44.7,74.63 M41.17,77.39l0.31-0.04l7.93-1.09l0.31-0.04l-0.05-0.3
			l-0.17-0.99l-0.05-0.29l-0.29,0.05l-3.93,0.63l-3.93,0.63l-0.28,0.04l0.03,0.28l0.03,0.26l0.06,0.57L41.17,77.39 M83.55,77.9
			l-6.34-0.58l-2.88-0.26L74,77.03v0.33v4.9v0.35l0.34-0.05l5.73-0.82l3.42-0.49c-0.13,0.71-0.05,1.23,0.23,1.59
			c0.45,0.58,1.28,0.58,2.1,0.58c2.25,0,4.5,0.02,6.75,0.04c2.64,0.02,5.27,0.04,7.91,0.04c3,0,5.62-0.03,8.02-0.08
			c2.31-0.05,4.64-0.38,6.9-0.7c1.23-0.17,2.5-0.35,3.75-0.49c0.15-0.02,0.31-0.02,0.45-0.03c0.87-0.05,1.96-0.11,1.95-1.82
			c-0.01-1.2-0.28-2.59-2.33-2.59l-0.12,0c-0.65,0-1.32,0-1.83-0.24c-3.2-1.48-6.52-1.79-10.51-1.79l-0.39,0l-0.96,0
			c-2.92,0-5.89-0.05-8.76-0.1c-1.77-0.03-3.55-0.06-5.32-0.08c-0.87-0.01-1.74-0.01-2.6-0.01c-0.72,0-1.44,0-2.15,0
			c-0.7,0-1.39,0-2.07,0h-0.22l-0.07,0.21l-0.49,1.54L83.55,77.9 M58.96,82.86l0.06,0c0.26,0.05,0.51,0.11,0.76,0.17
			c0.64,0.15,1.24,0.28,1.86,0.31l0.56,0.02c2.08,0.07,4.22,0.15,6.33,0.15c0.92,0,1.77-0.01,2.59-0.04
			c0.88-0.03,2.48-0.79,2.63-1.61c0.24-1.21,0.49-3.4-0.41-4.46c-0.89-1.04-2.8-1.4-4.17-1.4c-0.08,0-0.16,0-0.24,0
			c-1.61,0.05-3.23,0.42-4.79,0.77c-0.57,0.13-1.13,0.26-1.7,0.37c-4.25,0.86-4.35,1.01-3.84,5.38
			C58.64,82.65,58.74,82.86,58.96,82.86 M41.2,93.73L41.2,93.73l-0.08-0.21l-0.23,0.02l-0.13,0.01l-0.13,0.01l-0.28,0.02v0.28
			l0,0.65l0,1.4c0.01,4.98,0.03,9.96,0.04,14.94c0.03,12.96,0.06,26.36,0.13,39.53c0.02,4.75,0.14,5.64,3.84,5.64
			c0.53,0,1.15-0.01,1.85-0.03c2.81-0.07,3.07-0.34,3.08-3.28c0.07-24.32,0.14-48.63,0.21-72.95c0-1.45,0.01-2.24-0.42-2.67
			c-0.22-0.22-0.53-0.32-1-0.32c-0.45,0-1.04,0.09-1.94,0.23c-6.04,0.97-6.35,1.39-5.62,7.61c0.27,2.27,0.4,4.6,0.54,6.85
			C41.11,92.21,41.15,92.97,41.2,93.73 M58.82,98.66h0.3c0.63,0,1.26-0.01,1.88-0.02c0.61-0.01,1.21-0.02,1.8-0.02
			c0.85,0,1.54,0.02,2.19,0.07c1.19,0.09,2.4,0.26,3.58,0.42c1.75,0.24,3.57,0.49,5.36,0.49l0.43,0c3.67,0,7.39-0.12,10.99-0.23
			c2.44-0.08,4.97-0.16,7.45-0.2c2.34-0.04,3.49-0.09,4.11-0.77c0.44-0.48,0.55-1.2,0.52-2.42l0.03,0.04
			c0.07,0.08,0.13,0.17,0.2,0.27c0.18,0.26,0.38,0.56,0.69,0.62c1.12,0.22,2.24,0.46,3.36,0.69c3.04,0.65,6.18,1.31,9.31,1.57
			c0.57,0.05,1.15,0.07,1.78,0.07c1.84,0,3.72-0.2,5.54-0.4c0.96-0.1,1.95-0.21,2.92-0.29c0.33-0.03,0.62-0.18,0.89-0.32
			c0.1-0.06,0.21-0.11,0.31-0.15l0.18-0.08v-0.2v-4.07v-0.26l-0.26-0.04c-0.55-0.08-1.07-0.16-1.58-0.24
			c-1.05-0.16-2.03-0.31-3.01-0.42c-0.83-0.09-1.69-0.22-2.52-0.34c-1.53-0.23-3.1-0.47-4.64-0.47c-0.59,0-1.14,0.03-1.67,0.11
			c-2.55,0.34-5.06,1.18-7.49,1.99c-0.99,0.33-2.02,0.67-3.03,0.98c-0.25,0.07-0.46,0.22-0.66,0.35c-0.08,0.05-0.16,0.11-0.25,0.16
			l-0.12,0.07c-0.02-0.43-0.05-0.91-0.08-1.45c-0.13-2.04-0.9-2.76-2.97-2.76l-1.01,0c-1.71,0-3.42-0.02-5.13-0.03
			c-1.71-0.02-3.43-0.03-5.14-0.03c-7.72,0-15.98,0.35-24.08,2.89l-0.21,0.07v0.22v3.84V98.66 M90.33,131.09
			c1.62,0,3.25-0.31,4.87-0.94l1.93-1.05l0.87-0.48l0.09-0.05l0.04-0.09c0.18-0.37,0.4-0.76,0.62-1.13c0.5-0.86,1.02-1.75,1.09-2.69
			c0.22-3.07,0.17-6.07-0.14-8.92c-0.3-2.71-1.63-4.38-3.85-4.82c-0.09-0.07-0.19-0.14-0.28-0.22c-0.35-0.28-0.7-0.57-1.12-0.58
			c-0.56-0.01-1.13-0.02-1.69-0.03c-0.83-0.02-1.66-0.04-2.49-0.04c-1.62,0-2.92,0.08-4.09,0.26c-2.51,0.38-4.68,2.81-4.75,5.32
			c-0.08,3.13-0.03,6.13,0.15,8.93c0.18,2.75,1.3,4.57,3.32,5.41C86.72,130.72,88.54,131.09,90.33,131.09 M146.02,177.5l0.33-0.03
			l2.01-0.21l0.91-0.09l0.27-0.03v-0.27c0-0.39,0-0.76,0-1.12c0-0.74-0.01-1.45,0.01-2.15l0.33-17.14
			c0.2-10.47,0.4-20.95,0.59-31.42c0.03-1.76,0.02-3.54,0.01-5.26c0-0.79-0.01-1.57-0.01-2.35v-0.26l-0.25-0.04
			c-0.71-0.11-1.24-0.17-1.68-0.17c-0.76,0-1.26,0.16-1.59,0.52c-0.49,0.53-0.5,1.43-0.44,2.32l0.09,1.25
			c0.13,1.8,0.27,3.66,0.33,5.49c0.12,3.54,0.18,7.09,0.23,11.02c0.02,1.23,0.01,2.48,0.01,3.69c-0.01,2.34-0.02,4.77,0.14,7.15
			c0.1,1.54,0,3.1-0.1,4.61c-0.13,1.94-0.26,3.94,0.02,5.95c0.34,2.4-0.24,4.78-0.97,7.42c-0.64,2.31-0.5,4.79-0.36,7.4
			c0.06,1.11,0.13,2.25,0.13,3.39V177.5 M33.83,177.77l-0.86,0.32l-0.15,0.06l0-0.09h-0.3H21.71h-0.3l0,0.3l0,0.38v0l0,0.3h0.3
			h10.81h0.3l0-0.3l0-0.08l0.24,0.01c2.22,0.1,2.36,1.11,2.31,2.33c-0.03,0.75-0.07,1.49-0.1,2.24c-0.09,1.97-0.19,4.01-0.21,6.03
			c-0.04,3.42-0.03,6.91-0.02,10.27c0,1.43,0.01,2.86,0.01,4.3v0.24l0.24,0.05l0.09,0.02l0.34,0.07l0.03-0.34l0.05-0.67l0.28-3.71
			c0,0.02,0,0.04,0,0.06c-0.04,1.09-0.08,2.22,0.11,3.31c0.16,0.9,0.91,2.36,1.84,2.64c1.45,0.44,2.67,0.65,3.72,0.65
			c0.56,0,1.08-0.06,1.55-0.19c1.18-0.31,2.36-0.46,3.59-0.46c1.53,0,3.12,0.23,5,0.73c0.16,0.04,0.34,0.06,0.53,0.06
			c0.43,0,0.89-0.11,1.42-0.23c0.37-0.09,0.76-0.18,1.2-0.25l0.47-0.07l-0.26-0.39c-0.67-0.99-1.31-1.93-1.92-2.83
			c-1.35-1.99-2.62-3.86-3.85-5.72c-0.39-0.58-0.74-1.26-1.07-1.91c-0.73-1.41-1.49-2.88-2.71-3.6c-1.42-0.84-3.3-0.89-5.12-0.93
			c-0.61-0.01-1.24-0.03-1.83-0.07c-1.37-0.1-1.82-0.64-1.81-2.11c0.06-5.81,0.1-11.49-0.06-17.13c-0.04-1.46-0.27-2.94-0.48-4.36
			c-0.19-1.22-0.38-2.49-0.45-3.73c-0.15-2.5-0.14-5.05-0.13-7.53c0-0.68,0.01-1.36,0-2.04c-0.01-9.17-0.01-20,0.02-30.76
			c0-1.06,0.09-2.13,0.17-3.17c0.04-0.48,0.08-0.96,0.1-1.43l0.02-0.25l-0.25-0.06c-1.05-0.24-1.74-0.4-2.23-0.4
			c-1.15,0-1.22,0.87-1.36,2.44c-0.09,1.02-0.11,2.1-0.07,3.2c0.05,1.58,0.13,3.16,0.2,4.74c0.12,2.68,0.25,5.45,0.28,8.17
			c0.08,6.54,0.13,13.19,0.18,19.62c0.05,6.5,0.11,13.22,0.18,19.82c0.01,0.64,0.27,1.23,0.54,1.87
			C33.67,177.38,33.75,177.57,33.83,177.77 M55.02,131.04c0.07,0,0.14-0.01,0.22-0.02c0.04-0.01,0.07-0.01,0.11-0.01l0.28-0.02
			v-0.04c0.11,0,0.22,0.01,0.33,0.02c0.22,0.01,0.44,0.03,0.66,0.03c0.36,0,0.64-0.04,0.9-0.11c0.41-0.12,0.72-0.47,1.01-0.81
			c0.11-0.13,0.23-0.26,0.34-0.37l0.25-0.24l-0.27-0.21c-0.11-0.09-0.22-0.2-0.33-0.3c-0.29-0.28-0.58-0.56-0.97-0.64
			c-0.47-0.1-1.1-0.21-1.7-0.21c-0.36,0-0.67,0.04-0.96,0.12c-0.66,0.18-1.25,0.56-1.82,0.93c-0.24,0.15-0.48,0.31-0.72,0.45
			l-0.56,0.32l0.61,0.22l0.59,0.22c0.61,0.22,1.22,0.45,1.83,0.66C54.87,131.03,54.94,131.04,55.02,131.04 M90.37,154.4
			c1.25,0,2.5-0.09,3.72-0.25c3.57-0.49,5.66-2.94,5.75-6.71c0.02-0.83,0.01-1.67,0.01-2.48c0-0.28,0-0.55,0-0.83l0.07,0v-0.3
			l0-1.07l0-2.33c0-3.83-1.66-6.07-4.93-6.65c-1.23-0.22-2.59-0.33-4.03-0.33c-1.55,0-3.2,0.12-5.05,0.38
			c-2.56,0.35-4.34,3.17-4.39,5.59c-0.06,2.96-0.05,5.67,0.02,8.28c0.11,3.69,2.25,6.13,5.72,6.53
			C88.28,154.34,89.32,154.4,90.37,154.4 M55.78,136.21c0.63,0,1.23-0.04,1.78-0.11c0.47-0.06,0.82-0.47,1.16-0.86
			c0.14-0.16,0.27-0.31,0.41-0.44l0.19-0.17l-0.14-0.21l-0.16-0.25l-0.16-0.25l-0.08-0.13l-0.15-0.01
			c-0.44-0.02-0.87-0.05-1.31-0.07c-1.15-0.06-2.34-0.13-3.52-0.13l-0.2,0c-0.36,0-0.65,0.3-0.93,0.58c-0.1,0.1-0.2,0.21-0.3,0.29
			l-0.24,0.19l0.2,0.23c0.09,0.11,0.18,0.25,0.27,0.39c0.25,0.38,0.5,0.76,0.89,0.8C54.33,136.17,55.08,136.21,55.78,136.21
			 M55.03,141.36c0.93,0,1.84-0.07,2.71-0.22c0.46-0.08,0.81-0.46,1.15-0.84c0.14-0.15,0.27-0.3,0.4-0.42l0.17-0.15l-0.1-0.2
			l-0.16-0.35l-0.16-0.35l-0.08-0.17h-0.19c-0.45,0-0.9,0-1.35-0.01c-0.45,0-0.9-0.01-1.35-0.01c-0.91,0-1.65,0.02-2.32,0.06
			c-0.39,0.02-0.71,0.31-1.01,0.59c-0.12,0.11-0.23,0.21-0.35,0.3l-0.27,0.2l0.23,0.25c0.11,0.12,0.22,0.27,0.33,0.42
			c0.29,0.4,0.59,0.81,1,0.84C54.12,141.34,54.58,141.36,55.03,141.36 M55.5,146.45c0.76,0,1.47-0.06,2.11-0.18
			c0.49-0.09,0.87-0.47,1.25-0.84c0.15-0.15,0.3-0.29,0.45-0.42l0.23-0.19l-0.19-0.23l-0.23-0.29l-0.23-0.29l-0.08-0.11l-0.14-0.01
			c-0.43-0.02-0.85-0.05-1.28-0.07c-0.78-0.05-1.59-0.1-2.39-0.1c-0.32,0-0.63,0.01-0.95,0.03c-0.46,0.03-0.82,0.42-1.17,0.8
			c-0.14,0.15-0.28,0.3-0.41,0.42l-0.3,0.25l0.32,0.22c0.13,0.09,0.26,0.2,0.39,0.31c0.33,0.29,0.68,0.58,1.1,0.62
			C54.53,146.43,55.02,146.45,55.5,146.45 M55.71,151.73c0.48,0,0.92-0.04,1.33-0.13c0.57-0.12,1.06-0.52,1.52-0.9
			c0.19-0.16,0.38-0.32,0.58-0.45l0.49-0.34l-0.56-0.19l-0.61-0.21c-0.51-0.18-1.04-0.37-1.57-0.53c-0.2-0.06-0.4-0.06-0.58-0.06
			l-0.04,0l0-0.04h-0.3c-0.18,0-0.37-0.01-0.56-0.02c-0.2-0.01-0.4-0.02-0.6-0.02c-0.31,0-0.57,0.03-0.8,0.09
			c-0.42,0.12-0.76,0.4-1.09,0.67c-0.13,0.11-0.26,0.22-0.4,0.31l-0.29,0.21l0.25,0.25c0.11,0.11,0.22,0.25,0.33,0.39
			c0.29,0.36,0.58,0.73,1,0.81C54.51,151.67,55.14,151.73,55.71,151.73 M55.6,157.47l0.14-0.28l0.13-0.25c0.02,0,0.04,0,0.07,0.01
			c0.1,0.01,0.2,0.02,0.3,0.02c0.16,0,0.29-0.02,0.41-0.07c0.61-0.24,1.21-0.53,1.79-0.8c0.22-0.1,0.45-0.21,0.67-0.31l0.58-0.27
			l-0.58-0.28c-0.22-0.1-0.44-0.21-0.65-0.32c-0.56-0.27-1.14-0.55-1.72-0.8c-0.21-0.09-0.46-0.14-0.69-0.14
			c-0.12,0-0.24,0.01-0.34,0.04c-0.1,0.03-0.21,0.04-0.35,0.04c-0.21,0-0.43-0.03-0.66-0.06c-0.24-0.03-0.49-0.06-0.73-0.06
			c-0.93,0-1.38,0.52-1.39,1.58c0,0.54,0.78,0.88,1.76,1.32c0.35,0.16,0.72,0.32,0.99,0.47L55.6,157.47 M111.07,168l0.11,0
			c4-0.11,7.99-0.21,12.02-0.32l4.24-0.11l0.29-0.01v-0.29v-6.21v-0.3h-0.3c-1.5,0-2.97,0-4.43-0.01c-1.42,0-2.82-0.01-4.21-0.01
			c-2.16,0-3.93,0.01-5.58,0.03c-1.75,0.02-2.72,0.04-3.25,0.59c-0.53,0.54-0.51,1.47-0.46,3.34c0.01,0.43,0.01,0.94-0.05,1.43
			c-0.08,0.62,0.02,1.08,0.3,1.4C110.02,167.85,110.46,168,111.07,168 M130.38,188.79c1.59,0,1.59-0.98,1.6-2.92
			c0.01-1.41,0.01-2.82,0.01-4.23l0-7.06l0-2.91v-0.28l-0.27-0.02c-0.78-0.07-1.46-0.13-1.96-0.13c-0.51,0-1.02,0.05-1.35,0.39
			c-0.42,0.44-0.39,1.17-0.32,2.63c0.05,1.12,0.05,2.27,0.05,3.37l0,0.84c0,2.34,0,4.69,0,7.01l0,2.81v0.26l0.26,0.04
			C129.25,188.7,129.9,188.79,130.38,188.79 M106.02,189.3h0.3c0.69,0,1.38,0,2.06,0.01c0.67,0,1.33,0.01,1.99,0.01
			c1.57,0,2.76-0.02,3.88-0.08c0.61-0.03,1.5-0.96,1.51-1.58c0.07-3.97,0.06-7.94,0.06-12.15l0-3.52v-0.32l-0.32,0.02l-6.29,0.32
			l-2.91,0.15l-0.28,0.01v0.29V189V189.3 M82.36,175.44l0.4-0.34l1.02-0.85l1.61-1.34l0.42-0.35l-0.51-0.17
			c-1-0.33-1.58-0.47-2.02-0.47c-0.39,0-0.68,0.11-0.87,0.34c-0.39,0.46-0.34,1.32-0.13,2.64L82.36,175.44 M99.6,176.07l0.05-0.76
			c0.1-1.53,0.07-2.39-0.36-2.85c-0.22-0.24-0.53-0.35-0.97-0.35c-0.3,0-0.67,0.05-1.24,0.16l-0.49,0.1l0.31,0.39l1.26,1.55
			l0.96,1.17L99.6,176.07 M139.4,183.82l0.21-0.22c0.13-0.14,0.3-0.27,0.48-0.42c0.44-0.35,0.89-0.72,0.93-1.2
			c0.14-1.81,0.24-3.56-0.14-5.22c-0.17-0.75-0.65-1.21-1.26-1.21c-0.55,0-1.09,0.39-1.43,1.03c-0.38,0.72-0.57,1.55-0.71,2.21
			c-0.06,0.25-0.11,0.49-0.17,0.69l-0.02,0.06l0.01,0.06c0.04,0.34,0.05,0.64,0.07,0.91c0.03,0.59,0.05,1.05,0.27,1.45
			c0.26,0.47,0.67,0.84,1.07,1.19c0.16,0.14,0.33,0.29,0.48,0.44L139.4,183.82 M96.18,189.96h0.18h2.43h0.3v-0.3v-2.29v-0.58
			l-0.47,0.34l-1.32,0.94l-1.32,0.94l-0.21,0.15l0.12,0.23l0.21,0.41L96.18,189.96 M19.64,238.95c0.13,0,0.23-0.03,0.31-0.09
			c0.74-0.51,1.36-1.18,1.96-1.83c0.21-0.22,0.42-0.45,0.63-0.66c0.22-0.22,0.43-0.48,0.62-0.72c0.42-0.51,0.81-1,1.29-1.19
			c0.41-0.16,0.91-0.24,1.57-0.24c0.43,0,0.88,0.03,1.31,0.07l0.14,0.01c3.92,0.29,8.18,3.42,9.21,6.68c-0.21,0-0.38-0.01-0.53-0.07
			c-2-0.76-4.01-1.14-6-1.14c-3.74,0-7.49,1.33-11.45,4.05c-1.34,0.92-1.74,2.34-1.17,4.11c0.2,0.61,1.26,1.49,1.81,1.49
			c0.08,0,0.15-0.02,0.21-0.05c1.02-0.49,1.9-1.27,2.75-2.03l0.14-0.12c0.31-0.27,0.57-0.6,0.83-0.92c0.38-0.47,0.74-0.92,1.19-1.13
			c2.04-0.96,4.12-1.44,6.16-1.44c3.03,0,6.03,1.02,9.18,3.11c2.38,1.58,4.54,2.84,6.61,3.84c0.4,0.19,0.85,0.29,1.33,0.29
			c1.49,0,2.95-0.96,3.33-2.19c0.21-0.68-0.11-1.63-0.52-2.27c-0.14-0.21-0.41-0.21-0.5-0.21c-0.29,0-0.69,0.09-1.08,0.18
			c-0.13,0.03-0.26,0.06-0.37,0.08c-0.28,0.06-0.57,0.17-0.86,0.28c-0.34,0.13-0.69,0.26-0.93,0.26c-0.06,0-0.11-0.01-0.14-0.03
			c-2.28-1.32-4.61-2.85-5.91-5.79c-1.17-2.65-2.85-5.22-4.86-7.43c-2.04-2.25-5.83-3.76-9.41-3.76c-3.61,0-6.55,1.45-8.25,4.08
			c-0.6,0.93-0.46,2.38-0.35,3.55l0.01,0.14C17.93,238.43,19.19,238.95,19.64,238.95 M131.15,248.41c0.07,0,0.14-0.01,0.2-0.02
			c0.65-0.13,1.26-0.44,1.85-0.74c0.42-0.21,0.85-0.43,1.29-0.58c0.68-0.23,1.42-0.36,2.13-0.49c0.33-0.06,0.65-0.12,0.97-0.19
			l0.03-0.01l0.03-0.01c0.59-0.24,1.14-0.63,1.67-1c0.58-0.41,1.18-0.83,1.81-1.04c2.52-0.85,4.93-1.29,7.16-1.29
			c2.82,0,5.5,0.69,7.97,2.05c0.27,0.15,0.47,0.49,0.67,0.86c0.16,0.29,0.33,0.59,0.56,0.83c0.11,0.12,0.22,0.24,0.33,0.37
			c0.58,0.65,1.18,1.32,1.95,1.57c0.07,0.02,0.14,0.03,0.22,0.03c0.68,0,1.96-0.86,2.02-1.5c0.03-0.28,0.26-2.77-0.77-3.5
			c-3.23-2.29-7.18-4.62-12.03-4.62l-0.2,0c-1.03,0.01-2.06,0.07-3.24,0.13c-0.25,0.01-0.51,0.03-0.78,0.04
			c3.78-2.36,7.24-3.53,10.84-3.69c0.43,0,0.97,0.4,1.45,0.76c0.14,0.11,0.29,0.21,0.42,0.31c0.25,0.17,0.5,0.41,0.74,0.64
			c0.46,0.43,0.93,0.88,1.52,1.01c0.06,0.01,0.13,0.02,0.2,0.02c0.73,0,1.98-0.74,2.09-1.38c0.16-0.98-0.24-2.09-0.65-3.04
			c-0.23-0.52-0.94-0.85-1.53-1.08c-1.86-0.71-3.73-1.07-5.56-1.07c-3.32,0-6.64,1.18-9.88,3.51c-1.35,0.98-2.59,2.14-3.79,3.27
			c-2.29,2.15-4.65,4.38-7.89,5.29c-0.97,0.27-1.97,0.79-2.91,1.5c-0.39,0.29-0.56,0.79-0.74,1.27c-0.07,0.19-0.14,0.38-0.22,0.56
			l-0.13,0.28l0.28,0.13c0.19,0.08,0.38,0.2,0.58,0.32C130.27,248.15,130.72,248.41,131.15,248.41 M30.48,68.52
			c0.25,0,0.5,0,0.73,0.01c0.06,0.01,0.13,0.07,0.22,0.17h-4.97c0.05,0,0.1-0.01,0.14-0.01C27.88,68.61,29.19,68.52,30.48,68.52
			 M18.48,68.76c0.56,0,1,0.04,1.4,0.11c0.02,0,0.07,0.03,0.14,0.09l-2.62-0.18c0.04,0,0.08,0,0.12,0
			C17.84,68.77,18.16,68.76,18.48,68.76 M93.39,0c-1.37,0-2.76,0.08-4.18,0.24c-4.43,0.51-8.82,0.79-12.98,2.37
			c-3.33,1.27-6.52,2.91-9.77,4.38c0.09,0.21,0.18,0.41,0.27,0.62c0.32-0.11,0.65-0.2,0.96-0.32c0.33-0.13,0.65-0.27,0.96-0.43
			c5.34-2.75,10.96-4.52,16.97-4.94c0.4-0.03,0.84-0.1,1.26-0.1c0.8,0,1.48,0.27,1.58,1.62c0.12,1.83-0.5,2.58-2.51,2.66
			c-4.36,0.17-8.71,0.68-13.06,1.05c0.46,0.01,0.91,0.01,1.37,0.01c4.37,0,8.71-0.22,13.06-0.39c1.25-0.05,1.69-0.51,1.73-1.79
			c0.03-1.08,0.49-2.14,0.76-3.21c0.26,0.05,0.53,0.1,0.79,0.15c0.21,1.56,0.42,3.12,0.71,5.26c0.35-0.81,0.47-0.99,0.5-1.18
			c0.29-2.35,0.4-3.23,1.34-3.23c0.54,0,1.37,0.3,2.67,0.78c1.33,0.49,2.56,1.22,3.84,1.84c-0.06,0.24-0.13,0.48-0.19,0.72
			c-2.16,0-4.33,0-6.49,0c2.86,0.67,5.7,1.03,8.55,1.19c1.62,0.09,2.22,1.25,2.56,2.38c0.22,0.73-0.25,1.73-0.57,2.54
			c-0.34,0.87-0.65,2.07-1.34,2.43c-0.27,0.14-0.51,0.2-0.74,0.2c-0.91,0-1.5-0.99-2.14-1.71c-1.26-1.42-2.62-2.51-4.71-2.51
			c-0.05,0-0.11,0-0.16,0c-1.71,0.05-3.42,0.07-5.13,0.07c-2.52,0-5.04-0.04-7.56-0.1c-0.06,0-0.11,0-0.17,0
			c-1.87,0-2.76,0.79-3.15,2.7c-0.58,2.91-1.44,5.76-2.18,8.63c-0.17-0.04-0.34-0.08-0.51-0.12c0.45-2.26,0.9-4.51,1.45-7.27
			c-3.41,1.6-6.61,2.81-9.5,4.54c-5.11,3.07-8.83,7.56-11.81,12.69c-0.5,0.87-1.32,1.56-1.99,2.33c0,0.01,0,0.02,0,0.03
			c0.01,0,0.03,0,0.04,0c-0.02,0.06-0.03,0.12-0.05,0.18c-0.03,1.09-0.01,2.19-0.13,3.27c-0.57,5.23-1.18,10.47-1.79,15.7
			c-0.02,0.2-0.15,0.38-0.45,0.54c-0.38-6.64,0.74-13.09,2.37-19.51c0-0.06,0-0.12,0.01-0.18c-0.55-0.02-1.11-0.09-1.65-0.09
			c-0.28,0-0.55,0.02-0.82,0.08c-2.84,0.61-5.66,1.32-8.74,2.06c0.52-1.54,0.92-2.71,1.31-3.88c-0.54,0.43-0.86,0.95-1.1,1.5
			c-3.41,7.8-4.62,16.07-5.05,24.48c-0.07,1.4,0.09,2.81,0.13,4.22c0.06,2,1.45,4.32-1.44,5.62c-0.31,0.14-0.51,1.04-0.41,1.52
			c0.31,1.53-0.35,2.66-1.71,2.73c-0.05,0-0.1,0-0.14,0c-1.27,0-2.08-0.95-1.96-2.54c0.04-0.53-0.66-1.59-1.05-1.6
			c-0.25-0.01-0.5-0.01-0.75-0.01c-1.83,0-3.66,0.16-5.5,0.26c0,0.17,0,0.34,0,0.51c2.17,0,4.34,0,6.62,0
			c-0.21,1.15-0.39,1.97-0.49,2.8c-0.14,1.24-0.71,1.75-1.66,1.75c-0.25,0-0.52-0.03-0.82-0.1c-1.2-0.26-2.07-0.42-2.71-0.42
			c-1.52,0-1.76,0.93-2.15,3.74c-0.02,0.14-0.03,0.28-0.04,0.42c-1.38,14.94-1.77,29.92-1.45,44.92c0.01,0.58-0.25,1.16-0.41,1.74
			c-0.2,0.71-0.61,1.4-0.63,2.1c-0.03,1.22,0.17,2.44,0.28,3.66c-0.26,0.02-0.53,0.04-0.79,0.06c-0.29-1.79-0.79-3.58-0.82-5.38
			c-0.14-8.06-0.33-16.12-0.16-24.18c0.2-10.02-0.94-20.09,1.11-30.05c0.09-0.44-0.52-1.42-0.92-1.49
			c-0.48-0.09-0.96-0.12-1.45-0.12c-0.65,0-1.3,0.04-1.95,0.04c0,0.17,0,0.35,0,0.52c1.2,0.08,2.41,0.16,3.81,0.26
			c-0.25,1.4-0.47,2.62-0.69,3.85c-0.99-0.22-1.81-0.37-2.48-0.37c-1.41,0-2.14,0.67-2.33,2.73c-0.39,4.08-0.7,8.17-0.79,12.27
			c-0.13,5.84-0.03,11.68-0.03,17.71c-0.68-0.26-1.25-0.39-1.72-0.39c-1.15,0-1.69,0.78-1.67,2.27c0.05,3.32,0.2,6.65,0.4,9.96
			c0.03,0.53,0.43,1.24,0.87,1.49c1.13,0.64,1.89,1.26,1.71,2.78c-0.14,1.16,0.22,2.37,0.26,3.56c0.01,0.21-0.44,0.56-0.73,0.65
			c-2.54,0.8-2.19,3.11-2.12,4.84c0.04,1.16,1.13,2.63,2.17,3.31c1.57,1.03,2.3,2.18,1.95,3.94c-0.25,1.22-0.99,2.38-1.04,3.59
			c-0.09,1.95,0.19,3.93,0.35,5.89c0.16,1.87,0.53,3.74,0.53,5.61c-0.01,2.93-0.35,5.85-0.39,8.78c-0.05,3.82,0.05,7.64,0.08,11.46
			c0.03,4.37,0.03,4.37,4.37,5.82c-2.29,0-3.98,0-5.67,0c0,0.11,0,0.21,0,0.32c0.85,0.25,1.71,0.5,2.49,0.73
			c-0.07,1.43-0.18,2.68-0.18,3.94c-0.02,5.63,1.51,11.26-0.41,16.9c-0.52,1.51-0.08,3.35-0.08,5.05c-1.81,0-3.27,1.26-3.05,3.18
			c0.13,1.16,0.71,2.51,1.53,3.32c2.31,2.28,2.37,5.25-0.08,7.4c-0.3,0.27-0.34,0.85-0.48,1.29c-0.16,0.5-0.2,1.08-0.48,1.5
			c-0.71,1.07-1.69,1.98-2.24,3.11c-0.63,1.29-1.25,2.28-2.7,2.28c-0.18,0-0.37-0.01-0.57-0.05c-0.04-0.01-0.08-0.01-0.12-0.01
			c-0.51,0-1.33,0.38-1.41,0.71c-0.55,2.28-1.06,4.59-1.29,6.92c-0.2,1.97,0.44,4.1-0.06,5.96c-1.04,3.84-2.57,7.55-3.94,11.3
			c-0.84,2.28,0.46,7.66,2.15,9.39c0.64,0.65,1,1.69,1.21,2.62c0.2,0.87-0.07,1.85,0.09,2.74c0.1,0.59,0.49,1.44,0.93,1.58
			c0.28,0.09,0.6,0.13,0.92,0.13c0.5,0,1.01-0.1,1.43-0.29c0.49-0.22,0.72-1.02,1.07-1.56c0.16,0.18,0.33,0.35,0.49,0.53
			c-0.38,0.72-0.76,1.44-1.37,2.59c0.79,0,1.43,0,2.02,0c0.35,0,0.68,0,1,0c3.73-0.01,7.47-0.17,11.21-0.17
			c2.07,0,4.13,0.05,6.19,0.19c1.04,0.07,2.07,0.11,3.1,0.11c4.57,0,9.05-0.67,13.52-1.49c1.13-0.21,3-1.47,2.95-2.11
			c-0.1-1.26-1.08-1.31-2.09-1.31c-0.09,0-0.17,0-0.26,0c-0.32,0-0.63,0-0.92-0.05c-1.21-0.2-2.4-0.51-3.59-0.78
			c0.04-0.21,0.08-0.42,0.12-0.63c0.18-0.05,0.36-0.12,0.54-0.13c3.66-0.17,3.46-0.22,4.29-3.7c0.81-3.37,1.47-6.79,5.65-8.25
			c4.19-1.46,5.48-5.27,5.5-9.43c0.05-9.63,0.01-19.26,0-28.9c0-1.6,0.1-3.2-1.19-4.53c-0.35-0.36-0.31-1.32-0.13-1.9
			c0.09-0.29,0.85-0.52,1.33-0.52c0.02,0,0.04,0,0.06,0c3.03,0.13,6.05,0.32,9.08,0.53c0.12,0.01,0.25,0.01,0.38,0.01
			c0.43,0,0.89-0.04,1.32-0.04c1.05,0,2.03,0.22,2.52,1.72c0.08,0.25,0.89,0.3,1.36,0.37c0.67,0.1,1.35,0.12,2.04,0.18
			c0.1,1.34-0.06,2.57,0.34,3.56c0.49,1.23,1.21,2.83,2.26,3.28c2.27,0.99,4.8,1.75,7.26,1.89c1.86,0.1,3.73,0.14,5.6,0.14
			c3.01,0,6.03-0.09,9.04-0.13c1.69-0.02,3.44,0.05,5.06-0.36c4.34-1.08,7.16-2.57,6.62-7.24c-0.05-0.45,0.69-1.14,1.22-1.49
			c1.02-0.66,2.16-1.16,3.25-1.72c-0.08-0.18-0.16-0.35-0.24-0.53c3.81-0.22,7.63-0.31,11.42-0.73c1.07-0.12,2.38-0.94,3-1.84
			c2.88-4.2,5.53-8.54,8.32-12.8c0.28-0.43,0.94-0.78,1.46-0.87c2.16-0.34,4.34-0.61,6.52-0.8c1.44-0.13,2.18-0.66,2.1-2.23
			c-0.1-2.04-0.02-4.09-0.02-6.13c0.28,3.45,0.55,6.89,0.58,10.33c0.03,3.53-0.12,7.07-0.31,10.6c-0.03,0.52-0.68,1.09-1.16,1.49
			c-0.68,0.57-1.37,0.77-2.06,0.77c-1.05,0-2.1-0.45-3.15-0.73c-0.09-0.02-0.18-0.03-0.28-0.03c-0.17,0-0.34,0.02-0.53,0.02
			c0.24,0.56,0.45,1.03,0.8,1.84c-0.83-0.38-1.31-0.65-1.83-0.82c-1.77-0.59-3.43-0.89-4.93-0.89c-4.7,0-7.85,2.9-8.28,8.57
			c-0.76,9.91-0.41,19.9-0.52,29.86c-0.04,3.87,1.43,7.13,5.06,8.57c3.2,1.26,3.92,3.48,4.28,6.43c0.48,3.91,1.98,5.22,5.84,5.47
			c1.28,0.08,1.62,0.51,1.69,1.79c0.05,1,0.57,2.09,1.18,2.93c1.52,2.13,3.96,2.01,6.19,2.05c5.06,0.09,10.13,0.33,15.19,0.33
			c2.7,0,5.39-0.07,8.07-0.26c4.45-0.32,3.99-0.23,4.16-4.68c0.04-1.05,0.75-2.08,1.19-3.11c1.35-3.18,3.64-6.07,2.11-9.95
			c-1.03-2.61-1.98-5.37-2.26-8.13c-0.46-4.55-0.28-9.16-0.48-13.74c-0.1-2.19-0.25-2.73-1.71-2.73c-0.37,0-0.81,0.03-1.36,0.09
			c-0.18,0.02-0.34,0.02-0.5,0.02c-1.18,0-1.92-0.47-2.04-1.77c-0.25-2.58-3.46-3.58-3.33-6.35c0.01-0.14-0.5-0.24-0.66-0.45
			c-0.35-0.45-0.86-0.93-0.91-1.43c-0.18-1.93-0.02-3.71,1.66-5.19c1.77-1.56,1.98-3.93,0.42-5.49c-1.04-1.04-1.24-2-1.33-3.35
			c-0.13-2.02-1.03-4.01-0.99-6c0.12-5.92,0.54-11.83,0.85-17.7c0.88-0.35,1.66-0.66,2.66-1.05c-1.19-0.2-2.06-0.34-2.61-0.43
			c0.28-1.05,0.66-1.88,0.69-2.73c0.09-2.47,0.08-4.95,0.04-7.43c-0.08-5.36-0.34-10.72-0.27-16.08c0.05-3.54,0.56-7.07,0.81-10.61
			c0.04-0.6-0.08-1.28-0.33-1.83c-1.23-2.66-0.7-4.71,1.71-6.29c2.71-1.77,2.74-6.32,0.05-7.94c-2.61-1.58-2.69-4.96-0.03-6.52
			c1.16-0.68,1.52-1.48,1.57-2.72c0.1-2.97,0.32-5.93,0.45-8.9c0.18-4.3,0.16-4.3-4.02-5.52c0-1.18,0.03-2.44,0-3.7
			c-0.24-8.76-0.43-17.53-0.77-26.29c-0.14-3.57-0.52-4.3-2.98-4.3c-0.41,0-0.87,0.02-1.41,0.05c-1.34,0.08-1.72,0.67-1.52,1.91
			c0.22,1.32,0.48,2.66,0.51,3.99c0.14,7.42,0.23,14.85,0.29,22.27c0.07,8.21,0.06,16.41,0.18,24.62c0.02,1.48-0.38,2.2-1.82,2.2
			c-0.06,0-0.11,0-0.17,0c-0.1,0-0.19-0.01-0.29-0.01c-0.71,0-1.41,0.09-2.08,0.13c0.23-8.41,0.54-16.53,0.64-24.65
			c0.07-5.71-0.08-11.43-0.23-17.15c-0.1-3.71-0.38-7.42-0.55-11.13c-0.06-1.36-0.49-2.21-1.84-2.21c-0.15,0-0.31,0.01-0.48,0.03
			c-0.33,0.04-0.66,0.06-1,0.06c-0.59,0-1.18-0.06-1.75-0.15c-0.38-0.06-0.74-0.1-1.06-0.1c-1.25,0-1.95,0.57-1.72,2.42
			c0.06,0.49-0.39,1.37-0.78,1.5c-0.18,0.06-0.38,0.08-0.6,0.08c-0.5,0-1.04-0.14-1.35-0.41c-0.39-0.34-0.34-1.21-0.44-1.85
			c-0.09-0.67-0.07-1.35-0.19-2.01c-0.11-0.59-0.52-1.15-0.53-1.73c-0.06-2.78,0.05-5.57-0.04-8.35c-0.08-2.67-0.15-5.37-0.55-8.01
			c-0.86-5.56-2.99-10.71-5.25-15.85c-4.42-10.05-10.9-18.47-20.14-24.31C111.71,4.03,103.21,0,93.39,0L93.39,0z M83.19,17.57
			c1.59-1.78,4.05-2.81,6.26-2.81c0.85,0,1.67,0.15,2.38,0.48c0.5,0.23,0.76,0.97,1.13,1.47c-0.39,0.02-0.8,0.12-1.19,0.12
			c-0.16,0-0.31-0.02-0.45-0.06c-0.93-0.31-1.84-0.45-2.75-0.45C86.83,16.32,85.08,16.83,83.19,17.57L83.19,17.57z M71.68,32.73
			c-0.35,5.99-0.65,11.62-1.07,17.23c-0.04,0.59-0.77,1.57-1.26,1.62c-3.01,0.31-6.04,0.4-9.45,0.58c0.14-2.64,0.18-5.29,0.45-7.91
			c0.33-3.15,0.8-6.29,1.33-9.42c0.09-0.52,0.73-1.29,1.19-1.35C65.8,33.14,68.74,32.96,71.68,32.73L71.68,32.73z M115.23,49.53
			c-0.24,0-0.46-0.04-0.64-0.14c-2.58-1.41-5.16-2.93-6.39-5.89c-1.42-3.42-0.47-6.81,3.03-8.89c0.86-0.51,2.04-0.75,3.17-0.75
			c0.49,0,0.97,0.05,1.4,0.13c3.22,0.65,8.33,3.58,8.14,6.66c-0.02,0.35,0.07,0.7,0.09,0.84c-0.04,2.72-3.71,6.92-6.47,7.53
			C116.82,49.19,115.93,49.53,115.23,49.53L115.23,49.53z M54.13,52.87c-0.06,0-0.15-0.05-0.68-0.23c0.39-3.9,0.75-7.93,1.2-11.96
			c0.15-1.33,0.46-2.64,0.74-3.95c0.47-2.25,0.57-2.7,2.15-2.7c0.39,0,0.88,0.03,1.48,0.06c-0.7,6.1-1.4,12.2-2.12,18.48
			c-0.94,0.1-1.85,0.2-2.76,0.29C54.14,52.87,54.13,52.87,54.13,52.87L54.13,52.87z M51.89,34.74c-0.75,5.71-1.46,11-2.13,16.3
			c-0.18,1.44-0.78,2.27-2.38,2.4c-1.82,0.15-3.61,0.59-5.42,0.86c-0.17,0.03-0.33,0.04-0.48,0.04c-0.85,0-1.29-0.45-1.36-1.61
			c-0.31-5,0.32-9.86,1.82-14.61c0.15-0.48,0.57-1.14,0.98-1.24C45.93,36.08,48.99,35.41,51.89,34.74L51.89,34.74z M97.74,50.08
			c-2.83,0-5.32-2.39-5.32-5.14c0-2.69,2.25-4.9,5.01-4.92c0.01,0,0.02,0,0.03,0c2.92,0,5.51,2.5,5.46,5.27
			c-0.05,2.63-2.36,4.77-5.15,4.79C97.76,50.08,97.75,50.08,97.74,50.08L97.74,50.08z M40.39,56.44c-0.03-0.2-0.07-0.4-0.1-0.6
			c3.06-0.49,6.12-0.99,9.18-1.48c0.01,0.16,0.02,0.32,0.02,0.48C46.46,55.38,43.43,55.91,40.39,56.44L40.39,56.44z M40.68,58.06
			c-0.02-0.17-0.04-0.33-0.07-0.5c3.35-0.48,6.7-0.97,10.05-1.46c0.02,0.09,0.04,0.19,0.05,0.28c-0.86,0.23-1.73,0.46-2.8,0.74
			c1.17,0.18,2.11,0.33,3.13,0.48c-0.71,1.24-4.22,2.19-7.29,2.19c-1.05,0-2.05-0.11-2.87-0.36c1.06-0.62,1.76-1.03,2.93-1.71
			C42.44,57.87,41.56,57.97,40.68,58.06L40.68,58.06z M42.9,66.55c-0.32,0-0.85-0.71-1.03-1.17c-0.37-0.98-0.57-2.02-0.91-3.31
			c2.45-0.37,5.01-0.74,7.58-1.14c0.25-0.04,0.48-0.06,0.69-0.06c1.04,0,1.61,0.51,1.57,1.9c-0.02,0.75,0.22,1.51,0.42,2.75
			c-2.8,0.37-5.55,0.77-8.31,1.03C42.91,66.55,42.91,66.55,42.9,66.55L42.9,66.55z M54.27,87.04c-0.11,0-0.23,0-0.34-0.01
			c0-6.51,0-13.01,0-19.52c0.11,0,0.23,0.01,0.34,0.01C54.27,74.03,54.27,80.53,54.27,87.04L54.27,87.04z M44.7,74.33
			c-1.65,0-2.08-0.86-2.77-3.52c-0.17-0.64-0.5-1.25-0.85-2.12c2.76-0.34,5.48-0.67,8.2-1c0.11-0.01,0.22-0.02,0.32-0.02
			c1.06,0,1.5,0.74,1.63,1.74c0.73,5.36,1.38,10.65,0.53,16.14c-0.42,2.68-1.32,5.73,0.16,8.58c0.24,0.45-0.24,1.28-0.39,1.93
			c-0.26-0.02-0.51-0.04-0.77-0.06c0-6.76-0.08-13.53,0.05-20.29c0.03-1.53-0.36-2.14-1.35-2.14c-0.28,0-0.61,0.05-0.98,0.14
			c-0.48,0.12-0.96,0.23-1.45,0.32C46.05,74.22,45.29,74.33,44.7,74.33L44.7,74.33z M34.76,76.72c-0.4-0.56-1.08-1.11-1.13-1.7
			c-0.05-0.59,0.54-1.23,0.84-1.85c0.45,0.77,0.9,1.53,1.5,2.56C35.46,76.15,35.11,76.43,34.76,76.72L34.76,76.72z M41.44,77.05
			c-0.03-0.28-0.06-0.55-0.09-0.83c2.62-0.42,5.24-0.84,7.85-1.25c0.06,0.33,0.11,0.66,0.17,0.99
			C46.72,76.33,44.08,76.69,41.44,77.05L41.44,77.05z M83.76,78.22c0.26-0.83,0.45-1.42,0.74-2.34c1.38,0,2.8-0.01,4.23-0.01
			c0.86,0,1.73,0,2.59,0.01c4.69,0.05,9.38,0.18,14.08,0.18c0.32,0,0.64,0,0.97,0c0.13,0,0.26,0,0.38,0c3.57,0,7.06,0.22,10.38,1.76
			c0.6,0.28,1.38,0.26,2.07,0.26c1.58,0,2.03,0.83,2.03,2.29c0.01,1.67-1.07,1.44-2.14,1.56c-3.54,0.37-7.07,1.1-10.62,1.18
			c-2.67,0.06-5.34,0.08-8.01,0.08c-4.88,0-9.77-0.07-14.66-0.08c-1.27,0-2.52,0-1.94-2.24c-3.32,0.47-6.3,0.9-9.58,1.37
			c0-1.64,0-3.18,0-4.9C77.49,77.65,80.61,77.93,83.76,78.22L83.76,78.22z M58.96,82.56c-0.01,0-0.04-0.04-0.04-0.08
			c-0.49-4.21-0.49-4.22,3.6-5.05c2.14-0.43,4.28-1.07,6.43-1.14c0.07,0,0.15,0,0.23,0c1.39,0,3.17,0.4,3.94,1.3
			c0.76,0.89,0.62,2.83,0.35,4.21c-0.12,0.61-1.51,1.34-2.35,1.36c-0.86,0.03-1.72,0.04-2.58,0.04c-2.29,0-4.59-0.09-6.88-0.17
			c-0.88-0.03-1.75-0.31-2.7-0.49C58.96,82.55,58.96,82.56,58.96,82.56L58.96,82.56z M41.18,94.55c0.13-0.01,0.25-0.01,0.38-0.02
			c-0.24-3.32-0.35-6.66-0.74-9.97c-0.71-6.02-0.54-6.33,5.37-7.28c0.85-0.14,1.46-0.23,1.9-0.23c1.11,0,1.13,0.61,1.12,2.69
			c-0.08,24.32-0.14,48.63-0.21,72.95c-0.01,2.78-0.13,2.92-2.78,2.98c-0.7,0.02-1.31,0.03-1.84,0.03c-3.46,0-3.52-0.63-3.54-5.34
			c-0.09-18.16-0.12-36.31-0.17-54.47c0-0.68,0-1.37,0-2.05c0.09-0.01,0.17-0.01,0.26-0.02C41.01,94.07,41.1,94.31,41.18,94.55
			L41.18,94.55z M59.12,98.36c0-1.46,0-2.9,0-3.84c7.98-2.5,15.99-2.87,23.99-2.87c3.42,0,6.85,0.07,10.27,0.07
			c0.34,0,0.67,0,1.01,0c0.01,0,0.03,0,0.04,0c1.94,0,2.51,0.65,2.63,2.48c0.29,4.49,0.2,4.59-4.25,4.67
			c-6.15,0.1-12.29,0.43-18.44,0.43c-0.14,0-0.29,0-0.43,0c-2.97-0.01-5.94-0.68-8.92-0.91c-0.73-0.06-1.47-0.07-2.21-0.07
			C61.59,98.32,60.37,98.36,59.12,98.36L59.12,98.36z M112.81,98.95c-0.59,0-1.17-0.02-1.76-0.07c-4.25-0.35-8.43-1.44-12.63-2.26
			c-0.28-0.05-0.48-0.52-0.72-0.79c0.28-0.16,0.54-0.39,0.84-0.48c3.48-1.04,6.91-2.48,10.47-2.96c0.54-0.07,1.08-0.1,1.63-0.1
			c2.34,0,4.76,0.56,7.12,0.81c1.44,0.15,2.87,0.41,4.58,0.65c0,1.34,0,2.66,0,4.07c-0.35,0.15-0.72,0.42-1.1,0.45
			C118.44,98.48,115.61,98.95,112.81,98.95L112.81,98.95z M90.33,130.79c-1.78,0-3.56-0.38-5.31-1.1c-2.23-0.92-2.99-2.97-3.14-5.15
			c-0.19-2.96-0.23-5.93-0.15-8.9c0.06-2.22,2.02-4.66,4.49-5.03c1.33-0.2,2.68-0.25,4.04-0.25c1.39,0,2.79,0.06,4.17,0.08
			c0.43,0.01,0.86,0.48,1.28,0.78c2.53,0.47,3.44,2.46,3.67,4.57c0.32,2.93,0.35,5.93,0.14,8.87c-0.09,1.27-1.09,2.48-1.68,3.71
			c-0.93,0.51-1.87,1.02-2.8,1.53C93.48,130.5,91.9,130.79,90.33,130.79L90.33,130.79z M146.32,177.17c0-3.74-0.69-7.44,0.22-10.71
			c0.71-2.56,1.33-5.04,0.98-7.54c-0.5-3.55,0.31-7.02,0.08-10.54c-0.24-3.59-0.09-7.21-0.15-10.82c-0.05-3.68-0.11-7.35-0.23-11.03
			c-0.07-2.25-0.26-4.5-0.42-6.75c-0.13-1.81,0.18-2.52,1.73-2.52c0.44,0,0.98,0.06,1.64,0.16c0,2.47,0.04,5.04-0.01,7.6
			c-0.3,16.19-0.61,32.37-0.92,48.56c-0.02,1.04,0,2.09,0,3.27C148.2,176.98,147.39,177.06,146.32,177.17L146.32,177.17z
			 M34.21,177.95c-0.32-0.93-0.86-1.77-0.87-2.63c-0.16-13.15-0.21-26.3-0.36-39.44c-0.05-4.31-0.33-8.61-0.48-12.92
			c-0.04-1.05-0.02-2.12,0.07-3.17c0.14-1.61,0.19-2.17,1.06-2.17c0.45,0,1.13,0.15,2.16,0.39c-0.09,1.5-0.27,3.06-0.27,4.61
			c-0.03,10.25-0.03,20.51-0.02,30.76c0,3.2-0.06,6.4,0.12,9.59c0.16,2.71,0.86,5.39,0.93,8.09c0.16,5.7,0.12,11.41,0.06,17.12
			c-0.02,1.57,0.49,2.29,2.08,2.41c2.32,0.18,4.99-0.12,6.82,0.96c1.7,1.01,2.46,3.57,3.69,5.42c1.78,2.69,3.61,5.36,5.77,8.55
			c-1.06,0.17-1.89,0.48-2.57,0.48c-0.16,0-0.31-0.02-0.45-0.05c-1.71-0.45-3.38-0.74-5.08-0.74c-1.2,0-2.42,0.14-3.67,0.47
			c-0.47,0.12-0.96,0.18-1.47,0.18c-1.21,0-2.49-0.29-3.63-0.64c-0.74-0.22-1.47-1.5-1.63-2.41c-0.27-1.5-0.07-3.08-0.07-4.63
			c-0.18-0.01-0.35-0.02-0.53-0.03c-0.15,1.9-0.29,3.8-0.44,5.7c-0.03-0.01-0.06-0.01-0.09-0.02c0-4.86-0.04-9.71,0.01-14.57
			c0.03-2.75,0.2-5.5,0.32-8.25c0.06-1.39-0.2-2.54-2.6-2.65c0.83-0.3,1.18-0.43,1.18-0.43C34.25,177.93,34.24,177.94,34.21,177.95
			L34.21,177.95z M55.02,130.74c-0.04,0-0.08,0-0.11-0.02c-0.81-0.28-1.61-0.58-2.42-0.88c0.82-0.47,1.6-1.11,2.48-1.35
			c0.28-0.08,0.58-0.11,0.89-0.11c0.54,0,1.11,0.1,1.63,0.21c0.43,0.09,0.78,0.58,1.17,0.89c-0.4,0.39-0.75,0.97-1.23,1.11
			c-0.26,0.08-0.54,0.1-0.82,0.1c-0.42,0-0.86-0.05-1.29-0.05c0,0.02,0,0.04,0,0.06C55.23,130.71,55.12,130.74,55.02,130.74
			L55.02,130.74z M90.37,154.1c-1.03,0-2.07-0.06-3.08-0.18c-3.38-0.39-5.36-2.78-5.46-6.24c-0.08-2.75-0.08-5.51-0.02-8.26
			c0.05-2.37,1.77-4.98,4.13-5.3c1.64-0.22,3.33-0.37,5.01-0.37c1.35,0,2.68,0.1,3.98,0.33c3.35,0.6,4.69,2.92,4.68,6.36
			c0,1.13,0,2.26,0,3.39c-0.02,0-0.05,0-0.07,0c0,1.2,0.02,2.4,0,3.6c-0.08,3.55-1.96,5.93-5.49,6.42
			C92.84,154.02,91.6,154.1,90.37,154.1L90.37,154.1z M55.78,135.91c-0.75,0-1.51-0.05-2.26-0.13c-0.36-0.04-0.65-0.71-0.97-1.09
			c0.35-0.28,0.69-0.8,1.04-0.8c0.07,0,0.13,0,0.2,0c1.61,0,3.21,0.12,4.82,0.2c0.11,0.16,0.21,0.33,0.32,0.49
			c-0.47,0.43-0.89,1.16-1.4,1.22C56.95,135.88,56.37,135.91,55.78,135.91L55.78,135.91z M55.03,141.06c-0.45,0-0.89-0.02-1.34-0.05
			c-0.4-0.03-0.75-0.76-1.13-1.17c0.4-0.29,0.78-0.81,1.2-0.84c0.76-0.04,1.53-0.06,2.3-0.06c0.9,0,1.8,0.02,2.7,0.02
			c0.11,0.23,0.22,0.46,0.33,0.7c-0.46,0.41-0.88,1.1-1.4,1.18C56.81,140.99,55.92,141.06,55.03,141.06L55.03,141.06z M55.5,146.15
			c-0.5,0-1-0.03-1.49-0.07c-0.47-0.04-0.9-0.57-1.34-0.88c0.47-0.4,0.92-1.12,1.41-1.15c0.31-0.02,0.62-0.03,0.93-0.03
			c1.21,0,2.44,0.12,3.65,0.17c0.15,0.19,0.31,0.39,0.46,0.58c-0.52,0.42-0.99,1.09-1.57,1.19
			C56.89,146.11,56.19,146.15,55.5,146.15L55.5,146.15z M55.71,151.43c-0.61,0-1.24-0.07-1.83-0.18c-0.44-0.08-0.79-0.72-1.18-1.11
			c0.46-0.32,0.88-0.79,1.4-0.93c0.23-0.06,0.47-0.08,0.72-0.08c0.38,0,0.77,0.05,1.16,0.05c0,0.01,0,0.03,0,0.04
			c0.06,0,0.12,0,0.19,0c0.05,0,0.11,0,0.16,0c0.17,0,0.33,0.01,0.49,0.05c0.73,0.22,1.44,0.49,2.16,0.74
			c-0.66,0.46-1.27,1.15-2,1.31C56.57,151.39,56.14,151.43,55.71,151.43L55.71,151.43z M55.47,157.06c-0.91-0.51-2.6-1.02-2.6-1.52
			c0.01-1.06,0.48-1.28,1.09-1.28c0.44,0,0.95,0.12,1.39,0.12c0.15,0,0.29-0.01,0.43-0.05c0.08-0.02,0.17-0.03,0.26-0.03
			c0.19,0,0.4,0.04,0.57,0.12c0.8,0.34,1.58,0.74,2.37,1.11c-0.82,0.37-1.62,0.77-2.45,1.1c-0.09,0.04-0.19,0.05-0.29,0.05
			c-0.18,0-0.37-0.03-0.54-0.03C55.62,156.78,55.54,156.92,55.47,157.06L55.47,157.06z M111.07,167.7c-1.01,0-1.47-0.46-1.33-1.53
			c0.06-0.49,0.07-0.99,0.06-1.48c-0.08-3.51-0.08-3.57,3.42-3.62c1.85-0.02,3.7-0.03,5.58-0.03c2.82,0,5.68,0.02,8.64,0.02
			c0,2.05,0,3.98,0,6.21c-5.47,0.14-10.87,0.28-16.27,0.43C111.14,167.7,111.11,167.7,111.07,167.7L111.07,167.7z M130.38,188.49
			c-0.46,0-1.09-0.08-1.94-0.2c0-3.23,0-6.52,0-9.82c0-1.41,0.02-2.82-0.05-4.23c-0.1-2.17-0.12-2.71,1.37-2.71
			c0.48,0,1.1,0.05,1.93,0.13c0,3.38,0,6.68,0,9.97c0,1.41,0,2.82-0.01,4.23C131.68,187.9,131.63,188.49,130.38,188.49
			L130.38,188.49z M110.37,189.01c-1.33,0-2.68-0.02-4.05-0.02c0-5.46,0-10.87,0-16.54c3.05-0.15,5.88-0.3,9.2-0.47
			c0,5.53,0.03,10.6-0.06,15.66c-0.01,0.45-0.78,1.26-1.23,1.28C112.96,189,111.67,189.01,110.37,189.01L110.37,189.01z
			 M82.58,174.87c-0.3-1.9-0.22-2.64,0.71-2.64c0.44,0,1.06,0.16,1.93,0.45C84.35,173.4,83.56,174.06,82.58,174.87L82.58,174.87z
			 M99.35,175.28c-0.93-1.14-1.62-1.99-2.22-2.72c0.48-0.1,0.87-0.16,1.18-0.16C99.34,172.4,99.49,173.07,99.35,175.28L99.35,175.28
			z M139.39,183.39c-0.51-0.51-1.16-0.95-1.49-1.56c-0.28-0.52-0.18-1.23-0.3-2.25c0.21-0.74,0.35-1.89,0.85-2.85
			c0.31-0.58,0.75-0.87,1.16-0.87c0.43,0,0.82,0.33,0.97,0.98c0.37,1.64,0.27,3.42,0.13,5.13
			C140.68,182.48,139.86,182.92,139.39,183.39L139.39,183.39z M21.71,178.73c0-0.13,0-0.25,0-0.38c3.6,0,7.2,0,10.81,0
			c0,0.13,0,0.25,0,0.38C28.91,178.73,25.31,178.73,21.71,178.73L21.71,178.73z M96.36,189.66c-0.07-0.14-0.14-0.27-0.21-0.41
			c0.81-0.58,1.63-1.16,2.65-1.88c0,0.87,0,1.5,0,2.29C97.95,189.66,97.15,189.66,96.36,189.66L96.36,189.66z M19.64,238.65
			c-0.43,0-1.44-0.51-1.47-0.79c-0.11-1.16-0.28-2.62,0.29-3.5c1.82-2.81,4.88-3.94,8-3.94c3.57,0,7.21,1.48,9.19,3.66
			c1.95,2.15,3.64,4.7,4.81,7.35c1.28,2.9,3.54,4.48,6.03,5.92c0.08,0.05,0.18,0.07,0.29,0.07c0.5,0,1.25-0.42,1.84-0.54
			c0.42-0.08,1.04-0.26,1.39-0.26c0.12,0,0.21,0.02,0.24,0.07c0.36,0.56,0.67,1.43,0.49,2.02c-0.35,1.14-1.72,1.98-3.04,1.98
			c-0.41,0-0.83-0.08-1.2-0.26c-2.28-1.1-4.46-2.42-6.57-3.82c-3.02-2.01-6.13-3.16-9.34-3.16c-2.05,0-4.14,0.47-6.29,1.47
			c-0.84,0.39-1.35,1.44-2.09,2.1c-0.88,0.78-1.78,1.6-2.82,2.1c-0.02,0.01-0.05,0.02-0.08,0.02c-0.37,0-1.35-0.75-1.52-1.28
			c-0.45-1.39-0.35-2.8,1.06-3.77c3.57-2.46,7.3-4,11.28-4c1.9,0,3.86,0.35,5.89,1.12c0.3,0.11,0.66,0.07,1.03,0.1
			c-0.84-3.56-5.36-6.99-9.59-7.3c-0.48-0.04-0.97-0.08-1.46-0.08c-0.59,0-1.17,0.06-1.68,0.26c-0.81,0.32-1.35,1.3-2.01,1.98
			c-0.83,0.85-1.59,1.79-2.55,2.46C19.75,238.64,19.71,238.65,19.64,238.65L19.64,238.65z M131.15,248.11
			c-0.54,0-1.18-0.55-1.77-0.81c0.28-0.58,0.41-1.36,0.87-1.71c0.83-0.63,1.81-1.17,2.81-1.45c5.01-1.42,7.83-5.77,11.77-8.61
			c3.04-2.19,6.27-3.45,9.7-3.45c1.77,0,3.59,0.33,5.46,1.05c0.51,0.2,1.18,0.49,1.36,0.92c0.39,0.9,0.78,1.97,0.63,2.87
			c-0.08,0.47-1.17,1.13-1.79,1.13c-0.05,0-0.09,0-0.14-0.01c-0.79-0.16-1.41-1.08-2.16-1.6c-0.64-0.44-1.37-1.11-2.04-1.11
			c-0.01,0-0.03,0-0.04,0c-4.19,0.18-7.96,1.71-11.9,4.34c2.05-0.1,3.59-0.21,5.13-0.23c0.07,0,0.13,0,0.2,0
			c4.52,0,8.32,2.06,11.86,4.57c0.67,0.48,0.75,2.15,0.64,3.22c-0.05,0.46-1.17,1.23-1.72,1.23c-0.05,0-0.09-0.01-0.13-0.02
			c-0.83-0.27-1.5-1.15-2.15-1.85c-0.5-0.53-0.73-1.43-1.31-1.75c-2.65-1.46-5.37-2.09-8.11-2.09c-2.41,0-4.83,0.48-7.26,1.3
			c-1.27,0.43-2.3,1.56-3.5,2.05c-1.05,0.22-2.13,0.35-3.14,0.69c-1.06,0.35-2.03,1.08-3.1,1.3
			C131.25,248.11,131.2,248.11,131.15,248.11L131.15,248.11z M95.72,111.21l0.09,0.06C95.78,111.25,95.75,111.23,95.72,111.21
			C95.72,111.21,95.72,111.21,95.72,111.21L95.72,111.21z"/>
	</g>
	<g>
		<path class="st0" d="M88.8,111.12l0.08,0c1.58,0.01,3.2,0.15,4.76,0.28c0.65,0.05,1.31,0.11,1.96,0.16c0.31,0.41,0.66,0.81,1,1.19
			c0.82,0.92,1.66,1.88,1.77,2.84c0.04,0.37,0.09,0.73,0.13,1.1c0.46,3.82,0.94,7.77-0.88,11.45l-1.12,0.61l-1.53,0.84
			c-0.68,0-1.35,0.02-2.03,0.03c-0.85,0.01-1.69,0.03-2.54,0.03c-0.79,0-1.48-0.01-2.12-0.04c-3.41-0.14-5.22-1.85-5.54-5.22
			c-0.24-2.53-0.32-5.01-0.22-7.36C82.67,113.49,85.19,111.12,88.8,111.12 M88.8,110.82c-3.77,0-6.42,2.47-6.57,6.2
			c-0.1,2.46-0.01,4.95,0.22,7.4c0.34,3.53,2.3,5.34,5.83,5.49c0.71,0.03,1.42,0.04,2.13,0.04c1.55,0,3.1-0.05,4.64-0.06
			c0.93-0.51,1.87-1.02,2.8-1.53c2.08-4.14,1.31-8.55,0.82-12.81c-0.18-1.52-1.88-2.87-2.92-4.29c-2.29-0.16-4.58-0.43-6.87-0.45
			C88.86,110.82,88.83,110.82,88.8,110.82L88.8,110.82z M95.72,111.21c0.01,0.02,0.03,0.04,0.04,0.06c0.02,0,0.04,0,0.05,0
			C95.81,111.27,95.72,111.21,95.72,111.21L95.72,111.21z"/>
	</g>
	<g>
		<path class="st0" d="M41.6,106.07c0.86,1.12,1.01,3.38,0.52,4.96c-0.36,1.16-0.51,2.47-0.43,3.71c0.1,1.35,0.26,2.71,0.42,4.03
			c0.16,1.37,0.33,2.78,0.43,4.17c0.02,0.33-0.25,0.75-0.52,1.15c-0.09,0.14-0.19,0.29-0.28,0.44l-0.14-0.04V106.07 M41.3,105.38
			c0,6.53,0,12.94,0,19.35c0.2,0.05,0.4,0.1,0.59,0.15c0.33-0.65,0.99-1.33,0.95-1.96c-0.18-2.74-0.65-5.47-0.85-8.21
			c-0.09-1.19,0.06-2.46,0.41-3.6C43.03,109.14,42.67,106.26,41.3,105.38L41.3,105.38z"/>
	</g>
	<g>
		<path class="st0" d="M33.43,146.01c0,2.62,0,5.25,0,7.87c0.15,0,0.29-0.01,0.44-0.01c0-2.62,0-5.24,0-7.85
			C33.73,146.01,33.58,146.01,33.43,146.01L33.43,146.01z"/>
	</g>
	<g>
		<path class="st0" d="M70.06,35.75c0.03,0.02,0.05,0.04,0.07,0.07c0.16,0.19,0.2,0.52,0.12,0.99c-0.05,0.32-0.11,0.66-0.19,1.01
			v-1.97V35.75 M69.45,35.28c-0.13,0-0.27,0.01-0.43,0.03c-1.43,0.2-2.86,0.36-4.29,0.54c0.01,0.1,0.01,0.21,0.02,0.31
			c1.54-0.1,3.08-0.2,5.02-0.33c0,1.31,0,2.64,0,3.96c0.41-0.97,0.62-1.96,0.79-2.95C70.73,35.8,70.36,35.28,69.45,35.28
			L69.45,35.28z"/>
	</g>
	<g>
		<path class="st0" d="M69.3,44.23l0.05,1.03c-0.11-0.35-0.21-0.69-0.25-1L69.3,44.23 M69.47,47.8l0.05,1.12l-0.93-0.28
			C69.02,48.39,69.3,48.11,69.47,47.8 M69.59,43.89c-0.27,0.04-0.54,0.08-0.81,0.12c0.03,1.63,1.9,3.64-1.03,4.69
			c0.64,0.19,1.21,0.37,2.09,0.64C69.75,47.34,69.67,45.62,69.59,43.89L69.59,43.89z"/>
	</g>
	<g>
		<path class="st0" d="M119.11,38.54c1.45,0,2.74,1.3,2.75,2.79c0.02,1.79-0.96,3.02-2.44,3.06l-0.07,0c-1.43,0-2.48-1.2-2.56-2.93
			c-0.04-0.91,0.21-1.71,0.7-2.24c0.4-0.43,0.94-0.66,1.57-0.68L119.11,38.54 M119.11,38.24c-0.02,0-0.04,0-0.06,0
			c-1.6,0.03-2.65,1.36-2.56,3.23c0.09,1.88,1.28,3.21,2.86,3.21c0.02,0,0.05,0,0.07,0c1.65-0.04,2.76-1.4,2.74-3.36
			C122.15,39.68,120.71,38.24,119.11,38.24L119.11,38.24z"/>
	</g>
	<g>
		<path class="st0" d="M115.19,46.09l3.46,0.91l-0.02,0.11l-3.53-0.54l0.08-0.43L115.19,46.09 M114.95,45.72
			c-0.07,0.37-0.14,0.73-0.21,1.1c1.38,0.21,2.76,0.42,4.13,0.64c0.04-0.23,0.07-0.45,0.11-0.68
			C117.64,46.42,116.3,46.07,114.95,45.72L114.95,45.72z"/>
	</g>
	<g>
		<path class="st0" d="M92.19,134.55c0.33,0,0.67,0,1,0.01c2.86,0.05,5.62,2.6,5.66,5.24c0.05,2.71-0.1,5.61-0.45,8.62
			c-0.3,2.59-2.33,4.43-5.05,4.57c-0.92,0.05-1.85,0.07-2.75,0.07c-0.92,0-1.84-0.02-2.73-0.07c-3-0.16-5.17-2.51-5.17-5.58l0-2.34
			l0-0.75l0.08,0v-0.3c0-0.38,0-0.76-0.01-1.13c-0.01-0.81-0.01-1.64,0.01-2.46c0.11-3.34,2.23-5.55,5.55-5.75
			C89.66,134.59,90.96,134.55,92.19,134.55 M92.19,134.25c-1.29,0-2.58,0.04-3.87,0.12c-3.47,0.21-5.72,2.56-5.83,6.04
			c-0.04,1.2-0.01,2.4-0.01,3.61c-0.03,0-0.05,0-0.08,0c0,1.13,0,2.26,0,3.39c0,3.2,2.26,5.7,5.45,5.88
			c0.91,0.05,1.83,0.07,2.75,0.07c0.92,0,1.85-0.02,2.77-0.07c2.79-0.14,5.01-2.06,5.33-4.83c0.33-2.87,0.51-5.78,0.45-8.66
			c-0.05-2.88-3-5.48-5.96-5.54C92.86,134.25,92.52,134.25,92.19,134.25L92.19,134.25z"/>
	</g>
</g>
</svg>
