<?xml version="1.0" encoding="utf-8"?>
<!-- Generator: Adobe Illustrator 25.0.0, SVG Export Plug-In . SVG Version: 6.00 Build 0)  -->
<svg version="1.1" id="Calque_1" xmlns="http://www.w3.org/2000/svg" xmlns:xlink="http://www.w3.org/1999/xlink" x="0px" y="0px"
	 viewBox="0 0 414.97 118.63" style="enable-background:new 0 0 414.97 118.63;" xml:space="preserve">
<style type="text/css">
	.st0{fill:#FFFFFF;}
	.st1{fill:#ED6B2A;}
</style>
<g>
	<path class="st0" d="M17.48,65.54C9.44,63.28,5.43,58.09,5.43,49.96v-6.63c0-4.51-1.81-6.76-5.43-6.76v-7.6
		c3.62,0,5.43-2.27,5.43-6.8v-7.03c0.07-4.02,1.11-7.27,3.13-9.75c2.02-2.48,4.99-4.27,8.92-5.39l2.11,5.89
		c-2.81,1.07-4.28,4.07-4.39,9.01v7.27c0,5-2.07,8.53-6.2,10.58c4.13,2.05,6.2,5.59,6.2,10.62v7.23c0.11,4.93,1.57,7.94,4.39,9.01
		L17.48,65.54z"/>
	<path class="st0" d="M57.73,35.63c0,5.63-1.27,10.12-3.8,13.48c-2.53,3.36-5.96,5.04-10.26,5.04c-3.33,0-6.06-1.22-8.2-3.65v16.91
		H24.18V17.25h10.55l0.33,3.35c2.17-2.68,5.01-4.02,8.54-4.02c4.46,0,7.94,1.65,10.41,4.94c2.48,3.29,3.72,7.82,3.72,13.58V35.63z
		 M46.45,34.93c0-6.43-1.88-9.64-5.63-9.64c-2.68,0-4.47,0.96-5.36,2.88v14.27c0.98,2.01,2.79,3.01,5.42,3.01
		c3.59,0,5.45-3.1,5.56-9.31V34.93z"/>
	<path class="st1" d="M103.15,47.45c-1.81,2.01-4.45,3.63-7.94,4.86c-3.48,1.23-7.3,1.84-11.45,1.84c-6.39,0-11.49-1.95-15.3-5.86
		c-3.82-3.91-5.86-9.34-6.13-16.31l-0.03-4.22c0-4.8,0.85-8.99,2.54-12.57c1.7-3.58,4.12-6.34,7.28-8.27
		c3.16-1.93,6.81-2.9,10.97-2.9c6.07,0,10.79,1.39,14.15,4.17c3.36,2.78,5.32,6.93,5.88,12.44H91.79c-0.4-2.72-1.27-4.67-2.61-5.83
		c-1.34-1.16-3.24-1.74-5.69-1.74c-2.95,0-5.22,1.25-6.83,3.75c-1.61,2.5-2.42,6.07-2.44,10.72v2.95c0,4.87,0.83,8.52,2.5,10.97
		c1.66,2.44,4.28,3.67,7.85,3.67c3.06,0,5.34-0.68,6.83-2.04V35.5h-8.17v-8.07h19.93V47.45z"/>
	<path class="st0" d="M107.67,59.61c2.81-1.07,4.27-4.07,4.39-9.01v-7.27c0-5.02,2.08-8.55,6.23-10.58
		c-4.15-2.03-6.23-5.56-6.23-10.58V14.9c-0.11-4.93-1.57-7.94-4.39-9.01L109.78,0c4,1.12,7,2.94,9.01,5.48
		c2.01,2.53,3.02,5.86,3.05,9.96v6.73c0,4.53,1.81,6.8,5.43,6.8v7.6c-3.62,0-5.43,2.24-5.43,6.73v7.13
		c-0.16,7.86-4.17,12.89-12.06,15.1L107.67,59.61z"/>
	<path class="st0" d="M150.5,32.99l-18.22-6.2V16.54l29.44,12.06v8.91l-29.44,12.06V39.32L150.5,32.99z"/>
	<path class="st0" d="M200.53,35.67c0,5.94-1.23,10.5-3.68,13.7c-2.46,3.19-5.92,4.79-10.38,4.79c-3.68,0-6.65-1.46-8.91-4.39
		l-0.47,3.72h-10.11V2.04h11.29v18.12c2.1-2.39,4.81-3.58,8.14-3.58c4.51,0,7.99,1.62,10.45,4.86c2.46,3.24,3.68,7.79,3.68,13.66
		V35.67z M189.21,34.95c0-3.48-0.46-5.96-1.39-7.44c-0.93-1.48-2.35-2.22-4.27-2.22c-2.54,0-4.31,0.97-5.29,2.91v14.38
		c0.96,1.92,2.75,2.88,5.36,2.88c2.66,0,4.34-1.29,5.06-3.88C189.03,40.29,189.21,38.09,189.21,34.95z"/>
	<path class="st0" d="M217.41,53.48h-11.32V2.04h11.32V53.48z"/>
	<path class="st0" d="M222.93,35.03c0-3.62,0.7-6.84,2.11-9.66c1.41-2.82,3.43-4.99,6.06-6.51c2.63-1.52,5.73-2.28,9.28-2.28
		c5.43,0,9.7,1.68,12.83,5.04c3.13,3.36,4.69,7.93,4.69,13.71v0.4c0,5.65-1.57,10.13-4.71,13.45s-7.38,4.97-12.74,4.97
		c-5.16,0-9.3-1.55-12.42-4.64c-3.13-3.09-4.81-7.28-5.06-12.58L222.93,35.03z M234.22,35.73c0,3.35,0.52,5.81,1.57,7.37
		c1.05,1.56,2.6,2.34,4.66,2.34c4.02,0,6.07-3.09,6.16-9.28v-1.14c0-6.5-2.08-9.75-6.23-9.75c-3.77,0-5.82,2.8-6.13,8.41
		L234.22,35.73z"/>
	<path class="st0" d="M261.55,35.1c0-3.66,0.6-6.9,1.81-9.71c1.21-2.81,2.94-4.98,5.19-6.51c2.25-1.53,4.88-2.29,7.87-2.29
		c3.77,0,6.72,1.27,8.84,3.82l0.4-3.15h10.25v34.86c0,3.19-0.74,5.97-2.23,8.32c-1.48,2.36-3.63,4.16-6.45,5.43
		c-2.81,1.26-6.07,1.89-9.78,1.89c-2.66,0-5.23-0.5-7.72-1.51c-2.49-1-4.39-2.31-5.71-3.92l4.72-6.63c2.1,2.48,4.87,3.72,8.3,3.72
		c5,0,7.5-2.57,7.5-7.7v-1.14c-2.17,2.39-4.9,3.58-8.21,3.58c-4.42,0-7.99-1.69-10.72-5.07c-2.72-3.38-4.09-7.91-4.09-13.58V35.1z
		 M272.87,35.8c0,2.97,0.56,5.32,1.67,7.05c1.12,1.73,2.68,2.6,4.69,2.6c2.43,0,4.21-0.81,5.33-2.44V27.76
		c-1.09-1.65-2.85-2.48-5.26-2.48c-2.01,0-3.58,0.9-4.72,2.7C273.44,29.78,272.87,32.38,272.87,35.8z"/>
</g>
<g>
	<path class="st0" d="M3.72,112.39V78.8h1.41v33.59H3.72z"/>
	<path class="st0" d="M20.56,112.77c-2.04,0-3.78-0.39-5.22-1.17c-1.44-0.78-2.54-2.03-3.29-3.73c-0.76-1.7-1.13-3.94-1.13-6.69
		c0-2.73,0.35-4.94,1.05-6.64c0.7-1.7,1.67-2.94,2.91-3.73c1.24-0.79,2.69-1.19,4.33-1.19c1.66,0,3.09,0.4,4.29,1.19
		c1.2,0.79,2.12,2.03,2.76,3.73c0.64,1.7,0.97,3.91,0.97,6.64v0.62H11.6v-1.37h14.72l-0.56,0.54c0-2.45-0.26-4.41-0.78-5.87
		c-0.52-1.46-1.27-2.51-2.25-3.15c-0.98-0.64-2.15-0.96-3.52-0.96c-1.37,0-2.57,0.32-3.59,0.96c-1.02,0.64-1.81,1.68-2.37,3.14
		s-0.84,3.42-0.84,5.88v0.31c0,2.47,0.32,4.44,0.97,5.92c0.64,1.48,1.58,2.55,2.81,3.21c1.23,0.66,2.71,0.99,4.46,0.99
		c0.85,0,1.71-0.09,2.61-0.26c0.89-0.17,1.87-0.43,2.94-0.76v1.41c-1.01,0.33-1.97,0.58-2.89,0.74S21.48,112.77,20.56,112.77z"/>
	<path class="st0" d="M37.27,112.77c-1.03,0-2-0.07-2.92-0.21c-0.92-0.14-1.83-0.35-2.73-0.64v-1.41c1.11,0.33,2.11,0.56,3,0.7
		c0.89,0.13,1.8,0.2,2.71,0.2c2.22,0,3.85-0.41,4.89-1.24c1.04-0.82,1.56-1.98,1.56-3.46c0-1.3-0.33-2.3-0.99-2.99
		c-0.66-0.69-1.76-1.21-3.32-1.54l-2.68-0.58c-2.01-0.47-3.43-1.2-4.26-2.18c-0.83-0.98-1.25-2.22-1.25-3.7
		c0-1.75,0.65-3.2,1.94-4.35s3.29-1.74,5.98-1.74c0.89,0,1.73,0.05,2.52,0.15c0.79,0.1,1.58,0.26,2.37,0.48v1.41
		c-0.92-0.26-1.75-0.44-2.5-0.53c-0.75-0.09-1.54-0.14-2.39-0.14c-1.54,0-2.78,0.2-3.72,0.61s-1.63,0.96-2.07,1.66
		s-0.66,1.49-0.66,2.38c0,1.12,0.3,2.06,0.92,2.81c0.61,0.75,1.68,1.3,3.22,1.64l2.68,0.58c2.12,0.47,3.6,1.19,4.43,2.16
		c0.83,0.97,1.25,2.22,1.25,3.74c0,1.9-0.67,3.41-2,4.52C41.93,112.21,39.94,112.77,37.27,112.77z"/>
	<path class="st0" d="M55.07,112.77c-1.03,0-2-0.07-2.92-0.21c-0.92-0.14-1.83-0.35-2.73-0.64v-1.41c1.11,0.33,2.11,0.56,3,0.7
		c0.89,0.13,1.8,0.2,2.71,0.2c2.22,0,3.85-0.41,4.89-1.24c1.04-0.82,1.56-1.98,1.56-3.46c0-1.3-0.33-2.3-0.99-2.99
		c-0.66-0.69-1.76-1.21-3.32-1.54l-2.68-0.58c-2.01-0.47-3.43-1.2-4.26-2.18c-0.83-0.98-1.25-2.22-1.25-3.7
		c0-1.75,0.65-3.2,1.94-4.35s3.29-1.74,5.98-1.74c0.89,0,1.73,0.05,2.52,0.15c0.79,0.1,1.58,0.26,2.37,0.48v1.41
		c-0.92-0.26-1.75-0.44-2.5-0.53c-0.75-0.09-1.54-0.14-2.39-0.14c-1.54,0-2.78,0.2-3.72,0.61s-1.63,0.96-2.07,1.66
		s-0.66,1.49-0.66,2.38c0,1.12,0.3,2.06,0.92,2.81c0.61,0.75,1.68,1.3,3.22,1.64l2.68,0.58c2.12,0.47,3.6,1.19,4.43,2.16
		c0.83,0.97,1.25,2.22,1.25,3.74c0,1.9-0.67,3.41-2,4.52C59.73,112.21,57.73,112.77,55.07,112.77z"/>
	<path class="st0" d="M85.9,112.77c-1.9,0-3.51-0.39-4.84-1.17c-1.33-0.78-2.35-2.03-3.05-3.73c-0.7-1.7-1.05-3.94-1.05-6.69
		s0.38-4.99,1.13-6.68c0.75-1.7,1.87-2.93,3.34-3.71c1.47-0.78,3.27-1.16,5.4-1.16c0.71,0,1.44,0.05,2.2,0.15
		c0.76,0.1,1.48,0.25,2.16,0.46v1.41c-0.74-0.22-1.47-0.38-2.2-0.49s-1.44-0.16-2.12-0.16c-1.87,0-3.43,0.32-4.68,0.96
		c-1.25,0.64-2.18,1.69-2.81,3.17c-0.62,1.48-0.94,3.47-0.94,5.98c0,2.54,0.29,4.56,0.86,6.07c0.58,1.51,1.43,2.6,2.56,3.25
		c1.13,0.66,2.52,0.99,4.17,0.99c0.73,0,1.52-0.08,2.37-0.24s1.77-0.42,2.79-0.78v1.41c-0.9,0.33-1.79,0.58-2.67,0.74
		S86.77,112.77,85.9,112.77z"/>
	<path class="st0" d="M102.63,112.77c-1.75,0-3.27-0.39-4.58-1.16c-1.31-0.78-2.33-2.02-3.07-3.72c-0.73-1.7-1.1-3.94-1.1-6.71
		c0-2.76,0.37-4.99,1.1-6.68s1.76-2.93,3.07-3.71c1.31-0.78,2.84-1.16,4.58-1.16s3.28,0.38,4.59,1.15s2.34,2,3.07,3.69
		s1.09,3.93,1.09,6.71c0,2.74-0.36,4.97-1.09,6.67s-1.75,2.95-3.07,3.74C105.91,112.37,104.38,112.77,102.63,112.77z M102.63,111.4
		c1.47,0,2.75-0.32,3.83-0.96c1.09-0.64,1.93-1.7,2.53-3.19c0.6-1.49,0.89-3.5,0.89-6.02c0-2.58-0.3-4.61-0.89-6.1
		c-0.6-1.49-1.44-2.55-2.53-3.19c-1.09-0.64-2.37-0.96-3.83-0.96c-1.47,0-2.75,0.32-3.84,0.95c-1.09,0.63-1.93,1.68-2.53,3.16
		s-0.89,3.48-0.89,6.02c0,2.56,0.3,4.6,0.89,6.1c0.6,1.5,1.44,2.58,2.53,3.22S101.16,111.4,102.63,111.4z"/>
	<path class="st0" d="M124.5,112.77c-1.62,0-3.08-0.36-4.39-1.08c-1.3-0.72-2.34-1.89-3.1-3.52c-0.76-1.63-1.14-3.81-1.14-6.54
		c0-2.76,0.41-5.02,1.24-6.8c0.82-1.77,2.04-3.09,3.64-3.94c1.6-0.85,3.57-1.28,5.91-1.28c0.75,0,1.49,0.03,2.23,0.1
		s1.42,0.16,2.05,0.27V78.8h1.41v33.59h-1.25l-0.12-2.47h-0.17c-0.68,0.82-1.56,1.5-2.65,2.04S125.86,112.77,124.5,112.77z
		 M124.56,111.4c1.21,0,2.38-0.28,3.52-0.84c1.14-0.56,2.1-1.45,2.86-2.67V91.46c-0.58-0.15-1.26-0.27-2.04-0.35
		c-0.78-0.08-1.55-0.12-2.31-0.12c-3.04,0-5.33,0.82-6.89,2.45c-1.56,1.64-2.34,4.31-2.34,8.02c0,2.55,0.31,4.55,0.92,5.99
		c0.62,1.44,1.47,2.46,2.55,3.06S123.16,111.4,124.56,111.4z"/>
	<path class="st0" d="M147.78,112.77c-2.04,0-3.78-0.39-5.22-1.17c-1.44-0.78-2.54-2.03-3.29-3.73c-0.76-1.7-1.13-3.94-1.13-6.69
		c0-2.73,0.35-4.94,1.05-6.64c0.7-1.7,1.67-2.94,2.91-3.73c1.24-0.79,2.69-1.19,4.33-1.19c1.66,0,3.09,0.4,4.29,1.19
		c1.2,0.79,2.12,2.03,2.76,3.73c0.64,1.7,0.97,3.91,0.97,6.64v0.62h-15.63v-1.37h14.72l-0.56,0.54c0-2.45-0.26-4.41-0.78-5.87
		c-0.52-1.46-1.27-2.51-2.25-3.15c-0.98-0.64-2.15-0.96-3.52-0.96c-1.37,0-2.57,0.32-3.59,0.96c-1.02,0.64-1.81,1.68-2.37,3.14
		s-0.84,3.42-0.84,5.88v0.31c0,2.47,0.32,4.44,0.97,5.92c0.64,1.48,1.58,2.55,2.81,3.21c1.23,0.66,2.71,0.99,4.46,0.99
		c0.85,0,1.71-0.09,2.61-0.26c0.89-0.17,1.87-0.43,2.94-0.76v1.41c-1.01,0.33-1.97,0.58-2.89,0.74S148.7,112.77,147.78,112.77z"/>
	<path class="st0" d="M159.53,118.63c0.37-1.19,0.67-2.31,0.88-3.35c0.21-1.04,0.32-2.09,0.32-3.14l0.08,0.46h-0.25
		c-0.37,0-0.68-0.12-0.92-0.37c-0.24-0.25-0.36-0.57-0.36-0.96c0-0.37,0.12-0.68,0.34-0.93c0.23-0.24,0.53-0.36,0.9-0.36
		c0.4,0,0.72,0.14,0.97,0.41c0.24,0.27,0.36,0.72,0.36,1.34c0,1.29-0.13,2.52-0.41,3.68s-0.61,2.24-1.01,3.22H159.53z"/>
	<path class="st0" d="M178.32,112.39V89.94h1.25l0.12,2.7h0.17c0.9-1.03,1.92-1.79,3.07-2.29c1.14-0.5,2.32-0.75,3.54-0.75
		c1.21,0,2.28,0.24,3.21,0.71c0.94,0.47,1.67,1.25,2.19,2.33c0.53,1.08,0.79,2.54,0.79,4.39v15.36h-1.41V97.05
		c0-2.29-0.45-3.87-1.36-4.75c-0.91-0.88-2.1-1.32-3.57-1.32c-0.71,0-1.46,0.12-2.25,0.37c-0.8,0.25-1.57,0.65-2.32,1.21
		c-0.75,0.55-1.42,1.3-2.02,2.22v17.61H178.32z M204.05,112.39V97.05c0-2.29-0.47-3.87-1.41-4.75c-0.94-0.88-2.15-1.32-3.62-1.32
		c-0.71,0-1.49,0.13-2.34,0.4s-1.69,0.72-2.5,1.36c-0.82,0.64-1.53,1.54-2.12,2.67l-0.54-1.75c1.14-1.54,2.38-2.6,3.74-3.18
		c1.36-0.58,2.64-0.87,3.85-0.87c1.22,0,2.31,0.24,3.27,0.71c0.96,0.47,1.72,1.25,2.27,2.33c0.55,1.08,0.82,2.54,0.82,4.39v15.36
		H204.05z"/>
	<path class="st0" d="M219.71,112.77c-1.75,0-3.27-0.39-4.58-1.16c-1.31-0.78-2.33-2.02-3.07-3.72c-0.73-1.7-1.1-3.94-1.1-6.71
		c0-2.76,0.37-4.99,1.1-6.68s1.76-2.93,3.07-3.71c1.31-0.78,2.84-1.16,4.58-1.16s3.28,0.38,4.59,1.15s2.34,2,3.07,3.69
		s1.09,3.93,1.09,6.71c0,2.74-0.36,4.97-1.09,6.67s-1.75,2.95-3.07,3.74C222.98,112.37,221.45,112.77,219.71,112.77z M219.71,111.4
		c1.47,0,2.75-0.32,3.83-0.96c1.09-0.64,1.93-1.7,2.53-3.19c0.6-1.49,0.89-3.5,0.89-6.02c0-2.58-0.3-4.61-0.89-6.1
		c-0.6-1.49-1.44-2.55-2.53-3.19c-1.09-0.64-2.37-0.96-3.83-0.96c-1.47,0-2.75,0.32-3.84,0.95c-1.09,0.63-1.93,1.68-2.53,3.16
		s-0.89,3.48-0.89,6.02c0,2.56,0.3,4.6,0.89,6.1c0.6,1.5,1.44,2.58,2.53,3.22S218.24,111.4,219.71,111.4z"/>
	<path class="st0" d="M234.24,112.39V89.94h1.25l0.12,3.06h0.17c0.84-1.04,1.89-1.84,3.14-2.39c1.25-0.55,2.5-0.83,3.76-0.83
		c0.35,0,0.66,0.01,0.93,0.03c0.27,0.02,0.54,0.06,0.82,0.11v1.41c-0.29-0.06-0.57-0.09-0.84-0.09c-0.27-0.01-0.58-0.01-0.92-0.01
		c-0.79,0-1.62,0.13-2.48,0.41c-0.87,0.27-1.69,0.69-2.48,1.25c-0.79,0.56-1.47,1.27-2.04,2.13v17.38H234.24z"/>
	<path class="st0" d="M255.84,112.77c-2.04,0-3.78-0.39-5.22-1.17c-1.44-0.78-2.54-2.03-3.29-3.73c-0.76-1.7-1.13-3.94-1.13-6.69
		c0-2.73,0.35-4.94,1.05-6.64c0.7-1.7,1.67-2.94,2.91-3.73c1.24-0.79,2.69-1.19,4.33-1.19c1.66,0,3.09,0.4,4.29,1.19
		c1.2,0.79,2.12,2.03,2.76,3.73c0.64,1.7,0.97,3.91,0.97,6.64v0.62h-15.63v-1.37h14.72l-0.56,0.54c0-2.45-0.26-4.41-0.78-5.87
		c-0.52-1.46-1.27-2.51-2.25-3.15c-0.98-0.64-2.15-0.96-3.52-0.96c-1.37,0-2.57,0.32-3.59,0.96c-1.02,0.64-1.81,1.68-2.37,3.14
		s-0.84,3.42-0.84,5.88v0.31c0,2.47,0.32,4.44,0.97,5.92c0.64,1.48,1.58,2.55,2.81,3.21c1.23,0.66,2.71,0.99,4.46,0.99
		c0.85,0,1.71-0.09,2.61-0.26c0.89-0.17,1.87-0.43,2.94-0.76v1.41c-1.01,0.33-1.97,0.58-2.89,0.74S256.75,112.77,255.84,112.77z"/>
	<path class="st0" d="M274.71,91.27v-1.33h13.7v1.33H274.71z M279.28,112.39V85.51c0-1.61,0.26-2.94,0.79-3.99
		c0.53-1.05,1.31-1.84,2.35-2.36c1.04-0.52,2.33-0.78,3.89-0.78c0.46,0,0.94,0.02,1.46,0.06c0.51,0.04,1,0.1,1.46,0.19v1.41
		c-0.49-0.1-0.98-0.17-1.48-0.22c-0.5-0.05-1-0.07-1.52-0.07c-1.83,0-3.21,0.43-4.14,1.28c-0.93,0.85-1.39,2.33-1.39,4.42v26.94
		H279.28z"/>
	<path class="st0" d="M299.66,112.77c-2.04,0-3.78-0.39-5.22-1.17c-1.44-0.78-2.54-2.03-3.29-3.73c-0.76-1.7-1.13-3.94-1.13-6.69
		c0-2.73,0.35-4.94,1.05-6.64c0.7-1.7,1.67-2.94,2.91-3.73c1.24-0.79,2.69-1.19,4.33-1.19c1.66,0,3.09,0.4,4.29,1.19
		c1.2,0.79,2.12,2.03,2.76,3.73c0.64,1.7,0.97,3.91,0.97,6.64v0.62H290.7v-1.37h14.72l-0.56,0.54c0-2.45-0.26-4.41-0.78-5.87
		c-0.52-1.46-1.27-2.51-2.25-3.15c-0.98-0.64-2.15-0.96-3.52-0.96c-1.37,0-2.57,0.32-3.59,0.96c-1.02,0.64-1.81,1.68-2.37,3.14
		s-0.84,3.42-0.84,5.88v0.31c0,2.47,0.32,4.44,0.97,5.92c0.64,1.48,1.58,2.55,2.81,3.21c1.23,0.66,2.71,0.99,4.46,0.99
		c0.85,0,1.71-0.09,2.61-0.26c0.89-0.17,1.87-0.43,2.94-0.76v1.41c-1.01,0.33-1.97,0.58-2.89,0.74S300.57,112.77,299.66,112.77z"/>
	<path class="st0" d="M316.74,112.73c-2,0-3.58-0.51-4.76-1.54s-1.77-2.47-1.77-4.34c0-1.87,0.6-3.33,1.79-4.38
		c1.19-1.05,3.08-1.71,5.67-2.01l6.8-0.81l0.06,1.37l-6.9,0.81c-2.08,0.24-3.58,0.75-4.5,1.55c-0.92,0.8-1.38,1.91-1.38,3.34
		c0,1.51,0.42,2.66,1.27,3.45c0.84,0.79,2.11,1.18,3.78,1.18c1.22,0,2.43-0.27,3.64-0.82c1.21-0.55,2.28-1.45,3.22-2.71V96.89
		c0-1.57-0.24-2.78-0.73-3.63c-0.49-0.85-1.19-1.44-2.11-1.78c-0.92-0.33-2.04-0.5-3.36-0.5c-0.85,0-1.79,0.08-2.84,0.24
		c-1.05,0.16-2.12,0.43-3.21,0.82v-1.41c0.87-0.33,1.85-0.59,2.94-0.76c1.09-0.17,2.12-0.26,3.11-0.26c1.61,0,2.98,0.22,4.12,0.67
		c1.14,0.44,2,1.2,2.6,2.26c0.6,1.06,0.89,2.51,0.89,4.35v15.51h-1.25l-0.12-2.66h-0.17c-0.76,0.93-1.74,1.66-2.93,2.19
		C319.42,112.46,318.13,112.73,316.74,112.73z"/>
	<path class="st0" d="M328.47,91.27v-1.33h13.7v1.33H328.47z M339.59,112.77c-2.04,0-3.64-0.54-4.8-1.61
		c-1.16-1.07-1.75-2.81-1.75-5.21V89.94l0.17-8.31h1.25v24.07c0,2.08,0.45,3.55,1.34,4.41c0.89,0.86,2.19,1.29,3.88,1.29
		c0.46,0,0.92-0.03,1.39-0.1c0.47-0.07,0.99-0.17,1.56-0.29v1.41c-0.54,0.12-1.05,0.21-1.54,0.27
		C340.6,112.74,340.1,112.77,339.59,112.77z"/>
	<path class="st0" d="M352.85,112.77c-1.33,0-2.51-0.24-3.54-0.71c-1.03-0.47-1.84-1.25-2.43-2.34c-0.59-1.09-0.88-2.55-0.88-4.38
		v-15.4h1.41v15.42c0,2.25,0.51,3.81,1.54,4.7c1.03,0.89,2.34,1.33,3.95,1.33c0.79,0,1.63-0.12,2.52-0.36
		c0.89-0.24,1.75-0.63,2.58-1.17c0.83-0.54,1.57-1.25,2.2-2.14V89.94h1.41v22.45h-1.25l-0.12-2.58h-0.17
		c-0.97,0.98-2.08,1.72-3.34,2.21C355.47,112.52,354.18,112.77,352.85,112.77z"/>
	<path class="st0" d="M368.67,112.39V89.94h1.25l0.12,3.06h0.17c0.84-1.04,1.89-1.84,3.14-2.39c1.25-0.55,2.5-0.83,3.76-0.83
		c0.35,0,0.66,0.01,0.93,0.03c0.27,0.02,0.54,0.06,0.82,0.11v1.41c-0.29-0.06-0.57-0.09-0.84-0.09c-0.27-0.01-0.58-0.01-0.92-0.01
		c-0.79,0-1.62,0.13-2.48,0.41c-0.87,0.27-1.69,0.69-2.48,1.25c-0.79,0.56-1.47,1.27-2.04,2.13v17.38H368.67z"/>
	<path class="st0" d="M390.27,112.77c-2.04,0-3.78-0.39-5.22-1.17c-1.44-0.78-2.54-2.03-3.29-3.73c-0.76-1.7-1.13-3.94-1.13-6.69
		c0-2.73,0.35-4.94,1.05-6.64c0.7-1.7,1.67-2.94,2.91-3.73c1.24-0.79,2.69-1.19,4.33-1.19c1.66,0,3.09,0.4,4.29,1.19
		c1.2,0.79,2.12,2.03,2.76,3.73c0.64,1.7,0.97,3.91,0.97,6.64v0.62h-15.63v-1.37h14.72l-0.56,0.54c0-2.45-0.26-4.41-0.78-5.87
		c-0.52-1.46-1.27-2.51-2.25-3.15c-0.98-0.64-2.15-0.96-3.52-0.96c-1.37,0-2.57,0.32-3.59,0.96c-1.02,0.64-1.81,1.68-2.37,3.14
		s-0.84,3.42-0.84,5.88v0.31c0,2.47,0.32,4.44,0.97,5.92c0.64,1.48,1.58,2.55,2.81,3.21c1.23,0.66,2.71,0.99,4.46,0.99
		c0.85,0,1.71-0.09,2.61-0.26c0.89-0.17,1.87-0.43,2.94-0.76v1.41c-1.01,0.33-1.97,0.58-2.89,0.74S391.19,112.77,390.27,112.77z"/>
	<path class="st0" d="M406.98,112.77c-1.03,0-2-0.07-2.92-0.21c-0.92-0.14-1.83-0.35-2.73-0.64v-1.41c1.11,0.33,2.11,0.56,3,0.7
		c0.89,0.13,1.8,0.2,2.71,0.2c2.22,0,3.85-0.41,4.89-1.24c1.04-0.82,1.56-1.98,1.56-3.46c0-1.3-0.33-2.3-0.99-2.99
		c-0.66-0.69-1.76-1.21-3.32-1.54l-2.68-0.58c-2.01-0.47-3.43-1.2-4.26-2.18c-0.83-0.98-1.25-2.22-1.25-3.7
		c0-1.75,0.65-3.2,1.94-4.35s3.29-1.74,5.98-1.74c0.89,0,1.73,0.05,2.52,0.15c0.79,0.1,1.58,0.26,2.37,0.48v1.41
		c-0.92-0.26-1.75-0.44-2.5-0.53c-0.75-0.09-1.54-0.14-2.39-0.14c-1.54,0-2.78,0.2-3.72,0.61s-1.63,0.96-2.07,1.66
		s-0.66,1.49-0.66,2.38c0,1.12,0.3,2.06,0.92,2.81c0.61,0.75,1.68,1.3,3.22,1.64l2.68,0.58c2.12,0.47,3.6,1.19,4.43,2.16
		c0.83,0.97,1.25,2.22,1.25,3.74c0,1.9-0.67,3.41-2,4.52C411.64,112.21,409.64,112.77,406.98,112.77z"/>
</g>
</svg>
