<?xml version="1.0" encoding="utf-8"?>
<!-- Generator: Adobe Illustrator 25.0.0, SVG Export Plug-In . SVG Version: 6.00 Build 0)  -->
<svg version="1.1" id="Calque_1" xmlns="http://www.w3.org/2000/svg" xmlns:xlink="http://www.w3.org/1999/xlink" x="0px" y="0px"
	 viewBox="0 0 233.33 233.33" style="enable-background:new 0 0 233.33 233.33;" xml:space="preserve">
<style type="text/css">
	.st0{fill:#3B393A;}
	.st1{fill:#FFFFFF;}
</style>
<circle class="st0" cx="116.67" cy="116.67" r="116.67"/>
<path class="st1" d="M156.1,97.46h-2v-20.3c0-20.54-16.71-37.25-37.25-37.25h-0.37c-20.54,0-37.25,16.71-37.25,37.25v20.3h-2
	c-6.94,0-12.56,5.62-12.56,12.56v57.61c0,6.94,5.62,12.56,12.56,12.56h78.87c6.94,0,12.56-5.62,12.56-12.56v-57.61
	C168.66,103.08,163.03,97.46,156.1,97.46z M123.47,159.62h-13.61l0.25-20.94c-3.1-2.1-5.13-5.65-5.13-9.67
	c0-6.45,5.23-11.68,11.68-11.68s11.68,5.23,11.68,11.68c0,4.02-2.03,7.57-5.13,9.67L123.47,159.62z M140.71,97.46H92.62v-20.3
	c0-13.16,10.7-23.86,23.86-23.86h0.37c13.16,0,23.86,10.7,23.86,23.86V97.46z"/>
</svg>
