<?xml version="1.0" encoding="utf-8"?>
<!-- Generator: Adobe Illustrator 25.0.0, SVG Export Plug-In . SVG Version: 6.00 Build 0)  -->
<svg version="1.1" id="Calque_1" xmlns="http://www.w3.org/2000/svg" xmlns:xlink="http://www.w3.org/1999/xlink" x="0px" y="0px"
	 viewBox="0 0 34.02 19.84" style="enable-background:new 0 0 34.02 19.84;" xml:space="preserve">
<style type="text/css">
	.st0{fill:#FFFFFF;}
	.st1{fill:#ED6B2A;}
</style>
<g>
	<path class="st0" d="M5.96,17.86c-0.98-0.28-1.72-0.73-2.21-1.37C3.25,15.86,3,15.03,3,13.98v-1.65c0-1.34-0.59-2.02-1.76-2.02
		v-1.2C2.41,9.11,3,8.44,3,7.1V5.38c0.01-1.01,0.26-1.83,0.74-2.45C4.23,2.3,4.96,1.85,5.96,1.57l0.32,0.95
		c-1.16,0.37-1.73,1.34-1.73,2.9v1.68c0,1.26-0.46,2.13-1.39,2.62c0.92,0.5,1.39,1.38,1.39,2.65v1.71c0.02,1.52,0.59,2.47,1.73,2.83
		L5.96,17.86z"/>
	<path class="st0" d="M15.21,10.43c0,1.37-0.31,2.47-0.94,3.3s-1.47,1.25-2.54,1.25c-1.09,0-1.95-0.35-2.57-1.04v4.32H7.62V5.84h1.4
		l0.07,1c0.63-0.77,1.49-1.16,2.61-1.16c1.08,0,1.93,0.41,2.56,1.22c0.63,0.81,0.94,1.95,0.94,3.4V10.43z M13.68,10.26
		c0-1.01-0.22-1.81-0.65-2.4S12,6.98,11.25,6.98c-0.93,0-1.63,0.41-2.09,1.24v4.29c0.46,0.82,1.16,1.23,2.11,1.23
		c0.74,0,1.32-0.29,1.76-0.88C13.46,12.28,13.68,11.41,13.68,10.26z"/>
	<path class="st1" d="M26.33,13.24c-0.41,0.59-0.98,1.02-1.71,1.32c-0.73,0.29-1.59,0.44-2.56,0.44c-0.98,0-1.86-0.23-2.62-0.69
		c-0.76-0.46-1.35-1.12-1.77-1.97c-0.42-0.85-0.63-1.84-0.64-2.96V8.31c0-1.82,0.42-3.23,1.27-4.23c0.85-1,2.04-1.5,3.58-1.5
		c1.26,0,2.28,0.32,3.05,0.97c0.77,0.65,1.24,1.56,1.41,2.74h-1.59c-0.3-1.6-1.25-2.41-2.86-2.41C20.81,3.87,20,4.25,19.45,5
		c-0.55,0.75-0.83,1.84-0.83,3.26v0.99c0,1.36,0.31,2.44,0.93,3.24c0.62,0.8,1.46,1.2,2.52,1.2c0.6,0,1.12-0.07,1.57-0.2
		c0.45-0.13,0.82-0.36,1.11-0.67v-2.71h-2.8V8.8h4.38V13.24z"/>
	<path class="st0" d="M27.74,16.91c1.12-0.36,1.7-1.28,1.74-2.75v-1.83c0-1.28,0.5-2.15,1.5-2.61c-1-0.45-1.5-1.33-1.5-2.61V5.42
		c0-1.56-0.58-2.53-1.73-2.9l0.32-0.95c0.98,0.28,1.72,0.73,2.21,1.35c0.49,0.62,0.74,1.45,0.75,2.47v1.74
		c0,1.32,0.59,1.98,1.76,1.98v1.2c-1.17,0-1.76,0.67-1.76,2.02v1.68c0,1.04-0.25,1.87-0.75,2.5c-0.5,0.63-1.24,1.08-2.2,1.35
		L27.74,16.91z"/>
</g>
</svg>
