<?xml version="1.0" encoding="utf-8"?>
<!-- Generator: Adobe Illustrator 25.0.0, SVG Export Plug-In . SVG Version: 6.00 Build 0)  -->
<svg version="1.1" id="Calque_1" xmlns="http://www.w3.org/2000/svg" xmlns:xlink="http://www.w3.org/1999/xlink" x="0px" y="0px"
	 viewBox="0 0 280 25" style="enable-background:new 0 0 280 25;" xml:space="preserve">
<style type="text/css">
	.st0{fill:#FFFFFF;}
	.st1{fill:#EC6608;}
</style>
<g>
	<path class="st0" d="M8.76,21.15C6.65,20.56,5.6,19.2,5.6,17.07v-1.74c0-1.18-0.47-1.78-1.42-1.78v-2c0.95,0,1.42-0.59,1.42-1.78
		V7.93c0.02-1.05,0.29-1.91,0.82-2.56c0.53-0.65,1.31-1.12,2.34-1.42L9.32,5.5C8.58,5.78,8.2,6.57,8.17,7.86v1.91
		c0,1.31-0.54,2.24-1.63,2.78c1.08,0.54,1.63,1.47,1.63,2.79v1.9c0.03,1.29,0.41,2.08,1.15,2.36L8.76,21.15z"/>
	<path class="st0" d="M19.33,13.31c0,1.48-0.33,2.66-1,3.54c-0.67,0.88-1.56,1.32-2.69,1.32c-0.87,0-1.59-0.32-2.15-0.96v4.44h-2.96
		V8.48h2.77l0.09,0.88c0.57-0.7,1.32-1.05,2.24-1.05c1.17,0,2.08,0.43,2.73,1.3s0.98,2.05,0.98,3.56V13.31z M16.37,13.12
		c0-1.69-0.49-2.53-1.48-2.53c-0.7,0-1.17,0.25-1.41,0.76v3.74c0.26,0.53,0.73,0.79,1.42,0.79c0.94,0,1.43-0.81,1.46-2.44V13.12z"/>
	<path class="st1" d="M31.25,16.41c-0.47,0.53-1.17,0.95-2.08,1.27s-1.92,0.48-3.01,0.48c-1.68,0-3.01-0.51-4.02-1.54
		s-1.54-2.45-1.61-4.28l-0.01-1.11c0-1.26,0.22-2.36,0.67-3.3s1.08-1.66,1.91-2.17c0.83-0.51,1.79-0.76,2.88-0.76
		c1.59,0,2.83,0.36,3.71,1.09c0.88,0.73,1.4,1.82,1.54,3.27h-2.97c-0.11-0.71-0.33-1.22-0.69-1.53s-0.85-0.46-1.49-0.46
		c-0.77,0-1.37,0.33-1.79,0.98s-0.64,1.59-0.64,2.81v0.77c0,1.28,0.22,2.24,0.65,2.88s1.12,0.96,2.06,0.96c0.8,0,1.4-0.18,1.79-0.54
		v-1.99h-2.14v-2.12h5.23V16.41z"/>
	<path class="st0" d="M32.43,19.6c0.74-0.28,1.12-1.07,1.15-2.36v-1.91c0-1.32,0.54-2.24,1.63-2.78c-1.09-0.53-1.63-1.46-1.63-2.78
		V7.86c-0.03-1.29-0.41-2.08-1.15-2.36l0.55-1.55c1.05,0.29,1.84,0.77,2.36,1.44s0.79,1.54,0.8,2.61v1.77
		c0,1.19,0.47,1.78,1.42,1.78v2c-0.95,0-1.42,0.59-1.42,1.77v1.87c-0.04,2.06-1.1,3.38-3.16,3.96L32.43,19.6z"/>
	<path class="st0" d="M43.67,12.61l-4.78-1.63V8.3l7.73,3.16v2.34l-7.73,3.16v-2.69L43.67,12.61z"/>
	<path class="st0" d="M56.8,13.31c0,1.56-0.32,2.76-0.97,3.6s-1.55,1.26-2.72,1.26c-0.97,0-1.75-0.38-2.34-1.15l-0.12,0.98H48V4.49
		h2.96v4.75c0.55-0.63,1.26-0.94,2.14-0.94c1.18,0,2.1,0.42,2.74,1.27s0.97,2.04,0.97,3.59V13.31z M53.83,13.12
		c0-0.91-0.12-1.56-0.36-1.95c-0.24-0.39-0.62-0.58-1.12-0.58c-0.67,0-1.13,0.25-1.39,0.76v3.77c0.25,0.5,0.72,0.75,1.41,0.75
		c0.7,0,1.14-0.34,1.33-1.02C53.79,14.53,53.83,13.95,53.83,13.12z"/>
	<path class="st0" d="M61.23,17.99h-2.97V4.49h2.97V17.99z"/>
	<path class="st0" d="M62.68,13.15c0-0.95,0.18-1.79,0.55-2.54s0.9-1.31,1.59-1.71s1.5-0.6,2.43-0.6c1.42,0,2.55,0.44,3.37,1.32
		s1.23,2.08,1.23,3.6v0.11c0,1.48-0.41,2.66-1.23,3.53c-0.82,0.87-1.94,1.31-3.34,1.31c-1.35,0-2.44-0.41-3.26-1.22
		s-1.26-1.91-1.33-3.3L62.68,13.15z M65.65,13.33c0,0.88,0.14,1.52,0.41,1.93s0.68,0.62,1.22,0.62c1.05,0,1.59-0.81,1.62-2.44v-0.3
		c0-1.71-0.54-2.56-1.63-2.56c-0.99,0-1.53,0.74-1.61,2.21L65.65,13.33z"/>
	<path class="st0" d="M72.82,13.16c0-0.96,0.16-1.81,0.47-2.55s0.77-1.31,1.36-1.71s1.28-0.6,2.07-0.6c0.99,0,1.76,0.33,2.32,1
		l0.11-0.83h2.69v9.15c0,0.84-0.2,1.57-0.58,2.18s-0.95,1.09-1.69,1.42s-1.59,0.5-2.57,0.5c-0.7,0-1.37-0.13-2.03-0.4
		c-0.65-0.26-1.15-0.61-1.5-1.03l1.24-1.74c0.55,0.65,1.28,0.98,2.18,0.98c1.31,0,1.97-0.67,1.97-2.02v-0.3
		c-0.57,0.63-1.29,0.94-2.15,0.94c-1.16,0-2.1-0.44-2.81-1.33s-1.07-2.08-1.07-3.56V13.16z M75.79,13.35c0,0.78,0.15,1.4,0.44,1.85
		s0.7,0.68,1.23,0.68c0.64,0,1.1-0.21,1.4-0.64v-4c-0.29-0.43-0.75-0.65-1.38-0.65c-0.53,0-0.94,0.24-1.24,0.71
		S75.79,12.45,75.79,13.35z"/>
	<path class="st0" d="M90.3,20.36h-1.62V5.19h1.62V20.36z"/>
	<path class="st0" d="M97.78,17.99V3.45h0.61v14.54H97.78z"/>
	<path class="st0" d="M105.07,18.15c-0.88,0-1.64-0.17-2.26-0.51s-1.1-0.88-1.43-1.62c-0.33-0.74-0.49-1.7-0.49-2.9
		c0-1.18,0.15-2.14,0.46-2.88c0.3-0.73,0.72-1.27,1.26-1.62c0.54-0.34,1.16-0.51,1.88-0.51c0.72,0,1.34,0.17,1.86,0.51
		c0.52,0.34,0.92,0.88,1.2,1.62c0.28,0.73,0.42,1.69,0.42,2.88v0.27h-6.77v-0.59h6.37l-0.24,0.23c0-1.06-0.11-1.91-0.34-2.54
		c-0.22-0.63-0.55-1.09-0.97-1.36c-0.42-0.28-0.93-0.41-1.53-0.41c-0.59,0-1.11,0.14-1.55,0.41c-0.44,0.28-0.78,0.73-1.03,1.36
		s-0.36,1.48-0.36,2.55v0.14c0,1.07,0.14,1.92,0.42,2.57c0.28,0.64,0.68,1.11,1.22,1.39c0.53,0.29,1.17,0.43,1.93,0.43
		c0.37,0,0.74-0.04,1.13-0.11s0.81-0.18,1.27-0.33v0.61c-0.44,0.14-0.85,0.25-1.25,0.32C105.86,18.12,105.47,18.15,105.07,18.15z"/>
	<path class="st0" d="M112.31,18.15c-0.44,0-0.87-0.03-1.26-0.09c-0.4-0.06-0.79-0.15-1.18-0.28v-0.61c0.48,0.14,0.91,0.25,1.3,0.3
		c0.39,0.06,0.78,0.08,1.17,0.08c0.96,0,1.67-0.18,2.12-0.54c0.45-0.36,0.67-0.86,0.67-1.5c0-0.56-0.14-1-0.43-1.3
		c-0.29-0.3-0.76-0.52-1.44-0.67l-1.16-0.25c-0.87-0.2-1.49-0.52-1.85-0.94c-0.36-0.43-0.54-0.96-0.54-1.6
		c0-0.76,0.28-1.38,0.84-1.89c0.56-0.5,1.42-0.75,2.59-0.75c0.38,0,0.75,0.02,1.09,0.06s0.68,0.11,1.03,0.21v0.61
		c-0.4-0.11-0.76-0.19-1.08-0.23c-0.32-0.04-0.67-0.06-1.04-0.06c-0.67,0-1.2,0.09-1.61,0.27c-0.41,0.18-0.71,0.42-0.9,0.72
		c-0.19,0.3-0.28,0.65-0.28,1.03c0,0.49,0.13,0.89,0.4,1.21c0.26,0.32,0.73,0.56,1.4,0.71l1.16,0.25c0.92,0.2,1.56,0.52,1.92,0.94
		c0.36,0.42,0.54,0.96,0.54,1.62c0,0.82-0.29,1.47-0.86,1.96C114.32,17.91,113.46,18.15,112.31,18.15z"/>
	<path class="st0" d="M120.01,18.15c-0.44,0-0.87-0.03-1.26-0.09c-0.4-0.06-0.79-0.15-1.18-0.28v-0.61c0.48,0.14,0.91,0.25,1.3,0.3
		c0.39,0.06,0.78,0.08,1.17,0.08c0.96,0,1.67-0.18,2.12-0.54c0.45-0.36,0.67-0.86,0.67-1.5c0-0.56-0.14-1-0.43-1.3
		c-0.29-0.3-0.76-0.52-1.44-0.67l-1.16-0.25c-0.87-0.2-1.49-0.52-1.85-0.94c-0.36-0.43-0.54-0.96-0.54-1.6
		c0-0.76,0.28-1.38,0.84-1.89c0.56-0.5,1.42-0.75,2.59-0.75c0.38,0,0.75,0.02,1.09,0.06s0.68,0.11,1.03,0.21v0.61
		c-0.4-0.11-0.76-0.19-1.08-0.23c-0.32-0.04-0.67-0.06-1.04-0.06c-0.67,0-1.2,0.09-1.61,0.27c-0.41,0.18-0.71,0.42-0.9,0.72
		c-0.19,0.3-0.28,0.65-0.28,1.03c0,0.49,0.13,0.89,0.4,1.21c0.26,0.32,0.73,0.56,1.4,0.71l1.16,0.25c0.92,0.2,1.56,0.52,1.92,0.94
		c0.36,0.42,0.54,0.96,0.54,1.62c0,0.82-0.29,1.47-0.86,1.96C122.03,17.91,121.16,18.15,120.01,18.15z"/>
	<path class="st0" d="M133.36,18.15c-0.82,0-1.52-0.17-2.1-0.51s-1.02-0.88-1.32-1.62c-0.3-0.74-0.46-1.7-0.46-2.9
		c0-1.19,0.16-2.16,0.49-2.89c0.33-0.73,0.81-1.27,1.44-1.61c0.64-0.34,1.42-0.5,2.34-0.5c0.31,0,0.62,0.02,0.95,0.06
		s0.64,0.11,0.94,0.2V9c-0.32-0.1-0.64-0.17-0.95-0.21c-0.32-0.04-0.62-0.07-0.92-0.07c-0.81,0-1.48,0.14-2.02,0.41
		s-0.95,0.73-1.21,1.37c-0.27,0.64-0.41,1.5-0.41,2.59c0,1.1,0.12,1.97,0.37,2.63c0.25,0.65,0.62,1.12,1.11,1.41s1.09,0.43,1.8,0.43
		c0.32,0,0.66-0.03,1.03-0.1c0.37-0.07,0.77-0.18,1.21-0.34v0.61c-0.39,0.14-0.78,0.25-1.16,0.32
		C134.11,18.12,133.73,18.15,133.36,18.15z"/>
	<path class="st0" d="M140.6,18.15c-0.76,0-1.42-0.17-1.98-0.5c-0.57-0.34-1.01-0.87-1.33-1.61c-0.32-0.74-0.48-1.71-0.48-2.91
		c0-1.19,0.16-2.16,0.48-2.89c0.32-0.73,0.76-1.27,1.33-1.61c0.57-0.34,1.23-0.5,1.98-0.5s1.42,0.17,1.99,0.5
		c0.57,0.33,1.01,0.87,1.33,1.6c0.32,0.73,0.47,1.7,0.47,2.91c0,1.19-0.16,2.15-0.47,2.89c-0.31,0.74-0.76,1.28-1.33,1.62
		C142.02,17.98,141.36,18.15,140.6,18.15z M140.6,17.56c0.64,0,1.19-0.14,1.66-0.41c0.47-0.28,0.83-0.74,1.09-1.38
		c0.26-0.65,0.39-1.51,0.39-2.61c0-1.12-0.13-2-0.39-2.64s-0.62-1.11-1.09-1.38c-0.47-0.28-1.03-0.41-1.66-0.41
		s-1.19,0.14-1.66,0.41s-0.84,0.73-1.09,1.37c-0.26,0.64-0.39,1.51-0.39,2.61c0,1.11,0.13,1.99,0.39,2.64
		c0.26,0.65,0.62,1.12,1.09,1.4S139.96,17.56,140.6,17.56z"/>
	<path class="st0" d="M150.07,18.15c-0.7,0-1.33-0.16-1.9-0.47c-0.56-0.31-1.01-0.82-1.34-1.53s-0.5-1.65-0.5-2.83
		c0-1.19,0.18-2.17,0.54-2.94c0.36-0.77,0.88-1.34,1.57-1.71c0.69-0.37,1.55-0.55,2.56-0.55c0.32,0,0.65,0.01,0.97,0.04
		c0.32,0.03,0.62,0.07,0.89,0.12V3.45h0.61v14.54h-0.54l-0.05-1.07h-0.07c-0.29,0.35-0.68,0.65-1.15,0.88
		C151.19,18.04,150.66,18.15,150.07,18.15z M150.1,17.56c0.52,0,1.03-0.12,1.53-0.36s0.91-0.63,1.24-1.16V8.93
		c-0.25-0.07-0.55-0.12-0.88-0.15c-0.34-0.04-0.67-0.05-1-0.05c-1.31,0-2.31,0.35-2.98,1.06c-0.68,0.71-1.01,1.87-1.01,3.47
		c0,1.1,0.13,1.97,0.4,2.59s0.63,1.07,1.1,1.32S149.49,17.56,150.1,17.56z"/>
	<path class="st0" d="M160.15,18.15c-0.88,0-1.64-0.17-2.26-0.51s-1.1-0.88-1.43-1.62c-0.33-0.74-0.49-1.7-0.49-2.9
		c0-1.18,0.15-2.14,0.46-2.88c0.3-0.73,0.72-1.27,1.26-1.62c0.54-0.34,1.16-0.51,1.88-0.51c0.72,0,1.34,0.17,1.86,0.51
		c0.52,0.34,0.92,0.88,1.2,1.62c0.28,0.73,0.42,1.69,0.42,2.88v0.27h-6.77v-0.59h6.37l-0.24,0.23c0-1.06-0.11-1.91-0.34-2.54
		c-0.22-0.63-0.55-1.09-0.97-1.36c-0.42-0.28-0.93-0.41-1.53-0.41c-0.59,0-1.11,0.14-1.55,0.41c-0.44,0.28-0.78,0.73-1.03,1.36
		s-0.36,1.48-0.36,2.55v0.14c0,1.07,0.14,1.92,0.42,2.57c0.28,0.64,0.68,1.11,1.22,1.39c0.53,0.29,1.17,0.43,1.93,0.43
		c0.37,0,0.74-0.04,1.13-0.11s0.81-0.18,1.27-0.33v0.61c-0.44,0.14-0.85,0.25-1.25,0.32C160.94,18.12,160.54,18.15,160.15,18.15z"/>
	<path class="st0" d="M165.23,20.69c0.16-0.52,0.29-1,0.38-1.45c0.09-0.45,0.14-0.9,0.14-1.36l0.04,0.2h-0.11
		c-0.16,0-0.3-0.05-0.4-0.16c-0.11-0.11-0.16-0.25-0.16-0.41c0-0.16,0.05-0.29,0.15-0.4c0.1-0.1,0.23-0.16,0.39-0.16
		c0.17,0,0.31,0.06,0.42,0.17c0.1,0.12,0.16,0.31,0.16,0.58c0,0.56-0.06,1.09-0.17,1.59c-0.12,0.5-0.26,0.97-0.44,1.4H165.23z"/>
	<path class="st0" d="M173.37,17.99V8.27h0.54l0.05,1.17h0.07c0.39-0.44,0.83-0.77,1.33-0.99s1.01-0.32,1.53-0.32
		c0.52,0,0.99,0.1,1.39,0.31c0.41,0.2,0.72,0.54,0.95,1.01c0.23,0.47,0.34,1.1,0.34,1.9v6.65h-0.61v-6.64c0-0.99-0.2-1.68-0.59-2.06
		c-0.39-0.38-0.91-0.57-1.54-0.57c-0.31,0-0.63,0.05-0.98,0.16s-0.68,0.28-1,0.52c-0.32,0.24-0.61,0.56-0.87,0.96v7.62H173.37z
		 M184.51,17.99v-6.64c0-0.99-0.2-1.68-0.61-2.06c-0.41-0.38-0.93-0.57-1.57-0.57c-0.31,0-0.64,0.06-1.01,0.17
		c-0.37,0.11-0.73,0.31-1.08,0.59c-0.35,0.28-0.66,0.66-0.92,1.16l-0.23-0.76c0.49-0.67,1.03-1.12,1.62-1.38s1.14-0.38,1.67-0.38
		c0.53,0,1,0.1,1.42,0.31c0.42,0.2,0.74,0.54,0.98,1.01c0.24,0.47,0.36,1.1,0.36,1.9v6.65H184.51z"/>
	<path class="st0" d="M191.29,18.15c-0.76,0-1.42-0.17-1.98-0.5c-0.57-0.34-1.01-0.87-1.33-1.61c-0.32-0.74-0.48-1.71-0.48-2.91
		c0-1.19,0.16-2.16,0.48-2.89c0.32-0.73,0.76-1.27,1.33-1.61c0.57-0.34,1.23-0.5,1.98-0.5s1.42,0.17,1.99,0.5
		c0.57,0.33,1.01,0.87,1.33,1.6c0.32,0.73,0.47,1.7,0.47,2.91c0,1.19-0.16,2.15-0.47,2.89c-0.31,0.74-0.76,1.28-1.33,1.62
		C192.71,17.98,192.04,18.15,191.29,18.15z M191.29,17.56c0.64,0,1.19-0.14,1.66-0.41c0.47-0.28,0.83-0.74,1.09-1.38
		c0.26-0.65,0.39-1.51,0.39-2.61c0-1.12-0.13-2-0.39-2.64s-0.62-1.11-1.09-1.38c-0.47-0.28-1.03-0.41-1.66-0.41
		s-1.19,0.14-1.66,0.41s-0.84,0.73-1.09,1.37c-0.26,0.64-0.39,1.51-0.39,2.61c0,1.11,0.13,1.99,0.39,2.64
		c0.26,0.65,0.62,1.12,1.09,1.4S190.65,17.56,191.29,17.56z"/>
	<path class="st0" d="M197.58,17.99V8.27h0.54l0.05,1.32h0.07c0.37-0.45,0.82-0.79,1.36-1.04c0.54-0.24,1.08-0.36,1.63-0.36
		c0.15,0,0.28,0,0.4,0.01c0.12,0.01,0.24,0.03,0.36,0.05v0.61c-0.13-0.02-0.25-0.04-0.37-0.04c-0.12,0-0.25,0-0.4,0
		c-0.34,0-0.7,0.06-1.08,0.18c-0.38,0.12-0.73,0.3-1.08,0.54c-0.34,0.24-0.64,0.55-0.88,0.92v7.52H197.58z"/>
	<path class="st0" d="M206.93,18.15c-0.88,0-1.64-0.17-2.26-0.51s-1.1-0.88-1.43-1.62c-0.33-0.74-0.49-1.7-0.49-2.9
		c0-1.18,0.15-2.14,0.46-2.88c0.3-0.73,0.72-1.27,1.26-1.62c0.54-0.34,1.16-0.51,1.88-0.51c0.72,0,1.34,0.17,1.86,0.51
		c0.52,0.34,0.92,0.88,1.2,1.62c0.28,0.73,0.42,1.69,0.42,2.88v0.27h-6.77v-0.59h6.37l-0.24,0.23c0-1.06-0.11-1.91-0.34-2.54
		c-0.22-0.63-0.55-1.09-0.97-1.36c-0.42-0.28-0.93-0.41-1.53-0.41c-0.59,0-1.11,0.14-1.55,0.41c-0.44,0.28-0.78,0.73-1.03,1.36
		s-0.36,1.48-0.36,2.55v0.14c0,1.07,0.14,1.92,0.42,2.57c0.28,0.64,0.68,1.11,1.22,1.39c0.53,0.29,1.17,0.43,1.93,0.43
		c0.37,0,0.74-0.04,1.13-0.11s0.81-0.18,1.27-0.33v0.61c-0.44,0.14-0.85,0.25-1.25,0.32C207.72,18.12,207.33,18.15,206.93,18.15z"/>
	<path class="st0" d="M215.1,8.85V8.27h5.93v0.58H215.1z M217.08,17.99V6.35c0-0.7,0.11-1.27,0.34-1.73
		c0.23-0.46,0.57-0.8,1.02-1.02c0.45-0.22,1.01-0.34,1.68-0.34c0.2,0,0.41,0.01,0.63,0.03c0.22,0.02,0.43,0.04,0.63,0.08v0.61
		c-0.21-0.04-0.42-0.07-0.64-0.09c-0.22-0.02-0.44-0.03-0.66-0.03c-0.79,0-1.39,0.18-1.79,0.55c-0.4,0.37-0.6,1.01-0.6,1.91v11.66
		H217.08z"/>
	<path class="st0" d="M225.9,18.15c-0.88,0-1.64-0.17-2.26-0.51s-1.1-0.88-1.43-1.62c-0.33-0.74-0.49-1.7-0.49-2.9
		c0-1.18,0.15-2.14,0.46-2.88c0.3-0.73,0.72-1.27,1.26-1.62c0.54-0.34,1.16-0.51,1.88-0.51c0.72,0,1.34,0.17,1.86,0.51
		c0.52,0.34,0.92,0.88,1.2,1.62c0.28,0.73,0.42,1.69,0.42,2.88v0.27h-6.77v-0.59h6.37l-0.24,0.23c0-1.06-0.11-1.91-0.34-2.54
		c-0.22-0.63-0.55-1.09-0.97-1.36c-0.42-0.28-0.93-0.41-1.53-0.41c-0.59,0-1.11,0.14-1.55,0.41c-0.44,0.28-0.78,0.73-1.03,1.36
		s-0.36,1.48-0.36,2.55v0.14c0,1.07,0.14,1.92,0.42,2.57c0.28,0.64,0.68,1.11,1.22,1.39c0.53,0.29,1.17,0.43,1.93,0.43
		c0.37,0,0.74-0.04,1.13-0.11s0.81-0.18,1.27-0.33v0.61c-0.44,0.14-0.85,0.25-1.25,0.32C226.69,18.12,226.3,18.15,225.9,18.15z"/>
	<path class="st0" d="M233.3,18.13c-0.86,0-1.55-0.22-2.06-0.67c-0.51-0.44-0.77-1.07-0.77-1.88c0-0.81,0.26-1.44,0.77-1.89
		c0.52-0.45,1.33-0.74,2.46-0.87l2.94-0.35l0.03,0.59l-2.99,0.35c-0.9,0.1-1.55,0.33-1.95,0.67c-0.4,0.34-0.6,0.83-0.6,1.44
		c0,0.65,0.18,1.15,0.55,1.49c0.37,0.34,0.91,0.51,1.64,0.51c0.53,0,1.05-0.12,1.58-0.36c0.52-0.24,0.99-0.63,1.39-1.17v-4.73
		c0-0.68-0.1-1.2-0.31-1.57c-0.21-0.37-0.51-0.63-0.91-0.77s-0.88-0.22-1.45-0.22c-0.37,0-0.78,0.03-1.23,0.1s-0.92,0.19-1.39,0.36
		V8.57c0.38-0.14,0.8-0.25,1.27-0.33s0.92-0.11,1.35-0.11c0.7,0,1.29,0.1,1.78,0.29c0.49,0.19,0.87,0.52,1.12,0.98
		c0.26,0.46,0.39,1.09,0.39,1.89v6.71h-0.54l-0.05-1.15h-0.07c-0.33,0.4-0.75,0.72-1.27,0.95C234.46,18.02,233.9,18.13,233.3,18.13z
		"/>
	<path class="st0" d="M238.38,8.85V8.27h5.93v0.58H238.38z M243.19,18.15c-0.88,0-1.58-0.23-2.08-0.7c-0.5-0.46-0.76-1.22-0.76-2.25
		V8.27l0.07-3.6h0.54v10.42c0,0.9,0.19,1.54,0.58,1.91s0.95,0.56,1.68,0.56c0.2,0,0.4-0.01,0.6-0.04c0.2-0.03,0.43-0.07,0.68-0.13
		V18c-0.23,0.05-0.46,0.09-0.67,0.12C243.63,18.14,243.41,18.15,243.19,18.15z"/>
	<path class="st0" d="M248.93,18.15c-0.58,0-1.09-0.1-1.53-0.31c-0.45-0.2-0.8-0.54-1.05-1.01c-0.25-0.47-0.38-1.1-0.38-1.89V8.27
		h0.61v6.68c0,0.97,0.22,1.65,0.67,2.03c0.44,0.38,1.01,0.58,1.71,0.58c0.34,0,0.71-0.05,1.09-0.16c0.38-0.1,0.76-0.27,1.12-0.51
		c0.36-0.23,0.68-0.54,0.95-0.93v-7.7h0.61v9.72h-0.54l-0.05-1.12h-0.07c-0.42,0.43-0.9,0.75-1.44,0.96S249.51,18.15,248.93,18.15z"
		/>
	<path class="st0" d="M255.78,17.99V8.27h0.54l0.05,1.32h0.07c0.37-0.45,0.82-0.79,1.36-1.04c0.54-0.24,1.08-0.36,1.63-0.36
		c0.15,0,0.28,0,0.4,0.01c0.12,0.01,0.24,0.03,0.36,0.05v0.61c-0.13-0.02-0.25-0.04-0.37-0.04c-0.12,0-0.25,0-0.4,0
		c-0.34,0-0.7,0.06-1.08,0.18c-0.38,0.12-0.73,0.3-1.08,0.54c-0.34,0.24-0.64,0.55-0.88,0.92v7.52H255.78z"/>
	<path class="st0" d="M265.13,18.15c-0.88,0-1.64-0.17-2.26-0.51s-1.1-0.88-1.43-1.62c-0.33-0.74-0.49-1.7-0.49-2.9
		c0-1.18,0.15-2.14,0.46-2.88c0.3-0.73,0.72-1.27,1.26-1.62c0.54-0.34,1.16-0.51,1.88-0.51c0.72,0,1.34,0.17,1.86,0.51
		c0.52,0.34,0.92,0.88,1.2,1.62c0.28,0.73,0.42,1.69,0.42,2.88v0.27h-6.77v-0.59h6.37l-0.24,0.23c0-1.06-0.11-1.91-0.34-2.54
		c-0.22-0.63-0.55-1.09-0.97-1.36c-0.42-0.28-0.93-0.41-1.53-0.41c-0.59,0-1.11,0.14-1.55,0.41c-0.44,0.28-0.78,0.73-1.03,1.36
		s-0.36,1.48-0.36,2.55v0.14c0,1.07,0.14,1.92,0.42,2.57c0.28,0.64,0.68,1.11,1.22,1.39c0.53,0.29,1.17,0.43,1.93,0.43
		c0.37,0,0.74-0.04,1.13-0.11s0.81-0.18,1.27-0.33v0.61c-0.44,0.14-0.85,0.25-1.25,0.32C265.92,18.12,265.53,18.15,265.13,18.15z"/>
	<path class="st0" d="M272.37,18.15c-0.44,0-0.87-0.03-1.26-0.09c-0.4-0.06-0.79-0.15-1.18-0.28v-0.61c0.48,0.14,0.91,0.25,1.3,0.3
		c0.39,0.06,0.78,0.08,1.17,0.08c0.96,0,1.67-0.18,2.12-0.54c0.45-0.36,0.67-0.86,0.67-1.5c0-0.56-0.14-1-0.43-1.3
		c-0.29-0.3-0.76-0.52-1.44-0.67l-1.16-0.25c-0.87-0.2-1.49-0.52-1.85-0.94c-0.36-0.43-0.54-0.96-0.54-1.6
		c0-0.76,0.28-1.38,0.84-1.89c0.56-0.5,1.42-0.75,2.59-0.75c0.38,0,0.75,0.02,1.09,0.06s0.68,0.11,1.03,0.21v0.61
		c-0.4-0.11-0.76-0.19-1.08-0.23c-0.32-0.04-0.67-0.06-1.04-0.06c-0.67,0-1.2,0.09-1.61,0.27c-0.41,0.18-0.71,0.42-0.9,0.72
		c-0.19,0.3-0.28,0.65-0.28,1.03c0,0.49,0.13,0.89,0.4,1.21c0.26,0.32,0.73,0.56,1.4,0.71l1.16,0.25c0.92,0.2,1.56,0.52,1.92,0.94
		c0.36,0.42,0.54,0.96,0.54,1.62c0,0.82-0.29,1.47-0.86,1.96C274.38,17.91,273.52,18.15,272.37,18.15z"/>
</g>
</svg>
