<?xml version="1.0" encoding="utf-8"?>
<!-- Generator: Adobe Illustrator 25.0.0, SVG Export Plug-In . SVG Version: 6.00 Build 0)  -->
<svg version="1.1" id="Calque_1" xmlns="http://www.w3.org/2000/svg" xmlns:xlink="http://www.w3.org/1999/xlink" x="0px" y="0px"
	 viewBox="0 0 168.41 109.45" style="enable-background:new 0 0 168.41 109.45;" xml:space="preserve">
<style type="text/css">
	.st0{fill:#242424;}
	.st1{fill:#020203;}
	.st2{fill:url(#SVGID_1_);}
	.st3{fill:url(#SVGID_2_);}
</style>
<g>
	<path class="st0" d="M87.02,93.5h-2.87v6.41h-3.61V82.4h6.5c2.07,0,3.66,0.46,4.78,1.38c1.12,0.92,1.68,2.22,1.68,3.91
		c0,1.19-0.26,2.19-0.78,2.99c-0.52,0.8-1.3,1.43-2.35,1.91l3.79,7.15v0.17H90.3L87.02,93.5z M84.15,90.58h2.91
		c0.91,0,1.61-0.23,2.1-0.69s0.75-1.1,0.75-1.91c0-0.83-0.23-1.47-0.7-1.95s-1.19-0.71-2.16-0.71h-2.9V90.58z"/>
	<path class="st0" d="M102.01,100.15c-1.91,0-3.46-0.58-4.66-1.75c-1.2-1.17-1.8-2.73-1.8-4.68v-0.34c0-1.31,0.25-2.47,0.76-3.5
		c0.5-1.03,1.22-1.82,2.15-2.38c0.93-0.56,1.98-0.84,3.17-0.84c1.78,0,3.18,0.56,4.2,1.68c1.02,1.12,1.53,2.71,1.53,4.77v1.42h-8.28
		c0.11,0.85,0.45,1.53,1.02,2.04c0.57,0.51,1.28,0.77,2.15,0.77c1.34,0,2.38-0.48,3.14-1.45l1.71,1.91
		c-0.52,0.74-1.23,1.31-2.12,1.72C104.08,99.94,103.09,100.15,102.01,100.15z M101.61,89.46c-0.69,0-1.25,0.23-1.68,0.7
		s-0.7,1.14-0.82,2h4.83v-0.28c-0.02-0.77-0.22-1.37-0.62-1.79C102.92,89.67,102.35,89.46,101.61,89.46z"/>
	<path class="st0" d="M116.37,96.31c0-0.42-0.21-0.76-0.63-1c-0.42-0.25-1.1-0.46-2.03-0.66c-3.09-0.65-4.64-1.96-4.64-3.94
		c0-1.15,0.48-2.12,1.44-2.89c0.96-0.77,2.21-1.16,3.76-1.16c1.65,0,2.97,0.39,3.96,1.17c0.99,0.78,1.48,1.79,1.48,3.03h-3.47
		c0-0.5-0.16-0.91-0.48-1.23c-0.32-0.32-0.82-0.49-1.5-0.49c-0.58,0-1.04,0.13-1.36,0.4s-0.48,0.6-0.48,1.01
		c0,0.38,0.18,0.7,0.55,0.93c0.36,0.24,0.98,0.44,1.84,0.61c0.87,0.17,1.59,0.37,2.19,0.58c1.84,0.67,2.75,1.84,2.75,3.5
		c0,1.19-0.51,2.15-1.53,2.88s-2.33,1.1-3.94,1.1c-1.09,0-2.06-0.19-2.9-0.58s-1.51-0.92-1.99-1.6c-0.48-0.68-0.72-1.41-0.72-2.19
		h3.29c0.03,0.62,0.26,1.09,0.68,1.42c0.42,0.33,0.99,0.49,1.71,0.49c0.67,0,1.17-0.13,1.51-0.38
		C116.2,97.05,116.37,96.72,116.37,96.31z"/>
	<path class="st0" d="M129.78,98.58c-0.86,1.04-2.04,1.56-3.56,1.56c-1.39,0-2.46-0.4-3.19-1.2c-0.73-0.8-1.11-1.98-1.12-3.52V86.9
		h3.47v8.41c0,1.36,0.62,2.03,1.85,2.03c1.18,0,1.99-0.41,2.43-1.23V86.9h3.49v13.01h-3.27L129.78,98.58z"/>
	<path class="st0" d="M139.02,86.9l0.11,1.46c0.92-1.13,2.17-1.7,3.74-1.7c1.67,0,2.83,0.66,3.45,1.98
		c0.91-1.32,2.22-1.98,3.91-1.98c1.41,0,2.46,0.41,3.15,1.23c0.69,0.82,1.03,2.06,1.03,3.71v8.31h-3.49v-8.29
		c0-0.74-0.14-1.28-0.43-1.62c-0.29-0.34-0.8-0.51-1.53-0.51c-1.04,0-1.76,0.5-2.16,1.49l0.01,8.93h-3.47v-8.28
		c0-0.75-0.15-1.3-0.44-1.63c-0.3-0.34-0.8-0.5-1.51-0.5c-0.99,0-1.7,0.41-2.14,1.23v9.2h-3.47V86.9H139.02z"/>
	<path class="st0" d="M163.06,100.15c-1.91,0-3.46-0.58-4.66-1.75s-1.8-2.73-1.8-4.68v-0.34c0-1.31,0.25-2.47,0.76-3.5
		c0.5-1.03,1.22-1.82,2.15-2.38c0.93-0.56,1.98-0.84,3.17-0.84c1.78,0,3.18,0.56,4.2,1.68c1.02,1.12,1.53,2.71,1.53,4.77v1.42h-8.28
		c0.11,0.85,0.45,1.53,1.02,2.04c0.56,0.51,1.28,0.77,2.15,0.77c1.34,0,2.38-0.48,3.14-1.45l1.71,1.91
		c-0.52,0.74-1.23,1.31-2.12,1.72C165.13,99.94,164.15,100.15,163.06,100.15z M162.67,89.46c-0.69,0-1.25,0.23-1.68,0.7
		s-0.7,1.14-0.82,2H165v-0.28c-0.02-0.77-0.22-1.37-0.62-1.79C163.97,89.67,163.4,89.46,162.67,89.46z"/>
</g>
<g>
	<path class="st1" d="M77.38,48.98c-0.29,0.32-1.26,0.73-1.9,0.9c-2.08,0.57-4.9,0.32-8.95-0.23c1.37-0.49,2.61-0.88,3.76-1.2
		c2.08-0.57,2.69-0.74,4.88-0.79C77.35,47.61,77.66,48.67,77.38,48.98L77.38,48.98z M41.31,59.26c0.42-1.63,0.83-3.36,1.23-5.19
		c0.98-4.45,1.45-7.87,1.72-10.64c2.9,2.98,6.13,5.29,9.59,6.91c0.44,0.21,0.89,0.39,1.37,0.58C49.8,53.65,45.22,56.4,41.31,59.26z
		 M37.86,20.62c1.14-0.32,2.59,2.37,3.39,5.07c0.79,2.68,0.69,4.73,0.29,6.36c-1.23-1.9-2.43-5.08-3.02-7.22
		C38.51,24.82,37.34,20.76,37.86,20.62z M29.66,78.45c0.17-1.95,1.76-6.15,4.69-10.3c0.18-0.25,0.62-0.97,1.02-1.62
		C33.16,73.94,31.19,77.17,29.66,78.45L29.66,78.45z M77.45,44.96c-1.45-0.81-4.17-0.7-8.05,0.32c-2.63,0.69-5.71,1.79-8.92,3.16
		c-1.72-0.45-3.5-0.95-5.02-1.75c-4.06-2.14-7.91-5.58-10.86-9.73c-0.02-0.46-0.02-0.86-0.04-1.27c0,0-1.03-10.84-2.48-14.2
		c-0.2-0.47-0.27-0.59-0.51-0.93l-0.27-0.38c-0.8-1-2.11-1.94-3.62-1.46l-0.9,0.22l-0.02,0c-1.7,0.47-2.85,1.72-2.85,3.11
		c0.02,4.39,2.84,10.16,7.08,17.48l-0.18,1.44c-0.49,4.01-1.34,8.15-2.09,11.79l-0.1,0.48c-0.79,3.84-1.56,7.12-2.31,9.93
		l-1.25,1.18c-0.08,0.1-2.23,2.1-2.72,2.61c-4.16,4.35-6.53,8.64-6.34,11.48c0.06,0.89,0.49,1.95,1.52,2.22L29.13,81
		c0.69,0.13,1.39,0.11,2.05-0.08c3.55-0.98,6.45-6.52,9.39-17.98c5.97-3.94,12.94-7.78,19.21-10.56c5.75,1.44,12.41,1.7,16.27,0.64
		c0.69-0.19,1.26-0.42,1.71-0.69c0.69-0.39,1.2-0.98,1.42-1.68c0.43-1.33,0.17-2.92-0.49-4.46C78.52,45.74,77.97,45.26,77.45,44.96
		L77.45,44.96z"/>
	<path class="st1" d="M73.58,10.76l-15.31-8.7c-3.34-1.89-9.09-2.61-12.79-1.59L5.12,11.58c-3.7,1.02-5.89,4.88-4.87,8.58
		l20.01,72.63c1.02,3.7,4.88,5.89,8.58,4.87l61.87-17.05c3.7-1.02,5.89-4.88,4.87-8.58L81.5,20.93
		C80.48,17.23,76.93,12.65,73.58,10.76z M54.34,6.39c0.44,0.15,0.83,0.33,1.17,0.52l15.31,8.7c0.34,0.19,0.68,0.44,1.04,0.75
		l-13.74,3.78L54.34,6.39z M90.21,73.52c0.2,0.72-0.25,1.52-0.97,1.72L27.36,92.29c-0.73,0.2-1.52-0.25-1.72-0.97L5.63,18.68
		c-0.2-0.73,0.24-1.51,0.97-1.72L46.96,5.84c0.4-0.11,0.87-0.19,1.38-0.23L54.23,27l21.37-5.89c0.24,0.46,0.41,0.9,0.52,1.3
		L90.21,73.52z"/>
</g>
<g>
	<linearGradient id="SVGID_1_" gradientUnits="userSpaceOnUse" x1="25.9914" y1="103.5808" x2="79.3948" y2="103.5808">
		<stop  offset="0" style="stop-color:#FFFFFF"/>
		<stop  offset="1" style="stop-color:#000000"/>
	</linearGradient>
	<path class="st2" d="M77.45,104.16c-1.45,0.1-4.17,0.08-8.05-0.04c-2.63-0.08-5.71-0.21-8.92-0.37c-1.72,0.05-3.5,0.11-5.02,0.21
		c-4.06,0.25-7.91,0.66-10.86,1.15c-0.02,0.05-0.02,0.1-0.04,0.15c0,0-1.03,1.28-2.48,1.67c-0.2,0.06-0.27,0.07-0.51,0.11
		l-0.27,0.04c-0.8,0.12-2.11,0.23-3.62,0.17l-0.9-0.03l-0.02,0c-1.7-0.06-2.85-0.2-2.85-0.37c0.02-0.52,2.84-1.2,7.08-2.06
		l-0.18-0.17c-0.49-0.47-1.34-0.96-2.09-1.39l-0.1-0.06c-0.79-0.45-1.56-0.84-2.31-1.17l-1.25-0.14c-0.08-0.01-2.23-0.25-2.72-0.31
		c-4.16-0.51-6.53-1.02-6.34-1.35c0.06-0.1,0.49-0.23,1.52-0.26l1.61-0.04c0.69-0.02,1.39-0.01,2.05,0.01
		c3.55,0.12,6.45,0.77,9.39,2.12c5.97,0.46,12.94,0.92,19.21,1.24c5.75-0.17,12.41-0.2,16.27-0.07c0.69,0.02,1.26,0.05,1.71,0.08
		c0.69,0.05,1.2,0.12,1.42,0.2c0.43,0.16,0.17,0.34-0.49,0.53C78.52,104.06,77.97,104.12,77.45,104.16z M29.66,100.21
		c0.17,0.23,1.76,0.72,4.69,1.21c0.18,0.03,0.62,0.11,1.02,0.19C33.16,100.74,31.19,100.36,29.66,100.21z M38.51,106.53
		c0,0-1.17,0.48-0.65,0.5c1.14,0.04,2.59-0.28,3.39-0.6c0.79-0.32,0.69-0.56,0.29-0.75C40.3,105.9,39.1,106.28,38.51,106.53z
		 M41.31,102.47c0.42,0.19,0.83,0.4,1.23,0.61c0.98,0.52,1.45,0.93,1.72,1.25c2.9-0.35,6.13-0.62,9.59-0.81
		c0.44-0.02,0.89-0.05,1.37-0.07C49.8,103.13,45.22,102.81,41.31,102.47z M77.38,103.68c-0.29-0.04-1.26-0.09-1.9-0.11
		c-2.08-0.07-4.9-0.04-8.95,0.03c1.37,0.06,2.61,0.1,3.76,0.14c2.08,0.07,2.69,0.09,4.88,0.09
		C77.35,103.84,77.66,103.72,77.38,103.68z"/>
	<linearGradient id="SVGID_2_" gradientUnits="userSpaceOnUse" x1="0" y1="103.685" x2="95.8364" y2="103.685">
		<stop  offset="0" style="stop-color:#FFFFFF"/>
		<stop  offset="1" style="stop-color:#000000"/>
	</linearGradient>
	<path class="st3" d="M95.59,100.97l-14.08,6.02c-1.02,0.44-4.58,0.97-7.92,1.2l-15.31,1.03c-3.34,0.22-9.09,0.31-12.79,0.19
		l-40.35-1.31c-3.7-0.12-5.89-0.57-4.87-1.01l20.01-8.56c1.02-0.44,4.88-0.69,8.58-0.57l61.87,2.01
		C94.41,100.07,96.61,100.53,95.59,100.97z M55.52,108.64l15.31-1.02c0.34-0.02,0.68-0.05,1.04-0.09l-13.74-0.45l-3.79,1.62
		C54.78,108.68,55.17,108.66,55.52,108.64z M89.23,100.59l-61.87-2.01c-0.73-0.02-1.52,0.03-1.72,0.11l-20.01,8.56
		c-0.2,0.09,0.24,0.18,0.97,0.2l40.35,1.31c0.4,0.01,0.87,0.02,1.38,0.03l5.89-2.52l21.37,0.69c0.24-0.05,0.41-0.11,0.52-0.15
		l14.08-6.02C90.41,100.71,89.95,100.61,89.23,100.59z"/>
</g>
</svg>
