<?xml version="1.0" encoding="utf-8"?>
<!-- Generator: Adobe Illustrator 25.0.0, SVG Export Plug-In . SVG Version: 6.00 Build 0)  -->
<svg version="1.1" id="Calque_1" xmlns="http://www.w3.org/2000/svg" xmlns:xlink="http://www.w3.org/1999/xlink" x="0px" y="0px"
	 viewBox="0 0 368.5 396.85" style="enable-background:new 0 0 368.5 396.85;" xml:space="preserve">
<style type="text/css">
	.st0{fill:#242424;}
	.st1{clip-path:url(#SVGID_2_);}
	.st2{fill:#FFFFFF;}
	.st3{fill:none;}
	.st4{fill:#EC6608;stroke:#242424;stroke-width:10;stroke-miterlimit:10;}
	.st5{fill:#EC6608;stroke:#FFFFFF;stroke-width:3;stroke-miterlimit:10;}
</style>
<g>
	<path class="st0" d="M150.96,386.8L150.96,386.8c-78.28,0-141.73-63.46-141.73-141.73v0c0-78.28,63.46-141.73,141.73-141.73h0
		c78.28,0,141.73,63.46,141.73,141.73v0C292.69,323.35,229.24,386.8,150.96,386.8z"/>
</g>
<g>
	<defs>
		<path id="SVGID_1_" d="M150.96,386.8L150.96,386.8c-78.28,0-141.73-63.46-141.73-141.73v0c0-78.28,63.46-141.73,141.73-141.73h0
			c78.28,0,141.73,63.46,141.73,141.73v0C292.69,323.35,229.24,386.8,150.96,386.8z"/>
	</defs>
	<clipPath id="SVGID_2_">
		<use xlink:href="#SVGID_1_"  style="overflow:visible;"/>
	</clipPath>
	<g class="st1">
		<g>
			<path class="st2" d="M113.32,159.91c0.7-0.8,1.55-1.52,2.07-2.42c3.1-5.33,6.96-10,12.28-13.19c3-1.8,6.33-3.05,9.88-4.72
				c-0.57,2.87-1.04,5.21-1.51,7.56c0.18,0.04,0.36,0.08,0.53,0.13c0.77-2.99,1.66-5.95,2.27-8.97c0.41-2.04,1.38-2.85,3.45-2.8
				c4.4,0.11,8.8,0.16,13.19,0.04c2.27-0.06,3.73,1.09,5.07,2.61c0.83,0.93,1.59,2.31,2.99,1.56c0.71-0.38,1.04-1.62,1.39-2.53
				c0.33-0.85,0.82-1.89,0.59-2.64c-0.36-1.17-0.98-2.38-2.67-2.47c-2.96-0.17-5.92-0.54-8.89-1.23c2.25,0,4.5,0,6.75,0
				c0.07-0.25,0.13-0.5,0.2-0.75c-1.33-0.64-2.61-1.4-3.99-1.91c-3.68-1.36-3.69-1.32-4.17,2.55c-0.02,0.2-0.16,0.38-0.52,1.23
				c-0.3-2.22-0.52-3.84-0.74-5.46c-0.27-0.05-0.55-0.1-0.82-0.15c-0.28,1.11-0.76,2.22-0.79,3.34c-0.04,1.33-0.5,1.81-1.79,1.86
				c-4.99,0.19-9.98,0.45-14.99,0.4c4.52-0.38,9.04-0.91,13.58-1.09c2.09-0.08,2.73-0.86,2.6-2.76c-0.14-2.14-1.71-1.67-2.94-1.58
				c-6.25,0.43-12.09,2.28-17.64,5.13c-0.32,0.17-0.66,0.31-1,0.45c-0.33,0.13-0.67,0.22-1,0.33c-0.09-0.22-0.19-0.43-0.28-0.65
				c3.38-1.53,6.69-3.24,10.15-4.55c4.32-1.65,8.89-1.93,13.49-2.47c12.09-1.39,22.21,3.19,31.81,9.26
				c9.61,6.07,16.34,14.82,20.93,25.27c2.35,5.34,4.57,10.69,5.46,16.47c0.42,2.74,0.49,5.54,0.58,8.32
				c0.09,2.89-0.02,5.79,0.04,8.68c0.01,0.6,0.43,1.18,0.55,1.8c0.13,0.68,0.1,1.4,0.2,2.09c0.09,0.67,0.05,1.57,0.45,1.92
				c0.46,0.4,1.42,0.53,2.02,0.34c0.41-0.13,0.87-1.05,0.81-1.55c-0.3-2.42,0.93-2.74,2.89-2.41c0.94,0.15,1.92,0.21,2.86,0.1
				c1.8-0.22,2.34,0.7,2.41,2.27c0.18,3.86,0.47,7.71,0.57,11.57c0.15,5.94,0.32,11.88,0.24,17.82c-0.11,8.44-0.43,16.88-0.67,25.62
				c0.79-0.04,1.62-0.16,2.46-0.12c1.64,0.06,2.09-0.69,2.07-2.28c-0.12-8.53-0.11-17.06-0.19-25.59
				c-0.07-7.72-0.16-15.43-0.3-23.14c-0.03-1.39-0.3-2.77-0.53-4.15c-0.21-1.29,0.19-1.9,1.58-1.98c3.89-0.22,4.39,0.09,4.56,4.41
				c0.35,9.1,0.55,18.21,0.8,27.32c0.04,1.31,0,2.62,0,3.85c4.34,1.26,4.36,1.26,4.17,5.73c-0.13,3.08-0.36,6.16-0.47,9.25
				c-0.05,1.28-0.42,2.11-1.63,2.82c-2.76,1.62-2.68,5.13,0.03,6.77c2.79,1.69,2.76,6.41-0.05,8.25c-2.51,1.65-3.06,3.78-1.78,6.54
				c0.26,0.57,0.39,1.27,0.34,1.9c-0.26,3.68-0.79,7.35-0.84,11.03c-0.07,5.57,0.19,11.14,0.28,16.71c0.04,2.57,0.05,5.15-0.04,7.72
				c-0.03,0.88-0.43,1.74-0.72,2.84c0.57,0.09,1.47,0.24,2.71,0.45c-1.04,0.41-1.84,0.73-2.76,1.09c-0.31,6.1-0.75,12.25-0.88,18.4
				c-0.04,2.07,0.89,4.14,1.03,6.24c0.09,1.41,0.3,2.4,1.38,3.48c1.61,1.62,1.4,4.08-0.44,5.71c-1.74,1.54-1.9,3.39-1.72,5.39
				c0.05,0.52,0.58,1.02,0.94,1.48c0.17,0.21,0.7,0.33,0.69,0.47c-0.14,2.88,3.2,3.92,3.46,6.6c0.15,1.53,1.11,1.95,2.65,1.81
				c2.85-0.27,3.06-0.09,3.19,2.75c0.21,4.76,0.03,9.55,0.5,14.28c0.29,2.87,1.28,5.74,2.35,8.45c1.59,4.04-0.79,7.04-2.19,10.34
				c-0.45,1.07-1.19,2.14-1.23,3.23c-0.18,4.63,0.31,4.54-4.32,4.87c-8.02,0.57-16.12,0.07-24.18-0.07
				c-2.32-0.04-4.85,0.08-6.43-2.13c-0.63-0.87-1.17-2-1.22-3.04c-0.07-1.32-0.43-1.77-1.76-1.86c-4.01-0.26-5.57-1.62-6.07-5.69
				c-0.38-3.07-1.13-5.38-4.45-6.69c-3.77-1.49-5.3-4.88-5.26-8.9c0.11-10.35-0.24-20.74,0.55-31.03
				c0.59-7.78,6.11-10.54,13.73-7.99c0.54,0.18,1.04,0.46,1.9,0.85c-0.37-0.84-0.58-1.34-0.83-1.91c0.31,0,0.59-0.06,0.84,0.01
				c1.82,0.49,3.65,1.46,5.42-0.04c0.5-0.42,1.18-1.01,1.21-1.55c0.2-3.67,0.36-7.35,0.32-11.02c-0.03-3.58-0.31-7.16-0.6-10.74
				c0,2.13-0.07,4.25,0.02,6.38c0.08,1.64-0.69,2.19-2.19,2.32c-2.27,0.2-4.53,0.48-6.77,0.83c-0.55,0.09-1.23,0.45-1.52,0.9
				c-2.9,4.42-5.66,8.94-8.65,13.3c-0.64,0.93-2,1.79-3.12,1.91c-3.94,0.43-7.91,0.53-11.87,0.76c0.08,0.18,0.17,0.37,0.25,0.55
				c-1.13,0.59-2.31,1.1-3.37,1.79c-0.55,0.36-1.32,1.07-1.26,1.55c0.56,4.86-2.37,6.4-6.88,7.53c-1.68,0.42-3.5,0.35-5.26,0.37
				c-5.07,0.06-10.16,0.27-15.22-0.01c-2.56-0.14-5.18-0.93-7.54-1.96c-1.09-0.47-1.84-2.13-2.35-3.41
				c-0.41-1.04-0.25-2.31-0.35-3.7c-0.73-0.06-1.43-0.09-2.13-0.19c-0.5-0.07-1.33-0.13-1.42-0.39c-0.78-2.4-2.75-1.65-4.39-1.76
				c-3.14-0.21-6.29-0.42-9.43-0.55c-0.5-0.02-1.34,0.23-1.44,0.54c-0.19,0.6-0.23,1.6,0.14,1.97c1.35,1.38,1.24,3.05,1.24,4.71
				c0.02,10.01,0.05,20.02,0,30.03c-0.02,4.32-1.36,8.28-5.71,9.8c-4.34,1.51-5.03,5.07-5.87,8.57c-0.87,3.62-0.66,3.67-4.46,3.85
				c-0.19,0.01-0.38,0.09-0.57,0.14c-0.04,0.22-0.09,0.43-0.13,0.65c1.24,0.27,2.48,0.6,3.74,0.81c1.3,0.21,3.25-0.42,3.4,1.42
				c0.05,0.67-1.89,1.98-3.06,2.2c-5.69,1.05-11.39,1.86-17.27,1.44c-6-0.42-12.05-0.05-18.08-0.02c-0.92,0-1.84,0-3.14,0
				c0.63-1.2,1.03-1.94,1.43-2.69c-0.17-0.18-0.34-0.36-0.51-0.55c-0.36,0.56-0.6,1.4-1.11,1.62c-0.72,0.32-1.71,0.4-2.44,0.16
				c-0.46-0.15-0.86-1.03-0.97-1.64c-0.16-0.93,0.12-1.94-0.09-2.85c-0.22-0.96-0.59-2.04-1.26-2.72c-1.75-1.79-3.11-7.38-2.23-9.75
				c1.43-3.89,3.02-7.75,4.1-11.74c0.52-1.93-0.14-4.14,0.06-6.19c0.24-2.42,0.77-4.82,1.34-7.19c0.09-0.37,1.09-0.8,1.6-0.72
				c1.95,0.29,2.67-0.82,3.4-2.33c0.57-1.18,1.6-2.13,2.33-3.24c0.29-0.44,0.33-1.04,0.5-1.56c0.15-0.46,0.18-1.07,0.5-1.34
				c2.54-2.24,2.49-5.33,0.08-7.69c-0.85-0.84-1.45-2.24-1.59-3.45c-0.22-2,1.29-3.3,3.17-3.31c0-1.77-0.45-3.67,0.08-5.24
				c2-5.86,0.4-11.71,0.43-17.56c0.01-1.31,0.12-2.61,0.19-4.1c-0.81-0.24-1.7-0.5-2.58-0.76c0-0.11,0-0.22,0-0.34
				c1.76,0,3.51,0,5.89,0c-4.52-1.5-4.51-1.5-4.55-6.05c-0.03-3.97-0.14-7.94-0.08-11.91c0.04-3.04,0.4-6.08,0.41-9.13
				c0.01-1.94-0.38-3.88-0.55-5.83c-0.17-2.04-0.46-4.09-0.37-6.12c0.06-1.26,0.82-2.47,1.08-3.73c0.37-1.83-0.39-3.03-2.02-4.1
				c-1.08-0.71-2.21-2.24-2.26-3.44c-0.07-1.8-0.43-4.2,2.21-5.03c0.31-0.1,0.77-0.45,0.76-0.67c-0.04-1.24-0.42-2.5-0.27-3.7
				c0.19-1.58-0.6-2.22-1.78-2.89c-0.46-0.26-0.87-1-0.9-1.55c-0.21-3.45-0.37-6.9-0.42-10.35c-0.03-2.17,1.08-2.9,3.52-1.95
				c0-6.27-0.1-12.34,0.03-18.4c0.1-4.25,0.42-8.51,0.82-12.75c0.3-3.16,1.8-3.17,5-2.45c0.23-1.28,0.46-2.55,0.72-4
				c-1.46-0.1-2.71-0.18-3.96-0.27c0-0.18,0-0.36,0-0.54c1.18,0,2.4-0.14,3.54,0.08c0.42,0.08,1.05,1.09,0.96,1.55
				c-2.14,10.35-0.94,20.82-1.16,31.23c-0.17,8.37,0.02,16.75,0.17,25.13c0.03,1.87,0.55,3.73,0.85,5.59
				c0.28-0.02,0.55-0.04,0.83-0.07c-0.11-1.27-0.32-2.54-0.29-3.8c0.02-0.73,0.44-1.45,0.65-2.18c0.17-0.6,0.44-1.21,0.43-1.81
				c-0.34-15.59,0.06-31.15,1.5-46.68c0.01-0.15,0.02-0.29,0.04-0.44c0.58-4.16,0.84-4.35,5.05-3.45c1.51,0.32,2.39-0.1,2.58-1.71
				c0.1-0.86,0.3-1.72,0.51-2.91c-2.37,0-4.62,0-6.88,0c0-0.18,0-0.35,0-0.53c2.16-0.11,4.33-0.32,6.49-0.26
				c0.4,0.01,1.13,1.11,1.09,1.67c-0.12,1.71,0.78,2.71,2.19,2.63c1.41-0.08,2.1-1.25,1.77-2.84c-0.1-0.5,0.1-1.44,0.42-1.58
				c3-1.35,1.56-3.76,1.49-5.84c-0.04-1.46-0.21-2.93-0.13-4.39c0.45-8.75,1.71-17.33,5.25-25.45c0.25-0.57,0.58-1.11,1.14-1.56
				c-0.41,1.22-0.82,2.44-1.36,4.04c3.2-0.77,6.13-1.51,9.09-2.14c0.83-0.18,1.73-0.01,2.61,0.02c-1.72,6.72-2.91,13.5-2.51,20.46
				c0.31-0.17,0.44-0.36,0.47-0.56c0.63-5.44,1.26-10.87,1.86-16.31C113.3,162.33,113.27,161.11,113.32,159.91z M156.82,240.06
				l0.1,0.06c-0.47-0.3-0.94-0.86-1.42-0.87c-2.85-0.04-5.75-0.23-8.54,0.19c-2.57,0.39-4.61,2.92-4.67,5.23
				c-0.08,3.08-0.04,6.17,0.16,9.25c0.15,2.27,0.94,4.4,3.26,5.35c3.42,1.41,6.92,1.55,10.43,0.21c0.97-0.53,1.94-1.06,2.91-1.59
				c0.61-1.28,1.65-2.54,1.74-3.86c0.22-3.06,0.19-6.17-0.14-9.22C160.4,242.61,159.45,240.54,156.82,240.06z M99.87,221.99
				c-0.09,0.01-0.18,0.01-0.27,0.02c0,0.71,0,1.42,0,2.13c0.05,18.87,0.08,37.74,0.17,56.61c0.03,5.66,0.11,5.65,5.6,5.52
				c2.76-0.07,2.89-0.21,2.89-3.1c0.07-25.27,0.14-50.54,0.22-75.81c0.01-3.02-0.02-3.06-3.14-2.56c-6.14,0.98-6.32,1.31-5.58,7.57
				c0.4,3.44,0.52,6.9,0.77,10.36c-0.13,0.01-0.26,0.01-0.39,0.02C100.05,222.49,99.96,222.24,99.87,221.99z M94.53,247.12
				c-3.1-0.71-3.12-0.71-3.34,1.85c-0.09,1.09-0.11,2.2-0.08,3.29c0.15,4.48,0.45,8.95,0.5,13.43c0.16,13.66,0.22,27.33,0.38,40.99
				c0.01,0.89,0.57,1.77,0.9,2.73c0.16-0.06-0.17,0.06-1.19,0.44c2.49,0.11,2.76,1.31,2.7,2.75c-0.12,2.86-0.3,5.72-0.33,8.58
				c-0.05,5.05-0.02,10.09-0.02,15.14c0.03,0.01,0.06,0.01,0.09,0.02c0.15-1.97,0.3-3.95,0.45-5.92c0.18,0.01,0.37,0.02,0.55,0.03
				c0,1.61-0.2,3.25,0.08,4.81c0.17,0.94,0.93,2.27,1.7,2.5c1.68,0.51,3.67,0.91,5.31,0.48c3.14-0.83,6.06-0.53,9.09,0.28
				c0.8,0.21,1.78-0.23,3.14-0.44c-2.24-3.32-4.14-6.09-6-8.89c-1.27-1.92-2.06-4.59-3.83-5.63c-1.9-1.12-4.68-0.81-7.09-1
				c-1.66-0.13-2.18-0.88-2.16-2.51c0.06-5.93,0.11-11.86-0.06-17.79c-0.08-2.81-0.8-5.59-0.97-8.41c-0.2-3.31-0.13-6.64-0.13-9.97
				c-0.01-10.66-0.01-21.31,0.02-31.97C94.25,250.29,94.44,248.67,94.53,247.12z M144.51,208.54c-0.6,2.33,0.7,2.32,2.02,2.32
				c7.85,0.02,15.71,0.17,23.56,0c3.69-0.08,7.35-0.84,11.04-1.23c1.11-0.12,2.23,0.12,2.22-1.62c-0.01-1.52-0.47-2.38-2.11-2.38
				c-0.72,0-1.53,0.02-2.15-0.27c-3.57-1.65-7.34-1.84-11.19-1.83c-5.21,0.02-10.42-0.13-15.63-0.19c-2.4-0.03-4.79,0-7.09,0
				c-0.3,0.96-0.5,1.57-0.77,2.43c-3.27-0.3-6.52-0.59-9.84-0.89c0,1.78,0,3.38,0,5.09C137.95,209.48,141.05,209.04,144.51,208.54z
				 M118.78,226.7c2.1,0,4.13-0.12,6.13,0.03c3.1,0.23,6.18,0.93,9.27,0.94c6.54,0.02,13.07-0.33,19.61-0.44
				c4.63-0.08,4.72-0.18,4.42-4.85c-0.12-1.92-0.72-2.59-2.77-2.58c-12.21,0.05-24.47-0.9-36.65,2.92
				C118.78,223.69,118.78,225.19,118.78,226.7z M95.88,375.25c-0.39-0.03-0.76,0.01-1.07-0.11c-6.54-2.47-12.36-0.78-17.85,2.99
				c-1.46,1.01-1.56,2.48-1.1,3.92c0.19,0.59,1.36,1.46,1.66,1.31c1.08-0.52,2.01-1.37,2.93-2.18c0.77-0.68,1.3-1.77,2.17-2.18
				c5.73-2.69,11.11-1.67,16.24,1.75c2.19,1.46,4.47,2.83,6.83,3.97c1.62,0.79,3.93-0.22,4.41-1.78c0.19-0.61-0.13-1.51-0.51-2.09
				c-0.14-0.22-1.12,0.07-1.7,0.19c-0.76,0.16-1.74,0.77-2.22,0.49c-2.59-1.5-4.94-3.14-6.27-6.16c-1.22-2.76-2.97-5.41-5-7.64
				c-3.85-4.24-13.81-5.95-17.87,0.3c-0.59,0.91-0.42,2.43-0.3,3.63c0.03,0.34,1.4,0.98,1.67,0.79c0.99-0.69,1.79-1.67,2.65-2.55
				c0.69-0.71,1.26-1.72,2.09-2.06c0.96-0.38,2.17-0.27,3.26-0.19C90.3,367.99,95,371.55,95.88,375.25z M206.9,373.57
				c4.1-2.73,8.01-4.33,12.37-4.51c0.71-0.03,1.48,0.69,2.16,1.16c0.78,0.53,1.42,1.49,2.24,1.66c0.6,0.12,1.92-0.64,2-1.16
				c0.16-0.94-0.25-2.05-0.65-2.98c-0.19-0.44-0.89-0.75-1.42-0.96c-5.72-2.19-10.97-0.95-15.75,2.49
				c-4.1,2.95-7.03,7.47-12.23,8.94c-1.04,0.29-2.05,0.85-2.92,1.51c-0.48,0.36-0.61,1.17-0.9,1.78c0.67,0.3,1.41,0.95,1.99,0.83
				c1.12-0.23,2.12-0.99,3.23-1.35c1.05-0.35,2.17-0.48,3.26-0.71c1.24-0.51,2.32-1.68,3.63-2.13c5.39-1.83,10.8-2.03,15.97,0.82
				c0.6,0.33,0.85,1.26,1.36,1.82c0.68,0.73,1.37,1.65,2.24,1.92c0.49,0.16,1.87-0.74,1.92-1.26c0.12-1.12,0.03-2.86-0.67-3.35
				c-3.73-2.64-7.74-4.81-12.52-4.74C210.63,373.35,209.03,373.47,206.9,373.57z M131.84,158.49c-3.06,0.24-6.12,0.43-9.15,0.79
				c-0.48,0.06-1.14,0.86-1.23,1.4c-0.55,3.25-1.04,6.51-1.38,9.79c-0.28,2.73-0.32,5.48-0.47,8.22c3.54-0.19,6.69-0.28,9.82-0.6
				c0.5-0.05,1.26-1.07,1.3-1.69C131.16,170.56,131.47,164.72,131.84,158.49z M111.26,160.58c-3.01,0.7-6.19,1.39-9.33,2.21
				c-0.43,0.11-0.86,0.79-1.02,1.29c-1.56,4.94-2.21,9.99-1.89,15.18c0.09,1.42,0.7,1.82,1.92,1.64c1.88-0.28,3.75-0.73,5.64-0.89
				c1.66-0.14,2.28-1,2.47-2.5C109.75,172.01,110.48,166.51,111.26,160.58z M186.24,167.6c-0.02-0.15-0.12-0.51-0.1-0.87
				c0.2-3.2-5.11-6.24-8.45-6.92c-1.5-0.3-3.47-0.12-4.75,0.64c-3.64,2.16-4.62,5.68-3.15,9.24c1.27,3.08,3.96,4.65,6.64,6.12
				c0.74,0.4,2.05-0.15,3.08-0.37C182.38,174.8,186.2,170.43,186.24,167.6z M167.84,320.9c2.83,0,5.54,0.07,8.23-0.06
				c0.46-0.02,1.27-0.86,1.28-1.33c0.09-5.26,0.06-10.52,0.06-16.27c-3.45,0.17-6.39,0.32-9.56,0.48
				C167.84,309.61,167.84,315.22,167.84,320.9z M209.41,308.61c1.11-0.11,1.95-0.2,3.03-0.31c0-1.23-0.02-2.32,0-3.4
				c0.32-16.82,0.65-33.65,0.95-50.47c0.05-2.67,0.01-5.33,0.01-7.9c-3.09-0.49-3.67,0.03-3.5,2.45c0.17,2.34,0.36,4.68,0.44,7.02
				c0.13,3.82,0.19,7.64,0.24,11.46c0.06,3.75-0.09,7.51,0.15,11.24c0.24,3.66-0.61,7.27-0.09,10.96c0.37,2.6-0.28,5.17-1.01,7.83
				C208.7,300.87,209.41,304.72,209.41,308.61z M184.5,221.9c-1.78-0.26-3.26-0.52-4.76-0.68c-3.04-0.32-6.15-1.13-9.1-0.73
				c-3.7,0.5-7.27,1.99-10.88,3.08c-0.31,0.09-0.58,0.33-0.88,0.5c0.25,0.28,0.45,0.77,0.75,0.82c4.37,0.85,8.72,1.99,13.13,2.35
				c3.49,0.29,7.06-0.37,10.6-0.64c0.4-0.03,0.78-0.31,1.14-0.47C184.5,224.67,184.5,223.29,184.5,221.9z M189.78,291.87
				c-5.12,0-9.95-0.05-14.77,0.02c-3.64,0.05-3.64,0.11-3.56,3.76c0.01,0.51,0.01,1.03-0.06,1.54c-0.15,1.15,0.36,1.62,1.49,1.59
				c5.61-0.15,11.22-0.3,16.9-0.45C189.78,296.01,189.78,293.99,189.78,291.87z M118.61,210.26c0.99,0.19,1.9,0.48,2.81,0.51
				c3.28,0.11,6.56,0.24,9.84,0.13c0.87-0.03,2.32-0.79,2.44-1.42c0.28-1.43,0.43-3.45-0.36-4.37c-0.85-0.99-2.85-1.39-4.33-1.35
				c-2.24,0.07-4.46,0.73-6.69,1.18c-4.26,0.86-4.26,0.87-3.75,5.25C118.58,210.26,118.64,210.31,118.61,210.26z M158.95,176.53
				c2.9-0.01,5.3-2.24,5.36-4.97c0.06-2.89-2.66-5.5-5.71-5.48c-2.87,0.02-5.21,2.32-5.21,5.11
				C153.39,174.05,155.99,176.54,158.95,176.53z M110.09,224.25c0.27,0.02,0.53,0.04,0.8,0.06c0.15-0.68,0.65-1.54,0.41-2.01
				c-1.54-2.96-0.6-6.12-0.16-8.91c0.88-5.71,0.21-11.21-0.55-16.77c-0.15-1.13-0.68-1.95-2.03-1.79c-2.83,0.34-5.65,0.69-8.53,1.04
				c0.37,0.91,0.71,1.53,0.89,2.2c0.98,3.76,1.44,4.07,5.3,3.36c0.51-0.09,1.01-0.21,1.51-0.33c1.77-0.43,2.46,0.03,2.42,2.08
				C110,210.19,110.09,217.22,110.09,224.25z M116.47,179.12c0.75-6.53,1.48-12.87,2.2-19.2c-3.15-0.18-3.16-0.18-3.77,2.74
				c-0.29,1.36-0.62,2.72-0.77,4.1c-0.46,4.18-0.84,8.37-1.25,12.43c0.58,0.2,0.65,0.25,0.72,0.24
				C114.55,179.33,115.49,179.23,116.47,179.12z M194.21,302.88c-3.57-0.31-3.57-0.29-3.43,2.68c0.07,1.46,0.05,2.93,0.05,4.4
				c0.01,3.42,0,6.84,0,10.2c3.27,0.46,3.36,0.38,3.37-2.52c0.01-1.47,0.01-2.93,0.01-4.4
				C194.21,309.82,194.21,306.39,194.21,302.88z M99.91,188.99c0.35,1.34,0.55,2.42,0.94,3.44c0.19,0.49,0.76,1.25,1.09,1.21
				c2.87-0.27,5.72-0.69,8.63-1.07c-0.21-1.29-0.46-2.07-0.44-2.85c0.05-1.74-0.83-2.15-2.35-1.91
				C105.12,188.23,102.46,188.61,99.91,188.99z M160.79,273.96c0.03,0,0.05,0,0.08,0c0-1.18,0-2.35,0-3.53
				c0-3.58-1.39-5.99-4.87-6.61c-3.03-0.54-6.27-0.37-9.34,0.05c-2.45,0.33-4.24,3.04-4.29,5.51c-0.06,2.86-0.06,5.73,0.02,8.59
				c0.1,3.6,2.16,6.08,5.67,6.48c2.31,0.27,4.72,0.24,7.02-0.08c3.67-0.51,5.62-2.98,5.7-6.67
				C160.81,276.45,160.79,275.21,160.79,273.96z M99.83,186.26c3.32,1.02,9.57-0.17,10.56-1.9c-1.05-0.16-2.04-0.32-3.25-0.5
				c1.11-0.29,2.01-0.53,2.91-0.77c-0.02-0.1-0.04-0.19-0.06-0.29c-3.48,0.5-6.96,1.01-10.44,1.51c0.02,0.17,0.05,0.35,0.07,0.52
				c0.92-0.1,1.83-0.19,3.26-0.35C101.66,185.19,100.93,185.61,99.83,186.26z M200.35,311.11c0.12,1.06,0.02,1.81,0.31,2.34
				c0.34,0.63,1.02,1.09,1.55,1.62c0.48-0.49,1.34-0.95,1.38-1.48c0.14-1.77,0.25-3.62-0.14-5.33c-0.3-1.33-1.56-1.35-2.22-0.11
				C200.7,309.15,200.56,310.34,200.35,311.11z M143.8,142.74c2.98-1.18,5.63-1.79,8.46-0.84c0.5,0.17,1.13-0.03,1.7-0.06
				c-0.39-0.52-0.66-1.29-1.18-1.53C150.12,139.11,146.09,140.18,143.8,142.74z M114.84,260.32c0-0.02,0-0.04,0-0.07
				c0.73,0,1.51,0.15,2.19-0.05c0.5-0.15,0.86-0.75,1.28-1.15c-0.4-0.32-0.77-0.83-1.22-0.92c-0.85-0.18-1.81-0.32-2.62-0.1
				c-0.92,0.25-1.72,0.92-2.58,1.41c0.84,0.31,1.67,0.62,2.51,0.91C114.53,260.38,114.69,260.32,114.84,260.32z M114.99,287.7
				c0.07-0.15,0.15-0.29,0.22-0.44c0.29,0,0.62,0.09,0.87-0.02c0.86-0.35,1.7-0.76,2.55-1.15c-0.82-0.39-1.63-0.8-2.46-1.16
				c-0.26-0.11-0.6-0.16-0.86-0.09c-1.1,0.3-3.01-0.9-3.02,1.26C112.29,286.64,114.04,287.18,114.99,287.7z M115.51,279.54
				c0-0.01,0-0.03,0-0.04c-0.65,0-1.34-0.13-1.95,0.04c-0.53,0.15-0.97,0.63-1.45,0.97c0.4,0.4,0.76,1.07,1.22,1.16
				c1.05,0.19,2.19,0.28,3.22,0.06c0.76-0.16,1.39-0.89,2.08-1.36c-0.75-0.26-1.49-0.54-2.25-0.77
				C116.11,279.52,115.8,279.56,115.51,279.54z M118.79,274.95c-0.16-0.2-0.32-0.4-0.48-0.6c-1.59-0.07-3.18-0.25-4.76-0.15
				c-0.51,0.03-0.98,0.77-1.46,1.19c0.46,0.32,0.91,0.87,1.39,0.91c1.22,0.1,2.49,0.11,3.69-0.11
				C117.76,276.08,118.25,275.39,118.79,274.95z M118.75,269.63c-0.11-0.24-0.23-0.48-0.34-0.72c-1.73,0-3.47-0.06-5.2,0.04
				c-0.43,0.03-0.83,0.57-1.24,0.87c0.39,0.42,0.75,1.18,1.17,1.21c1.38,0.1,2.79,0.06,4.15-0.17
				C117.83,270.77,118.26,270.05,118.75,269.63z M118.59,264.35c-0.11-0.17-0.22-0.34-0.33-0.51c-1.74-0.08-3.47-0.22-5.21-0.21
				c-0.36,0-0.72,0.54-1.08,0.83c0.33,0.39,0.63,1.09,1,1.13c1.38,0.15,2.79,0.2,4.16,0.03
				C117.66,265.55,118.1,264.79,118.59,264.35z M113.74,194.66c-0.12,0-0.24-0.01-0.36-0.01c0,6.76,0,13.52,0,20.28
				c0.12,0,0.24,0,0.36,0.01C113.74,208.17,113.74,201.41,113.74,194.66z M100.31,203.7c0.03,0.29,0.06,0.57,0.09,0.86
				c2.75-0.38,5.5-0.75,8.24-1.13c-0.06-0.34-0.12-0.69-0.17-1.03C105.75,202.83,103.03,203.26,100.31,203.7z M94.73,203.18
				c-0.63-1.06-1.1-1.86-1.56-2.66c-0.32,0.64-0.93,1.31-0.88,1.92c0.05,0.62,0.76,1.18,1.18,1.77
				C93.83,203.91,94.2,203.61,94.73,203.18z M108.78,181.47c-0.01-0.17-0.02-0.33-0.02-0.5c-3.18,0.51-6.36,1.03-9.54,1.54
				c0.03,0.21,0.07,0.41,0.1,0.62C102.47,182.58,105.63,182.03,108.78,181.47z M143.16,306.22c1.02-0.85,1.85-1.53,2.74-2.27
				C143.1,303.02,142.7,303.32,143.16,306.22z M79.9,309.84c0,0.13,0,0.26,0,0.39c3.74,0,7.49,0,11.23,0c0-0.13,0-0.26,0-0.39
				C87.39,309.84,83.64,309.84,79.9,309.84z M160.59,306.64c0.19-2.99-0.14-3.27-2.31-2.83
				C158.91,304.58,159.63,305.46,160.59,306.64z M157.26,321.17c0.07,0.14,0.15,0.28,0.22,0.42c0.83,0,1.65,0,2.53,0
				c0-0.82,0-1.48,0-2.38C158.95,319.96,158.11,320.56,157.26,321.17z"/>
		</g>
		<g>
			<path class="st3" d="M159.04,257.88c-0.97,0.53-1.94,1.06-2.91,1.59c-2.35,0.01-4.7,0.12-7.04,0.02
				c-3.67-0.15-5.71-2.04-6.06-5.7c-0.24-2.55-0.33-5.14-0.23-7.7c0.16-3.9,2.95-6.48,6.91-6.44c2.4,0.02,4.8,0.3,7.2,0.47
				c0,0-0.1-0.06-0.1-0.06c1.07,1.5,2.89,2.91,3.07,4.52C160.4,249,161.21,253.58,159.04,257.88z"/>
		</g>
		<g>
			<path class="st3" d="M100.26,254.11c0-6.67,0-13.33,0-20.11c1.42,0.92,1.79,3.91,1.15,5.96c-0.37,1.18-0.52,2.51-0.43,3.74
				c0.2,2.85,0.69,5.68,0.88,8.53c0.04,0.65-0.64,1.36-0.98,2.04C100.67,254.21,100.47,254.16,100.26,254.11z"/>
		</g>
		<g>
			<path class="st3" d="M92.54,276.23c0,2.72,0,5.44,0,8.16c-0.15,0-0.3,0.01-0.45,0.01c0-2.73,0-5.45,0-8.18
				C92.24,276.22,92.39,276.23,92.54,276.23z"/>
		</g>
		<g>
			<path class="st3" d="M129.84,161.72c-2.01,0.13-3.61,0.24-5.21,0.34c-0.01-0.11-0.02-0.22-0.02-0.33
				c1.49-0.19,2.98-0.35,4.46-0.56c1.27-0.18,1.8,0.35,1.59,1.59c-0.17,1.03-0.39,2.06-0.82,3.07
				C129.84,164.47,129.84,163.09,129.84,161.72z"/>
		</g>
		<g>
			<path class="st3" d="M129.66,170.09c0.08,1.8,0.16,3.59,0.25,5.66c-0.92-0.28-1.51-0.46-2.17-0.66c3.05-1.09,1.11-3.18,1.07-4.88
				C129.1,170.17,129.38,170.13,129.66,170.09z"/>
		</g>
		<g>
			<path class="st3" d="M181.46,170.92c-1.68,0.04-2.96-1.35-3.05-3.34c-0.09-1.94,1-3.32,2.66-3.36c1.69-0.04,3.21,1.48,3.23,3.2
				C184.32,169.46,183.17,170.87,181.46,170.92z"/>
		</g>
		<g>
			<path class="st3" d="M176.81,171.99c1.4,0.37,2.79,0.73,4.19,1.1c-0.04,0.23-0.08,0.47-0.11,0.7c-1.43-0.22-2.86-0.44-4.3-0.66
				C176.66,172.75,176.73,172.37,176.81,171.99z"/>
		</g>
		<g>
			<path class="st3" d="M143.06,274.15c0-1.25-0.03-2.5,0.01-3.75c0.12-3.61,2.46-6.06,6.06-6.28c1.69-0.1,3.38-0.15,5.07-0.12
				c3.08,0.06,6.14,2.76,6.19,5.76c0.05,3-0.13,6.02-0.47,9c-0.33,2.89-2.65,4.88-5.54,5.02c-1.91,0.1-3.83,0.1-5.73,0
				c-3.31-0.18-5.67-2.78-5.67-6.11c0-1.17,0-2.35,0-3.52C143,274.15,143.03,274.15,143.06,274.15z"/>
		</g>
	</g>
	<use xlink:href="#SVGID_1_"  style="overflow:visible;fill:none;stroke:#242424;stroke-width:10;stroke-miterlimit:10;"/>
</g>
<g>
	<path class="st4" d="M158.63,21.49v98.71c0,6.32,5.12,11.44,11.44,11.44h44.35l-23.44,66.38l92.63-66.38h64.22
		c6.32,0,11.44-5.12,11.44-11.44V21.49c0-6.32-5.12-11.44-11.44-11.44H170.07C163.76,10.05,158.63,15.17,158.63,21.49z"/>
	<circle class="st5" cx="219.96" cy="69.84" r="8.42"/>
	<circle class="st5" cx="262.53" cy="69.84" r="8.42"/>
	<circle class="st5" cx="305.1" cy="69.84" r="8.42"/>
</g>
</svg>
