<?xml version="1.0" encoding="utf-8"?>
<!-- Generator: Adobe Illustrator 25.0.0, SVG Export Plug-In . SVG Version: 6.00 Build 0)  -->
<svg version="1.1" id="Calque_1" xmlns="http://www.w3.org/2000/svg" xmlns:xlink="http://www.w3.org/1999/xlink" x="0px" y="0px"
	 viewBox="0 0 21.5 20.55" style="enable-background:new 0 0 21.5 20.55;" xml:space="preserve">
<style type="text/css">
	.st0{fill-rule:evenodd;clip-rule:evenodd;fill:#242424;}
</style>
<g>
	<g id="path28_1_">
		<path class="st0" d="M4.88,20.55V6.68H0.27v13.87H4.88z M2.58,4.79c1.61,0,2.61-1.06,2.61-2.4C5.15,1.04,4.18,0,2.61,0
			C1.03,0,0,1.04,0,2.4c0,1.33,1,2.4,2.55,2.4H2.58L2.58,4.79z"/>
	</g>
	<g id="path30_1_">
		<path class="st0" d="M7.43,20.55h4.61v-7.74c0-0.41,0.03-0.83,0.15-1.12c0.33-0.83,1.09-1.69,2.36-1.69
			c1.67,0,2.33,1.27,2.33,3.14v7.42h4.61V12.6c0-4.26-2.27-6.24-5.31-6.24c-2.49,0-3.58,1.39-4.18,2.34h0.03V6.68H7.43
			C7.49,7.98,7.43,20.55,7.43,20.55L7.43,20.55z"/>
	</g>
</g>
</svg>
