<?xml version="1.0" encoding="utf-8"?>
<!-- Generator: Adobe Illustrator 25.0.0, SVG Export Plug-In . SVG Version: 6.00 Build 0)  -->
<svg version="1.1" id="Calque_1" xmlns="http://www.w3.org/2000/svg" xmlns:xlink="http://www.w3.org/1999/xlink" x="0px" y="0px"
	 viewBox="0 0 20.54 24.27" style="enable-background:new 0 0 20.54 24.27;" xml:space="preserve">
<style type="text/css">
	.st0{fill:#242424;}
</style>
<g>
	<g>
		<path class="st0" d="M15.93,14.73l-0.08-0.58h-1.85v1.26c0,0.28-0.07,0.36-0.07,0.36c0,0-0.06,0.05-0.28,0.05H6.9
			c-0.74,0-1.33,0.22-1.74,0.65c-0.4,0.42-0.61,1.02-0.61,1.79c0,0.14,0.01,0.28,0.02,0.42c0.01,0.14,0.03,0.26,0.05,0.37l0.1,0.55
			h1.83v-1.26c0-0.23,0.04-0.34,0.06-0.36c0,0,0.07-0.05,0.29-0.05h1.11v4.41h1.8v-4.41h0.84v4.31l2.99,2.03l1.01-1.49l-2.2-1.49
			v-3.35h1.19c0.75,0,1.33-0.22,1.74-0.65c0.4-0.42,0.61-1.02,0.61-1.79c0-0.15-0.01-0.29-0.02-0.43
			C15.95,14.94,15.94,14.83,15.93,14.73z"/>
	</g>
	<g>
		<path class="st0" d="M17.81,1.28C16.86,0.45,15.6,0,14.27,0C11.8,0,9.79,1.77,9.79,3.94v8.56H6.72c-1.13,0-2.22-0.28-3.16-0.81
			c-1.63-0.92-2.6-2.46-2.6-4.12c0-2.16,1.2-4.22,3.21-5.51l1.34-0.87l-0.52-0.8L3.65,1.25C1.36,2.72,0,5.08,0,7.56
			c0,2.02,1.16,3.87,3.09,4.95c1.08,0.61,2.34,0.93,3.63,0.93h3.08v1.91h0.95v-1.91h3.3c1.23,0,2.43-0.3,3.46-0.88
			c1.9-1.05,3.03-2.85,3.03-4.81V7C20.54,4.87,19.55,2.78,17.81,1.28z M19.59,7.76c0,1.61-0.95,3.1-2.54,3.98
			c-0.9,0.5-1.94,0.76-3,0.76h-3.3V3.94c0-1.65,1.58-2.98,3.52-2.98c1.09,0,2.16,0.38,2.92,1.04c1.55,1.34,2.4,3.12,2.4,5.01V7.76z"
			/>
	</g>
</g>
</svg>
