<?xml version="1.0" encoding="utf-8"?>
<!-- Generator: Adobe Illustrator 25.0.0, SVG Export Plug-In . SVG Version: 6.00 Build 0)  -->
<svg version="1.1" id="Calque_1" xmlns="http://www.w3.org/2000/svg" xmlns:xlink="http://www.w3.org/1999/xlink" x="0px" y="0px"
	 viewBox="0 0 26.3 25.66" style="enable-background:new 0 0 26.3 25.66;" xml:space="preserve">
<style type="text/css">
	.st0{fill-rule:evenodd;clip-rule:evenodd;fill:#1D1D1C;}
</style>
<path class="st0" d="M13.15,0C5.89,0,0,5.89,0,13.15c0,5.81,3.77,10.74,9,12.48c0.66,0.12,0.9-0.29,0.9-0.63
	c0-0.31-0.01-1.14-0.02-2.24C6.22,23.56,5.44,21,5.44,21c-0.6-1.52-1.46-1.92-1.46-1.92c-1.19-0.82,0.09-0.8,0.09-0.8
	c1.32,0.09,2.01,1.36,2.01,1.36c1.17,2.01,3.08,1.43,3.83,1.09c0.12-0.85,0.46-1.43,0.84-1.76c-2.92-0.33-5.99-1.46-5.99-6.5
	c0-1.44,0.51-2.61,1.35-3.53C5.98,8.6,5.53,7.27,6.24,5.45c0,0,1.1-0.35,3.62,1.35c1.05-0.29,2.17-0.44,3.29-0.44
	c1.12,0.01,2.24,0.15,3.29,0.44c2.51-1.7,3.61-1.35,3.61-1.35c0.72,1.81,0.27,3.15,0.13,3.48c0.84,0.92,1.35,2.09,1.35,3.53
	c0,5.05-3.08,6.16-6.01,6.49c0.47,0.41,0.89,1.21,0.89,2.44c0,1.76-0.02,3.18-0.02,3.61c0,0.35,0.24,0.76,0.9,0.63
	c5.22-1.74,8.99-6.67,8.99-12.48C26.3,5.89,20.42,0,13.15,0z"/>
</svg>
