<?xml version="1.0" encoding="utf-8"?>
<!-- Generator: Adobe Illustrator 25.0.0, SVG Export Plug-In . SVG Version: 6.00 Build 0)  -->
<svg version="1.1" id="Calque_1" xmlns="http://www.w3.org/2000/svg" xmlns:xlink="http://www.w3.org/1999/xlink" x="0px" y="0px"
	 viewBox="0 0 21.77 25.84" style="enable-background:new 0 0 21.77 25.84;" xml:space="preserve">
<style type="text/css">
	.st0{fill-rule:evenodd;clip-rule:evenodd;fill:#1D1D1C;}
	.st1{fill:#1D1D1C;}
</style>
<g>
	<polygon class="st0" points="18.36,16.66 20.66,16.66 20.66,25.84 0,25.84 0,16.66 2.3,16.66 2.3,23.54 18.36,23.54 	"/>
	<path class="st1" d="M4.8,15.97l11.27,2.37l0.47-2.25L5.27,13.72L4.8,15.97z M6.29,10.57l10.44,4.86l0.97-2.09L7.26,8.49
		L6.29,10.57z M9.18,5.45l8.85,7.37l1.47-1.77l-8.85-7.37L9.18,5.45z M14.89,0l-1.85,1.38l6.88,9.24l1.85-1.38L14.89,0z M4.59,21.25
		h11.48v-2.3H4.59V21.25z"/>
</g>
</svg>
