<?xml version="1.0" encoding="utf-8"?>
<!-- Generator: Adobe Illustrator 25.0.0, SVG Export Plug-In . SVG Version: 6.00 Build 0)  -->
<svg version="1.1" id="Calque_1" xmlns="http://www.w3.org/2000/svg" xmlns:xlink="http://www.w3.org/1999/xlink" x="0px" y="0px"
	 viewBox="0 0 24.74 20.11" style="enable-background:new 0 0 24.74 20.11;" xml:space="preserve">
<style type="text/css">
	.st0{fill:#020203;}
</style>
<g>
	<path class="st0" d="M7.78,20.11c9.34,0,14.44-7.74,14.44-14.44c0-0.22,0-0.44-0.01-0.66c0.99-0.72,1.85-1.61,2.53-2.63
		c-0.91,0.4-1.89,0.68-2.92,0.8c1.05-0.63,1.85-1.62,2.23-2.81c-0.98,0.58-2.07,1-3.22,1.23C19.91,0.62,18.59,0,17.13,0
		c-2.8,0-5.08,2.27-5.08,5.08c0,0.4,0.04,0.79,0.13,1.16C7.97,6.02,4.23,4,1.72,0.93C1.29,1.68,1.03,2.55,1.03,3.48
		c0,1.76,0.9,3.32,2.26,4.23c-0.83-0.03-1.61-0.25-2.3-0.63c0,0.02,0,0.04,0,0.06c0,2.46,1.75,4.51,4.07,4.98
		c-0.43,0.12-0.87,0.18-1.34,0.18c-0.33,0-0.65-0.03-0.95-0.09c0.65,2.02,2.52,3.48,4.74,3.53c-1.74,1.36-3.93,2.17-6.3,2.17
		C0.8,17.9,0.4,17.87,0,17.83C2.25,19.27,4.91,20.11,7.78,20.11"/>
</g>
</svg>
