<?xml version="1.0" encoding="utf-8"?>
<!-- Generator: Adobe Illustrator 25.0.0, SVG Export Plug-In . SVG Version: 6.00 Build 0)  -->
<svg version="1.1" id="Calque_1" xmlns="http://www.w3.org/2000/svg" xmlns:xlink="http://www.w3.org/1999/xlink" x="0px" y="0px"
	 viewBox="0 0 260 80" style="enable-background:new 0 0 260 80;" xml:space="preserve">
<style type="text/css">
	.st0{fill:#FFFFFF;}
	.st1{fill:#ED6B2A;}
</style>
<g>
	<path class="st0" d="M12.86,43.84c-4.96-1.39-7.43-4.59-7.43-9.6v-4.09c0-2.78-1.12-4.17-3.34-4.17v-4.69
		c2.23,0,3.34-1.4,3.34-4.19v-4.34c0.04-2.48,0.68-4.48,1.93-6.01c1.25-1.53,3.08-2.64,5.5-3.32l1.3,3.63
		c-1.73,0.66-2.64,2.51-2.7,5.55v4.48c0,3.08-1.27,5.26-3.82,6.52c2.55,1.27,3.82,3.45,3.82,6.55v4.46c0.07,3.04,0.97,4.89,2.7,5.55
		L12.86,43.84z"/>
	<path class="st0" d="M37.67,25.4c0,3.47-0.78,6.24-2.34,8.31c-1.56,2.07-3.67,3.11-6.33,3.11c-2.05,0-3.74-0.75-5.06-2.25v10.43
		h-6.96V14.06h6.5l0.21,2.06c1.33-1.65,3.09-2.48,5.26-2.48c2.75,0,4.89,1.02,6.42,3.05c1.53,2.03,2.29,4.82,2.29,8.37V25.4z
		 M30.72,24.96c0-3.96-1.16-5.95-3.47-5.95c-1.65,0-2.75,0.59-3.3,1.78v8.8c0.61,1.24,1.72,1.86,3.34,1.86
		c2.22,0,3.36-1.91,3.43-5.74V24.96z"/>
	<path class="st1" d="M65.67,32.69c-1.12,1.24-2.75,2.24-4.89,2.99c-2.15,0.76-4.5,1.14-7.06,1.14c-3.94,0-7.08-1.2-9.44-3.61
		c-2.35-2.41-3.61-5.76-3.78-10.05l-0.02-2.6c0-2.96,0.52-5.54,1.57-7.75c1.05-2.21,2.54-3.91,4.49-5.1
		c1.95-1.19,4.2-1.79,6.76-1.79c3.74,0,6.65,0.86,8.72,2.57c2.07,1.71,3.28,4.27,3.62,7.67h-6.98c-0.25-1.68-0.78-2.88-1.61-3.59
		c-0.83-0.72-2-1.07-3.51-1.07c-1.82,0-3.22,0.77-4.21,2.31c-0.99,1.54-1.49,3.74-1.51,6.61v1.82c0,3,0.51,5.25,1.54,6.76
		c1.03,1.51,2.64,2.26,4.84,2.26c1.89,0,3.29-0.42,4.21-1.26v-4.67h-5.04v-4.98h12.29V32.69z"/>
	<path class="st0" d="M68.46,40.18c1.73-0.66,2.64-2.51,2.71-5.55v-4.48c0-3.1,1.28-5.27,3.84-6.52c-2.56-1.25-3.84-3.43-3.84-6.52
		v-4.48c-0.07-3.04-0.97-4.89-2.71-5.55l1.3-3.63c2.46,0.69,4.32,1.81,5.55,3.38c1.24,1.56,1.87,3.61,1.88,6.14v4.15
		c0,2.79,1.12,4.19,3.34,4.19v4.69c-2.23,0-3.34,1.38-3.34,4.15v4.4c-0.1,4.84-2.57,7.95-7.43,9.31L68.46,40.18z"/>
	<path class="st0" d="M94.87,23.77l-11.23-3.82v-6.32l18.15,7.43v5.49l-18.15,7.43v-6.32L94.87,23.77z"/>
	<path class="st0" d="M125.71,25.42c0,3.66-0.76,6.48-2.27,8.44c-1.51,1.97-3.65,2.95-6.4,2.95c-2.27,0-4.1-0.9-5.49-2.7l-0.29,2.29
		h-6.24V4.69h6.96v11.17c1.29-1.47,2.97-2.21,5.02-2.21c2.78,0,4.93,1,6.44,2.99c1.51,2,2.27,4.8,2.27,8.42V25.42z M118.73,24.98
		c0-2.14-0.29-3.67-0.86-4.59c-0.57-0.91-1.45-1.37-2.63-1.37c-1.57,0-2.66,0.6-3.26,1.79v8.86c0.59,1.18,1.69,1.77,3.3,1.77
		c1.64,0,2.68-0.8,3.12-2.39C118.62,28.27,118.73,26.91,118.73,24.98z"/>
	<path class="st0" d="M136.12,36.4h-6.98V4.69h6.98V36.4z"/>
	<path class="st0" d="M139.53,25.03c0-2.23,0.43-4.22,1.3-5.96c0.87-1.74,2.11-3.08,3.74-4.02c1.62-0.94,3.53-1.4,5.72-1.4
		c3.35,0,5.98,1.04,7.91,3.11c1.93,2.07,2.89,4.89,2.89,8.45v0.25c0,3.48-0.97,6.25-2.9,8.29c-1.93,2.04-4.55,3.07-7.86,3.07
		c-3.18,0-5.73-0.95-7.66-2.86c-1.93-1.91-2.97-4.49-3.12-7.75L139.53,25.03z M146.48,25.46c0,2.06,0.32,3.58,0.97,4.54
		c0.65,0.96,1.6,1.45,2.87,1.45c2.48,0,3.74-1.91,3.8-5.72v-0.7c0-4.01-1.28-6.01-3.84-6.01c-2.33,0-3.59,1.73-3.78,5.18
		L146.48,25.46z"/>
	<path class="st0" d="M163.33,25.07c0-2.26,0.37-4.25,1.12-5.99c0.74-1.73,1.81-3.07,3.2-4.02c1.39-0.94,3.01-1.41,4.85-1.41
		c2.33,0,4.14,0.78,5.45,2.35l0.25-1.94h6.32v21.49c0,1.97-0.46,3.68-1.37,5.13c-0.92,1.45-2.24,2.57-3.97,3.34
		c-1.73,0.78-3.74,1.17-6.03,1.17c-1.64,0-3.22-0.31-4.76-0.93c-1.54-0.62-2.71-1.42-3.52-2.42l2.91-4.09
		c1.29,1.53,3,2.29,5.12,2.29c3.08,0,4.63-1.58,4.63-4.75v-0.7c-1.34,1.47-3.02,2.21-5.06,2.21c-2.73,0-4.93-1.04-6.61-3.13
		c-1.68-2.09-2.52-4.88-2.52-8.37V25.07z M170.31,25.5c0,1.83,0.34,3.28,1.03,4.35c0.69,1.07,1.65,1.6,2.89,1.6
		c1.5,0,2.59-0.5,3.28-1.51v-9.39c-0.67-1.02-1.76-1.53-3.24-1.53c-1.24,0-2.21,0.55-2.91,1.66
		C170.66,21.79,170.31,23.4,170.31,25.5z"/>
</g>
<g>
	<path class="st0" d="M4.37,72.72V52.01h0.87v20.71H4.37z"/>
	<path class="st0" d="M14.76,72.95c-1.26,0-2.33-0.24-3.22-0.72s-1.57-1.25-2.03-2.3c-0.47-1.05-0.7-2.43-0.7-4.13
		c0-1.68,0.22-3.05,0.65-4.09c0.43-1.05,1.03-1.81,1.79-2.3c0.76-0.49,1.66-0.73,2.67-0.73c1.03,0,1.91,0.24,2.65,0.73
		c0.74,0.49,1.31,1.25,1.7,2.3c0.4,1.05,0.6,2.41,0.6,4.09v0.38H9.23v-0.85h9.07l-0.35,0.33c0-1.51-0.16-2.72-0.48-3.62
		c-0.32-0.9-0.78-1.55-1.38-1.94c-0.6-0.39-1.33-0.59-2.17-0.59c-0.85,0-1.58,0.2-2.21,0.59c-0.63,0.39-1.11,1.04-1.46,1.94
		c-0.35,0.9-0.52,2.11-0.52,3.63v0.19c0,1.52,0.2,2.74,0.6,3.65c0.4,0.91,0.97,1.57,1.73,1.98c0.76,0.41,1.67,0.61,2.75,0.61
		c0.52,0,1.06-0.05,1.61-0.16c0.55-0.11,1.16-0.26,1.81-0.47v0.87c-0.62,0.21-1.22,0.36-1.78,0.46
		C15.88,72.91,15.32,72.95,14.76,72.95z"/>
	<path class="st0" d="M25.06,72.95c-0.63,0-1.23-0.04-1.8-0.13c-0.57-0.09-1.13-0.22-1.69-0.4v-0.87c0.68,0.21,1.3,0.35,1.85,0.43
		c0.55,0.08,1.11,0.12,1.67,0.12c1.37,0,2.37-0.25,3.01-0.76c0.64-0.51,0.96-1.22,0.96-2.13c0-0.8-0.2-1.42-0.61-1.85
		c-0.41-0.43-1.09-0.74-2.04-0.95l-1.65-0.36c-1.24-0.29-2.11-0.74-2.63-1.35c-0.51-0.61-0.77-1.37-0.77-2.28
		c0-1.08,0.4-1.97,1.2-2.69c0.8-0.71,2.03-1.07,3.68-1.07c0.55,0,1.06,0.03,1.55,0.09c0.49,0.06,0.97,0.16,1.46,0.3v0.87
		c-0.56-0.16-1.08-0.27-1.54-0.33c-0.46-0.06-0.95-0.08-1.47-0.08c-0.95,0-1.71,0.13-2.29,0.38s-1.01,0.59-1.28,1.03
		c-0.27,0.43-0.4,0.92-0.4,1.47c0,0.69,0.19,1.27,0.56,1.73c0.38,0.46,1.04,0.8,1.99,1.01l1.65,0.36c1.31,0.29,2.22,0.73,2.73,1.33
		c0.51,0.6,0.77,1.37,0.77,2.31c0,1.17-0.41,2.1-1.23,2.79C27.93,72.61,26.7,72.95,25.06,72.95z"/>
	<path class="st0" d="M36.03,72.95c-0.63,0-1.23-0.04-1.8-0.13c-0.57-0.09-1.13-0.22-1.69-0.4v-0.87c0.68,0.21,1.3,0.35,1.85,0.43
		c0.55,0.08,1.11,0.12,1.67,0.12c1.37,0,2.37-0.25,3.01-0.76c0.64-0.51,0.96-1.22,0.96-2.13c0-0.8-0.2-1.42-0.61-1.85
		c-0.41-0.43-1.09-0.74-2.04-0.95l-1.65-0.36c-1.24-0.29-2.11-0.74-2.63-1.35c-0.51-0.61-0.77-1.37-0.77-2.28
		c0-1.08,0.4-1.97,1.2-2.69c0.8-0.71,2.03-1.07,3.68-1.07c0.55,0,1.06,0.03,1.55,0.09c0.49,0.06,0.97,0.16,1.46,0.3v0.87
		c-0.56-0.16-1.08-0.27-1.54-0.33c-0.46-0.06-0.95-0.08-1.47-0.08c-0.95,0-1.71,0.13-2.29,0.38s-1.01,0.59-1.28,1.03
		s-0.4,0.92-0.4,1.47c0,0.69,0.19,1.27,0.56,1.73c0.38,0.46,1.04,0.8,1.99,1.01l1.65,0.36c1.31,0.29,2.22,0.73,2.73,1.33
		c0.51,0.6,0.77,1.37,0.77,2.31c0,1.17-0.41,2.1-1.23,2.79C38.9,72.61,37.67,72.95,36.03,72.95z"/>
	<path class="st0" d="M55.04,72.95c-1.17,0-2.17-0.24-2.99-0.72c-0.82-0.48-1.45-1.25-1.88-2.3c-0.43-1.05-0.65-2.43-0.65-4.13
		c0-1.7,0.23-3.07,0.7-4.12c0.47-1.05,1.15-1.81,2.06-2.29c0.91-0.48,2.02-0.72,3.33-0.72c0.44,0,0.89,0.03,1.36,0.09
		c0.47,0.06,0.91,0.15,1.33,0.28v0.87c-0.45-0.14-0.91-0.24-1.36-0.3c-0.45-0.06-0.89-0.1-1.31-0.1c-1.15,0-2.11,0.2-2.88,0.59
		c-0.77,0.39-1.35,1.04-1.73,1.95c-0.38,0.91-0.58,2.14-0.58,3.68c0,1.56,0.18,2.81,0.53,3.74s0.88,1.6,1.58,2.01
		c0.7,0.41,1.55,0.61,2.57,0.61c0.45,0,0.94-0.05,1.46-0.15c0.52-0.1,1.09-0.26,1.72-0.48v0.87c-0.56,0.21-1.1,0.36-1.65,0.46
		C56.12,72.91,55.58,72.95,55.04,72.95z"/>
	<path class="st0" d="M65.36,72.95c-1.08,0-2.02-0.24-2.83-0.72c-0.81-0.48-1.44-1.24-1.89-2.29s-0.68-2.43-0.68-4.14
		c0-1.7,0.23-3.07,0.68-4.12c0.45-1.05,1.08-1.81,1.89-2.29s1.75-0.72,2.83-0.72c1.08,0,2.02,0.24,2.83,0.71
		c0.81,0.47,1.44,1.23,1.89,2.28c0.45,1.04,0.67,2.42,0.67,4.14c0,1.69-0.22,3.06-0.67,4.11c-0.45,1.05-1.08,1.82-1.89,2.31
		C67.38,72.71,66.43,72.95,65.36,72.95z M65.36,72.11c0.91,0,1.69-0.2,2.36-0.59c0.67-0.39,1.19-1.05,1.56-1.97
		c0.37-0.92,0.55-2.15,0.55-3.71c0-1.59-0.18-2.84-0.55-3.76c-0.37-0.92-0.89-1.57-1.56-1.97c-0.67-0.39-1.46-0.59-2.36-0.59
		c-0.91,0-1.69,0.19-2.36,0.58c-0.67,0.39-1.19,1.04-1.56,1.95s-0.55,2.15-0.55,3.71c0,1.58,0.18,2.84,0.55,3.76
		c0.37,0.93,0.89,1.59,1.56,1.99C63.66,71.91,64.45,72.11,65.36,72.11z"/>
	<path class="st0" d="M78.84,72.95c-1,0-1.9-0.22-2.7-0.67c-0.8-0.44-1.44-1.17-1.91-2.17c-0.47-1-0.71-2.35-0.71-4.03
		c0-1.7,0.25-3.1,0.76-4.19c0.51-1.09,1.26-1.9,2.24-2.43c0.99-0.53,2.2-0.79,3.65-0.79c0.46,0,0.92,0.02,1.38,0.06
		c0.46,0.04,0.88,0.1,1.26,0.17v-6.9h0.87v20.71h-0.77l-0.08-1.53h-0.1c-0.42,0.5-0.96,0.92-1.63,1.26
		C80.43,72.79,79.68,72.95,78.84,72.95z M78.88,72.11c0.74,0,1.47-0.17,2.17-0.52c0.71-0.35,1.29-0.9,1.76-1.65V59.82
		c-0.36-0.09-0.78-0.17-1.26-0.22c-0.48-0.05-0.95-0.08-1.42-0.08c-1.87,0-3.29,0.5-4.25,1.51c-0.96,1.01-1.44,2.66-1.44,4.95
		c0,1.57,0.19,2.8,0.57,3.69c0.38,0.89,0.9,1.52,1.57,1.88C77.25,71.93,78.01,72.11,78.88,72.11z"/>
	<path class="st0" d="M93.19,72.95c-1.26,0-2.33-0.24-3.22-0.72s-1.57-1.25-2.03-2.3c-0.47-1.05-0.7-2.43-0.7-4.13
		c0-1.68,0.22-3.05,0.65-4.09c0.43-1.05,1.03-1.81,1.79-2.3c0.76-0.49,1.66-0.73,2.67-0.73c1.03,0,1.91,0.24,2.65,0.73
		c0.74,0.49,1.31,1.25,1.7,2.3c0.4,1.05,0.6,2.41,0.6,4.09v0.38h-9.64v-0.85h9.07l-0.35,0.33c0-1.51-0.16-2.72-0.48-3.62
		c-0.32-0.9-0.78-1.55-1.38-1.94c-0.6-0.39-1.33-0.59-2.17-0.59c-0.85,0-1.58,0.2-2.21,0.59c-0.63,0.39-1.11,1.04-1.46,1.94
		s-0.52,2.11-0.52,3.63v0.19c0,1.52,0.2,2.74,0.6,3.65c0.4,0.91,0.97,1.57,1.73,1.98c0.76,0.41,1.67,0.61,2.75,0.61
		c0.52,0,1.06-0.05,1.61-0.16c0.55-0.11,1.16-0.26,1.81-0.47v0.87c-0.62,0.21-1.22,0.36-1.78,0.46
		C94.32,72.91,93.76,72.95,93.19,72.95z"/>
	<path class="st0" d="M100.43,76.57c0.23-0.74,0.41-1.42,0.54-2.06c0.13-0.64,0.2-1.29,0.2-1.94l0.05,0.28h-0.15
		c-0.23,0-0.42-0.08-0.57-0.23c-0.15-0.15-0.22-0.35-0.22-0.59c0-0.23,0.07-0.42,0.21-0.57c0.14-0.15,0.33-0.22,0.56-0.22
		c0.25,0,0.45,0.08,0.6,0.25c0.15,0.17,0.22,0.44,0.22,0.83c0,0.79-0.08,1.55-0.25,2.27c-0.17,0.72-0.37,1.38-0.62,1.99H100.43z"/>
	<path class="st0" d="M112.02,72.72V58.88h0.77l0.08,1.67h0.1c0.56-0.63,1.19-1.1,1.89-1.41c0.71-0.31,1.43-0.46,2.18-0.46
		c0.74,0,1.4,0.15,1.98,0.44c0.58,0.29,1.03,0.77,1.35,1.44c0.32,0.67,0.49,1.57,0.49,2.7v9.47h-0.87v-9.46
		c0-1.41-0.28-2.39-0.84-2.93c-0.56-0.54-1.29-0.81-2.2-0.81c-0.44,0-0.9,0.08-1.39,0.23c-0.49,0.15-0.97,0.4-1.43,0.74
		s-0.88,0.8-1.24,1.37v10.86H112.02z M127.89,72.72v-9.46c0-1.41-0.29-2.39-0.87-2.93c-0.58-0.54-1.32-0.81-2.23-0.81
		c-0.44,0-0.92,0.08-1.44,0.24c-0.53,0.16-1.04,0.44-1.54,0.84c-0.5,0.4-0.94,0.95-1.31,1.65l-0.33-1.08
		c0.7-0.95,1.47-1.6,2.31-1.96c0.84-0.36,1.63-0.54,2.37-0.54c0.75,0,1.42,0.15,2.02,0.44c0.59,0.29,1.06,0.77,1.4,1.44
		c0.34,0.67,0.51,1.57,0.51,2.7v9.47H127.89z"/>
	<path class="st0" d="M137.54,72.95c-1.08,0-2.02-0.24-2.83-0.72c-0.81-0.48-1.44-1.24-1.89-2.29c-0.45-1.05-0.68-2.43-0.68-4.14
		c0-1.7,0.23-3.07,0.68-4.12c0.45-1.05,1.08-1.81,1.89-2.29c0.81-0.48,1.75-0.72,2.83-0.72s2.02,0.24,2.83,0.71
		c0.81,0.47,1.44,1.23,1.89,2.28c0.45,1.04,0.67,2.42,0.67,4.14c0,1.69-0.22,3.06-0.67,4.11c-0.45,1.05-1.08,1.82-1.89,2.31
		C139.56,72.71,138.61,72.95,137.54,72.95z M137.54,72.11c0.91,0,1.69-0.2,2.36-0.59c0.67-0.39,1.19-1.05,1.56-1.97
		c0.37-0.92,0.55-2.15,0.55-3.71c0-1.59-0.18-2.84-0.55-3.76c-0.37-0.92-0.89-1.57-1.56-1.97c-0.67-0.39-1.46-0.59-2.36-0.59
		c-0.91,0-1.69,0.19-2.36,0.58c-0.67,0.39-1.19,1.04-1.56,1.95c-0.37,0.91-0.55,2.15-0.55,3.71c0,1.58,0.18,2.84,0.55,3.76
		c0.37,0.93,0.89,1.59,1.56,1.99C135.84,71.91,136.63,72.11,137.54,72.11z"/>
	<path class="st0" d="M146.5,72.72V58.88h0.77l0.08,1.88h0.1c0.52-0.64,1.17-1.13,1.94-1.47c0.77-0.34,1.54-0.51,2.32-0.51
		c0.21,0,0.4,0.01,0.57,0.02c0.17,0.01,0.33,0.04,0.51,0.07v0.87c-0.18-0.03-0.35-0.05-0.52-0.06c-0.17,0-0.36-0.01-0.57-0.01
		c-0.49,0-1,0.08-1.53,0.25c-0.53,0.17-1.04,0.42-1.53,0.77c-0.49,0.35-0.91,0.78-1.26,1.31v10.71H146.5z"/>
	<path class="st0" d="M159.81,72.95c-1.26,0-2.33-0.24-3.22-0.72c-0.89-0.48-1.57-1.25-2.03-2.3c-0.47-1.05-0.7-2.43-0.7-4.13
		c0-1.68,0.22-3.05,0.65-4.09c0.43-1.05,1.03-1.81,1.79-2.3c0.76-0.49,1.66-0.73,2.67-0.73c1.03,0,1.91,0.24,2.65,0.73
		c0.74,0.49,1.31,1.25,1.7,2.3c0.4,1.05,0.6,2.41,0.6,4.09v0.38h-9.64v-0.85h9.07l-0.35,0.33c0-1.51-0.16-2.72-0.48-3.62
		c-0.32-0.9-0.78-1.55-1.38-1.94c-0.6-0.39-1.33-0.59-2.17-0.59c-0.85,0-1.58,0.2-2.21,0.59c-0.63,0.39-1.11,1.04-1.46,1.94
		c-0.35,0.9-0.52,2.11-0.52,3.63v0.19c0,1.52,0.2,2.74,0.6,3.65c0.4,0.91,0.97,1.57,1.73,1.98c0.76,0.41,1.67,0.61,2.75,0.61
		c0.52,0,1.06-0.05,1.61-0.16c0.55-0.11,1.16-0.26,1.81-0.47v0.87c-0.62,0.21-1.22,0.36-1.78,0.46S160.38,72.95,159.81,72.95z"/>
	<path class="st0" d="M171.45,59.7v-0.82h8.45v0.82H171.45z M174.27,72.72V56.15c0-0.99,0.16-1.81,0.49-2.46
		c0.33-0.65,0.81-1.13,1.45-1.45c0.64-0.32,1.44-0.48,2.4-0.48c0.28,0,0.58,0.01,0.9,0.04c0.32,0.03,0.61,0.06,0.9,0.12v0.87
		c-0.3-0.06-0.6-0.1-0.91-0.13c-0.31-0.03-0.62-0.04-0.94-0.04c-1.13,0-1.98,0.26-2.55,0.79c-0.57,0.53-0.86,1.43-0.86,2.72v16.61
		H174.27z"/>
	<path class="st0" d="M186.83,72.95c-1.26,0-2.33-0.24-3.22-0.72c-0.89-0.48-1.57-1.25-2.03-2.3c-0.47-1.05-0.7-2.43-0.7-4.13
		c0-1.68,0.22-3.05,0.65-4.09c0.43-1.05,1.03-1.81,1.79-2.3c0.76-0.49,1.66-0.73,2.67-0.73c1.03,0,1.91,0.24,2.65,0.73
		c0.74,0.49,1.31,1.25,1.7,2.3c0.4,1.05,0.6,2.41,0.6,4.09v0.38h-9.64v-0.85h9.07l-0.35,0.33c0-1.51-0.16-2.72-0.48-3.62
		c-0.32-0.9-0.78-1.55-1.38-1.94c-0.6-0.39-1.33-0.59-2.17-0.59c-0.85,0-1.58,0.2-2.21,0.59c-0.63,0.39-1.11,1.04-1.46,1.94
		c-0.35,0.9-0.52,2.11-0.52,3.63v0.19c0,1.52,0.2,2.74,0.6,3.65c0.4,0.91,0.97,1.57,1.73,1.98c0.76,0.41,1.67,0.61,2.75,0.61
		c0.52,0,1.06-0.05,1.61-0.16c0.55-0.11,1.16-0.26,1.81-0.47v0.87c-0.62,0.21-1.22,0.36-1.78,0.46
		C187.96,72.91,187.39,72.95,186.83,72.95z"/>
	<path class="st0" d="M197.36,72.93c-1.23,0-2.21-0.32-2.94-0.95c-0.73-0.63-1.09-1.53-1.09-2.68c0-1.15,0.37-2.05,1.1-2.7
		c0.73-0.64,1.9-1.06,3.5-1.24l4.19-0.5l0.04,0.85l-4.26,0.5c-1.28,0.15-2.21,0.46-2.77,0.95c-0.57,0.49-0.85,1.18-0.85,2.06
		c0,0.93,0.26,1.64,0.78,2.13c0.52,0.49,1.3,0.73,2.33,0.73c0.75,0,1.5-0.17,2.24-0.51c0.74-0.34,1.41-0.89,1.99-1.67v-6.74
		c0-0.97-0.15-1.71-0.45-2.24c-0.3-0.53-0.73-0.89-1.3-1.1c-0.57-0.21-1.26-0.31-2.07-0.31c-0.52,0-1.1,0.05-1.75,0.15
		c-0.64,0.1-1.3,0.27-1.98,0.51v-0.87c0.54-0.2,1.14-0.36,1.81-0.47c0.67-0.11,1.31-0.16,1.92-0.16c0.99,0,1.84,0.14,2.54,0.41
		c0.7,0.27,1.23,0.74,1.6,1.39c0.37,0.65,0.55,1.55,0.55,2.69v9.56h-0.77l-0.08-1.64h-0.1c-0.47,0.57-1.07,1.02-1.81,1.35
		C199.01,72.76,198.22,72.93,197.36,72.93z"/>
	<path class="st0" d="M204.59,59.7v-0.82h8.45v0.82H204.59z M211.45,72.95c-1.26,0-2.24-0.33-2.96-0.99
		c-0.72-0.66-1.08-1.73-1.08-3.21v-9.87l0.1-5.13h0.77V68.6c0,1.28,0.28,2.19,0.83,2.72c0.55,0.53,1.35,0.79,2.39,0.79
		c0.28,0,0.57-0.02,0.86-0.06c0.29-0.04,0.61-0.1,0.96-0.18v0.87c-0.33,0.08-0.65,0.13-0.95,0.17
		C212.07,72.94,211.76,72.95,211.45,72.95z"/>
	<path class="st0" d="M219.62,72.95c-0.82,0-1.55-0.15-2.18-0.44c-0.64-0.29-1.14-0.77-1.5-1.44c-0.36-0.67-0.54-1.57-0.54-2.7v-9.5
		h0.87v9.51c0,1.38,0.32,2.35,0.95,2.9c0.63,0.55,1.44,0.82,2.43,0.82c0.49,0,1-0.07,1.55-0.22c0.55-0.15,1.08-0.39,1.59-0.72
		c0.51-0.33,0.97-0.77,1.36-1.32V58.88h0.87v13.84h-0.77l-0.08-1.59h-0.1c-0.6,0.61-1.28,1.06-2.06,1.36
		C221.24,72.8,220.45,72.95,219.62,72.95z"/>
	<path class="st0" d="M229.38,72.72V58.88h0.77l0.08,1.88h0.1c0.52-0.64,1.17-1.13,1.94-1.47c0.77-0.34,1.54-0.51,2.32-0.51
		c0.21,0,0.4,0.01,0.57,0.02c0.17,0.01,0.33,0.04,0.51,0.07v0.87c-0.18-0.03-0.35-0.05-0.52-0.06c-0.17,0-0.36-0.01-0.57-0.01
		c-0.49,0-1,0.08-1.53,0.25c-0.53,0.17-1.04,0.42-1.53,0.77c-0.49,0.35-0.91,0.78-1.26,1.31v10.71H229.38z"/>
	<path class="st0" d="M242.69,72.95c-1.26,0-2.33-0.24-3.22-0.72s-1.57-1.25-2.03-2.3c-0.47-1.05-0.7-2.43-0.7-4.13
		c0-1.68,0.22-3.05,0.65-4.09c0.43-1.05,1.03-1.81,1.79-2.3c0.76-0.49,1.66-0.73,2.67-0.73c1.03,0,1.91,0.24,2.65,0.73
		c0.74,0.49,1.31,1.25,1.7,2.3c0.4,1.05,0.6,2.41,0.6,4.09v0.38h-9.64v-0.85h9.07l-0.35,0.33c0-1.51-0.16-2.72-0.48-3.62
		c-0.32-0.9-0.78-1.55-1.38-1.94c-0.6-0.39-1.33-0.59-2.17-0.59c-0.85,0-1.58,0.2-2.21,0.59c-0.63,0.39-1.11,1.04-1.46,1.94
		c-0.35,0.9-0.52,2.11-0.52,3.63v0.19c0,1.52,0.2,2.74,0.6,3.65c0.4,0.91,0.97,1.57,1.73,1.98c0.76,0.41,1.67,0.61,2.75,0.61
		c0.52,0,1.06-0.05,1.61-0.16c0.55-0.11,1.16-0.26,1.81-0.47v0.87c-0.62,0.21-1.22,0.36-1.78,0.46
		C243.82,72.91,243.26,72.95,242.69,72.95z"/>
	<path class="st0" d="M253,72.95c-0.63,0-1.23-0.04-1.8-0.13c-0.57-0.09-1.13-0.22-1.69-0.4v-0.87c0.68,0.21,1.3,0.35,1.85,0.43
		c0.55,0.08,1.11,0.12,1.67,0.12c1.37,0,2.37-0.25,3.01-0.76c0.64-0.51,0.96-1.22,0.96-2.13c0-0.8-0.2-1.42-0.61-1.85
		c-0.41-0.43-1.09-0.74-2.04-0.95l-1.65-0.36c-1.24-0.29-2.11-0.74-2.63-1.35c-0.51-0.61-0.77-1.37-0.77-2.28
		c0-1.08,0.4-1.97,1.2-2.69c0.8-0.71,2.03-1.07,3.68-1.07c0.55,0,1.06,0.03,1.55,0.09c0.49,0.06,0.97,0.16,1.46,0.3v0.87
		c-0.56-0.16-1.08-0.27-1.54-0.33c-0.46-0.06-0.95-0.08-1.47-0.08c-0.95,0-1.71,0.13-2.29,0.38s-1.01,0.59-1.28,1.03
		c-0.27,0.43-0.4,0.92-0.4,1.47c0,0.69,0.19,1.27,0.56,1.73c0.38,0.46,1.04,0.8,1.99,1.01l1.65,0.36c1.31,0.29,2.22,0.73,2.73,1.33
		c0.51,0.6,0.77,1.37,0.77,2.31c0,1.17-0.41,2.1-1.23,2.79C255.87,72.61,254.64,72.95,253,72.95z"/>
</g>
</svg>
